<?xml version="1.0" encoding="utf-8"?>
<!-- Generator: Adobe Illustrator 26.1.0, SVG Export Plug-In . SVG Version: 6.00 Build 0)  -->
<svg version="1.1" id="Layer_1" xmlns="http://www.w3.org/2000/svg" xmlns:xlink="http://www.w3.org/1999/xlink" x="0px" y="0px"
	 viewBox="0 0 500 64" style="enable-background:new 0 0 500 64;" xml:space="preserve">
<style type="text/css">
	.st0{fill:#FF6600;}
	.st1{fill:#1A3A6D;}
</style>
<g>
	<g>
		<path class="st0" d="M14.63,38.17h10.82V25.82H1.65C1.23,27.82,1,29.88,1,32.01c0,2.11,0.22,4.17,0.65,6.18v0.04
			c2.83,13.45,14.86,23.51,29.14,23.53V49.36C23.41,49.33,17.11,44.69,14.63,38.17z"/>
		<path class="st1" d="M30.85,2.25c-14.3,0-26.24,10.09-29.09,23.55h7.33h5.54c2.49-6.52,8.81-11.16,16.22-11.16
			s13.74,4.64,16.22,11.2H31.88c-0.02,0.04-0.02,0.07-0.04,0.11v12.12c0.02,0.04,0.02,0.07,0.04,0.11h15.19h11.23h1.64
			c0.42-1.99,0.65-4.04,0.65-6.16C60.59,15.56,47.28,2.25,30.85,2.25z"/>
		<g>
			<rect x="34.77" y="49.34" class="st1" width="12.39" height="12.39"/>
			<rect x="47.17" y="43.15" class="st0" width="6.19" height="6.19"/>
		</g>
	</g>
	<g>
		<g>
			<path class="st1" d="M121.78,40.55H89.72c0.17,4.06,1.21,7.04,3.16,8.99c1.94,1.92,4.37,2.89,7.26,2.89
				c2.57,0,4.71-0.66,6.44-1.97c1.7-1.31,2.79-3.11,3.28-5.34h11.76c-0.58,3.18-1.82,6.05-3.72,8.57c-1.89,2.53-4.32,4.49-7.31,5.93
				c-2.96,1.43-6.27,2.14-9.91,2.14c-4.27,0-8.06-0.95-11.37-2.84c-3.33-1.89-5.9-4.59-7.75-8.11c-1.85-3.52-2.77-7.65-2.77-12.44
				s0.92-8.94,2.77-12.48c1.85-3.55,4.42-6.24,7.75-8.11s7.12-2.79,11.37-2.79c4.32,0,8.09,0.92,11.32,2.79
				c3.23,1.87,5.73,4.44,7.51,7.7c1.77,3.28,2.65,7,2.65,11.15C122.17,37.73,122.05,39.06,121.78,40.55z M108.15,26.94
				c-2.02-1.92-4.52-2.89-7.46-2.89c-3.01,0-5.54,0.97-7.58,2.89c-2.06,1.92-3.18,4.76-3.4,8.48h21.23
				C111.12,31.7,110.19,28.86,108.15,26.94z"/>
			<path class="st1" d="M141.21,52.23h18.7v8.89h-29.85V3h11.12v49.23H141.21z"/>
			<path class="st1" d="M193.16,17.64c2.62,1.82,4.49,4.25,5.61,7.34V15.5h11.05v45.61h-11.05v-9.55c-1.12,3.08-2.96,5.54-5.61,7.36
				c-2.62,1.85-5.78,2.77-9.47,2.77c-3.69,0-6.99-0.92-9.96-2.79c-2.94-1.87-5.25-4.57-6.9-8.11c-1.65-3.55-2.48-7.7-2.48-12.48
				s0.83-8.94,2.48-12.48s3.96-6.24,6.9-8.11s6.27-2.79,9.96-2.79C187.36,14.92,190.52,15.84,193.16,17.64z M178.78,28.6
				c-2.11,2.36-3.16,5.61-3.16,9.72c0,4.13,1.04,7.34,3.16,9.67c2.11,2.33,4.91,3.5,8.38,3.5c3.38,0,6.14-1.19,8.33-3.57
				c2.19-2.38,3.28-5.59,3.28-9.59c0-4.06-1.09-7.29-3.28-9.67c-2.19-2.38-4.95-3.57-8.33-3.57
				C183.69,25.05,180.9,26.24,178.78,28.6z"/>
			<path class="st1" d="M258.04,20.02c3.01,3.45,4.49,8.31,4.49,14.57v26.52h-11.05V35.93c0-3.62-0.9-6.44-2.7-8.45
				c-1.8-1.99-4.23-3.01-7.34-3.01c-3.16,0-5.68,1.07-7.58,3.21c-1.89,2.14-2.84,5.22-2.84,9.23v24.22H219.9V15.5h11.12v9.13
				c1.17-3.08,3.06-5.46,5.73-7.21c2.65-1.72,5.73-2.6,9.21-2.6C251.02,14.85,255.05,16.57,258.04,20.02z"/>
		</g>
		<g>
			<path class="st0" d="M281.72,35.98h-5.83v-6.17h18.94v6.17h-5.51V60.9h-7.6V35.98z"/>
			<path class="st0" d="M297.46,29.83h17.32v5.83h-9.84v5.97h9.21v6.48h-9.21v6.63h9.84v6.17h-17.32V29.83z"/>
			<path class="st0" d="M338.14,48.44v5c0,2.36-0.73,4.15-2.21,5.37c-1.48,1.21-3.11,2.02-4.88,2.38c-0.53,0.12-1.07,0.22-1.58,0.27
				c-0.53,0.05-1.02,0.07-1.48,0.07c-3.47,0-6.05-0.78-7.72-2.33c-1.68-1.55-2.5-4.13-2.5-7.7V37.63c0-2.45,0.75-4.54,2.26-6.27
				s4.15-2.6,7.97-2.6c3.08,0,5.54,0.75,7.41,2.26c1.85,1.51,2.77,3.81,2.77,6.92v2.7h-7.94v-4.01c0-0.63-0.22-1.12-0.68-1.48
				c-0.46-0.36-0.95-0.56-1.51-0.63c-0.02,0-0.07,0-0.12,0s-0.1,0-0.12,0c-0.02,0-0.07,0-0.12,0s-0.1,0-0.12,0
				c-0.58,0.07-1.12,0.29-1.58,0.68c-0.46,0.39-0.7,0.97-0.7,1.75v16.47c0,0.7,0.24,1.29,0.7,1.75c0.46,0.46,1,0.7,1.58,0.78
				c0.02,0,0.07,0,0.12,0s0.1,0,0.12,0c0.07,0,0.12,0,0.19,0c0.07,0,0.1-0.02,0.15-0.05c0.63-0.07,1.19-0.36,1.68-0.9
				c0.49-0.53,0.75-1.29,0.75-2.23v-4.35h7.58V48.44z"/>
			<path class="st0" d="M341.27,29.83h7.51v11.8h4.95v-11.8h7.6v31.09h-7.6V48.15h-4.95v12.78h-7.51V29.83z"/>
			<path class="st0" d="M365.12,29.83h7.51l5.93,17.97l-0.97-17.97h7.29v31.09h-7.6l-5.93-17.32l0.97,17.32h-7.19L365.12,29.83
				L365.12,29.83z"/>
			<path class="st0" d="M388.63,37.63c0-3.11,1-5.32,2.99-6.61c1.99-1.29,4.4-1.94,7.24-1.94c0.36,0,0.75,0.02,1.14,0.05
				c0.39,0.02,0.78,0.07,1.14,0.1c1.99,0.29,3.81,1.04,5.44,2.28c1.63,1.24,2.45,3.28,2.45,6.12V51.5c0,3.08-0.83,5.51-2.45,7.34
				c-1.63,1.8-4.32,2.7-8.04,2.7c-3.79,0-6.39-1.02-7.8-3.06s-2.09-4.37-2.09-6.97V37.63H388.63z M396.14,53.13
				c0,0.87,0.27,1.53,0.83,1.99c0.53,0.46,1.14,0.68,1.8,0.68c0.02,0,0.05,0,0.07,0c0.02,0,0.05,0,0.07,0
				c0.63-0.02,1.19-0.27,1.72-0.7c0.53-0.44,0.8-1.09,0.8-1.97V37.32c0-0.87-0.27-1.53-0.8-1.97s-1.09-0.68-1.72-0.7
				c-0.02,0-0.05,0-0.07,0c-0.02,0-0.05,0-0.07,0c-0.66,0-1.26,0.22-1.8,0.66c-0.53,0.44-0.83,1.09-0.83,2.02V53.13z"/>
			<path class="st0" d="M411.78,29.83h7.46v24.92h8.87v6.17h-16.32V29.83z"/>
			<path class="st0" d="M430.77,37.63c0-3.11,1-5.32,2.99-6.61c1.99-1.29,4.4-1.94,7.24-1.94c0.36,0,0.75,0.02,1.14,0.05
				c0.39,0.02,0.78,0.07,1.14,0.1c1.99,0.29,3.81,1.04,5.44,2.28c1.63,1.24,2.45,3.28,2.45,6.12V51.5c0,3.08-0.83,5.51-2.45,7.34
				c-1.63,1.8-4.32,2.7-8.04,2.7c-3.79,0-6.39-1.02-7.8-3.06s-2.09-4.37-2.09-6.97V37.63H430.77z M438.28,53.13
				c0,0.87,0.27,1.53,0.83,1.99c0.53,0.46,1.14,0.68,1.8,0.68c0.02,0,0.05,0,0.07,0c0.02,0,0.05,0,0.07,0
				c0.63-0.02,1.19-0.27,1.72-0.7c0.53-0.44,0.8-1.09,0.8-1.97V37.32c0-0.87-0.27-1.53-0.8-1.97c-0.53-0.44-1.09-0.68-1.72-0.7
				c-0.02,0-0.05,0-0.07,0c-0.02,0-0.05,0-0.07,0c-0.66,0-1.26,0.22-1.8,0.66c-0.53,0.44-0.83,1.09-0.83,2.02V53.13z"/>
			<path class="st0" d="M466.14,60.68c-1.36,0.68-2.87,1.02-4.52,1.02c-0.1,0-0.17,0-0.27,0c-0.07,0-0.17,0-0.27,0
				c-1.77-0.1-3.4-0.8-4.91-2.09c-1.48-1.31-2.23-3.57-2.23-6.82V37.63c0-2.77,0.78-4.93,2.33-6.51c1.55-1.58,4.08-2.36,7.55-2.36
				c3.08,0,5.49,0.73,7.24,2.21c1.75,1.48,2.62,3.69,2.62,6.65v2.7h-7.6v-4.01c0-0.63-0.24-1.07-0.7-1.36
				c-0.46-0.29-0.97-0.41-1.53-0.41c-0.02,0-0.07,0-0.12,0s-0.1,0-0.12,0c-0.63,0.07-1.19,0.27-1.7,0.63
				c-0.51,0.36-0.78,0.85-0.78,1.48v16.81c0,0.85,0.27,1.48,0.78,1.97c0.51,0.46,1.07,0.73,1.7,0.8c0.02,0,0.07,0,0.12,0
				s0.1,0,0.12,0c0.07,0,0.12,0,0.19,0c0.07,0,0.1,0,0.15,0c0.56-0.1,1.07-0.34,1.53-0.78c0.46-0.41,0.7-0.97,0.7-1.65V49.8h-2.57
				v-5.56h9.84v16.71h-5l-0.32-2.62C468.25,59.2,467.52,60,466.14,60.68z"/>
			<path class="st0" d="M483.87,47.15l-7.51-17.32h7.51l3.96,9.76l3.91-9.76H499l-7.55,17.32v13.77h-7.55V47.15H483.87z"/>
		</g>
	</g>
</g>
</svg>
