<?xml version="1.0" encoding="utf-8"?>
<!-- Generator: Adobe Illustrator 26.1.0, SVG Export Plug-In . SVG Version: 6.00 Build 0)  -->
<svg version="1.1" id="Layer_1" xmlns="http://www.w3.org/2000/svg" xmlns:xlink="http://www.w3.org/1999/xlink" x="0px" y="0px"
	 viewBox="0 0 2677.99 857.9" style="enable-background:new 0 0 2677.99 857.9;" xml:space="preserve">
<style type="text/css">
	.st0{fill:#F26722;}
	.st1{fill:#1D3B6D;}
</style>
<g>
	<g>
		<path class="st0" d="M211.91,533.93h141.27V372.59H42.47c-5.52,26.07-8.48,53.09-8.48,80.81c0,27.62,2.93,54.54,8.42,80.53
			l0.1,0.5c37.04,175.58,193.91,306.93,380.44,307.25V679.89C326.52,679.61,244.31,619.05,211.91,533.93z"/>
		<path class="st1" d="M423.62,65.1C236.89,65.1,81,196.93,43.81,372.59h95.74h72.47c32.55-85.18,114.99-145.69,211.61-145.69
			c96.76,0,179.3,60.69,211.75,146.06H437.03c-0.17,0.46-0.34,0.93-0.51,1.39v158.14c0.17,0.45,0.33,0.91,0.5,1.37h198.35h146.66
			h21.49c5.47-25.96,8.39-52.86,8.39-80.45C811.92,238.95,638.07,65.1,423.62,65.1z"/>
		<g>
			<rect x="474.8" y="679.89" class="st1" width="161.79" height="161.79"/>
			<rect x="636.72" y="598.99" class="st0" width="80.76" height="80.76"/>
		</g>
	</g>
	<g>
		<path class="st1" d="M1324.61,363.03h-300.43c1.48,38.08,11.34,66.12,29.6,84.13c18.24,18.02,40.94,27.01,68.08,27.01
			c24.16,0,44.27-6.17,60.31-18.52c16.03-12.35,26.27-29.06,30.71-50.17h110.26c-5.43,29.85-17.02,56.61-34.78,80.27
			c-17.76,23.67-40.58,42.2-68.45,55.57c-27.88,13.39-58.83,20.07-92.87,20.07c-39.96,0-75.48-8.88-106.56-26.63
			c-31.08-17.75-55.26-43.09-72.52-76.03c-17.27-32.92-25.9-71.78-25.9-116.54c0-44.77,8.62-83.74,25.9-116.93
			c17.26-33.19,41.44-58.53,72.52-76.02c31.08-17.49,66.6-26.24,106.56-26.24c40.44,0,75.85,8.76,106.19,26.24
			c30.34,17.5,53.76,41.56,70.3,72.17c16.52,30.62,24.79,65.48,24.79,104.58C1328.31,336.79,1327.07,349.13,1324.61,363.03z
			 M1196.96,235.68c-19-18.01-42.31-27.01-69.93-27.01c-28.12,0-51.8,9.01-71.04,27.01c-19.24,18.02-29.85,44.51-31.82,79.5h199.06
			C1224.71,280.19,1215.95,253.69,1196.96,235.68z"/>
		<path class="st1" d="M1506.64,472.63h175.38v83.36h-279.71V11.08h104.34V472.63z"/>
		<path class="st1" d="M1993.55,148.46c24.66,16.98,42.18,39.88,52.54,68.69v-88.76h103.6v427.59h-103.6v-89.53
			c-10.36,28.82-27.88,51.85-52.54,69.08c-24.67,17.25-54.27,25.86-88.8,25.86c-34.54,0-65.62-8.74-93.24-26.24
			c-27.63-17.49-49.21-42.84-64.75-76.03c-15.54-33.19-23.31-72.17-23.31-116.93c0-44.77,7.77-83.74,23.31-116.93
			c15.54-33.19,37.12-58.53,64.75-76.02c27.62-17.49,58.7-26.24,93.24-26.24C1939.28,122.99,1968.88,131.48,1993.55,148.46z
			 M1858.87,251.11c-19.74,22.13-29.6,52.48-29.6,91.08c0,38.59,9.86,68.83,29.6,90.69c19.73,21.88,45.88,32.8,78.44,32.8
			c31.57,0,57.59-11.19,78.07-33.57c20.47-22.38,30.71-52.35,30.71-89.92c0-38.07-10.24-68.31-30.71-90.69
			c-20.48-22.38-46.5-33.57-78.07-33.57C1904.75,217.92,1878.6,229,1858.87,251.11z"/>
		<path class="st1" d="M2601.81,170.84c28.12,32.42,42.18,77.95,42.18,136.61v248.53h-103.6V319.81c0-33.96-8.39-60.32-25.16-79.11
			c-16.78-18.78-39.72-28.17-68.82-28.17c-29.6,0-53.28,10.03-71.04,30.1c-17.76,20.07-26.64,48.89-26.64,86.44v226.92H2244.4
			V128.39h104.34v85.67c10.84-28.81,28.73-51.33,53.65-67.53c24.9-16.21,53.65-24.31,86.21-24.31
			C2535.96,122.22,2573.7,138.43,2601.81,170.84z"/>
	</g>
	<g>
		<path class="st0" d="M967.08,648.37h-45.02v-47.54h146.23v47.54h-42.5V840.7h-58.71V648.37z"/>
		<path class="st0" d="M1088.45,600.83h133.62v45.02h-75.99v46.1h70.95v50.06h-70.95v51.14h75.99v47.54h-133.62V600.83z"/>
		<path class="st0" d="M1402.52,744.54v38.54c0,18.25-5.71,32.05-17.11,41.42c-11.41,9.36-23.95,15.49-37.64,18.37
			c-4.09,0.96-8.17,1.62-12.25,1.98c-4.09,0.36-7.92,0.54-11.53,0.54c-26.89,0-46.76-6-59.61-18.01
			c-12.85-12-19.27-31.81-19.27-59.43V660.98c0-18.97,5.82-35.12,17.47-48.44c11.64-13.33,32.11-19.99,61.41-19.99
			c23.77,0,42.8,5.82,57.09,17.47c14.28,11.65,21.43,29.48,21.43,53.48v20.89h-61.23v-30.97c0-4.8-1.74-8.58-5.22-11.35
			c-3.48-2.76-7.38-4.38-11.71-4.86c-0.24,0-0.54,0-0.9,0c-0.36,0-0.66,0-0.9,0c-0.24,0-0.54,0-0.9,0c-0.36,0-0.66,0-0.9,0
			c-4.56,0.48-8.64,2.22-12.25,5.22c-3.6,3.01-5.4,7.51-5.4,13.51v127.14c0,5.53,1.8,10.03,5.4,13.51c3.6,3.48,7.68,5.46,12.25,5.94
			c0.24,0,0.54,0,0.9,0c0.36,0,0.66,0,0.9,0c0.48,0,0.96,0,1.44,0c0.48,0,0.84-0.12,1.08-0.36c4.8-0.48,9.12-2.76,12.97-6.84
			c3.84-4.08,5.76-9.84,5.76-17.29v-33.5H1402.52z"/>
		<path class="st0" d="M1426.65,600.83h57.99v91.12h38.18v-91.12h58.71V840.7h-58.71v-98.68h-38.18v98.68h-57.99V600.83z"/>
		<path class="st0" d="M1610.69,600.83h57.99l45.74,138.66l-7.56-138.66h56.18V840.7h-58.71l-45.74-133.62l7.56,133.62h-55.47
			V600.83z"/>
		<path class="st0" d="M1792.21,660.98c0-24.01,7.68-41,23.05-50.96c15.36-9.96,33.97-14.95,55.82-14.95c2.88,0,5.82,0.12,8.82,0.36
			c3,0.24,5.94,0.48,8.82,0.72c15.36,2.16,29.35,8.05,41.96,17.65c12.61,9.61,18.91,25.33,18.91,47.18v106.97
			c0,23.77-6.3,42.62-18.91,56.55c-12.61,13.93-33.32,20.89-62.13,20.89c-29.3,0-49.34-7.86-60.15-23.59
			c-10.8-15.72-16.21-33.68-16.21-53.84V660.98z M1850.2,780.55c0,6.73,2.1,11.83,6.3,15.31c4.2,3.48,8.82,5.22,13.87,5.22
			c0.24,0,0.42,0,0.54,0c0.12,0,0.3,0,0.54,0c4.8-0.24,9.24-2.04,13.33-5.4c4.08-3.36,6.12-8.4,6.12-15.13V658.46
			c0-6.72-2.04-11.76-6.12-15.13c-4.09-3.36-8.53-5.16-13.33-5.4c-0.24,0-0.42,0-0.54,0c-0.12,0-0.3,0-0.54,0
			c-5.04,0-9.67,1.68-13.87,5.04c-4.2,3.36-6.3,8.53-6.3,15.49V780.55z"/>
		<path class="st0" d="M1970.85,600.83h57.63v192.33h68.43v47.54h-126.06V600.83z"/>
		<path class="st0" d="M2117.44,660.98c0-24.01,7.68-41,23.05-50.96c15.36-9.96,33.97-14.95,55.82-14.95c2.88,0,5.82,0.12,8.82,0.36
			c3,0.24,5.94,0.48,8.82,0.72c15.36,2.16,29.35,8.05,41.96,17.65c12.61,9.61,18.91,25.33,18.91,47.18v106.97
			c0,23.77-6.3,42.62-18.91,56.55c-12.61,13.93-33.31,20.89-62.13,20.89c-29.3,0-49.34-7.86-60.15-23.59
			c-10.8-15.72-16.21-33.68-16.21-53.84V660.98z M2175.42,780.55c0,6.73,2.1,11.83,6.3,15.31c4.2,3.48,8.82,5.22,13.87,5.22
			c0.24,0,0.42,0,0.54,0c0.12,0,0.3,0,0.54,0c4.8-0.24,9.24-2.04,13.33-5.4c4.08-3.36,6.12-8.4,6.12-15.13V658.46
			c0-6.72-2.04-11.76-6.12-15.13c-4.09-3.36-8.53-5.16-13.33-5.4c-0.24,0-0.42,0-0.54,0c-0.12,0-0.3,0-0.54,0
			c-5.04,0-9.67,1.68-13.87,5.04c-4.2,3.36-6.3,8.53-6.3,15.49V780.55z"/>
		<path class="st0" d="M2390.44,838.9c-10.57,5.28-22.21,7.92-34.94,7.92c-0.72,0-1.38,0-1.98,0c-0.6,0-1.26,0-1.98,0
			c-13.69-0.72-26.29-6.12-37.82-16.21c-11.53-10.08-17.29-27.61-17.29-52.58V660.98c0-21.37,6-38.12,18.01-50.24
			c12-12.12,31.45-18.19,58.35-18.19c23.77,0,42.38,5.71,55.82,17.11c13.44,11.41,20.17,28.51,20.17,51.32v20.89h-58.71V650.9
			c0-4.8-1.8-8.28-5.4-10.44s-7.56-3.24-11.89-3.24c-0.24,0-0.54,0-0.9,0c-0.36,0-0.66,0-0.9,0c-4.81,0.48-9.18,2.11-13.15,4.86
			c-3.96,2.76-5.94,6.54-5.94,11.35v129.66c0,6.48,1.98,11.52,5.94,15.13c3.96,3.6,8.34,5.65,13.15,6.12c0.24,0,0.54,0,0.9,0
			c0.36,0,0.66,0,0.9,0c0.48,0,0.96,0,1.44,0c0.48,0,0.84,0,1.08,0c4.32-0.72,8.28-2.7,11.88-5.94c3.6-3.24,5.4-7.5,5.4-12.79
			v-30.97h-19.81v-42.86h75.99V840.7h-38.54l-2.52-20.17C2406.77,827.5,2401,833.62,2390.44,838.9z"/>
		<path class="st0" d="M2527.3,734.45l-57.99-133.62h57.99l30.61,75.27l30.25-75.27h55.82l-58.35,133.62V840.7h-58.35V734.45z"/>
	</g>
</g>
</svg>
