<?xml version="1.0" encoding="utf-8"?>
<!-- Generator: Adobe Illustrator 26.1.0, SVG Export Plug-In . SVG Version: 6.00 Build 0)  -->
<svg version="1.1" id="Layer_1" xmlns="http://www.w3.org/2000/svg" xmlns:xlink="http://www.w3.org/1999/xlink" x="0px" y="0px"
	 viewBox="0 0 500 500" style="enable-background:new 0 0 500 500;" xml:space="preserve">
<style type="text/css">
	.st0{fill:none;stroke:#7F3F98;stroke-width:2;stroke-miterlimit:10;}
	.st1{fill:#663695;}
</style>
<circle class="st0" cx="250" cy="250" r="250"/>
<circle class="st0" cx="250" cy="250" r="170"/>
<g>
	<path class="st1" d="M65.28,268.64l5.23,28.3l-49.14,9.09l-5.23-28.3l8.54-1.58l3.31,17.88l10.79-2l-3.08-16.64l8.54-1.58
		l3.08,16.64l12.67-2.34l-3.31-17.88L65.28,268.64z"/>
	<path class="st1" d="M64.65,257.21l-49.94-1.66l0.35-10.59l41.2,1.37l0.67-20.26l8.75,0.29L64.65,257.21z"/>
	<path class="st1" d="M75.33,187.58l-12.43,0.27l-4.93,17.54l10.47,6.71l-3.09,10.99l-43.53-30.56l3.51-12.47l53.09-3.47
		L75.33,187.58z M53.65,187.88c-11.28,0.31-17.66,0.47-19.13,0.5c-1.47,0.02-2.63,0.01-3.47-0.03c2.6,1.51,8.96,5.54,19.08,12.07
		L53.65,187.88z"/>
	<path class="st1" d="M104.93,133.07l-7.15,11.41l-43.58-1.67l-0.16,0.26c5.89,3.18,10.04,5.53,12.45,7.04l19.92,12.49l-5.03,8.02
		l-42.33-26.55l7.1-11.32l43.24,1.5l0.13-0.2c-5.68-3.16-9.66-5.46-11.94-6.88L57.53,114.6l5.07-8.08L104.93,133.07z"/>
	<path class="st1" d="M144.29,98.06l-8.52,6.3l-24.49-33.08l-10.91,8.07l-5.25-7.09l30.33-22.45l5.25,7.09l-10.91,8.07L144.29,98.06
		z"/>
	<path class="st1" d="M189.32,74.49l-26.32,11.65l-20.23-45.69l26.32-11.65l3.51,7.94l-16.63,7.36l4.44,10.03l15.47-6.85l3.51,7.94
		l-15.47,6.85l5.22,11.78l16.63-7.36L189.32,74.49z"/>
	<path class="st1" d="M213.22,26.04c-3.92,0.73-6.68,2.77-8.28,6.12c-1.6,3.35-1.91,7.65-0.92,12.92
		c2.05,10.95,7.18,15.66,15.4,14.12c3.45-0.65,7.47-2.29,12.05-4.93l1.63,8.74c-3.72,2.43-8.06,4.11-13.04,5.04
		c-7.15,1.34-13.02,0.19-17.61-3.44c-4.6-3.63-7.65-9.49-9.17-17.6c-0.95-5.11-0.86-9.75,0.28-13.94c1.14-4.19,3.26-7.63,6.36-10.33
		c3.1-2.7,6.99-4.49,11.67-5.36c4.77-0.89,9.78-0.63,15.03,0.77l-1.78,9.09c-2-0.53-3.99-0.95-5.97-1.25
		C216.9,25.69,215.01,25.7,213.22,26.04z"/>
	<path class="st1" d="M285.37,67.23l-10.53-0.84l1.72-21.5l-19.73-1.58l-1.72,21.5l-10.56-0.85l3.99-49.81l10.56,0.85l-1.57,19.52
		l19.73,1.58l1.57-19.52l10.53,0.84L285.37,67.23z"/>
	<path class="st1" d="M339.08,86.3l-12.51-4.99l-6.19-43.17l-0.29-0.11c-2.07,6.36-3.63,10.87-4.69,13.51l-8.71,21.84l-8.79-3.51
		l18.51-46.42l12.41,4.95l6.3,42.8l0.22,0.09c2.09-6.16,3.63-10.49,4.63-12.98l8.76-21.97l8.86,3.53L339.08,86.3z"/>
	<path class="st1" d="M400.97,102.04c-5.22,6.41-10.83,10.05-16.81,10.91c-5.99,0.86-11.95-1.13-17.89-5.97s-9.09-10.27-9.47-16.3
		c-0.38-6.04,2.06-12.28,7.31-18.73c5.25-6.45,10.86-10.08,16.81-10.88s11.92,1.22,17.87,6.06c5.96,4.85,9.11,10.27,9.48,16.27
		C408.65,89.39,406.21,95.61,400.97,102.04z M372.69,79.02c-3.52,4.33-5.36,8.26-5.5,11.79c-0.14,3.53,1.42,6.62,4.69,9.29
		c6.56,5.34,13.38,3.65,20.47-5.06c7.11-8.73,7.4-15.75,0.88-21.06c-3.27-2.66-6.63-3.57-10.08-2.72S376.21,74.69,372.69,79.02z"/>
	<path class="st1" d="M391.71,130.31l40.4-29.42l6.24,8.57l-33.32,24.27l11.93,16.38l-7.07,5.15L391.71,130.31z"/>
	<path class="st1" d="M454.35,195.69c-7.7,3.01-14.37,3.42-20,1.22c-5.63-2.2-9.84-6.87-12.63-14c-2.79-7.13-2.86-13.42-0.22-18.85
		s7.84-9.67,15.59-12.7s14.41-3.43,19.99-1.19c5.58,2.23,9.77,6.93,12.57,14.08c2.8,7.15,2.88,13.43,0.24,18.82
		S462.08,192.67,454.35,195.69z M441.07,161.72c-5.2,2.03-8.73,4.55-10.59,7.55c-1.86,3-2.02,6.47-0.49,10.39
		c3.08,7.87,9.85,9.76,20.31,5.67c10.48-4.1,14.19-10.06,11.13-17.9c-1.54-3.93-4.01-6.37-7.44-7.33
		C450.58,159.15,446.27,159.69,441.07,161.72z"/>
	<path class="st1" d="M462.3,231.88l1.66,19.75l-25.82,2.17c-1.31-3.11-2.3-6.07-2.96-8.86c-0.66-2.79-1.11-5.66-1.36-8.62
		c-0.63-7.52,1.09-13.44,5.18-17.77c4.08-4.33,10.26-6.85,18.52-7.54c8.04-0.67,14.5,1.1,19.38,5.32s7.67,10.41,8.35,18.56
		c0.43,5.11-0.18,10.12-1.82,15.04l-8.74-2.8c1.51-3.79,2.1-7.64,1.77-11.57c-0.38-4.56-2.22-8.09-5.52-10.58
		c-3.3-2.49-7.53-3.52-12.71-3.08c-5.4,0.45-9.44,1.91-12.1,4.36c-2.66,2.45-3.82,5.79-3.46,10.01c0.18,2.2,0.6,4.42,1.24,6.65
		l10.39-0.87l-0.79-9.43L462.3,231.88z"/>
	<path class="st1" d="M461.25,286.78l18.5,13.78l-1.95,11.25l-27.25-21.54l-19.16-3.32l1.79-10.37l18.83,3.26l33.24-11.07
		l-1.96,11.32L461.25,286.78z"/>
</g>
<polygon class="st1" points="250,443.49 267.32,430.81 265,452.15 284.64,460.81 265,469.47 267.32,490.81 250,478.13 
	232.68,490.81 235,469.47 215.36,460.81 235,452.15 232.68,430.81 "/>
<polygon class="st1" points="140.43,418.37 154.86,407.81 152.93,425.59 169.29,432.81 152.93,440.03 154.86,457.81 140.43,447.24 
	125.99,457.81 127.93,440.03 111.56,432.81 127.93,425.59 125.99,407.81 "/>
<polygon class="st1" points="357.38,418.37 371.82,407.81 369.88,425.59 386.25,432.81 369.88,440.03 371.82,457.81 357.38,447.24 
	342.95,457.81 344.88,440.03 328.52,432.81 344.88,425.59 342.95,407.81 "/>
<g>
	<path class="st1" d="M174.04,278.99h50.85v-58.07H113.05C111.06,230.3,110,240.03,110,250c0,9.94,1.06,19.63,3.03,28.98l0.04,0.18
		c13.33,63.2,69.79,110.47,136.93,110.59v-58.23C215.29,331.42,185.7,309.63,174.04,278.99z"/>
	<path class="st1" d="M250.24,110.24c-67.21,0-123.32,47.45-136.71,110.67h34.46h26.09c11.72-30.66,41.39-52.44,76.16-52.44
		c34.83,0,64.53,21.84,76.22,52.57h-71.39c-0.06,0.17-0.12,0.33-0.18,0.5v56.92c0.06,0.16,0.12,0.33,0.18,0.49h71.39h52.79h7.74
		c1.97-9.34,3.02-19.03,3.02-28.95C390,172.82,327.43,110.24,250.24,110.24z"/>
	<g>
		<rect x="268.66" y="331.52" class="st1" width="58.23" height="58.23"/>
		<rect x="326.94" y="302.41" class="st1" width="29.07" height="29.07"/>
	</g>
</g>
</svg>
