<?xml version="1.0" encoding="UTF-8"?>
<svg id="Layer_1" xmlns="http://www.w3.org/2000/svg" version="1.1" viewBox="0 0 1080 1080">
  <!-- Generator: Adobe Illustrator 29.1.0, SVG Export Plug-In . SVG Version: 2.1.0 Build 142)  -->
  <defs>
    <style>
      .st0 {
        fill: #4caf50;
      }

      .st1 {
        fill: #ffc107;
      }
    </style>
  </defs>
  <g>
    <polygon class="st0" points="1039.2 207.9 1039.2 366.2 1022.7 377.6 964.7 337.5 964.7 247 957.2 241.8 891.7 196.5 890.2 195.5 890.2 650.1 891.7 649.2 957.2 603.9 964.7 598.7 964.7 508.2 1022.7 468.1 1039.2 456.7 1039.2 637.8 1022.7 649.2 964.7 689.2 957.2 694.4 891.7 739.7 890.2 738.7 890.2 740.7 826.1 785 815.8 777.8 815.8 53.6 826.1 60.7 890.2 105 891.7 106 957.2 151.3 964.7 156.4 1022.7 196.5 1039.2 207.9"/>
    <path class="st0" d="M253.1,60.8l-64.1,44.3v2l-1.4-1-65.5,45.3-7.5,5.2-58,40.1-16.5,11.4v429.9l16.5,11.4,58,40.1v-170.7l7.5-5.2,65.5-45.3,1.4-1v273.6l64.1,44.3,10.4-7.2V67.9l-10.4-7.2ZM189,378.6l-1.4-1-65.5,45.3-7.5,5.2v-181.1l7.5-5.2,65.5-45.3,1.5-1v183.1Z"/>
  </g>
  <g>
    <path class="st0" d="M293.3,856.1l-58.9,169.3h-8.4l-56.2-158-56,158h-8.6l-58.9-169.3h8.9l54.5,157.5,56.2-157.5h8.1l56,157.7,55-157.7h8.4Z"/>
    <path class="st0" d="M331.8,856.1h8.4v169.3h-8.4v-169.3Z"/>
    <path class="st0" d="M403.2,856.1h8.4v169.3h-8.4v-169.3Z"/>
    <path class="st0" d="M612.5,856.1v169.3h-6.9l-122.5-154.3v154.3h-8.4v-169.3h6.9l122.5,154.3v-154.3h8.4Z"/>
    <path class="st0" d="M675.7,856.1h66.6c17.9,0,33.8,3.6,47.7,10.9s24.7,17.3,32.3,30.1c7.6,12.8,11.5,27.4,11.5,43.7s-3.8,30.8-11.5,43.7-18.4,22.9-32.3,30.1c-13.9,7.3-29.8,10.9-47.7,10.9h-66.6v-169.4ZM741.7,1017.9c16.8,0,31.4-3.3,44-9.9,12.6-6.6,22.3-15.8,29.2-27.5,6.9-11.7,10.3-25,10.3-39.8s-3.5-28.1-10.3-39.8c-6.9-11.7-16.6-20.8-29.2-27.5-12.6-6.6-27.2-9.9-44-9.9h-57.7v154.3h57.7Z"/>
    <path class="st0" d="M905.3,1015.3c-13.6-7.4-24.2-17.7-31.9-30.7-7.7-13.1-11.6-27.7-11.6-43.8s3.9-30.7,11.6-43.8c7.7-13.1,18.4-23.3,31.9-30.7,13.6-7.4,28.7-11.1,45.5-11.1s32,3.7,45.6,11.1c13.6,7.4,24.3,17.7,32.1,30.7,7.7,13.1,11.6,27.7,11.6,43.8s-3.9,30.7-11.6,43.8c-7.7,13.1-18.4,23.3-32,30.7-13.6,7.4-28.8,11.1-45.6,11.1s-31.9-3.7-45.5-11.1ZM991.9,1008.8c12.3-6.8,22-16.1,29.1-28.1,7.1-11.9,10.6-25.2,10.6-39.9s-3.5-28-10.6-39.9c-7.1-11.9-16.8-21.3-29.1-28.1s-26-10.2-41.2-10.2-28.8,3.4-41,10.2c-12.2,6.8-21.9,16.1-29,28.1-7.1,11.9-10.6,25.2-10.6,39.9s3.5,28,10.6,39.9c7.1,11.9,16.7,21.3,29,28.1,12.2,6.8,25.9,10.2,41,10.2s28.8-3.4,41.2-10.2Z"/>
  </g>
  <g>
    <polygon class="st1" points="656.9 121.8 656.9 170.3 706.2 170.3 706.2 608.2 706.2 662.4 706.2 666.7 656.9 666.7 656.9 715.2 748.9 715.2 748.9 711.9 748.9 666.7 748.9 665.3 748.9 611.7 748.9 170.3 748.9 121.8 706.2 121.8 656.9 121.8"/>
    <path class="st1" d="M331.1,592.8v83.4l307.5,107.3v-285.2l-45.3-46.8,45.3-38.6V53.6l-307.5,103.6v435.6ZM404.8,205.8l166.1-44.5v247.4h-166.1v-202.9ZM402.5,486.7l160.8,10.7v160.2c-6.2,0-12.4,0-18.7,0s-13,0-19.5,0l-123.6-41.3v-7.9c0,0,.9-121.7.9-121.7Z"/>
  </g>
</svg>