<?xml version="1.0" encoding="UTF-8"?>
<svg xmlns="http://www.w3.org/2000/svg" xmlns:xlink="http://www.w3.org/1999/xlink" version="1.1" id="Layer_1" x="0px" y="0px" viewBox="0 0 1350 300" style="enable-background:new 0 0 1350 300;" xml:space="preserve">
<style type="text/css">
	.st0{fill:none;stroke:#FAB900;stroke-width:0.2999;stroke-miterlimit:22.9256;}
	.st1{fill:#FAB900;}
	.st2{fill:none;stroke:#6E6E6E;stroke-width:0.2999;stroke-miterlimit:22.9256;}
	.st3{fill:#6E6E6E;}
	.st4{fill:none;stroke:#880C00;stroke-width:1.0001;stroke-miterlimit:22.9256;}
	.st5{fill:none;stroke:#880C00;stroke-width:2;stroke-miterlimit:22.9256;}
	.st6{fill-rule:evenodd;clip-rule:evenodd;fill:#6E6E6E;}
	.st7{fill-rule:evenodd;clip-rule:evenodd;fill:#FAB900;}
</style>
<g>
	<g>
		<path class="st0" d="M734.51,132.63l5.62-46.2h-15.92l-13.58,111.45h15.92l5.93-49.32h42.14l-6.09,49.32h15.92l13.74-111.45    h-15.92l-5.78,46.2H734.51z M623.53,145.74c0-23.26,17.33-44.64,43.71-44.64c20.29,0,29.66,5.93,37.46,11.86l2.34-17.17    c-8.27-5.46-16.55-11.08-40.43-11.08c-27.32,0-59.47,22.94-59.47,61.66c0,33.56,25.13,53.38,54.32,53.38    c19.2,0,25.75-4.68,33.25-8.43l2.81-20.92c-6.56,5.31-14.99,12.96-36.53,12.96C638.98,183.36,623.53,167.91,623.53,145.74z     M581.54,115.93c0,8.9-6.55,15.45-15.61,15.45h-15.61l3.59-29.03h15.45C576.7,102.35,581.54,108.59,581.54,115.93z M597.31,115.3    c0-17.01-11.71-28.88-27.47-28.88h-30.12l-13.58,111.45h15.92l6.09-50.57h2.34l26.69,50.57h16.55l-26.85-51.98    C584.66,144.18,597.31,133.41,597.31,115.3z M474.78,116.4l11.08,44.02h-32.94L474.78,116.4z M473.37,86.43L417.8,197.88h16.08    l11.55-22.48h44.17l5.46,22.48h16.7l-28.1-111.45H473.37z M370.51,116.4l11.08,44.02h-32.94L370.51,116.4z M369.1,86.43    l-55.57,111.45h16.08l11.55-22.48h44.17l5.46,22.48h16.7L379.4,86.43H369.1z"></path>
		<path class="st1" d="M734.51,132.63l5.62-46.2h-15.92l-13.58,111.45h15.92l5.93-49.32h42.14l-6.09,49.32h15.92l13.74-111.45    h-15.92l-5.78,46.2H734.51z M623.53,145.74c0-23.26,17.33-44.64,43.71-44.64c20.29,0,29.66,5.93,37.46,11.86l2.34-17.17    c-8.27-5.46-16.55-11.08-40.43-11.08c-27.32,0-59.47,22.94-59.47,61.66c0,33.56,25.13,53.38,54.32,53.38    c19.2,0,25.75-4.68,33.25-8.43l2.81-20.92c-6.56,5.31-14.99,12.96-36.53,12.96C638.98,183.36,623.53,167.91,623.53,145.74z     M581.54,115.93c0,8.9-6.55,15.45-15.61,15.45h-15.61l3.59-29.03h15.45C576.7,102.35,581.54,108.59,581.54,115.93z M597.31,115.3    c0-17.01-11.71-28.88-27.47-28.88h-30.12l-13.58,111.45h15.92l6.09-50.57h2.34l26.69,50.57h16.55l-26.85-51.98    C584.66,144.18,597.31,133.41,597.31,115.3z M474.78,116.4l11.08,44.02h-32.94L474.78,116.4z M473.37,86.43L417.8,197.88h16.08    l11.55-22.48h44.17l5.46,22.48h16.7l-28.1-111.45H473.37z M370.51,116.4l11.08,44.02h-32.94L370.51,116.4z M369.1,86.43    l-55.57,111.45h16.08l11.55-22.48h44.17l5.46,22.48h16.7L379.4,86.43H369.1z"></path>
		<path class="st2" d="M1306.26,197.88L1320,86.43h-15.92l-13.74,111.45H1306.26z M1222.44,131.38l5.46-44.95h-15.92l-13.58,111.45    h15.92l5.78-47.76l5.15-5l33.25,52.76h17.64l-39.49-62.59l49.01-48.86h-18.42L1222.44,131.38z M1147.05,116.4l11.08,44.02h-32.94    L1147.05,116.4z M1145.65,86.43l-55.57,111.45h16.08l11.55-22.48h44.17l5.46,22.48h16.7l-28.1-111.45H1145.65z M1070.1,115.93    c0,8.9-6.55,15.45-15.61,15.45h-15.61l3.59-29.03h15.45C1065.26,102.35,1070.1,108.59,1070.1,115.93z M1085.87,115.3    c0-17.01-11.71-28.88-27.47-28.88h-30.12l-13.58,111.45h15.92l6.09-50.57h2.34l26.69,50.57h16.55l-26.85-51.98    C1073.22,144.18,1085.87,133.41,1085.87,115.3z M1008.45,102.35l1.87-15.92h-53.54L943.2,197.88h53.38l2.03-15.92h-37.62    l4.06-33.09h37.62l2.03-15.92h-37.62l3.75-30.59H1008.45z M904.65,123.11l9.99,74.77h16.55L916.35,86.43h-11.24l-36.52,77.11    l-19.35-77.11h-9.68l-42.14,111.45h16.39l28.25-74.77l18.58,74.77h7.65L904.65,123.11z"></path>
		<path class="st3" d="M1306.26,197.88L1320,86.43h-15.92l-13.74,111.45H1306.26z M1222.44,131.38l5.46-44.95h-15.92l-13.58,111.45    h15.92l5.78-47.76l5.15-5l33.25,52.76h17.64l-39.49-62.59l49.01-48.86h-18.42L1222.44,131.38z M1147.05,116.4l11.08,44.02h-32.94    L1147.05,116.4z M1145.65,86.43l-55.57,111.45h16.08l11.55-22.48h44.17l5.46,22.48h16.7l-28.1-111.45H1145.65z M1070.1,115.93    c0,8.9-6.55,15.45-15.61,15.45h-15.61l3.59-29.03h15.45C1065.26,102.35,1070.1,108.59,1070.1,115.93z M1085.87,115.3    c0-17.01-11.71-28.88-27.47-28.88h-30.12l-13.58,111.45h15.92l6.09-50.57h2.34l26.69,50.57h16.55l-26.85-51.98    C1073.22,144.18,1085.87,133.41,1085.87,115.3z M1008.45,102.35l1.87-15.92h-53.54L943.2,197.88h53.38l2.03-15.92h-37.62    l4.06-33.09h37.62l2.03-15.92h-37.62l3.75-30.59H1008.45z M904.65,123.11l9.99,74.77h16.55L916.35,86.43h-11.24l-36.52,77.11    l-19.35-77.11h-9.68l-42.14,111.45h16.39l28.25-74.77l18.58,74.77h7.65L904.65,123.11z"></path>
		<line class="st4" x1="313.58" y1="215.29" x2="1319.95" y2="215.29"></line>
	</g>
	<g>
		<rect x="30" y="23" class="st5" width="253.06" height="253.53"></rect>
		<polygon class="st6" points="75.92,215.9 46.18,215.9 126.37,84.35 153.28,123.56 138.72,144.23 127.26,129.72   "></polygon>
		<polygon class="st7" points="266.87,215.98 187.49,215.98 194.9,192.12 225.75,192.31 188.02,128.98 136.64,215.87 106.84,215.75     187.54,83.54   "></polygon>
	</g>
</g>
</svg>
