<?xml version="1.0" encoding="UTF-8"?>
<svg id="Layer_1" xmlns="http://www.w3.org/2000/svg" version="1.1" viewBox="0 0 1020 400">
  <!-- Generator: Adobe Illustrator 29.1.0, SVG Export Plug-In . SVG Version: 2.1.0 Build 142)  -->
  <defs>
    <style>
      .st0 {
        fill: #092944;
      }

      .st1 {
        fill: #156b40;
      }

      .st2 {
        fill: #fff;
      }

      .st3 {
        fill: none;
        stroke: #231f20;
        stroke-miterlimit: 10;
        stroke-width: 4px;
      }
    </style>
  </defs>
  <g>
    <path class="st0" d="M124.7,314.9h-16l-16.2-35.4h-48.6l-16.2,35.4H11.8l56.4-120.2,56.6,120.2ZM48.3,267.7h39.7l-19.8-42.6-19.8,42.6Z"/>
    <path class="st0" d="M160.2,199.2h25.9c13.6,0,23.5.5,31.3,5.8,7.8,5.3,12.5,14.2,12.5,24.6s-6.6,20.7-18.5,24c14.6,2.1,23.8,12.9,23.8,28.5s-4,18.3-10.3,24.1c-9.1,8.3-21.2,8.7-39,8.7h-25.9v-115.7ZM175,249.9h11.1c20,0,28.7-4.5,28.7-18.6s-9.1-20.1-28.7-20.1h-11.1v38.7ZM175,303h11.1c11.8,0,20-.3,25.4-3.9,5-3.4,8.2-9.7,8.2-17s-3.5-14.7-10.3-18.3c-5.2-2.9-11.3-3.1-19-3.1h-15.5v42.2Z"/>
    <path class="st0" d="M280.7,199.2h14.8v44.5h66.1v-44.5h14.8v115.7h-14.8v-58.1h-66.1v58.1h-14.8v-115.7Z"/>
    <path class="st0" d="M429.1,199.2h14.8v115.7h-14.8v-115.7Z"/>
    <path class="st0" d="M496.7,199.2h29.2c11.8,0,20.9.3,28.5,5.8,7.1,5.2,11.7,14.4,11.7,25.7,0,18.9-11.7,29-33.6,29h-2.6l47.5,55.2h-18.8l-45.4-55.2h-1.7v55.2h-14.8v-115.7ZM511.5,249.6h11c19.5,0,29.1-2.6,29.1-18.6s-9.4-20.1-29.1-20.1h-11v38.7Z"/>
    <path class="st0" d="M708.3,314.9h-16l-16.2-35.4h-48.6l-16.2,35.4h-16l56.4-120.2,56.6,120.2ZM631.9,267.7h39.7l-19.8-42.6-19.8,42.6Z"/>
    <path class="st0" d="M763.2,236.3l-15.7,78.7h-14.4l25.2-120.2,43.5,95.6,43.5-95.6,25.2,120.2h-14.4l-15.8-78.7-38.5,83.2-38.6-83.2Z"/>
    <path class="st0" d="M1008.2,314.9h-16l-16.2-35.4h-48.6l-16.2,35.4h-16l56.4-120.2,56.6,120.2ZM931.8,267.7h39.7l-19.8-42.6-19.8,42.6Z"/>
  </g>
  <path class="st3" d="M10,317.9h1000"/>
  <g>
    <path class="st0" d="M444.3,153.2h36.3c-3.5,5.9-6.3,10.7-9.4,15.4-.6,1-2.3,1.9-3.5,1.9-17.7.1-35.3,0-54.7,0,32.6-54,64.4-106.9,97-161,32.6,54,64.4,106.9,97.1,161-18.9,0-36.3,0-53.7-.1-1.5,0-3.4-1.6-4.3-3-2.8-4.1-5.2-8.5-8.5-14h35.3c-22.3-37.1-43.7-72.5-65.8-109.3-22,36.5-43.4,72-65.7,109Z"/>
    <path class="st1" d="M510.5,69.2c14.9,24.7,29.1,48.2,44,72.9-7,0-12.5.4-18-.2-2.1-.2-4.4-2.6-5.6-4.5-6.7-10.7-13.2-21.6-20.4-33.6-5.9,9.7-12.2,18.2-16.6,27.5-4.4,9.3-10.6,12.6-20.5,10.9-1.9-.3-3.8-.3-7-.5,14.7-24.3,29-47.9,43.9-72.5Z"/>
  </g>
  <g>
    <rect class="st0" x="107.9" y="339.5" width="804.2" height="49.2"/>
    <g>
      <path class="st2" d="M128.7,348h12.7c3.9,0,6.8.9,8.6,2.6,1.9,1.8,2.8,4.4,2.8,8s-1,6.5-2.9,8.4c-1.9,1.9-4.8,2.8-8.6,2.8h-7.9v10.4h-4.9v-32.3ZM141.4,366c4.4,0,6.6-2.4,6.6-7.3s-.5-4.1-1.6-5.1c-1-1.1-2.7-1.6-5-1.6h-7.8v14h7.8Z"/>
      <path class="st2" d="M165.2,348h13c3.8,0,6.7.8,8.6,2.5,1.9,1.7,2.9,4.2,2.9,7.6s-2,7.9-6,9.4l6.2,12.9h-5.3l-5.6-11.9h-8.9v11.9h-4.9v-32.3ZM178.3,364.5c2.1,0,3.7-.5,4.8-1.6,1.1-1.1,1.6-2.7,1.6-4.7s-.5-3.6-1.6-4.7c-1.1-1.1-2.7-1.6-4.9-1.6h-8.2v12.6h8.2Z"/>
      <path class="st2" d="M207.2,379.1c-2-1.2-3.5-2.9-4.4-5.3-.9-2.4-1.3-5.6-1.3-9.5s.4-7.1,1.3-9.5c.9-2.5,2.4-4.3,4.4-5.5,2-1.2,4.8-1.8,8.2-1.8s6.2.6,8.2,1.8,3.5,3,4.4,5.5c.9,2.4,1.3,5.6,1.3,9.6s-.4,7.1-1.3,9.4c-.9,2.4-2.3,4.2-4.3,5.3-2,1.2-4.8,1.7-8.3,1.7s-6.2-.6-8.2-1.7ZM220.9,375.6c1.3-.8,2.2-2.1,2.7-3.9.5-1.8.8-4.2.8-7.3s-.3-5.6-.8-7.4c-.5-1.9-1.5-3.2-2.8-4.1-1.3-.9-3.1-1.3-5.4-1.3s-4.1.4-5.4,1.3c-1.3.9-2.2,2.3-2.8,4.1-.5,1.8-.8,4.3-.8,7.4s.3,5.5.8,7.2c.5,1.8,1.4,3.1,2.7,4,1.3.9,3.1,1.3,5.5,1.3s4.2-.4,5.5-1.2Z"/>
      <path class="st2" d="M277.2,348v32.3h-4.9v-27.4h-.8l-9,26.2h-5.2l-9.1-26.2h-.7v27.4h-4.9v-32.3h8.5l8.7,26.4,8.7-26.4h8.5Z"/>
      <path class="st2" d="M296.3,379.1c-2-1.2-3.5-2.9-4.4-5.3-.9-2.4-1.3-5.6-1.3-9.5s.4-7.1,1.3-9.5c.9-2.5,2.4-4.3,4.4-5.5,2-1.2,4.8-1.8,8.2-1.8s6.2.6,8.2,1.8,3.5,3,4.4,5.5c.9,2.4,1.3,5.6,1.3,9.6s-.4,7.1-1.3,9.4c-.9,2.4-2.3,4.2-4.3,5.3-2,1.2-4.8,1.7-8.3,1.7s-6.2-.6-8.2-1.7ZM310,375.6c1.3-.8,2.2-2.1,2.7-3.9.5-1.8.8-4.2.8-7.3s-.3-5.6-.8-7.4c-.5-1.9-1.5-3.2-2.8-4.1-1.3-.9-3.1-1.3-5.4-1.3s-4.1.4-5.4,1.3c-1.3.9-2.2,2.3-2.8,4.1-.5,1.8-.8,4.3-.8,7.4s.3,5.5.8,7.2c.5,1.8,1.4,3.1,2.7,4,1.3.9,3.1,1.3,5.5,1.3s4.2-.4,5.5-1.2Z"/>
      <path class="st2" d="M337.9,352h-10.3v-4h25.3v4h-10.2v28.3h-4.9v-28.3Z"/>
      <path class="st2" d="M369.1,352v10.1h13.6v3.9h-13.6v10.5h16.7v3.9h-21.5v-32.3h21.5v3.9h-16.7Z"/>
      <path class="st2" d="M398.7,348h13c3.8,0,6.7.8,8.6,2.5,1.9,1.7,2.9,4.2,2.9,7.6s-2,7.9-6,9.4l6.2,12.9h-5.3l-5.6-11.9h-8.9v11.9h-4.9v-32.3ZM411.8,364.5c2.1,0,3.7-.5,4.8-1.6,1.1-1.1,1.6-2.7,1.6-4.7s-.5-3.6-1.6-4.7c-1.1-1.1-2.7-1.6-4.9-1.6h-8.2v12.6h8.2Z"/>
      <path class="st2" d="M436.8,379.9l-1.8-.3.5-3.6c4.5.6,8,.8,10.4.8,4.5,0,6.8-1.9,6.8-5.8s-.2-1.9-.7-2.6c-.5-.6-1.2-1.2-2.2-1.6-1-.4-2.5-.8-4.3-1.2-2.7-.6-4.9-1.3-6.4-2-1.5-.7-2.6-1.7-3.3-2.8-.7-1.2-1.1-2.7-1.1-4.6,0-3,1-5.2,2.9-6.7,1.9-1.5,4.7-2.3,8.5-2.3s2.9,0,4.5.2c1.6.2,3.7.4,6.3.8l-.4,3.7c-4.6-.5-8-.8-10-.8-4.6,0-6.9,1.6-6.9,4.7s.3,2.1.8,2.7c.5.7,1.4,1.2,2.5,1.6,1.1.4,2.9.9,5.2,1.4,2.4.6,4.3,1.2,5.7,1.9,1.3.7,2.3,1.6,3,2.7.6,1.1.9,2.5.9,4.3,0,3.3-1,5.8-2.9,7.5-1.9,1.7-4.8,2.5-8.5,2.5s-5.5-.3-9.4-.9Z"/>
      <path class="st2" d="M489,378.3c-1.9-1.7-2.9-4.2-2.9-7.4s.6-4.6,1.8-6.1c1.2-1.4,3.2-2.6,5.8-3.4-1.1-1.2-1.9-2.2-2.3-3.2-.5-1-.7-2.1-.7-3.4,0-2.5.8-4.4,2.4-5.6,1.6-1.3,3.9-1.9,6.9-1.9s5.3.6,6.8,1.9,2.3,3.1,2.3,5.5-.6,3.7-1.7,5c-1.1,1.3-3.1,2.6-5.8,3.9l6.8,6.3c.3-.8.6-1.9.8-3.1.2-1.3.4-2.6.5-3.9h4.6c-.5,4.1-1.3,7.3-2.4,9.8l6.3,5.4-2.8,2.9-5.9-4.9c-1.4,1.8-2.9,3.1-4.7,3.8-1.8.8-4,1.2-6.6,1.2-4.2,0-7.3-.9-9.3-2.6ZM503.2,376c1.4-.6,2.4-1.4,3.1-2.6l-10.1-9.3c-1.9.6-3.3,1.4-4.1,2.4-.9,1-1.3,2.4-1.3,4.1s.6,3.7,1.8,4.7,3.1,1.6,5.6,1.6,3.6-.3,5-.9ZM503.2,358.3c.8-.9,1.2-2,1.2-3.3,0-2.7-1.5-4-4.4-4s-4.5,1.3-4.5,3.9.8,3.4,2.3,4.9l1.3,1.2c2-.9,3.4-1.8,4.2-2.7Z"/>
      <path class="st2" d="M568,350c2,1.3,3.3,3.1,4,5.3s1.1,4.9,1.1,8.2-.5,7.2-1.4,9.7c-.9,2.5-2.3,4.3-4.3,5.4-2,1.2-4.5,1.7-7.8,1.7h-12.2v-32.3h12.2c3.6,0,6.4.7,8.4,2ZM566.1,373.3c1.3-2.1,2-5.3,2-9.7s-.3-5-.8-6.7c-.6-1.7-1.4-2.9-2.7-3.7-1.2-.8-2.9-1.2-5-1.2h-7.3v24.4h7.3c3,0,5.2-1,6.5-3.1Z"/>
      <path class="st2" d="M591.3,352v10.1h13.6v3.9h-13.6v10.5h16.7v3.9h-21.5v-32.3h21.5v3.9h-16.7Z"/>
      <path class="st2" d="M618,348h5.1l7.4,28.4h2.7l7.4-28.4h5.1l-8.8,32.3h-10l-8.7-32.3Z"/>
      <path class="st2" d="M662.2,352v10.1h13.6v3.9h-13.6v10.5h16.7v3.9h-21.5v-32.3h21.5v3.9h-16.7Z"/>
      <path class="st2" d="M711.2,376.4v4h-19.3v-32.3h4.9v28.3h14.5Z"/>
      <path class="st2" d="M726,379.1c-2-1.2-3.5-2.9-4.4-5.3-.9-2.4-1.3-5.6-1.3-9.5s.4-7.1,1.3-9.5c.9-2.5,2.4-4.3,4.4-5.5s4.8-1.8,8.2-1.8,6.2.6,8.2,1.8c2,1.2,3.5,3,4.4,5.5s1.3,5.6,1.3,9.6-.4,7.1-1.3,9.4c-.9,2.4-2.3,4.2-4.3,5.3-2,1.2-4.8,1.7-8.3,1.7s-6.2-.6-8.2-1.7ZM739.7,375.6c1.3-.8,2.2-2.1,2.7-3.9.5-1.8.8-4.2.8-7.3s-.3-5.6-.8-7.4c-.5-1.9-1.5-3.2-2.8-4.1s-3.1-1.3-5.4-1.3-4.1.4-5.4,1.3c-1.3.9-2.2,2.3-2.8,4.1-.5,1.8-.8,4.3-.8,7.4s.3,5.5.8,7.2c.5,1.8,1.4,3.1,2.7,4,1.3.9,3.1,1.3,5.5,1.3s4.2-.4,5.5-1.2Z"/>
      <path class="st2" d="M761.5,348h12.7c3.9,0,6.8.9,8.6,2.6,1.9,1.8,2.8,4.4,2.8,8s-1,6.5-2.9,8.4c-1.9,1.9-4.8,2.8-8.6,2.8h-7.9v10.4h-4.9v-32.3ZM774.2,366c4.4,0,6.6-2.4,6.6-7.3s-.5-4.1-1.6-5.1c-1-1.1-2.7-1.6-5-1.6h-7.8v14h7.8Z"/>
      <path class="st2" d="M802.9,352v10.1h13.6v3.9h-13.6v10.5h16.7v3.9h-21.5v-32.3h21.5v3.9h-16.7Z"/>
      <path class="st2" d="M832.5,348h13c3.8,0,6.7.8,8.6,2.5,1.9,1.7,2.9,4.2,2.9,7.6s-2,7.9-6,9.4l6.2,12.9h-5.3l-5.6-11.9h-8.9v11.9h-4.9v-32.3ZM845.6,364.5c2.1,0,3.7-.5,4.8-1.6,1.1-1.1,1.6-2.7,1.6-4.7s-.5-3.6-1.6-4.7c-1.1-1.1-2.7-1.6-4.9-1.6h-8.2v12.6h8.2Z"/>
      <path class="st2" d="M870.5,379.9l-1.8-.3.5-3.6c4.5.6,8,.8,10.4.8,4.5,0,6.8-1.9,6.8-5.8s-.2-1.9-.7-2.6c-.5-.6-1.2-1.2-2.2-1.6s-2.5-.8-4.3-1.2c-2.7-.6-4.9-1.3-6.4-2-1.5-.7-2.6-1.7-3.3-2.8-.7-1.2-1.1-2.7-1.1-4.6,0-3,1-5.2,2.9-6.7,1.9-1.5,4.8-2.3,8.5-2.3s2.9,0,4.5.2c1.6.2,3.7.4,6.3.8l-.4,3.7c-4.6-.5-8-.8-10-.8-4.6,0-6.9,1.6-6.9,4.7s.3,2.1.8,2.7,1.4,1.2,2.5,1.6c1.1.4,2.9.9,5.2,1.4,2.4.6,4.3,1.2,5.7,1.9,1.3.7,2.3,1.6,3,2.7s.9,2.5.9,4.3c0,3.3-1,5.8-2.9,7.5s-4.8,2.5-8.5,2.5-5.5-.3-9.4-.9Z"/>
    </g>
  </g>
</svg>