<?xml version="1.0" encoding="UTF-8"?>
<svg id="Layer_1" xmlns="http://www.w3.org/2000/svg" version="1.1" viewBox="0 0 1720 320">
  <!-- Generator: Adobe Illustrator 29.1.0, SVG Export Plug-In . SVG Version: 2.1.0 Build 142)  -->
  <defs>
    <style>
      .st0 {
        fill: #156082;
      }
    </style>
  </defs>
  <g>
    <path class="st0" d="M36.2,169.2l4.6-.2c2.8,0,5.1-2.3,7-7,1.2-3.1,1.9-7.9,2.2-14.6.3-6.7.4-26.5.4-59.4v-34c0-2.1-.7-4.5-2-7.2-2.7-5.6-7.9-8.4-15.6-8.4s-3.4-.8-3.4-2.4.6-3,1.8-3l8,.2,29.2-.2,22-.6c12.1,0,22.3,2.9,30.4,8.7,8.1,5.8,12.2,14,12.2,24.7s-6,20.9-18,28.2c-1.3.9-2,1.5-2,1.6,0,.4,1.1.9,3.4,1.5,2.3.6,5,1.6,8.2,3,3.2,1.4,6.4,3.3,9.5,5.7,3.1,2.4,5.8,6,8.1,10.7,2.3,4.7,3.4,10.1,3.4,16.2s-1.7,12.4-5,18.9c-3.3,6.5-7.6,11.6-12.8,15.2s-10.3,6.1-15.4,7.5c-5.1,1.4-10.7,2.1-17,2.1s-13.8-.4-22.6-1.1-13.7-1.1-14.6-1.1l-17.2.8h-2.8c-2.8,0-4.2-1-4.2-2.9s.7-2.9,2.2-2.9ZM65.8,147.6l-.2,8.8c0,8,6.5,12,19.6,12h4.6c7.2,0,13.4-.4,18.7-1.3,5.3-.9,9.9-4,14-9.5,4.1-5.5,6.1-11.7,6.1-18.8s-1.2-13-3.6-17.7c-2.4-4.7-5.1-8.3-8.2-10.7-3.1-2.4-6.7-4.3-11-5.6-5.9-1.9-11.3-2.8-16.4-2.8l-15.6-.2-3-.2c-1.2,0-2.1.2-2.6.5-.5.3-1.1,1.6-1.6,3.9-.5,2.8-.8,12.1-.8,28v13.6ZM66.8,65.8c0,16.8.5,26.1,1.4,28,.5.9,4.3,1.4,11.4,1.4h12.8c8.4,0,14.7-2.2,18.9-6.6,4.2-4.4,6.3-10.2,6.3-17.4s-3.5-14.3-10.5-21.3-17-10.5-29.9-10.5-6.9,1.2-8.3,3.7c-1.4,2.5-2.1,8.1-2.1,16.9v5.8Z"/>
    <path class="st0" d="M184.6,177.8c-15.7,0-23.6-6.7-23.6-20s4-16.2,12-19.8c6.7-2.8,16.9-5.3,30.6-7.6.4-.1.9-.2,1.6-.3.7,0,1.4-.2,2.1-.3.7-.1,1.3-.3,1.7-.4.9-.4,1.4-1.3,1.4-2.8l.4-10.4c0-7.6-2.2-13.1-6.6-16.5-4.4-3.4-8.7-5.1-12.8-5.1-9.6,0-14.4,4-14.4,12l.8,7.2c0,2.7-1.2,4-3.6,4s-3.9-.3-6.2-1c-4.1-1.3-6.2-3.6-6.2-6.8,0-5.2,3.5-10.2,10.5-14.9,7-4.7,14-7.1,21.1-7.1s12.6.7,16.6,2c4,1.3,7,2.8,8.9,4.5,1.9,1.7,3.4,3.9,4.5,6.7,1.3,3.3,2,8.6,2,15.7s-.2,13.5-.5,19c-.3,5.5-.5,10.6-.5,15.1s.5,8.2,1.6,11.1c1.1,2.9,2.3,4.7,3.8,5.5,1.5.8,2.9,1.3,4.4,1.4,3.6.3,5.4,1.3,5.4,3.2,0,2.8-4.2,4.2-12.6,4.2s-6.4-.9-8.9-2.8c-2.5-1.9-4.2-3.7-5.3-5.5-1.1-1.8-1.7-2.7-1.8-2.7s-.7.4-1.6,1.3c-.9.9-2.2,1.9-3.9,3.1-1.7,1.2-3.6,2.4-5.7,3.6-4.9,2.9-10,4.4-15.2,4.4ZM209,133.2l-2,.4c-3.1.5-5,.9-5.8,1-.8.1-2.7.5-5.6,1.2-2.9.7-5,1.3-6.1,1.8-1.1.5-2.7,1.4-4.8,2.5-2.1,1.1-3.6,2.3-4.5,3.5-2.4,3.7-3.6,7.7-3.6,11.8s1.3,7.6,4,10.3c2.7,2.7,6.1,4.1,10.3,4.1s7.5-.5,10-1.6c2.5-1.1,4.3-2.3,5.5-3.6,1.2-1.3,2.1-3.1,2.8-5.4.8-2.5,1.2-5.8,1.2-9.8v-14.4c0-1.2-.5-1.8-1.4-1.8Z"/>
    <path class="st0" d="M251.6,39l-4,.2c-2.7,0-4-.7-4-2.2s3.3-3.2,9.8-5.2c.9-.3,2-.6,3.3-1,1.3-.4,2-.6,2.3-.7.3,0,.8-.2,1.5-.5.7-.3,1.1-.4,1.2-.5,0,0,.4-.2,1-.5.6-.3,1-.5,1.3-.7.3-.2.8-.5,1.6-1,.8-.5,2.1-1.3,3.9-2.4,1.8-1.1,3.6-1.7,5.3-1.7s2.6,1.3,2.6,3.8,0,1-.2,2.3c-.1,1.3-.3,3.1-.5,5.6-.2,2.5-.4,5.5-.5,9.1-.4,10.5-.6,21.7-.6,33.6l-.6,41v4.2c0,5.6.3,8.4.8,8.4,1.2,0,2.4-.7,3.7-2,1.3-1.3,2.2-2.2,2.7-2.6,18.7-14.9,28-23.3,28-25.2s-1.5-3.4-4.5-4.6c-3-1.2-4.5-2.3-4.5-3.4s.8-2,2.4-2l3.6.2,29.4-1c3.5,0,5.2.5,5.2,1.6s-.4,1.8-1.2,2.2c-.8.4-1.9.7-3.2.8-4.4.7-9.3,2.9-14.8,6.6-.4.3-.8.6-1.3,1-.5.4-1.3,1.1-2.6,2-1.3.9-2.8,2.1-4.5,3.4-1.7,1.3-4.9,3.8-9.6,7.3-4.7,3.5-7.5,5.8-8.6,6.7-1.1.9-1.6,1.9-1.6,3s.7,2.6,2.2,4.6c12.1,14.8,22.5,26,31.2,33.6,3.6,3.2,7.2,5.3,10.9,6.2,3.7.9,6.3,1.4,7.9,1.4s2.4.6,2.4,1.8-.6,2.6-1.7,2.9c-1.1.3-3.3.5-6.5.5l-20.8-.2c-3.3,0-13.8-10.9-31.4-32.6-3.5-4.3-5.4-6.7-5.7-7.2-.3-.5-1.1-.8-2.2-.8s-2.4.9-3.8,2.8c-1.4,1.9-2.1,4-2.1,6.4l.2,3.4c0,9.6.5,15.1,1.6,16.4.1.1.8,1,1.9,2.5,1.1,1.5,3.9,2.7,8.4,3.5,4.5.8,6.7,1.8,6.7,3,0,2.1-2.1,3.2-6.2,3.2l-19.4-1.2-14.6.8c-3.2,0-4.8-.8-4.8-2.4s1.7-2.5,5-3.4c3.1-1.2,5-2.9,5.8-5.2.8-2.3,1.2-6.7,1.2-13.2l.2-8.8.2-88.8c0-10-3.1-15-9.4-15Z"/>
    <path class="st0" d="M359.2,102.2l-2.2-.2c-2.5,0-3.8-1.1-3.8-3.2s.9-2.6,2.7-3.3c1.8-.7,5.1-1.9,10-3.4,4.9-1.5,8.7-2.9,11.5-4.2,2.8-1.3,4.5-1.9,5-1.9,1.7,0,2.6,1.3,2.6,4l-.2,5.4c0,4.8.2,7.4.5,7.9.3.5.7.7,1,.7s1.4-1.3,3.1-4c1.7-2.7,4.2-5.4,7.4-8.1,3.2-2.7,6.4-4.1,9.5-4.1s6.4,1.1,9.7,3.3c3.3,2.2,5,4.4,5,6.6s-.5,4.2-1.6,6.1c-1.9,3.2-3.6,4.8-5.2,4.8s-3-.8-5.7-2.4c-2.7-1.6-5.9-2.4-9.5-2.4s-7,1.5-10.1,4.4c-3.1,2.9-4.7,5.6-4.7,8v20.8l.2,17.4.2,3.6c0,2.8.9,5.2,2.8,7.2,1.9,2,3.6,3.1,5.3,3.4,1.7.3,3.1.5,4.3.6,1.2.1,2.1.2,2.8.3.7,0,1.4.2,2.2.5,1.5.3,2.2,1.2,2.2,2.9s-.8,2.5-2.4,2.5l-17-1-20.8,1c-2.4,0-3.7-.3-4-.8-.3-.5-.4-1.1-.4-1.6,0-1.7.9-2.9,2.6-3.4,3.5-.8,5.6-2.5,6.3-5.1.7-2.6,1.1-8.2,1.1-16.7l-.2-32.2-.2-6c0-1.5-.2-2.7-.6-3.6-1.1-2.5-4.2-3.8-9.4-3.8Z"/>
    <path class="st0" d="M443.9,167.8c-8.2-7.2-12.3-17.6-12.3-31.3s3.8-25.1,11.3-34.3c7.5-9.2,17.3-13.8,29.3-13.8s10.7,1,15.3,3c4.6,2,8.2,4.4,10.7,7.3,2.5,2.9,4.7,5.9,6.4,9.1,2.9,5.5,4.4,9.6,4.4,12.4s-2.7,3.6-8.2,3.6h-51.4c-1.1,0-1.7.1-1.9.3-.2.2-.3.8-.3,1.9,0,12.5,3.4,22.4,10.1,29.6,6.7,7.2,14.6,10.8,23.7,10.8s11.3-1.5,17.1-4.5,8.8-4.5,9.1-4.5c1.3,0,2,.6,2,1.8s-1.5,3.8-4.4,6.5c-2.9,2.7-5.7,5-8.4,6.7-6.4,4.1-13.9,6.2-22.6,6.2s-21.7-3.6-29.9-10.8ZM451,119l35.2-1.2c1.9,0,3-.2,3.5-.5.5-.3.7-1,.7-1.9,0-4-1.9-8.7-5.6-14-3.7-5.3-8.9-8-15.6-8s-11.8,2.6-15.4,7.9c-3.6,5.3-5.4,10.2-5.4,14.9s.9,2.8,2.6,2.8Z"/>
    <path class="st0" d="M738.2,169.8l7.2-.6c1.7,0,2.6.6,2.6,1.8,0,2.1-1.9,3.9-5.7,5.4-3.8,1.5-8.3,2.2-13.6,2.2s-10.3-.7-15.1-2.1c-4.8-1.4-8.9-3.1-12.2-5-3.3-1.9-6.3-3.9-8.8-5.9-2.5-2-4.6-3.7-6.1-5.1-1.5-1.4-2.5-2.1-2.9-2.1s-1.4.7-2.9,2.1c-1.5,1.4-3.6,3.1-6.1,5.2-2.5,2.1-5.6,4.2-9.2,6.3-8.5,4.8-19.9,7.2-34.2,7.2s-18-1.4-25.6-4.1c-7.6-2.7-13.6-5.9-18.1-9.5-4.5-3.6-8.3-8.8-11.4-15.6-3.1-6.8-4.7-14.7-4.7-23.6s.8-9.2,2.3-14.1c1.5-4.9,3.7-9,6.4-12.4,2.7-3.4,6.1-6.2,10.2-8.3,4.1-2.1,7.3-3.5,9.8-4,2.5-.5,3.7-1,3.7-1.3s-.8-1.5-2.4-3.4c-1.6-1.9-3.2-4.9-4.8-8.8-1.6-3.9-2.4-8.4-2.4-13.5,0-8.8,3.9-15.4,11.6-19.9,7.7-4.5,16.4-6.7,26-6.7s9.1.8,13.2,2.3c4.1,1.5,6.5,2.3,7,2.3l4.4-.6c2.1,0,3.2,1.5,3.2,4.6l.8,13.6c0,3.9,0,6.2-.3,7-.2.8-.8,1.2-1.7,1.2s-2.4-1.2-4.4-3.6-4.1-5-6.4-7.9c-2.3-2.9-5.3-5.5-9.1-7.9-3.8-2.4-8.3-3.6-13.4-3.6s-9.2,1.6-12.3,4.9c-3.1,3.3-4.6,6.7-4.6,10.2s1.8,7.9,5.5,13.2c3.7,5.3,7.4,9.9,11.2,13.9s9.9,10.2,18.4,18.7c8.5,8.5,17.4,16.7,26.7,24.7,9.3,8,14.5,12,15.5,12s1.9-.6,2.7-1.8c1.9-2.5,2.8-6.9,2.8-13.1s-.7-10.8-2.1-13.8-2.6-4.9-3.7-5.6c-1.1-.7-2.5-1.5-4.3-2.4-1.8-.9-3.4-1.4-4.8-1.5-1.4-.1-2.4-.4-3.1-.7-.7-.3-1-1-1-2s.3-1.6.9-1.9c.6-.3,2-.4,4.1-.4l29.8.4c2.5,0,3.8.9,3.8,2.6s-1.3,2.5-3.8,3.2c-.9.3-1.8,1.1-2.7,2.4-.9,1.3-1.4,3-1.5,5-.1,2-.3,4-.6,6-.8,8.4-1.9,14.3-3.3,17.8-1.4,3.5-2.6,6.2-3.6,8.2s-1.5,3.2-1.5,3.6c0,1.2,4,4.3,11.9,9.3,7.9,5,16,9.5,24.1,13.5,2.7,1.3,5.5,2,8.6,2ZM598,149.2c4.3,4.8,10.3,8.8,18,11.9,7.7,3.1,15.4,4.7,23.1,4.7s14.3-1,19.8-2.9c5.5-1.9,9.7-3.9,12.5-5.8,2.8-1.9,4.2-3.3,4.2-4.1s-1.7-2.1-5.2-4.7c-3.5-2.6-9.2-7.3-17.2-14.1-8-6.8-14.5-12.7-19.6-17.8-6.9-6.9-12.3-12.3-16.2-16.2-3.9-3.9-6.1-6.1-6.7-6.8-.6-.7-1.1-1.1-1.5-1.4-.4-.3-.8-.5-1.2-.8-.4-.4-.9-.6-1.6-.6-4.4,0-9.1,2.8-14.2,8.4-5.1,5.6-7.6,12.9-7.6,21.8s4.5,18.4,13.4,28.4Z"/>
    <path class="st0" d="M818.6,174.8l-17.2.8c-3.9,0-5.8-.8-5.8-2.4s1-3.1,3-3.8c4.3-1.6,8-5.2,11.2-10.7,3.2-5.5,11.2-22.3,24.1-50.2,12.9-27.9,24.3-52.6,34.3-73.9.9-2,1.8-3.3,2.5-3.8.7-.5,1.8-.8,3.2-.8s2.3.3,2.7.8c.4.5,1.1,2.3,2.2,5.4,1.1,3.1,1.9,5.4,2.5,7s1.6,4.2,2.9,7.8c1.3,3.6,3.5,9,6.4,16.2,2.9,7.2,9.6,23,20.1,47.3,10.5,24.3,16.5,38.1,18.1,41.4,1.6,3.3,3.8,6.1,6.6,8.4,2.8,2.3,5.2,3.6,7.3,3.8,2.1.2,3.8.5,5.2,1,1.4.5,2.1,1.5,2.1,3.1s-1.8,3-5.4,3l-18-1.2-18.6.8c-4.1,0-6.8-.2-7.9-.5-1.1-.3-1.7-1-1.7-2.1s.5-1.9,1.6-2.5c1.1-.6,2.2-1,3.4-1.2,1.2-.2,2.3-.8,3.4-1.8,1.1-1,1.6-2.7,1.6-5s-1.7-8-5-17.1c-3.3-9.1-6.1-15.7-8.4-20-1.2-2.3-3.9-3.4-8.2-3.4l-24.2.4h-10.6c-6,0-9.8.3-11.3,1-1.5.7-2.8,2.1-3.8,4.2-1,2.1-2.4,5.1-4.3,8.9-1.9,3.8-3.1,6.4-3.8,7.9-.7,1.5-1.5,3.3-2.4,5.6-1.7,4-2.6,7.3-2.6,10s.8,4.8,2.3,6.4c1.5,1.6,3.2,2.5,5.1,2.8,4.9.4,7.4,1.7,7.4,3.8s-.2,1.6-.6,2.1c-.4.5-1.3.7-2.8.7l-16.6-.2ZM855.4,82.9c-6.4,14.7-9.6,22.9-9.6,24.5s.6,2.6,1.8,3,4,.6,8.4.6h6.2l19-.2c5.2,0,7.8-1,7.8-2.9s-3.3-10.3-9.8-25c-6.5-14.7-10.7-22.1-12.4-22.1s-5,7.4-11.4,22.1Z"/>
    <path class="st0" d="M1019.6,94.6l.8,12c0,2.3-.3,3.8-.8,4.6-.5.8-1.3,1.2-2.3,1.2s-2.1-1-3.2-2.9c-1.1-1.9-2.4-4-3.8-6.3-1.4-2.3-3.7-4.4-6.8-6.3-3.1-1.9-6.7-2.9-10.7-2.9s-7.3,1-9.8,2.9c-2.5,1.9-3.8,4-3.8,6.3s.2,4.1.6,5.5c.4,1.4,1.1,2.6,2.1,3.7,1,1.1,1.9,2,2.6,2.7.7.7,2,1.5,3.7,2.3,1.7.8,3,1.4,3.9,1.7.9.3,2.3.9,4.3,1.7,12.1,4.3,19.9,8.4,23.4,12.5,3.5,4.1,5.2,9.9,5.2,17.5s-3.5,14.6-10.6,21c-4.8,4.1-11.4,6.2-19.8,6.2s-12.1-1.4-19.2-4.2c-2-.8-3.2-1.2-3.5-1.3-.3,0-.9-.2-1.6-.5-.7-.3-1.3-.4-1.6-.5-.3,0-.8-.2-1.3-.5-.5-.3-.9-.5-1.1-.7-.2-.2-.4-.5-.7-.9-.4-.7-.6-1.7-.6-3.2v-17.4c0-1.5.3-2.7.9-3.7.6-1,1.4-1.5,2.5-1.5s1.8.3,2.3.9c.5.6.9,1.8,1.3,3.7.4,1.9.8,3.2,1.2,4,4.9,12.3,11.9,18.4,20.8,18.4s8.1-1.1,11.8-3.3c3.7-2.2,5.6-5.7,5.6-10.4s-1.5-8.6-4.6-11.5c-3.1-2.9-6.8-5.2-11.2-6.9-4.4-1.7-8.8-3.4-13.2-5.2-4.4-1.8-8.1-4.5-11.2-8-3.1-3.5-4.6-8-4.6-13.3s3-13.5,9-18c6-4.5,12.6-6.8,19.8-6.8s12.7.6,16.4,1.7c3.7,1.1,6,2.2,6.7,3.1.7.9,1.1,1.8,1.1,2.6Z"/>
    <path class="st0" d="M1098.2,94.6l.8,12c0,2.3-.3,3.8-.8,4.6-.5.8-1.3,1.2-2.3,1.2s-2.1-1-3.2-2.9c-1.1-1.9-2.4-4-3.8-6.3-1.4-2.3-3.7-4.4-6.8-6.3-3.1-1.9-6.7-2.9-10.7-2.9s-7.3,1-9.8,2.9c-2.5,1.9-3.8,4-3.8,6.3s.2,4.1.6,5.5,1.1,2.6,2.1,3.7c1,1.1,1.9,2,2.6,2.7.7.7,2,1.5,3.7,2.3,1.7.8,3,1.4,3.9,1.7.9.3,2.3.9,4.3,1.7,12.1,4.3,19.9,8.4,23.4,12.5,3.5,4.1,5.2,9.9,5.2,17.5s-3.5,14.6-10.6,21c-4.8,4.1-11.4,6.2-19.8,6.2s-12.1-1.4-19.2-4.2c-2-.8-3.2-1.2-3.5-1.3-.3,0-.9-.2-1.6-.5-.7-.3-1.3-.4-1.6-.5-.3,0-.8-.2-1.3-.5-.5-.3-.9-.5-1.1-.7s-.4-.5-.7-.9c-.4-.7-.6-1.7-.6-3.2v-17.4c0-1.5.3-2.7.9-3.7.6-1,1.4-1.5,2.5-1.5s1.8.3,2.3.9c.5.6.9,1.8,1.3,3.7.4,1.9.8,3.2,1.2,4,4.9,12.3,11.9,18.4,20.8,18.4s8.1-1.1,11.8-3.3c3.7-2.2,5.6-5.7,5.6-10.4s-1.5-8.6-4.6-11.5c-3.1-2.9-6.8-5.2-11.2-6.9-4.4-1.7-8.8-3.4-13.2-5.2-4.4-1.8-8.1-4.5-11.2-8-3.1-3.5-4.6-8-4.6-13.3s3-13.5,9-18c6-4.5,12.6-6.8,19.8-6.8s12.7.6,16.4,1.7c3.7,1.1,6,2.2,6.7,3.1.7.9,1.1,1.8,1.1,2.6Z"/>
    <path class="st0" d="M1163.7,178.4c-13.7,0-24.5-4.4-32.6-13.1-8.1-8.7-12.1-19.2-12.1-31.3s4.2-22.7,12.5-31.8c8.3-9.1,19.3-13.6,33-13.6s25.1,3.9,34.4,11.8c9.3,7.9,13.9,18.8,13.9,32.8s-4.8,25-14.3,33.1c-9.5,8.1-21.1,12.1-34.8,12.1ZM1142.9,102.2c-5.4,5.5-8.1,14.5-8.1,27s3.7,22.9,11,31c7.3,8.1,15.2,12.2,23.7,12.2s15.3-2.9,20.5-8.7c5.2-5.8,7.8-14.3,7.8-25.5s-3.2-21.4-9.6-30.5c-6.4-9.1-15.3-13.7-26.8-13.7s-13.1,2.7-18.5,8.2Z"/>
    <path class="st0" d="M1239.7,167.6c-7.5-7.6-11.3-17.9-11.3-30.9s4.3-24.2,12.9-33.6c8.6-9.4,19.8-14.1,33.5-14.1s9.7.7,15.1,2c5.4,1.3,8.2,2.9,8.3,4.6.3,3.2.4,7,.4,11.5s-.7,6.7-2.2,6.7-2.5-.9-3.6-2.6c-2.3-3.9-6.6-7.2-12.9-10.1-6.3-2.9-11.9-4.3-16.7-4.3s-5.3,1-7.8,3c-2.5,2-4.6,4.2-6.2,6.6-3.9,5.6-5.8,13.5-5.8,23.8s3.3,19.2,9.9,26.9c6.6,7.7,14.7,11.5,24.3,11.5s9-.9,13-2.6c4-1.7,7.1-3.5,9.3-5.2,2.2-1.7,3.6-2.6,4.1-2.6,1.5,0,2.2.7,2.2,2s-1.4,3.4-4.2,6.1c-2.8,2.7-5.5,4.9-8.2,6.5-6.5,4.1-14.5,6.2-24,6.2s-22.6-3.8-30.1-11.4Z"/>
    <path class="st0" d="M1342.8,175.6l-14.2.4c-5.3,0-8-.9-8-2.7s1-3,3-3.7c.1,0,.4,0,.8-.2,3.1-1.1,5.1-2.7,6-4.8.9-2.1,1.4-12.5,1.4-31v-17.6c0-3.9-.5-6.9-1.4-9.2-.9-2.3-1.8-3.7-2.6-4.2-.8-.5-2.2-1-4.1-1.3-1.9-.3-3.3-.7-4.2-1-.9-.3-1.3-.9-1.3-1.6s.2-1.3.5-1.7c.3-.4,1-.8,2-1.3,1-.5,2-.9,3.1-1.3,3.7-1.1,6.8-2.1,9.2-3.2,2.4-1.1,4.2-1.9,5.5-2.4,1.3-.5,2.1-.9,2.5-1.2.9-.4,2.1-.6,3.4-.6,2,0,3,1.3,3,3.8l-1.2,9.6v54.8c0,4,.6,7.1,1.9,9.4,1.3,2.3,2.6,3.7,4,4.2,1.4.5,3,.9,4.9,1,1.9.1,3.1.2,3.6.2,1.9.3,2.8,1.2,2.8,2.8,0,2.3-1.1,3.4-3.4,3.4l-3-.2-14.2-.4ZM1332.5,64c-1.9-2.8-2.9-5.1-2.9-6.9s1.2-4.1,3.5-7c2.3-2.9,4.5-4.3,6.6-4.3s4.1,1.4,6.1,4.1c2,2.7,3,5.2,3,7.3s-1.3,4.5-3.8,7.1c-2.5,2.6-4.4,3.9-5.6,3.9-2.7,0-5-1.4-6.9-4.2Z"/>
    <path class="st0" d="M1401,177.8c-15.7,0-23.6-6.7-23.6-20s4-16.2,12-19.8c6.7-2.8,16.9-5.3,30.6-7.6.4-.1.9-.2,1.6-.3.7,0,1.4-.2,2.1-.3.7-.1,1.3-.3,1.7-.4.9-.4,1.4-1.3,1.4-2.8l.4-10.4c0-7.6-2.2-13.1-6.6-16.5-4.4-3.4-8.7-5.1-12.8-5.1-9.6,0-14.4,4-14.4,12l.8,7.2c0,2.7-1.2,4-3.6,4s-3.9-.3-6.2-1c-4.1-1.3-6.2-3.6-6.2-6.8,0-5.2,3.5-10.2,10.5-14.9,7-4.7,14-7.1,21.1-7.1s12.6.7,16.6,2c4,1.3,7,2.8,8.9,4.5,1.9,1.7,3.4,3.9,4.5,6.7,1.3,3.3,2,8.6,2,15.7s-.2,13.5-.5,19c-.3,5.5-.5,10.6-.5,15.1s.5,8.2,1.6,11.1c1.1,2.9,2.3,4.7,3.8,5.5,1.5.8,2.9,1.3,4.4,1.4,3.6.3,5.4,1.3,5.4,3.2,0,2.8-4.2,4.2-12.6,4.2s-6.4-.9-8.9-2.8c-2.5-1.9-4.2-3.7-5.3-5.5-1.1-1.8-1.7-2.7-1.8-2.7s-.7.4-1.6,1.3c-.9.9-2.2,1.9-3.9,3.1-1.7,1.2-3.6,2.4-5.7,3.6-4.9,2.9-10,4.4-15.2,4.4ZM1425.4,133.2l-2,.4c-3.1.5-5,.9-5.8,1-.8.1-2.7.5-5.6,1.2-2.9.7-5,1.3-6.1,1.8-1.1.5-2.7,1.4-4.8,2.5-2.1,1.1-3.6,2.3-4.5,3.5-2.4,3.7-3.6,7.7-3.6,11.8s1.3,7.6,4,10.3c2.7,2.7,6.1,4.1,10.3,4.1s7.5-.5,10-1.6c2.5-1.1,4.3-2.3,5.5-3.6,1.2-1.3,2.1-3.1,2.8-5.4.8-2.5,1.2-5.8,1.2-9.8v-14.4c0-1.2-.5-1.8-1.4-1.8Z"/>
    <path class="st0" d="M1470.6,100.6l-3.8.2c-2.3,0-3.4-.9-3.4-2.8s.6-2.5,1.8-3.4c5.1-3.3,10.1-8.3,15.2-15,2.1-3.1,3.8-5.3,5.1-6.7,1.3-1.4,2.6-2.1,3.9-2.1s2,1.5,2,4.6l-.8,11.4c0,1.9.4,3,1.1,3.4.7.4,3.1.6,7.1.6h7c6,0,9.7-.3,11-1,2.4-1.2,3.9-1.8,4.4-1.8,1.3,0,2,.7,2,2.2s-.9,3.2-2.6,6.3c-1.7,3.1-3,4.7-3.8,4.7-6,0-10.2-.1-12.6-.4-2.4-.3-4-.4-4.8-.5-.8,0-1.5-.1-2.1-.2-.6,0-1,0-1.3,0l-.4-.2c-2.5,0-4.2.4-4.9,1.2-.7.8-1.1,2.6-1.1,5.4l-.8,37.2c0,8.7,1.1,14.7,3.3,18.1,2.2,3.4,6.8,5.1,13.9,5.1s5.9-.6,9.3-1.9c3.4-1.3,5.2-1.9,5.5-1.9,1.3,0,2,.9,2,2.6s-2.3,4-6.9,6.9c-4.6,2.9-9.6,4.3-14.9,4.3-18,0-27-7.8-27-23.4v-3l.8-46.6c0-1.3-.3-2.2-.8-2.6-.5-.4-1.7-.6-3.4-.6Z"/>
    <path class="st0" d="M1546.5,167.8c-8.2-7.2-12.3-17.6-12.3-31.3s3.8-25.1,11.3-34.3c7.5-9.2,17.3-13.8,29.3-13.8s10.7,1,15.3,3c4.6,2,8.2,4.4,10.7,7.3,2.5,2.9,4.7,5.9,6.4,9.1,2.9,5.5,4.4,9.6,4.4,12.4s-2.7,3.6-8.2,3.6h-51.4c-1.1,0-1.7.1-1.9.3-.2.2-.3.8-.3,1.9,0,12.5,3.4,22.4,10.1,29.6,6.7,7.2,14.6,10.8,23.7,10.8s11.3-1.5,17.1-4.5,8.8-4.5,9.1-4.5c1.3,0,2,.6,2,1.8s-1.5,3.8-4.4,6.5c-2.9,2.7-5.7,5-8.4,6.7-6.4,4.1-13.9,6.2-22.6,6.2s-21.7-3.6-29.9-10.8ZM1553.6,119l35.2-1.2c1.9,0,3-.2,3.5-.5.5-.3.7-1,.7-1.9,0-4-1.9-8.7-5.6-14-3.7-5.3-8.9-8-15.6-8s-11.8,2.6-15.4,7.9c-3.6,5.3-5.4,10.2-5.4,14.9s.9,2.8,2.6,2.8Z"/>
    <path class="st0" d="M1685.2,94.6l.8,12c0,2.3-.3,3.8-.8,4.6-.5.8-1.3,1.2-2.3,1.2s-2.1-1-3.2-2.9c-1.1-1.9-2.4-4-3.8-6.3-1.4-2.3-3.7-4.4-6.8-6.3-3.1-1.9-6.7-2.9-10.7-2.9s-7.3,1-9.8,2.9c-2.5,1.9-3.8,4-3.8,6.3s.2,4.1.6,5.5c.4,1.4,1.1,2.6,2.1,3.7,1,1.1,1.9,2,2.6,2.7.7.7,2,1.5,3.7,2.3,1.7.8,3,1.4,3.9,1.7.9.3,2.3.9,4.3,1.7,12.1,4.3,19.9,8.4,23.4,12.5,3.5,4.1,5.2,9.9,5.2,17.5s-3.5,14.6-10.6,21c-4.8,4.1-11.4,6.2-19.8,6.2s-12.1-1.4-19.2-4.2c-2-.8-3.2-1.2-3.5-1.3-.3,0-.9-.2-1.6-.5-.7-.3-1.3-.4-1.6-.5-.3,0-.8-.2-1.3-.5-.5-.3-.9-.5-1.1-.7s-.4-.5-.7-.9c-.4-.7-.6-1.7-.6-3.2v-17.4c0-1.5.3-2.7.9-3.7.6-1,1.4-1.5,2.5-1.5s1.8.3,2.3.9c.5.6.9,1.8,1.3,3.7.4,1.9.8,3.2,1.2,4,4.9,12.3,11.9,18.4,20.8,18.4s8.1-1.1,11.8-3.3c3.7-2.2,5.6-5.7,5.6-10.4s-1.5-8.6-4.6-11.5c-3.1-2.9-6.8-5.2-11.2-6.9-4.4-1.7-8.8-3.4-13.2-5.2-4.4-1.8-8.1-4.5-11.2-8-3.1-3.5-4.6-8-4.6-13.3s3-13.5,9-18c6-4.5,12.6-6.8,19.8-6.8s12.7.6,16.4,1.7c3.7,1.1,6,2.2,6.7,3.1.7.9,1.1,1.8,1.1,2.6Z"/>
  </g>
  <g>
    <path class="st0" d="M409.8,266.1c0-6.5,1.3-12.3,3.8-17.5s6.4-9.4,11.7-12.6c5.2-3.2,11.5-4.8,18.7-4.8s7.3.5,11.1,1.6c3.7,1.1,6.7,2.2,8.9,3.2l3.3,1.7c.2,0,.5-.1.9-.5.4-.3.8-.5,1-.5s.6.1.9.4c.3.2.5.9.5,2,0,1.1.1,2.6.4,4.6.2,2,.4,3.6.6,4.8s.3,2,.3,2.2c0,1.1-.4,1.6-1.1,1.6s-1-.4-1.5-1.3c-5.8-10.9-14.2-16.4-25.2-16.4s-13.7,2.4-18.5,7.2c-4.8,4.8-7.2,11.1-7.2,18.8s2.2,16,6.7,22.1c2.3,3.1,5.4,5.6,9.4,7.4s8.6,2.7,13.9,2.7c8.6,0,15.9-4.5,21.8-13.5.2-.4.7-.6,1.4-.6s.8.4.8,1.1-.1,1.7-.3,2.8c-.2,1.1-.5,2.3-.8,3.7-.3,1.4-.5,2.2-.5,2.5-.1.7-.6,1.2-1.4,1.6-3.2,1.6-5.8,2.7-7.6,3.5-4.8,2-9.9,3.1-15.3,3.1s-10.2-.6-14.4-1.9c-4.2-1.3-7.6-2.9-10.3-5-2.7-2-4.9-4.4-6.7-7.2-3.2-4.9-4.9-10.5-4.9-17Z"/>
    <path class="st0" d="M490.3,294.9l-6.4.5c-1.5,0-2.3,0-2.3-.3,0-.2,0-.4,0-.6,0-.6.4-1,1.1-1.2,1.7-.5,2.9-1.2,3.4-2.3.5-1,.8-2.6.8-4.6l.4-30.7v-4.4c0-8.2-.2-13.1-.5-14.9-.4-1.8-1.4-2.7-3.2-2.7h-1.5c-1,0-1.5-.4-1.5-.9s.3-1,.9-1.3c.6-.3,1.5-.6,2.7-.9,1.2-.3,2.8-.9,5-1.9s3.5-1.4,4.1-1.4c.8,0,1.2.7,1.2,2.1s-.1,1-.3,2.2c-.2,1.1-.3,3.3-.4,6.6,0,3.3,0,6.8-.2,10.5,0,3.8-.2,6.3-.2,7.6-.1,2.5-.2,4.3-.2,5.3s.2,1.5.7,1.5.7-.6,1.8-1.7c1.1-1.1,2.6-2.2,4.6-3.3,1.9-1.1,4-1.7,6.3-1.7,4.9,0,8.6,1.4,11.3,4.3,2.7,2.9,4.1,7.4,4.1,13.4v13.1c0,1.6.3,2.9.9,3.8.6.9,1.3,1.4,2.1,1.4,3.2.3,4.9.9,4.9,1.9s-.9,1.4-2.8,1.4l-7.6-.5-6.9.3c-1.4,0-2.1-.3-2.1-.9,0-1.1.8-1.6,2.4-1.6s1.2-.3,1.7-1c.5-.7.8-1.7.8-3.1v-2.3c0,0,.2-12.6.2-12.6,0-3.7-1.1-6.8-3.3-9.5-2.2-2.7-4.8-4-7.7-4s-5.9,1.2-8.9,3.5c-1.1.8-1.8,2.2-2.1,4.1-.3,1.9-.5,6.1-.5,12.6v2.1c0,2.7.2,4.9.6,6.6.7,2.3,2.3,3.6,5,3.8.8,0,1.5.2,1.9.3.4.2.7.5.7.9,0,.7-.3,1.1-1,1.1h-2.3c-1.6-.1-3.1-.2-4.7-.3s-2.4-.1-2.6-.1Z"/>
    <path class="st0" d="M546.2,296.7c-7.1,0-10.6-3-10.6-9s1.8-7.3,5.4-8.9c3-1.3,7.6-2.4,13.8-3.4.2,0,.4-.1.7-.1.3,0,.6,0,.9-.1.3,0,.6-.1.8-.2.4-.2.6-.6.6-1.3l.2-4.7c0-3.4-1-5.9-3-7.4s-3.9-2.3-5.8-2.3c-4.3,0-6.5,1.8-6.5,5.4l.4,3.2c0,1.2-.5,1.8-1.6,1.8s-1.8-.1-2.8-.5c-1.9-.6-2.8-1.6-2.8-3.1,0-2.3,1.6-4.6,4.7-6.7,3.2-2.1,6.3-3.2,9.5-3.2s5.7.3,7.5.9c1.8.6,3.1,1.3,4,2,.9.8,1.5,1.8,2,3,.6,1.5.9,3.9.9,7.1s0,6.1-.2,8.5c-.2,2.5-.2,4.8-.2,6.8s.2,3.7.7,5c.5,1.3,1,2.1,1.7,2.5.7.4,1.3.6,2,.6,1.6.1,2.4.6,2.4,1.4,0,1.3-1.9,1.9-5.7,1.9s-2.9-.4-4-1.3c-1.1-.8-1.9-1.7-2.4-2.5-.5-.8-.8-1.2-.8-1.2s-.3.2-.7.6c-.4.4-1,.9-1.8,1.4-.8.5-1.6,1.1-2.6,1.6-2.2,1.3-4.5,2-6.8,2ZM557.2,276.6l-.9.2c-1.4.2-2.2.4-2.6.5-.4,0-1.2.2-2.5.5-1.3.3-2.2.6-2.7.8-.5.2-1.2.6-2.2,1.1-.9.5-1.6,1-2,1.6-1.1,1.7-1.6,3.5-1.6,5.3s.6,3.4,1.8,4.6c1.2,1.2,2.7,1.8,4.6,1.8s3.4-.2,4.5-.7c1.1-.5,1.9-1,2.5-1.6.5-.6,1-1.4,1.3-2.4.4-1.1.5-2.6.5-4.4v-6.5c0-.5-.2-.8-.6-.8Z"/>
    <path class="st0" d="M576.2,262.6h-1c-1.1,0-1.7-.6-1.7-1.5s.4-1.2,1.2-1.5c.8-.3,2.3-.8,4.5-1.5,2.2-.7,3.9-1.3,5.2-1.9,1.3-.6,2-.9,2.2-.9.8,0,1.2.6,1.2,1.8v2.4c0,2.2,0,3.3.1,3.6.1.2.3.3.5.3s.6-.6,1.4-1.8c.8-1.2,1.9-2.4,3.3-3.6,1.4-1.2,2.9-1.8,4.3-1.8s2.9.5,4.4,1.5c1.5,1,2.2,2,2.2,3s-.2,1.9-.7,2.7c-.8,1.4-1.6,2.2-2.3,2.2s-1.3-.4-2.6-1.1c-1.2-.7-2.7-1.1-4.3-1.1s-3.1.7-4.5,2c-1.4,1.3-2.1,2.5-2.1,3.6v17.2c0,0,.2,1.6.2,1.6,0,1.3.4,2.3,1.3,3.2.8.9,1.6,1.4,2.4,1.5.7.1,1.4.2,1.9.3.5,0,1,.1,1.3.1.3,0,.6.1,1,.2.7.1,1,.6,1,1.3s-.4,1.1-1.1,1.1l-7.6-.5-9.4.5c-1.1,0-1.7-.1-1.8-.4-.1-.2-.2-.5-.2-.7,0-.8.4-1.3,1.2-1.5,1.6-.4,2.5-1.1,2.8-2.3.3-1.2.5-3.7.5-7.5v-14.5c0,0-.2-2.7-.2-2.7,0-.7,0-1.2-.3-1.6-.5-1.1-1.9-1.7-4.2-1.7Z"/>
    <path class="st0" d="M610.9,261.9h-1.7c-1,0-1.5-.3-1.5-1.2s.3-1.1.8-1.5c2.3-1.5,4.6-3.7,6.8-6.8,1-1.4,1.7-2.4,2.3-3,.6-.6,1.2-.9,1.8-.9s.9.7.9,2.1l-.4,5.1c0,.8.2,1.3.5,1.5.3.2,1.4.3,3.2.3h3.2c2.7,0,4.3-.1,5-.5,1.1-.5,1.7-.8,2-.8.6,0,.9.3.9,1s-.4,1.4-1.2,2.8c-.8,1.4-1.4,2.1-1.7,2.1-2.7,0-4.6,0-5.7-.2-1.1-.1-1.8-.2-2.2-.2s-.7,0-.9,0c-.3,0-.5,0-.6,0h-.2c-1.1,0-1.9,0-2.2.5-.3.4-.5,1.2-.5,2.4l-.4,16.7c0,3.9.5,6.6,1.5,8.1,1,1.5,3.1,2.3,6.3,2.3s2.7-.3,4.2-.9c1.5-.6,2.4-.9,2.5-.9.6,0,.9.4.9,1.2s-1,1.8-3.1,3.1c-2.1,1.3-4.3,1.9-6.7,1.9-8.1,0-12.1-3.5-12.1-10.5v-1.3l.4-21c0-.6-.1-1-.4-1.2-.2-.2-.8-.3-1.5-.3Z"/>
    <path class="st0" d="M645.1,292.2c-3.7-3.2-5.5-7.9-5.5-14.1s1.7-11.3,5.1-15.4c3.4-4.1,7.8-6.2,13.2-6.2s4.8.5,6.9,1.4c2.1.9,3.7,2,4.8,3.3,1.1,1.3,2.1,2.7,2.9,4.1,1.3,2.5,2,4.3,2,5.6s-1.2,1.6-3.7,1.6h-23.1c-.5,0-.8,0-.9.1s-.1.4-.1.9c0,5.6,1.5,10.1,4.5,13.3,3,3.2,6.6,4.9,10.7,4.9s5.1-.7,7.7-2c2.6-1.3,4-2,4.1-2,.6,0,.9.3.9.8s-.7,1.7-2,2.9c-1.3,1.2-2.6,2.2-3.8,3-2.9,1.9-6.3,2.8-10.2,2.8s-9.8-1.6-13.5-4.9ZM648.3,270.2l15.8-.5c.8,0,1.4,0,1.6-.2.2-.1.3-.4.3-.9,0-1.8-.8-3.9-2.5-6.3-1.7-2.4-4-3.6-7-3.6s-5.3,1.2-6.9,3.6c-1.6,2.4-2.4,4.6-2.4,6.7s.4,1.3,1.2,1.3Z"/>
    <path class="st0" d="M682.7,262.6h-1c-1.1,0-1.7-.6-1.7-1.5s.4-1.2,1.2-1.5c.8-.3,2.3-.8,4.5-1.5,2.2-.7,3.9-1.3,5.2-1.9,1.3-.6,2-.9,2.2-.9.8,0,1.2.6,1.2,1.8v2.4c0,2.2,0,3.3.1,3.6.1.2.3.3.5.3s.6-.6,1.4-1.8c.8-1.2,1.9-2.4,3.3-3.6,1.4-1.2,2.9-1.8,4.3-1.8s2.9.5,4.4,1.5c1.5,1,2.2,2,2.2,3s-.2,1.9-.7,2.7c-.8,1.4-1.6,2.2-2.3,2.2s-1.3-.4-2.6-1.1c-1.2-.7-2.7-1.1-4.3-1.1s-3.1.7-4.5,2c-1.4,1.3-2.1,2.5-2.1,3.6v17.2c0,0,.2,1.6.2,1.6,0,1.3.4,2.3,1.3,3.2.8.9,1.6,1.4,2.4,1.5.8.1,1.4.2,1.9.3.5,0,1,.1,1.3.1.3,0,.6.1,1,.2.7.1,1,.6,1,1.3s-.4,1.1-1.1,1.1l-7.7-.5-9.4.5c-1.1,0-1.7-.1-1.8-.4-.1-.2-.2-.5-.2-.7,0-.8.4-1.3,1.2-1.5,1.6-.4,2.5-1.1,2.8-2.3.3-1.2.5-3.7.5-7.5v-14.5c0,0-.2-2.7-.2-2.7,0-.7,0-1.2-.3-1.6-.5-1.1-1.9-1.7-4.2-1.7Z"/>
    <path class="st0" d="M720.8,292.2c-3.7-3.2-5.5-7.9-5.5-14.1s1.7-11.3,5.1-15.4c3.4-4.1,7.8-6.2,13.2-6.2s4.8.5,6.9,1.4c2.1.9,3.7,2,4.8,3.3,1.1,1.3,2.1,2.7,2.9,4.1,1.3,2.5,2,4.3,2,5.6s-1.2,1.6-3.7,1.6h-23.1c-.5,0-.8,0-.9.1s-.1.4-.1.9c0,5.6,1.5,10.1,4.5,13.3,3,3.2,6.6,4.9,10.7,4.9s5.1-.7,7.7-2c2.6-1.3,4-2,4.1-2,.6,0,.9.3.9.8s-.7,1.7-2,2.9c-1.3,1.2-2.6,2.2-3.8,3-2.9,1.9-6.3,2.8-10.2,2.8s-9.8-1.6-13.5-4.9ZM724,270.2l15.8-.5c.8,0,1.4,0,1.6-.2.2-.1.3-.4.3-.9,0-1.8-.8-3.9-2.5-6.3-1.7-2.4-4-3.6-7-3.6s-5.3,1.2-6.9,3.6c-1.6,2.4-2.4,4.6-2.4,6.7s.4,1.3,1.2,1.3Z"/>
    <path class="st0" d="M789.1,295.6l-.3-3.3c0-1-.3-1.5-.8-1.5s-.6.3-1.3.9c-.7.6-1.5,1.3-2.4,2-.9.8-2.2,1.4-3.9,2-1.7.6-3.6.9-5.5.9-5.6,0-9.9-1.8-13.1-5.5-3.1-3.7-4.7-8.3-4.7-13.8s1.9-10.4,5.8-14.8c3.9-4.4,9.2-6.6,16.1-6.6s3.6.4,6.2,1.3c2.5.9,3.9,1.3,4.2,1.3s.4-1.1.4-3.2l.2-11.6c0-3.2-.2-5.5-.5-6.8-.3-1.3-.8-2.2-1.5-2.6-.7-.4-1.6-.6-2.7-.6h-1c-.9,0-1.4,0-1.6,0-.2,0-.3-.3-.3-.6h0c0-.5.3-.8.9-1,.6-.2,1.8-.6,3.6-1.2,1.8-.6,3.3-1.1,4.3-1.6,1-.5,1.8-.8,2.4-1.1,1.1-.6,1.9-.9,2.4-.9.7,0,1.1.6,1.1,1.8s-.2,2.7-.6,7.7c-.4,4.9-.6,8.9-.6,11.9l-.2,32.8c0,4.1.2,6.8.6,8.2.4,1.4,1.2,2.3,2.6,2.7.2,0,.7.2,1.5.3.8.2,1.4.3,1.8.5.4.2.5.6.5,1,0,.7-2.3,1.3-6.9,1.6-1,0-2.1.2-3.3.5-1.3.3-2,.4-2.3.4-.7,0-1-.3-1-1ZM767,262.8c-2.2,2.9-3.3,6.5-3.3,10.9s1.4,8.6,4.2,12.4c2.8,3.8,6.4,5.8,10.8,5.8s5.2-.7,7.4-2.1c2.2-1.4,3.3-3.1,3.3-5v-15.4c0-3.7-.8-6-2.4-6.9-4.4-2.6-8-4-10.7-4-3.9,0-7,1.4-9.2,4.3Z"/>
    <path class="st0" d="M835.8,295.3l-7.7.4c-1.7,0-2.6-.4-2.6-1.1s.5-1.4,1.3-1.7c1.9-.7,3.6-2.3,5-4.8,1.4-2.5,5.1-10,10.8-22.6,5.8-12.6,10.9-23.7,15.4-33.3.4-.9.8-1.5,1.1-1.7.3-.2.8-.4,1.4-.4s1,.1,1.2.4c.2.2.5,1.1,1,2.4.5,1.4.9,2.4,1.1,3.2.3.7.7,1.9,1.3,3.5.6,1.6,1.6,4,2.9,7.3,1.3,3.2,4.3,10.3,9,21.3,4.7,11,7.4,17.2,8.1,18.6.7,1.5,1.7,2.7,3,3.8,1.3,1.1,2.4,1.6,3.3,1.7.9,0,1.7.2,2.3.5.6.2.9.7.9,1.4s-.8,1.4-2.4,1.4l-8.1-.5-8.4.4c-1.9,0-3,0-3.6-.2-.5-.1-.8-.5-.8-.9s.2-.9.7-1.1c.5-.3,1-.5,1.5-.5s1-.4,1.5-.8c.5-.5.7-1.2.7-2.2s-.8-3.6-2.2-7.7c-1.5-4.1-2.8-7.1-3.8-9-.5-1-1.8-1.5-3.7-1.5l-10.9.2h-4.8c-2.7,0-4.4.2-5.1.4-.7.3-1.3.9-1.7,1.9-.5,1-1.1,2.3-1.9,4-.8,1.7-1.4,2.9-1.7,3.6-.3.7-.7,1.5-1.1,2.5-.8,1.8-1.2,3.3-1.2,4.5s.3,2.2,1,2.9c.7.7,1.5,1.1,2.3,1.3,2.2.2,3.3.8,3.3,1.7s0,.7-.3.9c-.2.2-.6.3-1.3.3h-7.5ZM852.4,254c-2.9,6.6-4.3,10.3-4.3,11s.3,1.2.8,1.4c.5.2,1.8.3,3.8.3h11.3c2.3,0,3.5-.5,3.5-1.4s-1.5-4.6-4.4-11.2c-2.9-6.6-4.8-9.9-5.6-9.9s-2.2,3.3-5.1,9.9Z"/>
    <path class="st0" d="M900.9,292.1c-3.4-3.4-5.1-8.1-5.1-13.9s1.9-10.9,5.8-15.1c3.9-4.2,8.9-6.3,15.1-6.3s4.4.3,6.8.9c2.4.6,3.7,1.3,3.7,2.1.1,1.4.2,3.2.2,5.2s-.3,3-1,3-1.1-.4-1.6-1.2c-1-1.7-3-3.3-5.8-4.5-2.9-1.3-5.4-1.9-7.5-1.9s-2.4.5-3.5,1.3c-1.1.9-2.1,1.9-2.8,3-1.7,2.5-2.6,6.1-2.6,10.7s1.5,8.7,4.5,12.1c3,3.5,6.6,5.2,10.9,5.2s4-.4,5.8-1.2c1.8-.8,3.2-1.6,4.2-2.3,1-.8,1.6-1.2,1.8-1.2.7,0,1,.3,1,.9s-.6,1.5-1.9,2.7c-1.3,1.2-2.5,2.2-3.7,2.9-2.9,1.9-6.5,2.8-10.8,2.8s-10.2-1.7-13.5-5.1Z"/>
    <path class="st0" d="M941.6,292.1c-3.4-3.4-5.1-8.1-5.1-13.9s1.9-10.9,5.8-15.1c3.9-4.2,8.9-6.3,15.1-6.3s4.4.3,6.8.9c2.4.6,3.7,1.3,3.7,2.1.1,1.4.2,3.2.2,5.2s-.3,3-1,3-1.1-.4-1.6-1.2c-1-1.7-3-3.3-5.8-4.5-2.9-1.3-5.4-1.9-7.5-1.9s-2.4.5-3.5,1.3c-1.1.9-2.1,1.9-2.8,3-1.7,2.5-2.6,6.1-2.6,10.7s1.5,8.7,4.5,12.1c3,3.5,6.6,5.2,10.9,5.2s4-.4,5.8-1.2c1.8-.8,3.2-1.6,4.2-2.3,1-.8,1.6-1.2,1.8-1.2.7,0,1,.3,1,.9s-.6,1.5-1.9,2.7c-1.3,1.2-2.5,2.2-3.7,2.9-2.9,1.9-6.5,2.8-10.8,2.8s-10.2-1.7-13.5-5.1Z"/>
    <path class="st0" d="M997.3,296.9c-6.2,0-11-2-14.7-5.9-3.6-3.9-5.4-8.6-5.4-14.1s1.9-10.2,5.6-14.3c3.7-4.1,8.7-6.1,14.8-6.1s11.3,1.8,15.5,5.3c4.2,3.5,6.3,8.5,6.3,14.8s-2.1,11.3-6.4,14.9c-4.3,3.6-9.5,5.4-15.7,5.4ZM988,262.6c-2.4,2.5-3.6,6.5-3.6,12.2s1.6,10.3,4.9,14c3.3,3.7,6.9,5.5,10.7,5.5s6.9-1.3,9.2-3.9c2.3-2.6,3.5-6.4,3.5-11.5s-1.4-9.6-4.3-13.7c-2.9-4.1-6.9-6.2-12.1-6.2s-5.9,1.2-8.3,3.7Z"/>
    <path class="st0" d="M1031.4,281.3v-16.2c0-1.2-.2-2.2-.9-2.9-.6-.7-1.2-1.1-1.8-1.1h-1.6c-1.1,0-1.6-.4-1.6-1.3s.6-1.4,1.8-1.6c1.2-.2,2.6-.4,4.3-.4l5.1-.5c1,0,1.6.2,1.8.6.2.4.3,1.5.3,3.2s0,4-.2,6.9c-.2,2.9-.2,6.1-.2,9.7,0,5.3,1,9,3.1,11.2,2,2.2,4.3,3.3,6.9,3.3,3.8,0,6.6-.8,8.4-2.4,1.7-1.6,2.6-4.5,2.6-8.5l-.2-12.4c0-3-.2-5-.7-6.1-.5-1-1.5-1.6-3.1-1.8-1.6-.1-2.3-.6-2.3-1.2,0-1.4,2.6-2.1,7.9-2.1l3.2-.4c.9,0,1.5.2,1.8.4.3.3.4.7.4,1.3s0,1.3,0,2.2c0,.9,0,2,0,3.5,0,1.4,0,3.1-.1,4.9-.1,3.6-.2,7.6-.2,12.1s.2,7.3.5,8.6c.4,1.3,1,2,2,2h2.3c1.4,0,2.2.3,2.2,1s-.2,1.2-.6,1.4c-.4.2-1.2.3-2.4.3s-3,.2-5.4.5-3.7.5-3.9.5c-.4,0-.8-.8-1-2.3-.3-1.5-.5-2.3-.5-2.3s-.7.5-1.8,1.4c-1.1,1-2.6,1.9-4.6,2.9-2,1-4.2,1.4-6.6,1.4-9.7,0-14.5-5.2-14.5-15.7Z"/>
    <path class="st0" d="M1097.1,295.3l-6.6-.4c-1.6,0-3.6,0-6.2.2l-3.9.2c-.9,0-1.3-.3-1.3-.8s.1-.9.5-1c.3-.1.7-.2,1.1-.3s.9-.2,1.3-.5c1.1-.7,1.8-2.9,1.9-6.5.1-3.6.2-6,.2-7.2v-13c0-1.9-.3-3.2-1-3.9-.7-.7-1.6-1-2.8-1h-.9c-1.1,0-1.7-.3-1.7-1s.6-1,1.9-1.2c1.3-.2,2.3-.4,3.1-.6.8-.2,1.7-.6,3-1.1,1.2-.5,2.2-.9,3-1.3.7-.4,1.2-.5,1.5-.5h.2c.5,0,.8.4.8,1.1l-.2,3.9c0,1.6.1,2.3.4,2.3s.5-.1.7-.4c.9-1.3,2.1-2.3,3.6-3.2,2.7-1.7,5.3-2.5,7.7-2.5s4.6.4,6.6,1.1c1.9.8,3.4,1.7,4.5,2.8,1.1,1.1,2,2.4,2.7,3.8,1.2,2.4,1.8,4.9,1.8,7.4v5.7c0,0,0,9.2,0,9.2,0,2.3.3,3.9.9,4.7.6.9,2.1,1.5,4.5,1.8,1.2.2,1.8.6,1.8,1.4s-.6.9-1.8.9l-7.4-.4-6.9.4c-1.2,0-1.8-.4-1.8-1.2s.4-.9,1.1-1.1l1.2-.3c1.3-.4,2-2.4,2-6v-12.2c0-4.6-1.1-8.1-3.4-10.5-2.3-2.4-4.9-3.6-7.7-3.6s-5.3.7-7.2,2.1c-1.9,1.4-3.1,2.7-3.5,3.9-.4,1.2-.6,5.8-.6,13.8v3.4c0,3,.3,5.2.9,6.7.6,1.4,2,2.2,4.2,2.4.6,0,1.4.1,2.3.3.9.2,1.4.6,1.4,1,0,.8-.6,1.2-1.7,1.2Z"/>
    <path class="st0" d="M1132.7,261.9h-1.7c-1,0-1.5-.3-1.5-1.2s.3-1.1.8-1.5c2.3-1.5,4.6-3.7,6.8-6.8,1-1.4,1.7-2.4,2.3-3,.6-.6,1.2-.9,1.8-.9s.9.7.9,2.1l-.4,5.1c0,.8.2,1.3.5,1.5.3.2,1.4.3,3.2.3h3.2c2.7,0,4.3-.1,5-.5,1.1-.5,1.7-.8,2-.8.6,0,.9.3.9,1s-.4,1.4-1.2,2.8c-.8,1.4-1.4,2.1-1.7,2.1-2.7,0-4.6,0-5.7-.2-1.1-.1-1.8-.2-2.2-.2s-.7,0-.9,0c-.3,0-.5,0-.6,0h-.2c-1.1,0-1.9,0-2.2.5-.3.4-.5,1.2-.5,2.4l-.4,16.7c0,3.9.5,6.6,1.5,8.1,1,1.5,3.1,2.3,6.3,2.3s2.7-.3,4.2-.9c1.5-.6,2.4-.9,2.5-.9.6,0,.9.4.9,1.2s-1,1.8-3.1,3.1c-2.1,1.3-4.3,1.9-6.7,1.9-8.1,0-12.1-3.5-12.1-10.5v-1.3l.4-21c0-.6-.1-1-.4-1.2-.2-.2-.8-.3-1.5-.3Z"/>
    <path class="st0" d="M1172.8,296.7c-7.1,0-10.6-3-10.6-9s1.8-7.3,5.4-8.9c3-1.3,7.6-2.4,13.8-3.4.2,0,.4-.1.7-.1.3,0,.6,0,.9-.1.3,0,.6-.1.8-.2.4-.2.6-.6.6-1.3l.2-4.7c0-3.4-1-5.9-3-7.4s-3.9-2.3-5.8-2.3c-4.3,0-6.5,1.8-6.5,5.4l.4,3.2c0,1.2-.5,1.8-1.6,1.8s-1.8-.1-2.8-.5c-1.9-.6-2.8-1.6-2.8-3.1,0-2.3,1.6-4.6,4.7-6.7,3.2-2.1,6.3-3.2,9.5-3.2s5.7.3,7.5.9c1.8.6,3.1,1.3,4,2,.9.8,1.5,1.8,2,3,.6,1.5.9,3.9.9,7.1s0,6.1-.2,8.5c-.2,2.5-.2,4.8-.2,6.8s.2,3.7.7,5c.5,1.3,1,2.1,1.7,2.5.7.4,1.3.6,2,.6,1.6.1,2.4.6,2.4,1.4,0,1.3-1.9,1.9-5.7,1.9s-2.9-.4-4-1.3c-1.1-.8-1.9-1.7-2.4-2.5-.5-.8-.8-1.2-.8-1.2s-.3.2-.7.6c-.4.4-1,.9-1.8,1.4-.8.5-1.6,1.1-2.6,1.6-2.2,1.3-4.5,2-6.8,2ZM1183.8,276.6l-.9.2c-1.4.2-2.2.4-2.6.5-.4,0-1.2.2-2.5.5-1.3.3-2.2.6-2.7.8-.5.2-1.2.6-2.2,1.1-.9.5-1.6,1-2,1.6-1.1,1.7-1.6,3.5-1.6,5.3s.6,3.4,1.8,4.6c1.2,1.2,2.7,1.8,4.6,1.8s3.4-.2,4.5-.7c1.1-.5,1.9-1,2.5-1.6.5-.6,1-1.4,1.3-2.4.4-1.1.5-2.6.5-4.4v-6.5c0-.5-.2-.8-.6-.8Z"/>
    <path class="st0" d="M1221.7,295.3l-6.6-.4c-1.6,0-3.6,0-6.2.2l-3.9.2c-.9,0-1.4-.3-1.4-.8s.1-.9.5-1c.3-.1.7-.2,1.1-.3s.9-.2,1.3-.5c1.1-.7,1.8-2.9,1.9-6.5.1-3.6.2-6,.2-7.2v-13c0-1.9-.3-3.2-1-3.9-.7-.7-1.6-1-2.8-1h-.9c-1.1,0-1.7-.3-1.7-1s.6-1,1.9-1.2c1.3-.2,2.3-.4,3.1-.6.7-.2,1.7-.6,3-1.1,1.2-.5,2.2-.9,3-1.3.8-.4,1.2-.5,1.5-.5h.2c.5,0,.8.4.8,1.1l-.2,3.9c0,1.6.1,2.3.4,2.3s.5-.1.7-.4c.9-1.3,2.1-2.3,3.6-3.2,2.7-1.7,5.3-2.5,7.7-2.5s4.6.4,6.6,1.1c1.9.8,3.4,1.7,4.5,2.8,1.1,1.1,2,2.4,2.7,3.8,1.2,2.4,1.8,4.9,1.8,7.4v5.7c0,0,0,9.2,0,9.2,0,2.3.3,3.9.9,4.7.6.9,2.1,1.5,4.5,1.8,1.2.2,1.8.6,1.8,1.4s-.6.9-1.8.9l-7.4-.4-6.9.4c-1.2,0-1.8-.4-1.8-1.2s.4-.9,1.1-1.1l1.2-.3c1.3-.4,2-2.4,2-6v-12.2c0-4.6-1.1-8.1-3.4-10.5-2.3-2.4-4.9-3.6-7.7-3.6s-5.3.7-7.2,2.1c-1.9,1.4-3.1,2.7-3.5,3.9-.4,1.2-.6,5.8-.6,13.8v3.4c0,3,.3,5.2.9,6.7.6,1.4,2,2.2,4.2,2.4.6,0,1.4.1,2.3.3.9.2,1.4.6,1.4,1,0,.8-.6,1.2-1.7,1.2Z"/>
    <path class="st0" d="M1257.3,261.9h-1.7c-1,0-1.5-.3-1.5-1.2s.3-1.1.8-1.5c2.3-1.5,4.6-3.7,6.8-6.8,1-1.4,1.7-2.4,2.3-3,.6-.6,1.2-.9,1.8-.9s.9.7.9,2.1l-.4,5.1c0,.8.2,1.3.5,1.5.3.2,1.4.3,3.2.3h3.1c2.7,0,4.3-.1,5-.5,1.1-.5,1.7-.8,2-.8.6,0,.9.3.9,1s-.4,1.4-1.2,2.8c-.8,1.4-1.3,2.1-1.7,2.1-2.7,0-4.6,0-5.7-.2-1.1-.1-1.8-.2-2.2-.2s-.7,0-.9,0c-.3,0-.5,0-.6,0h-.2c-1.1,0-1.9,0-2.2.5-.3.4-.5,1.2-.5,2.4l-.4,16.7c0,3.9.5,6.6,1.5,8.1,1,1.5,3.1,2.3,6.3,2.3s2.7-.3,4.2-.9c1.5-.6,2.4-.9,2.5-.9.6,0,.9.4.9,1.2s-1,1.8-3.1,3.1c-2.1,1.3-4.3,1.9-6.7,1.9-8.1,0-12.1-3.5-12.1-10.5v-1.3l.4-21c0-.6-.1-1-.4-1.2-.2-.2-.8-.3-1.5-.3Z"/>
    <path class="st0" d="M1311.9,259.2l.4,5.4c0,1-.1,1.7-.4,2.1-.2.4-.6.5-1,.5s-.9-.4-1.4-1.3c-.5-.9-1.1-1.8-1.7-2.8-.6-1-1.7-2-3.1-2.8-1.4-.9-3-1.3-4.8-1.3s-3.3.4-4.4,1.3c-1.1.9-1.7,1.8-1.7,2.8s0,1.8.3,2.5c.2.6.5,1.2.9,1.7.5.5.8.9,1.2,1.2.3.3.9.7,1.7,1,.8.4,1.4.6,1.8.8.4.2,1,.4,1.9.8,5.5,1.9,9,3.8,10.5,5.6,1.6,1.8,2.3,4.5,2.3,7.9s-1.6,6.6-4.8,9.5c-2.2,1.9-5.1,2.8-8.9,2.8s-5.5-.6-8.6-1.9c-.9-.4-1.4-.6-1.6-.6-.2,0-.4-.1-.7-.2-.3-.1-.6-.2-.7-.2-.2,0-.3-.1-.6-.2-.2-.1-.4-.2-.5-.3,0,0-.2-.2-.3-.4-.2-.3-.3-.8-.3-1.4v-7.8c0-.7.1-1.2.4-1.7.3-.4.6-.7,1.1-.7s.8.1,1,.4c.2.3.4.8.6,1.7.2.8.4,1.4.5,1.8,2.2,5.5,5.3,8.3,9.4,8.3s3.6-.5,5.3-1.5,2.5-2.5,2.5-4.7-.7-3.9-2.1-5.2c-1.4-1.3-3.1-2.4-5-3.1-2-.7-4-1.5-5.9-2.3-2-.8-3.7-2-5-3.6-1.4-1.6-2.1-3.6-2.1-6s1.3-6.1,4-8.1c2.7-2,5.7-3.1,8.9-3.1s5.7.3,7.4.8c1.7.5,2.7,1,3,1.4.3.4.5.8.5,1.2Z"/>
  </g>
</svg>