<?xml version="1.0" encoding="UTF-8"?>
<svg id="Layer_1" xmlns="http://www.w3.org/2000/svg" version="1.1" viewBox="0 0 1920 920">
  <!-- Generator: Adobe Illustrator 29.1.0, SVG Export Plug-In . SVG Version: 2.1.0 Build 142)  -->
  <defs>
    <style>
      .st0 {
        fill: #f7af3f;
      }

      .st1 {
        fill: #57c5cf;
      }

      .st2 {
        fill: #d24127;
      }

      .st3 {
        fill: #fff;
      }

      .st4 {
        fill: #701345;
      }

      .st5 {
        fill: #e75e87;
      }

      .st6 {
        fill: #7e1a54;
      }
    </style>
  </defs>
  <g>
    <g>
      <path class="st2" d="M342.04,225.42v207.59c-36.09-34.51-78.3-52-125.65-52h-3.5c-47.52,0-90.44,18.29-127.84,54.6-34.35,36.73-51.78,79.33-51.78,126.65,0,44.59,15.26,85.25,45.52,121.07,38.28,40.53,83.96,61.09,135.76,61.09,45.85,0,87.34-15.97,123.31-47.53,25.07-22.69,42.78-52.37,52.66-88.2,2.74-5.81,6.17-20.1,6.17-71.99V225.42h-54.66ZM336.95,565.28c0,34.47-14.81,65.19-43.83,91.17-23.12,18.71-49.42,28.18-78.11,28.18-43.85,0-78.25-19.51-104.84-59.35-11.38-19.44-17.11-40.78-17.11-63.5,0-37.03,15.81-69.06,46.68-94.98,23.02-17.25,47.49-26.01,72.7-26.01h5.12c35.52,0,67.18,15.81,93.77,46.6,17,23.5,25.61,47.99,25.61,72.76v5.12Z"/>
      <path class="st2" d="M1054.9,438c-38.49-39.27-83.58-59.19-134.05-59.19h-3c-40.11,0-78.15,13.34-113.2,39.75-45.83,39.57-69.08,87.61-69.08,142.75v3.03c0,49.03,18.9,93.03,56.2,130.84,36.78,34.1,79.75,51.4,127.67,51.4,57.35,0,106.55-24.25,146.43-72.34,7.97-11.72,17.5-27.4,28.26-46.68l.38-1.13v-3.18l-2.36-.45c-22.21-4.15-39.71-8.4-52.11-12.68l-3.31-.16-.83,1.43c-7.38,12.43-13.81,22.26-19,29.11-26.4,31.2-59.2,47.04-97.46,47.04-34.33,0-64.99-13.08-90.91-38.69-15.5-18.28-25.3-35.57-29.28-51.39h299.57l2.83-2.1,1.71-32.66c0-46.03-16.28-87.94-48.47-124.71ZM790.47,543.52c.5-9.59,5.09-24.79,13.66-45.17,4.45-10.16,13.9-23.25,27.88-38.74,22.81-21.11,48.02-30.08,84.41-30.08h5.59c40.66,0,69.77,12.62,94.32,40.75,15.62,20.53,25.33,40.17,28.95,58.38,1.47,7.39,2.24,12.02,2.67,14.86h-257.48Z"/>
      <path class="st2" d="M720.34,438c-38.47-39.27-83.61-59.19-134.03-59.19h-3c-40.16,0-78.18,13.34-113.22,39.75-45.82,39.56-69.06,87.61-69.06,142.75v3.03c0,49.03,18.88,93.03,56.21,130.84,36.78,34.1,79.75,51.4,127.69,51.4,57.32,0,106.53-24.25,146.43-72.34,7.97-11.7,17.45-27.39,28.26-46.68l.36-1.14v-3.17l-2.36-.45c-22.21-4.15-39.76-8.4-52.11-12.68l-3.31-.16-.86,1.43c-7.38,12.46-13.78,22.28-19,29.11-26.4,31.2-59.16,47.04-97.41,47.04-34.37,0-65.01-13.08-90.94-38.69-15.47-18.28-25.31-35.57-29.23-51.39h299.57l2.81-2.1,1.69-32.66c0-46.03-16.28-87.94-48.49-124.71ZM455.93,543.52c.6-8.76,5.14-22.52,13.62-40.95,4.45-9.32,13.9-21.31,27.83-35.45,22.81-19.34,48.09-27.6,84.53-27.6h5.57c40.66,0,69.82,11.58,94.41,37.37,15.55,18.77,25.26,36.73,28.85,53.34,1.45,6.54,2.19,10.67,2.62,13.28h-257.43Z"/>
      <path class="st2" d="M1572.93,383.83h-51.13c-.64,0-.93.4-.93,1.17v18.35c0,26.95-7.19,51.26-21.62,72.94-27.99,37.96-63.77,56.93-107.31,56.93-26.47,0-52.06-8.76-76.63-26.26-33.33-28.18-49.99-61-49.99-98.51v-23.45c0-.61-.38-1.01-1.14-1.17h-51.11c-.45,0-.76.4-.93,1.17v23c0,45.39,17.21,86.74,51.59,124.06,18.54,17.18,33.59,28.26,45.06,33.22,15.76,9.14,35.23,15.47,58.3,19.04h.48v158.43c0,.61.31.93.93.93h51.09c.81,0,1.19-.31,1.19-.93v-159.12c20.54-3.39,37.09-8.52,49.49-15.33,10.52-4.04,23.28-12.01,38.3-23.93,43.68-37.02,65.51-85.02,65.51-144.04v-15.32c0-.61-.43-1.01-1.14-1.17Z"/>
      <path class="st2" d="M1835.43,484.68c-4.95-13.33-17.12-30.37-36.49-51.13-36.68-34.53-78.44-51.79-125.17-51.79h-3.05c-41.21,0-79.41,13.86-114.5,41.58-43.21,39.04-64.85,84.65-64.85,136.82v4.2c0,41.94,14.31,80.6,42.94,115.92,38.76,42.27,84.6,63.41,137.55,63.41,48.49,0,91.22-17.57,128.26-52.73v51.8c0,.61.29.93.93.93h51.09c.76,0,1.17-.31,1.17-.93v-165.17c0-38.08-5.98-69.07-17.88-92.9ZM1782.2,628.22c-27.66,41.5-64.3,62.25-109.84,62.25-30.35,0-57.63-9.81-81.8-29.49-30.66-27.42-45.99-59.32-45.99-95.7v-5.12c0-26.79,8.78-51.96,26.47-75.48,27.71-33.14,60.63-49.74,98.77-49.74h5.09c26.78,0,52.18,9.08,76.2,27.2,32.64,27.4,49.02,60.63,49.02,99.65,0,23.86-6,46-17.93,66.44Z"/>
      <rect class="st2" x="1118.2" y="310.52" width="64.58" height="433.09"/>
      <polygon class="st2" points="1265.32 435.25 970.44 435.25 927.42 381.94 1265.32 381.94 1265.32 435.25"/>
    </g>
    <g>
      <g>
        <path class="st5" d="M1398.51,14.56c-25.11,21.03-46.37,47.26-37.71,82.75,3.64-.39,7.26-.79,10.88-1.16-5.05-27.79,8.33-47.74,26.83-64.98,18.5,17.24,31.85,37.19,26.85,64.98,3.62.37,7.21.77,10.81,1.16,8.69-35.49-12.57-61.72-37.66-82.75Z"/>
        <path class="st5" d="M1534.79,71.04c-32.61-2.9-66.18.63-85.13,31.86,2.83,2.3,5.67,4.55,8.5,6.86,16.12-23.19,39.64-27.87,64.89-26.99.9,25.29-3.74,48.84-26.95,64.94,2.31,2.81,4.57,5.64,6.83,8.49,31.28-18.94,34.76-52.53,31.85-85.16Z"/>
        <path class="st5" d="M1591.28,207.35c-21.02-25.11-47.25-46.38-82.72-37.67.33,3.62.76,7.22,1.12,10.83,27.81-5.01,47.75,8.34,64.99,26.83-17.23,18.5-37.18,31.85-64.99,26.84-.36,3.64-.78,7.24-1.12,10.85,35.47,8.7,61.7-12.57,82.72-37.68Z"/>
        <path class="st5" d="M1534.79,343.68c2.9-32.63-.57-66.22-31.85-85.16-2.26,2.83-4.52,5.65-6.83,8.47,23.21,16.11,27.85,39.67,26.95,64.92-25.26.88-48.78-3.78-64.89-26.97-2.83,2.3-5.67,4.59-8.5,6.86,18.95,31.24,52.52,34.74,85.13,31.87Z"/>
        <path class="st5" d="M1398.51,400.14c25.09-21.02,46.35-47.26,37.66-82.76-3.6.41-7.19.8-10.81,1.16,5,27.8-8.36,47.74-26.85,64.99-18.5-17.25-31.88-37.18-26.83-64.99-3.62-.36-7.24-.75-10.88-1.16-8.67,35.5,12.59,61.74,37.71,82.76Z"/>
        <path class="st5" d="M1262.2,343.68c32.59,2.87,66.2-.63,85.13-31.87-2.81-2.27-5.64-4.56-8.5-6.86-16.07,23.19-39.61,27.85-64.89,26.97-.88-25.26,3.76-48.81,26.95-64.92-2.29-2.82-4.55-5.65-6.83-8.47-31.23,18.94-34.73,52.53-31.85,85.16Z"/>
        <path class="st5" d="M1205.71,207.35c21.07,25.11,47.25,46.38,82.77,37.68-.4-3.61-.81-7.21-1.14-10.85-27.8,5.01-47.73-8.33-65.01-26.84,17.28-18.49,37.21-31.84,65.01-26.83.33-3.61.74-7.21,1.14-10.83-35.52-8.71-61.7,12.55-82.77,37.67Z"/>
        <path class="st5" d="M1262.2,71.04c-2.88,32.63.62,66.22,31.85,85.16,2.29-2.85,4.55-5.68,6.83-8.49-23.19-16.1-27.83-39.65-26.95-64.94,25.28-.88,48.83,3.8,64.89,26.99,2.86-2.32,5.69-4.56,8.5-6.86-18.92-31.23-52.54-34.76-85.13-31.86Z"/>
      </g>
      <g>
        <path class="st0" d="M1398.51,174.04c-6.55,8.83-8.17,19.28,0,27.14,8.17-7.86,6.57-18.31,0-27.14Z"/>
        <path class="st0" d="M1422.05,183.79c-10.86,1.6-19.38,7.87-19.19,19.2,11.33.21,17.59-8.33,19.19-19.2Z"/>
        <path class="st0" d="M1431.84,207.35c-8.83-6.56-19.28-8.16-27.16,0,7.88,8.16,18.33,6.58,27.16,0Z"/>
        <path class="st0" d="M1422.05,230.89c-1.6-10.86-7.86-19.4-19.19-19.19-.19,11.35,8.33,17.6,19.19,19.19Z"/>
        <path class="st0" d="M1398.51,240.67c6.57-8.81,8.17-19.28,0-27.14-8.17,7.86-6.55,18.33,0,27.14Z"/>
        <path class="st0" d="M1374.96,230.89c10.9-1.58,19.38-7.84,19.19-19.19-11.31-.21-17.59,8.33-19.19,19.19Z"/>
        <path class="st0" d="M1365.2,207.35c8.81,6.58,19.28,8.16,27.14,0-7.86-8.16-18.33-6.56-27.14,0Z"/>
        <path class="st0" d="M1374.96,183.79c1.59,10.87,7.88,19.41,19.19,19.2.19-11.33-8.28-17.6-19.19-19.2Z"/>
        <path class="st0" d="M1376.3,153.74c3.09-3.05,6.16-6.08,8.95-9.41,4.5-5.64,7.83-12.07,7.21-19.42-.93-5.33-3.64-9.86-8.45-12.5-4.45-2.11-9.45-1.71-13.59.87-2.29,1.66-4.78,4.48-3.47,7.47.33.73.9,1.32,1.55,1.82.29-4.17,5.76-7.22,9.31-4.02,3.17,2.84,1.74,5.97-.88,7.89-1.12,1.23-2.71,2.1-4.4,2.23-2.1.15-4.21-.45-6-1.56-.64-.4-1.26-.88-1.83-1.42-.02.77-.1,1.55-.31,2.31-.45,2.05-1.55,3.96-3.09,5.31-1.33,1.12-3.07,1.62-4.69,1.56-3.26.5-6.45-.72-6.24-4.98.24-4.75,6.26-6.47,9.45-3.72.07-.83.05-1.61-.26-2.36-1.17-3.03-4.9-3.29-7.69-2.84-4.74,1.09-8.57,4.36-10.24,9-1.52,5.25-.24,10.37,2.86,14.79,4.76,5.66,11.69,7.83,18.85,8.65,4.29.39,8.66.34,12.97.32ZM1344.85,185.13c.05-4.33.12-8.65-.31-12.97-.81-7.15-2.98-14.06-8.62-18.84-4.43-3.11-9.55-4.39-14.81-2.86-4.64,1.67-7.88,5.49-9.02,10.27-.4,2.76-.17,6.5,2.88,7.67.74.3,1.55.33,2.31.24-2.74-3.17-.98-9.19,3.76-9.42,4.26-.22,5.48,2.99,4.95,6.22.1,1.65-.43,3.38-1.55,4.67-1.36,1.57-3.28,2.65-5.31,3.14-.74.18-1.55.27-2.31.29.55.55,1.02,1.17,1.43,1.83,1.12,1.79,1.69,3.89,1.57,5.99-.12,1.7-1.02,3.28-2.24,4.39-1.9,2.63-5.05,4.05-7.9.89-3.24-3.52-.14-9.02,4.05-9.32-.52-.62-1.09-1.18-1.86-1.5-2.98-1.3-5.81,1.17-7.48,3.42-2.57,4.15-2.95,9.17-.83,13.62,2.62,4.8,7.14,7.52,12.45,8.44,7.4.63,13.83-2.72,19.45-7.21,3.33-2.77,6.36-5.87,9.38-8.96ZM1344.85,229.56c-3.02-3.07-6.05-6.17-9.38-8.93-5.62-4.49-12.04-7.84-19.45-7.21-5.31.9-9.83,3.64-12.45,8.41-2.12,4.49-1.74,9.5.83,13.65,1.67,2.24,4.5,4.73,7.48,3.41.76-.31,1.33-.87,1.86-1.5-4.19-.29-7.28-5.77-4.05-9.31,2.86-3.15,6-1.75,7.9.88,1.22,1.11,2.12,2.71,2.24,4.4.12,2.08-.45,4.19-1.57,5.99-.4.65-.88,1.27-1.43,1.83.76.01,1.57.12,2.31.29,2.02.48,3.95,1.55,5.31,3.13,1.12,1.28,1.64,3.05,1.55,4.69.52,3.21-.69,6.43-4.95,6.21-4.74-.24-6.5-6.27-3.76-9.44-.76-.08-1.57-.06-2.31.24-3.05,1.19-3.28,4.93-2.88,7.68,1.14,4.79,4.38,8.6,9.02,10.28,5.26,1.5,10.38.25,14.81-2.87,5.64-4.77,7.81-11.69,8.62-18.84.43-4.34.36-8.65.31-12.99ZM1376.3,260.98c-4.31-.04-8.69-.07-12.97.32-7.17.8-14.09,3.01-18.85,8.66-3.09,4.39-4.38,9.51-2.86,14.77,1.67,4.66,5.5,7.9,10.24,9,2.79.44,6.52.2,7.69-2.83.31-.75.33-1.56.26-2.36-3.19,2.75-9.21,1.02-9.45-3.74-.21-4.25,2.98-5.47,6.24-4.96,1.62-.1,3.36.42,4.69,1.54,1.55,1.37,2.64,3.29,3.09,5.33.21.75.29,1.52.31,2.3.57-.54,1.19-1.02,1.83-1.43,1.79-1.1,3.9-1.7,6-1.54,1.69.13,3.28.99,4.4,2.21,2.62,1.91,4.05,5.04.88,7.92-3.55,3.19-9.02.14-9.31-4.05-.64.5-1.21,1.09-1.55,1.83-1.31,2.98,1.19,5.8,3.47,7.46,4.14,2.58,9.14,3,13.59.88,4.81-2.64,7.52-7.18,8.45-12.49.62-7.38-2.71-13.79-7.21-19.44-2.79-3.33-5.86-6.37-8.95-9.4ZM1420.72,260.98c-3.09,3.02-6.19,6.06-8.95,9.4-4.5,5.65-7.83,12.06-7.19,19.44.88,5.31,3.64,9.84,8.38,12.49,4.52,2.12,9.52,1.7,13.64-.88,2.26-1.66,4.76-4.48,3.43-7.46-.33-.74-.86-1.33-1.48-1.83-.33,4.18-5.78,7.24-9.31,4.05-3.17-2.87-1.76-6.01.88-7.92,1.14-1.22,2.69-2.09,4.4-2.21,2.05-.15,4.19.44,5.97,1.54.67.4,1.26.89,1.83,1.43,0-.77.12-1.55.26-2.3.5-2.04,1.57-3.96,3.17-5.33,1.28-1.12,3-1.64,4.67-1.54,3.24-.51,6.43.71,6.24,4.96-.26,4.75-6.31,6.49-9.45,3.74-.1.8-.07,1.61.24,2.36,1.19,3.03,4.93,3.27,7.69,2.83,4.76-1.1,8.59-4.34,10.28-9,1.48-5.25.21-10.37-2.88-14.77-4.79-5.66-11.71-7.87-18.85-8.66-4.28-.39-8.64-.36-12.97-.32ZM1452.14,229.56c-.02,4.34-.07,8.65.29,12.99.83,7.15,3.02,14.07,8.69,18.84,4.38,3.12,9.5,4.37,14.76,2.87,4.64-1.68,7.9-5.49,9.02-10.28.43-2.75.19-6.49-2.86-7.68-.71-.3-1.52-.32-2.36-.24,2.79,3.18,1.02,9.2-3.74,9.44-4.26.21-5.45-3-4.95-6.21-.07-1.64.43-3.4,1.52-4.69,1.4-1.58,3.33-2.65,5.36-3.13.74-.17,1.52-.28,2.31-.29-.55-.56-1.02-1.18-1.45-1.83-1.1-1.8-1.69-3.9-1.55-5.99.14-1.68,1-3.28,2.24-4.4,1.93-2.63,5.05-4.04,7.88-.88,3.21,3.53.19,9.02-4.02,9.31.5.63,1.12,1.19,1.83,1.5,2.98,1.32,5.81-1.17,7.45-3.41,2.6-4.15,3.02-9.16.9-13.65-2.67-4.77-7.19-7.51-12.5-8.41-7.38-.63-13.78,2.72-19.42,7.21-3.36,2.77-6.38,5.87-9.4,8.93ZM1452.14,185.13c3.02,3.09,6.05,6.19,9.4,8.96,5.64,4.49,12.05,7.84,19.42,7.21,5.31-.92,9.83-3.64,12.5-8.44,2.12-4.45,1.69-9.47-.9-13.62-1.64-2.25-4.48-4.73-7.45-3.42-.71.32-1.33.88-1.83,1.5,4.21.3,7.24,5.8,4.02,9.32-2.83,3.15-5.95,1.73-7.88-.89-1.24-1.11-2.1-2.69-2.24-4.39-.14-2.1.45-4.21,1.55-5.99.43-.67.9-1.28,1.45-1.83-.79-.02-1.57-.11-2.31-.29-2.02-.49-3.95-1.57-5.36-3.14-1.1-1.29-1.6-3.02-1.52-4.67-.5-3.23.69-6.44,4.95-6.22,4.76.23,6.52,6.26,3.74,9.42.83.09,1.64.06,2.36-.24,3.05-1.17,3.29-4.9,2.86-7.67-1.12-4.78-4.38-8.61-9.02-10.27-5.26-1.52-10.38-.25-14.76,2.86-5.67,4.77-7.86,11.68-8.69,18.84-.36,4.32-.31,8.65-.29,12.97ZM1420.72,153.74c4.33.02,8.69.07,12.97-.32,7.14-.83,14.07-2.99,18.85-8.65,3.09-4.42,4.36-9.53,2.88-14.79-1.69-4.65-5.52-7.91-10.28-9-2.76-.45-6.5-.19-7.69,2.84-.31.74-.33,1.53-.24,2.36,3.14-2.75,9.19-1.03,9.45,3.72.19,4.26-3,5.48-6.24,4.98-1.67.07-3.38-.44-4.67-1.56-1.6-1.35-2.67-3.26-3.17-5.31-.14-.76-.26-1.54-.26-2.31-.57.54-1.17,1.01-1.83,1.42-1.79,1.11-3.93,1.71-5.97,1.56-1.71-.12-3.26-.99-4.4-2.23-2.64-1.92-4.05-5.05-.88-7.89,3.52-3.2,8.97-.15,9.31,4.02.62-.5,1.14-1.08,1.48-1.82,1.33-2.99-1.17-5.81-3.43-7.47-4.12-2.58-9.12-2.98-13.64-.87-4.74,2.64-7.5,7.17-8.38,12.5-.64,7.35,2.69,13.78,7.19,19.42,2.76,3.33,5.86,6.36,8.95,9.41ZM1361.77,118.71c.19-3.9,3.07-7.26,6.17-9.55,5.74-3.56,12.47-3.71,18.5-.9,5.88,3.24,9.69,9.06,10.74,15.63,0,.12-.05.2-.05.32.05.1.07.21.1.33.9,8.78-3.26,16.51-8.59,23.19-3.17,3.84-6.83,7.27-10.38,10.78-4.95.01-9.95.16-14.93-.31-8.47-.95-16.9-3.47-22.5-10.31-.05-.1-.07-.21-.14-.32-.07-.08-.14-.12-.21-.21-3.9-5.38-5.38-12.16-3.5-18.61,2.24-6.24,7.14-10.91,13.71-12.43,3.78-.58,8.21-.24,11.09,2.39ZM1309.83,170.64c-2.59-2.9-2.98-7.3-2.36-11.13,1.5-6.54,6.19-11.43,12.43-13.69,6.45-1.87,13.24-.43,18.62,3.49.1.07.12.14.19.23.12.04.21.07.33.16,6.83,5.58,9.33,13.99,10.28,22.48.5,4.96.36,9.97.33,14.94-3.5,3.54-6.95,7.16-10.81,10.35-6.64,5.32-14.38,9.49-23.14,8.6-.17-.02-.24-.07-.36-.11-.1,0-.19.04-.33.02-6.52-1.04-12.36-4.83-15.62-10.69-2.83-6.01-2.64-12.78.9-18.47,2.29-3.13,5.62-5.99,9.52-6.18ZM1309.83,244.06c-3.9-.18-7.24-3.05-9.52-6.16-3.55-5.7-3.74-12.46-.9-18.49,3.26-5.86,9.09-9.65,15.62-10.68.14-.01.24.02.33.02.12-.03.19-.11.36-.11,8.76-.88,16.5,3.3,23.14,8.61,3.86,3.17,7.31,6.8,10.81,10.34.02,4.99.17,9.98-.33,14.95-.95,8.48-3.45,16.9-10.28,22.47-.12.08-.21.14-.33.18-.07.06-.1.15-.19.24-5.38,3.9-12.16,5.34-18.62,3.47-6.24-2.26-10.93-7.15-12.43-13.7-.62-3.81-.24-8.22,2.36-11.13ZM1361.77,296c-2.88,2.61-7.31,2.96-11.09,2.37-6.57-1.51-11.47-6.16-13.71-12.43-1.88-6.43-.4-13.24,3.5-18.62.07-.1.14-.12.21-.21.07-.11.1-.2.14-.3,5.59-6.84,14.02-9.37,22.5-10.31,4.98-.49,9.98-.33,14.93-.32,3.55,3.51,7.21,6.94,10.38,10.8,5.33,6.66,9.5,14.37,8.59,23.17-.02.13-.05.22-.1.32,0,.1.05.22.05.33-1.05,6.57-4.86,12.38-10.74,15.62-6.02,2.83-12.76,2.67-18.5-.88-3.09-2.29-5.97-5.66-6.17-9.55ZM1435.22,296c-.19,3.89-3.02,7.26-6.17,9.55-5.67,3.55-12.47,3.71-18.5.88-5.86-3.24-9.64-9.05-10.69-15.62-.02-.11,0-.23,0-.33-.02-.1-.07-.2-.1-.32-.88-8.8,3.29-16.51,8.62-23.17,3.17-3.86,6.83-7.29,10.36-10.8,4.95-.01,9.97-.17,14.95.32,8.48.94,16.9,3.47,22.45,10.31.12.1.14.19.19.3.07.08.14.11.24.21,3.88,5.37,5.33,12.18,3.45,18.62-2.24,6.27-7.14,10.92-13.69,12.43-3.81.59-8.21.24-11.12-2.37ZM1487.16,244.06c2.62,2.91,2.98,7.32,2.38,11.13-1.52,6.55-6.19,11.44-12.45,13.7-6.45,1.87-13.21.43-18.62-3.47-.07-.1-.12-.18-.21-.24-.07-.04-.21-.1-.31-.18-6.83-5.57-9.31-13.99-10.28-22.47-.48-4.97-.36-9.96-.33-14.95,3.5-3.54,6.95-7.17,10.81-10.34,6.67-5.31,14.38-9.49,23.21-8.61.12,0,.19.08.29.11.12,0,.21-.03.33-.02,6.57,1.03,12.38,4.82,15.66,10.68,2.79,6.03,2.6,12.79-.93,18.49-2.31,3.12-5.64,5.98-9.55,6.16ZM1487.16,170.64c3.9.18,7.24,3.05,9.55,6.18,3.52,5.69,3.71,12.46.93,18.47-3.28,5.87-9.09,9.66-15.66,10.69-.12.02-.21-.02-.33-.02-.1.04-.17.1-.29.11-8.83.89-16.54-3.28-23.21-8.6-3.86-3.19-7.31-6.81-10.81-10.35-.02-4.98-.14-9.98.33-14.94.98-8.49,3.45-16.9,10.28-22.48.1-.09.24-.12.31-.16.1-.1.14-.16.21-.23,5.4-3.92,12.17-5.37,18.62-3.49,6.26,2.26,10.93,7.15,12.45,13.69.59,3.83.24,8.23-2.38,11.13ZM1435.22,118.71c2.9-2.63,7.31-2.97,11.12-2.39,6.55,1.52,11.45,6.19,13.69,12.43,1.88,6.45.43,13.23-3.45,18.61-.1.1-.17.14-.24.21-.05.11-.07.22-.19.32-5.55,6.84-13.97,9.36-22.45,10.31-4.98.47-10,.32-14.95.31-3.52-3.51-7.19-6.94-10.36-10.78-5.33-6.67-9.5-14.41-8.62-23.19.02-.12.07-.23.1-.33,0-.12-.02-.2,0-.32,1.05-6.57,4.83-12.4,10.69-15.63,6.02-2.81,12.83-2.67,18.5.9,3.14,2.29,5.97,5.65,6.17,9.55ZM1378.53,159.16c6.14-6.5,12.93-12.41,19.97-18,7.07,5.59,13.83,11.5,19.93,18,8.97-.24,17.95.35,26.88,1.39,1.02,8.95,1.67,17.9,1.4,26.85,6.5,6.12,12.4,12.9,18,19.95-5.59,7.06-11.5,13.82-18,19.95.26,8.95-.38,17.91-1.4,26.86-8.93,1.03-17.9,1.64-26.88,1.36-6.09,6.5-12.86,12.43-19.93,18-7.05-5.57-13.83-11.5-19.97-18-8.95.27-17.88-.33-26.83-1.36-1.02-8.95-1.62-17.91-1.38-26.86-6.52-6.14-12.43-12.89-18.02-19.95,5.59-7.05,11.5-13.83,18.02-19.95-.24-8.95.36-17.9,1.38-26.85,8.95-1.04,17.88-1.64,26.83-1.39ZM1398.51,98.88c-14.5.93-29,2.21-43.35,3.81-11.33,9.02-22.45,18.35-33.35,27.97-9.59,10.9-18.95,22.02-27.97,33.36-1.64,14.36-2.88,28.82-3.81,43.33.93,14.52,2.17,28.98,3.81,43.36,9.02,11.31,18.38,22.42,27.97,33.35,10.9,9.59,22.02,18.92,33.35,27.95,14.35,1.62,28.85,2.9,43.35,3.83,14.5-.93,28.97-2.2,43.33-3.83,11.33-9.02,22.45-18.35,33.38-27.95,9.59-10.93,18.9-22.04,27.95-33.35,1.62-14.38,2.88-28.84,3.81-43.36-.93-14.51-2.19-28.97-3.81-43.33-9.05-11.34-18.35-22.45-27.95-33.36-10.93-9.62-22.04-18.95-33.38-27.97-14.35-1.6-28.83-2.89-43.33-3.81Z"/>
      </g>
      <g>
        <path class="st1" d="M1398.51,37.66c-15.59,15.43-26.61,33.92-22.04,58.12,3.38-.29,6.74-.54,10.14-.82-4.52-18.44,1.48-34.86,11.9-48.86,10.43,14,16.4,30.42,11.93,48.86,3.38.28,6.76.53,10.12.82,4.6-24.2-6.47-42.69-22.04-58.12Z"/>
        <path class="st1" d="M1518.51,87.37c-21.92-.14-42.83,5.14-56.66,25.5,2.57,2.17,5.14,4.37,7.71,6.59,9.86-16.21,25.69-23.62,42.97-26.13-2.55,17.28-9.9,33.1-26.14,42.98,2.21,2.55,4.4,5.14,6.59,7.72,20.35-13.87,25.61-34.74,25.52-56.66Z"/>
        <path class="st1" d="M1568.19,207.35c-15.4-15.59-33.92-26.63-58.13-22.05.31,3.39.57,6.75.83,10.14,18.47-4.49,34.85,1.48,48.87,11.91-14.02,10.45-30.4,16.4-48.87,11.91-.26,3.37-.52,6.77-.83,10.12,24.21,4.58,42.73-6.45,58.13-22.04Z"/>
        <path class="st1" d="M1518.51,327.35c.09-21.93-5.17-42.82-25.52-56.7-2.19,2.59-4.38,5.17-6.59,7.75,16.23,9.86,23.59,25.68,26.14,42.98-17.28-2.53-33.11-9.9-42.97-26.13-2.57,2.19-5.14,4.41-7.71,6.58,13.83,20.35,34.73,25.64,56.66,25.52Z"/>
        <path class="st1" d="M1398.51,377.06c15.57-15.42,26.64-33.94,22.04-58.14-3.36.3-6.74.56-10.12.82,4.48,18.47-1.5,34.87-11.93,48.87-10.43-14-16.43-30.41-11.9-48.87-3.4-.26-6.76-.52-10.14-.82-4.57,24.2,6.45,42.72,22.04,58.14Z"/>
        <path class="st1" d="M1278.48,327.35c21.95.13,42.87-5.17,56.73-25.52-2.6-2.17-5.14-4.39-7.74-6.58-9.9,16.24-25.71,23.6-43.02,26.13,2.57-17.3,9.93-33.12,26.19-42.98-2.24-2.58-4.45-5.16-6.59-7.75-20.38,13.88-25.66,34.77-25.57,56.7Z"/>
        <path class="st1" d="M1228.8,207.35c15.4,15.59,33.95,26.62,58.16,22.04-.33-3.35-.57-6.75-.83-10.12-18.47,4.48-34.87-1.46-48.9-11.91,14.02-10.43,30.42-16.4,48.9-11.91.26-3.39.5-6.76.83-10.14-24.21-4.58-42.75,6.46-58.16,22.05Z"/>
        <path class="st1" d="M1278.48,87.37c-.1,21.92,5.19,42.79,25.57,56.66,2.14-2.58,4.36-5.17,6.59-7.72-16.26-9.88-23.62-25.7-26.19-42.98,17.31,2.52,33.11,9.92,43.02,26.13,2.59-2.22,5.14-4.42,7.74-6.59-13.86-20.36-34.78-25.64-56.73-25.5Z"/>
      </g>
      <path class="st4" d="M1398.51,8.42c-28.38,23.48-51.9,50.09-42.49,89.44-.88.1-1.81.2-2.74.3-.71.58-1.45,1.15-2.14,1.72-21.21-34.43-56.63-36.65-93.32-33.2-3.45,36.68-1.24,72.14,33.23,93.31-.59.7-1.19,1.43-1.76,2.15-.07.91-.19,1.82-.29,2.73-39.33-9.4-65.99,14.11-89.46,42.49,23.47,28.38,50.13,51.88,89.46,42.49.1.92.21,1.83.29,2.74.57.73,1.17,1.45,1.76,2.17-34.47,21.16-36.68,56.58-33.23,93.27,36.68,3.49,72.11,1.26,93.32-33.19.69.57,1.43,1.15,2.14,1.72.93.11,1.86.2,2.74.31-9.4,39.33,14.12,65.97,42.49,89.44,28.38-23.47,51.87-50.11,42.47-89.44.98-.11,1.83-.2,2.76-.31.74-.57,1.43-1.15,2.17-1.72,21.16,34.45,56.63,36.68,93.27,33.19,3.48-36.68,1.26-72.11-33.21-93.27.62-.73,1.17-1.45,1.76-2.17.1-.91.19-1.81.26-2.74,39.33,9.39,65.99-14.11,89.44-42.49-23.45-28.38-50.11-51.88-89.44-42.49-.07-.91-.17-1.83-.26-2.73-.6-.73-1.14-1.45-1.76-2.15,34.47-21.17,36.68-56.63,33.21-93.31-36.64-3.45-72.11-1.23-93.27,33.2-.74-.57-1.43-1.14-2.17-1.72-.93-.1-1.79-.2-2.76-.3,9.4-39.34-14.09-65.96-42.47-89.44ZM1398.51,94.05c-2.36.16-4.74.34-7.12.54-3.86-15.04-.21-28.46,7.12-40.22,7.36,11.76,10.97,25.18,7.09,40.22-2.36-.19-4.74-.37-7.09-.54ZM1478.61,127.25c-1.79-1.57-3.57-3.11-5.4-4.64,7.9-13.39,19.95-20.31,33.47-23.43-3.12,13.52-10.02,25.57-23.42,33.45-1.57-1.8-3.07-3.59-4.64-5.38ZM1511.8,207.35c-.14-2.36-.36-4.72-.5-7.08,15-3.89,28.42-.26,40.18,7.08-11.76,7.34-25.19,10.99-40.18,7.11.14-2.39.36-4.74.5-7.11ZM1478.61,287.46c1.57-1.8,3.07-3.58,4.64-5.39,13.4,7.87,20.31,19.95,23.42,33.48-13.52-3.14-25.57-10.06-33.47-23.44,1.83-1.55,3.62-3.09,5.4-4.65ZM1398.51,320.65c2.36-.17,4.74-.35,7.09-.54,3.88,15.03.26,28.46-7.09,40.23-7.33-11.77-10.97-25.2-7.12-40.23,2.38.18,4.76.36,7.12.54ZM1318.4,287.46c1.76,1.56,3.59,3.1,5.38,4.65-7.88,13.38-19.95,20.3-33.47,23.44,3.14-13.53,10.02-25.61,23.42-33.48,1.57,1.81,3.09,3.59,4.67,5.39ZM1285.19,207.35c.21,2.37.38,4.72.52,7.11-15,3.89-28.45.23-40.21-7.11,11.76-7.34,25.21-10.97,40.21-7.08-.14,2.36-.31,4.72-.52,7.08ZM1318.4,127.25c-1.57,1.79-3.1,3.58-4.67,5.38-13.4-7.88-20.28-19.94-23.42-33.45,13.52,3.12,25.59,10.04,33.47,23.43-1.79,1.54-3.62,3.08-5.38,4.64ZM1398.51,46.09c-10.43,14-16.43,30.42-11.9,48.86-3.4.28-6.76.53-10.14.82-4.57-24.2,6.45-42.69,22.04-58.12,15.57,15.43,26.64,33.92,22.04,58.12-3.36-.29-6.74-.54-10.12-.82,4.48-18.44-1.5-34.86-11.93-48.86ZM1512.54,93.33c-17.28,2.52-33.11,9.92-42.97,26.13-2.57-2.22-5.14-4.42-7.71-6.59,13.83-20.36,34.73-25.64,56.66-25.5.09,21.92-5.17,42.79-25.52,56.66-2.19-2.58-4.38-5.17-6.59-7.72,16.23-9.88,23.59-25.7,26.14-42.98ZM1559.77,207.35c-14.02-10.43-30.4-16.4-48.87-11.91-.26-3.39-.52-6.76-.83-10.14,24.21-4.58,42.73,6.46,58.13,22.05-15.4,15.59-33.92,26.62-58.13,22.04.31-3.35.57-6.75.83-10.12,18.47,4.48,34.85-1.46,48.87-11.91ZM1512.54,321.38c-2.55-17.3-9.9-33.12-26.14-42.98,2.21-2.58,4.4-5.16,6.59-7.75,20.35,13.88,25.61,34.77,25.52,56.7-21.92.13-42.83-5.17-56.66-25.52,2.57-2.17,5.14-4.39,7.71-6.58,9.86,16.24,25.69,23.6,42.97,26.13ZM1398.51,368.61c10.43-14,16.4-30.41,11.93-48.87,3.38-.26,6.76-.52,10.12-.82,4.6,24.2-6.47,42.72-22.04,58.14-15.59-15.42-26.61-33.94-22.04-58.14,3.38.3,6.74.56,10.14.82-4.52,18.47,1.48,34.87,11.9,48.87ZM1284.46,321.38c17.31-2.53,33.11-9.9,43.02-26.13,2.59,2.19,5.14,4.41,7.74,6.58-13.86,20.35-34.78,25.64-56.73,25.52-.1-21.93,5.19-42.82,25.57-56.7,2.14,2.59,4.36,5.17,6.59,7.75-16.26,9.86-23.62,25.68-26.19,42.98ZM1237.23,207.35c14.02,10.45,30.42,16.4,48.9,11.91.26,3.37.5,6.77.83,10.12-24.21,4.58-42.75-6.45-58.16-22.04,15.4-15.59,33.95-26.63,58.16-22.05-.33,3.39-.57,6.75-.83,10.14-18.47-4.49-34.87,1.48-48.9,11.91ZM1284.46,93.33c2.57,17.28,9.93,33.1,26.19,42.98-2.24,2.55-4.45,5.14-6.59,7.72-20.38-13.87-25.66-34.74-25.57-56.66,21.95-.14,42.87,5.14,56.73,25.5-2.6,2.17-5.14,4.37-7.74,6.59-9.9-16.21-25.71-23.62-43.02-26.13ZM1387.96,181.86c.76-1.02,1.55-2.04,2.38-3.03-.67,1.67-1.21,3.34-1.57,5.03-1.45-.93-3-1.75-4.67-2.45,1.28.14,2.57.27,3.86.45ZM1409.1,181.86c1.26-.18,2.48-.31,3.78-.45-1.64.7-3.19,1.52-4.64,2.45-.36-1.69-.88-3.36-1.57-5.03.81,1,1.62,2.02,2.43,3.03ZM1423.98,196.79c1.02.79,2.05,1.58,3.05,2.4-1.67-.69-3.36-1.21-5.02-1.57.95-1.43,1.76-2.99,2.45-4.65-.12,1.29-.29,2.54-.48,3.83ZM1423.98,217.91c.19,1.28.36,2.55.48,3.83-.69-1.65-1.5-3.21-2.45-4.66,1.67-.35,3.36-.88,5.02-1.57-1,.84-2.02,1.62-3.05,2.4ZM1409.1,232.84c-.81,1.02-1.62,2.04-2.43,3.03.69-1.67,1.22-3.35,1.57-5.02,1.45.93,3,1.76,4.64,2.42-1.31-.1-2.52-.26-3.78-.44ZM1387.96,232.84c-1.29.17-2.57.33-3.86.44,1.67-.67,3.21-1.49,4.67-2.42.36,1.67.9,3.36,1.57,5.02-.83-1-1.62-2.02-2.38-3.03ZM1373.01,217.91c-1-.78-2.02-1.56-3.05-2.4,1.67.7,3.38,1.22,5.02,1.57-.93,1.45-1.71,3.01-2.43,4.66.14-1.27.29-2.55.45-3.83ZM1373.01,196.79c-.17-1.29-.31-2.54-.45-3.83.71,1.66,1.5,3.22,2.43,4.65-1.64.36-3.36.88-5.02,1.57,1.02-.82,2.05-1.61,3.05-2.4ZM1398.51,201.18c-8.17-7.86-6.55-18.31,0-27.14,6.57,8.83,8.17,19.28,0,27.14ZM1402.86,202.99c-.19-11.33,8.33-17.6,19.19-19.2-1.6,10.87-7.86,19.41-19.19,19.2ZM1404.67,207.35c7.88-8.16,18.33-6.56,27.16,0-8.83,6.58-19.28,8.16-27.16,0ZM1402.86,211.7c11.33-.21,17.59,8.33,19.19,19.19-10.86-1.58-19.38-7.84-19.19-19.19ZM1398.51,213.53c8.17,7.86,6.57,18.33,0,27.14-6.55-8.81-8.17-19.28,0-27.14ZM1394.15,211.7c.19,11.35-8.28,17.6-19.19,19.19,1.59-10.86,7.88-19.4,19.19-19.19ZM1392.34,207.35c-7.86,8.16-18.33,6.58-27.14,0,8.81-6.56,19.28-8.16,27.14,0ZM1394.15,202.99c-11.31.21-17.59-8.33-19.19-19.2,10.9,1.6,19.38,7.87,19.19,19.2ZM1398.51,31.18c-18.5,17.24-31.88,37.19-26.83,64.98-3.62.37-7.24.77-10.88,1.16-8.67-35.49,12.59-61.72,37.71-82.75,25.09,21.03,46.35,47.26,37.66,82.75-3.6-.39-7.19-.79-10.81-1.16,5-27.79-8.36-47.74-26.85-64.98ZM1523.06,82.77c-25.26-.88-48.78,3.8-64.89,26.99-2.83-2.32-5.67-4.56-8.5-6.86,18.95-31.23,52.52-34.76,85.13-31.86,2.9,32.63-.57,66.22-31.85,85.16-2.26-2.85-4.52-5.68-6.83-8.49,23.21-16.1,27.85-39.65,26.95-64.94ZM1574.67,207.35c-17.23-18.49-37.18-31.84-64.99-26.83-.36-3.61-.78-7.21-1.12-10.83,35.47-8.71,61.7,12.55,82.72,37.67-21.02,25.11-47.25,46.38-82.72,37.68.33-3.61.76-7.21,1.12-10.85,27.81,5.01,47.75-8.33,64.99-26.84ZM1523.06,331.92c.9-25.26-3.74-48.81-26.95-64.92,2.31-2.82,4.57-5.65,6.83-8.47,31.28,18.94,34.76,52.53,31.85,85.16-32.61,2.87-66.18-.63-85.13-31.87,2.83-2.27,5.67-4.56,8.5-6.86,16.12,23.19,39.64,27.85,64.89,26.97ZM1398.51,383.53c18.5-17.25,31.85-37.18,26.85-64.99,3.62-.36,7.21-.75,10.81-1.16,8.69,35.5-12.57,61.74-37.66,82.76-25.11-21.02-46.37-47.26-37.71-82.76,3.64.41,7.26.8,10.88,1.16-5.05,27.8,8.33,47.74,26.83,64.99ZM1273.93,331.92c25.28.88,48.83-3.78,64.89-26.97,2.86,2.3,5.69,4.59,8.5,6.86-18.92,31.24-52.54,34.74-85.13,31.87-2.88-32.63.62-66.22,31.85-85.16,2.29,2.83,4.55,5.65,6.83,8.47-23.19,16.11-27.83,39.67-26.95,64.92ZM1222.32,207.35c17.28,18.5,37.21,31.85,65.01,26.84.33,3.64.74,7.24,1.14,10.85-35.52,8.7-61.7-12.57-82.77-37.68,21.07-25.11,47.25-46.38,82.77-37.67-.4,3.62-.81,7.22-1.14,10.83-27.8-5.01-47.73,8.34-65.01,26.83ZM1273.93,82.77c-.88,25.29,3.76,48.84,26.95,64.94-2.29,2.81-4.55,5.64-6.83,8.49-31.23-18.94-34.73-52.53-31.85-85.16,32.59-2.9,66.2.63,85.13,31.86-2.81,2.3-5.64,4.55-8.5,6.86-16.07-23.19-39.61-27.87-64.89-26.99ZM1398.51,163.58c-2.74,2.45-5.4,5-7.97,7.68-1.67,1.79-3.21,3.62-4.74,5.5-2.36-.29-4.76-.46-7.19-.57-3.67-.08-7.38,0-11.05.22-.24,3.67-.29,7.37-.24,11.07.12,2.43.26,4.84.57,7.19-1.88,1.49-3.69,3.06-5.5,4.7-2.64,2.57-5.19,5.23-7.67,7.98,2.48,2.76,5.02,5.42,7.67,7.99,1.81,1.65,3.62,3.21,5.5,4.71-.31,2.36-.45,4.76-.57,7.19-.05,3.72,0,7.38.24,11.07,3.67.21,7.38.3,11.05.21,2.43-.1,4.83-.28,7.19-.54,1.52,1.86,3.07,3.67,4.74,5.48,2.57,2.69,5.24,5.23,7.97,7.68,2.76-2.46,5.43-4.99,7.97-7.68,1.67-1.8,3.24-3.62,4.71-5.48,2.38.26,4.76.44,7.21.54,3.67.09,7.38,0,11.05-.21.21-3.68.26-7.35.24-11.07-.12-2.43-.29-4.83-.57-7.19,1.88-1.5,3.71-3.06,5.48-4.71,2.67-2.57,5.24-5.23,7.67-7.99-2.43-2.76-5-5.41-7.67-7.98-1.76-1.64-3.6-3.21-5.48-4.7.29-2.36.45-4.77.57-7.19.02-3.7-.02-7.4-.24-11.07-3.67-.22-7.38-.3-11.05-.22-2.45.11-4.83.29-7.21.57-1.48-1.88-3.05-3.71-4.71-5.5-2.55-2.68-5.21-5.23-7.97-7.68ZM1380.51,163.9c5.52-6.01,11.64-11.49,18-16.65,6.36,5.16,12.47,10.64,18,16.65,8.17-.34,16.38.13,24.47.96.86,8.15,1.31,16.34.98,24.48,6.05,5.54,11.47,11.66,16.66,18-5.19,6.37-10.62,12.48-16.66,17.99.33,8.17-.12,16.36-.98,24.52-8.09.83-16.31,1.29-24.47.94-5.52,6-11.64,11.47-18,16.66-6.36-5.18-12.47-10.66-18-16.66-8.14.34-16.33-.11-24.52-.94-.81-8.16-1.28-16.35-.9-24.52-6.02-5.51-11.5-11.62-16.66-17.99,5.17-6.34,10.64-12.46,16.66-18-.38-8.14.1-16.33.9-24.48,8.19-.83,16.38-1.3,24.52-.96ZM1355.16,102.7c14.35-1.6,28.85-2.89,43.35-3.81,14.5.93,28.97,2.21,43.33,3.81,11.33,9.02,22.45,18.35,33.38,27.97,9.59,10.9,18.9,22.02,27.95,33.36,1.62,14.36,2.88,28.82,3.81,43.33-.93,14.52-2.19,28.98-3.81,43.36-9.05,11.31-18.35,22.42-27.95,33.35-10.93,9.59-22.04,18.92-33.38,27.95-14.35,1.62-28.83,2.9-43.33,3.83-14.5-.93-29-2.2-43.35-3.83-11.33-9.02-22.45-18.35-33.35-27.95-9.59-10.93-18.95-22.04-27.97-33.35-1.64-14.38-2.88-28.84-3.81-43.36.93-14.51,2.17-28.97,3.81-43.33,9.02-11.34,18.38-22.45,27.97-33.36,10.9-9.62,22.02-18.95,33.35-27.97ZM1398.51,141.16c-7.05,5.59-13.83,11.5-19.97,18-8.95-.24-17.88.35-26.83,1.39-1.02,8.95-1.62,17.9-1.38,26.85-6.52,6.12-12.43,12.9-18.02,19.95,5.59,7.06,11.5,13.82,18.02,19.95-.24,8.95.36,17.91,1.38,26.86,8.95,1.03,17.88,1.64,26.83,1.36,6.14,6.5,12.93,12.43,19.97,18,7.07-5.57,13.83-11.5,19.93-18,8.97.27,17.95-.33,26.88-1.36,1.02-8.95,1.67-17.91,1.4-26.86,6.5-6.14,12.4-12.89,18-19.95-5.59-7.05-11.5-13.83-18-19.95.26-8.95-.38-17.9-1.4-26.85-8.93-1.04-17.9-1.64-26.88-1.39-6.09-6.5-12.86-12.41-19.93-18ZM1378.25,158.51c3.55-3.51,7.21-6.94,10.38-10.78,5.33-6.67,9.5-14.41,8.59-23.19-.02-.12-.05-.23-.1-.33,0-.12.05-.2.05-.32-1.05-6.57-4.86-12.4-10.74-15.63-6.02-2.81-12.76-2.67-18.5.9-3.09,2.29-5.97,5.65-6.17,9.55-2.88-2.63-7.31-2.97-11.09-2.39-6.57,1.52-11.47,6.19-13.71,12.43-1.88,6.45-.4,13.23,3.5,18.61.07.1.14.14.21.21.07.11.1.22.14.32,5.59,6.84,14.02,9.36,22.5,10.31,4.98.47,9.98.32,14.93.31ZM1349.66,187.12c.02-4.98.17-9.98-.33-14.94-.95-8.49-3.45-16.9-10.28-22.48-.12-.09-.21-.12-.33-.16-.07-.1-.1-.16-.19-.23-5.38-3.92-12.16-5.37-18.62-3.49-6.24,2.26-10.93,7.15-12.43,13.69-.62,3.83-.24,8.23,2.36,11.13-3.9.18-7.24,3.05-9.52,6.18-3.55,5.69-3.74,12.46-.9,18.47,3.26,5.87,9.09,9.66,15.62,10.69.14.02.24-.02.33-.02.12.04.19.1.36.11,8.76.89,16.5-3.28,23.14-8.6,3.86-3.19,7.31-6.81,10.81-10.35ZM1349.66,227.58c-3.5-3.54-6.95-7.17-10.81-10.34-6.64-5.31-14.38-9.49-23.14-8.61-.17,0-.24.08-.36.11-.1,0-.19-.03-.33-.02-6.52,1.03-12.36,4.82-15.62,10.68-2.83,6.03-2.64,12.79.9,18.49,2.29,3.12,5.62,5.98,9.52,6.16-2.59,2.91-2.98,7.32-2.36,11.13,1.5,6.55,6.19,11.44,12.43,13.7,6.45,1.87,13.24.43,18.62-3.47.1-.1.12-.18.19-.24.12-.04.21-.1.33-.18,6.83-5.57,9.33-13.99,10.28-22.47.5-4.97.36-9.96.33-14.95ZM1378.25,256.19c-4.95-.01-9.95-.17-14.93.32-8.47.94-16.9,3.47-22.5,10.31-.05.1-.07.19-.14.3-.07.08-.14.11-.21.21-3.9,5.37-5.38,12.18-3.5,18.62,2.24,6.27,7.14,10.92,13.71,12.43,3.78.59,8.21.24,11.09-2.37.19,3.89,3.07,7.26,6.17,9.55,5.74,3.55,12.47,3.71,18.5.88,5.88-3.24,9.69-9.05,10.74-15.62,0-.11-.05-.23-.05-.33.05-.1.07-.2.1-.32.9-8.8-3.26-16.51-8.59-23.17-3.17-3.86-6.83-7.29-10.38-10.8ZM1418.74,256.19c-3.52,3.51-7.19,6.94-10.36,10.8-5.33,6.66-9.5,14.37-8.62,23.17.02.13.07.22.1.32,0,.1-.02.22,0,.33,1.05,6.57,4.83,12.38,10.69,15.62,6.02,2.83,12.83,2.67,18.5-.88,3.14-2.29,5.97-5.66,6.17-9.55,2.9,2.61,7.31,2.96,11.12,2.37,6.55-1.51,11.45-6.16,13.69-12.43,1.88-6.43.43-13.24-3.45-18.62-.1-.1-.17-.12-.24-.21-.05-.11-.07-.2-.19-.3-5.55-6.84-13.97-9.37-22.45-10.31-4.98-.49-10-.33-14.95-.32ZM1447.33,227.58c-.02,4.99-.14,9.98.33,14.95.98,8.48,3.45,16.9,10.28,22.47.1.08.24.14.31.18.1.06.14.15.21.24,5.4,3.9,12.17,5.34,18.62,3.47,6.26-2.26,10.93-7.15,12.45-13.7.59-3.81.24-8.22-2.38-11.13,3.9-.18,7.24-3.05,9.55-6.16,3.52-5.7,3.71-12.46.93-18.49-3.28-5.86-9.09-9.65-15.66-10.68-.12-.01-.21.02-.33.02-.1-.03-.17-.11-.29-.11-8.83-.88-16.54,3.3-23.21,8.61-3.86,3.17-7.31,6.8-10.81,10.34ZM1447.33,187.12c3.5,3.54,6.95,7.16,10.81,10.35,6.67,5.32,14.38,9.49,23.21,8.6.12-.02.19-.07.29-.11.12,0,.21.04.33.02,6.57-1.04,12.38-4.83,15.66-10.69,2.79-6.01,2.6-12.78-.93-18.47-2.31-3.13-5.64-5.99-9.55-6.18,2.62-2.9,2.98-7.3,2.38-11.13-1.52-6.54-6.19-11.43-12.45-13.69-6.45-1.87-13.21-.43-18.62,3.49-.07.07-.12.14-.21.23-.07.04-.21.07-.31.16-6.83,5.58-9.31,13.99-10.28,22.48-.48,4.96-.36,9.97-.33,14.94ZM1418.74,158.51c4.95.01,9.97.16,14.95-.31,8.48-.95,16.9-3.47,22.45-10.31.12-.1.14-.21.19-.32.07-.08.14-.12.24-.21,3.88-5.38,5.33-12.16,3.45-18.61-2.24-6.24-7.14-10.91-13.69-12.43-3.81-.58-8.21-.24-11.12,2.39-.19-3.9-3.02-7.26-6.17-9.55-5.67-3.56-12.47-3.71-18.5-.9-5.86,3.24-9.64,9.06-10.69,15.63-.02.12,0,.2,0,.32-.02.1-.07.21-.1.33-.88,8.78,3.29,16.51,8.62,23.19,3.17,3.84,6.83,7.27,10.36,10.78ZM1364.68,125.68c.57.54,1.19,1.01,1.83,1.42,1.79,1.11,3.9,1.71,6,1.56,1.69-.12,3.28-.99,4.4-2.23,2.62-1.92,4.05-5.05.88-7.89-3.55-3.2-9.02-.15-9.31,4.02-.64-.5-1.21-1.08-1.55-1.82-1.31-2.99,1.19-5.81,3.47-7.47,4.14-2.58,9.14-2.98,13.59-.87,4.81,2.64,7.52,7.17,8.45,12.5.62,7.35-2.71,13.78-7.21,19.42-2.79,3.33-5.86,6.36-8.95,9.41-4.31.02-8.69.07-12.97-.32-7.17-.83-14.09-2.99-18.85-8.65-3.09-4.42-4.38-9.53-2.86-14.79,1.67-4.65,5.5-7.91,10.24-9,2.79-.45,6.52-.19,7.69,2.84.31.74.33,1.53.26,2.36-3.19-2.75-9.21-1.03-9.45,3.72-.21,4.26,2.98,5.48,6.24,4.98,1.62.07,3.36-.44,4.69-1.56,1.55-1.35,2.64-3.26,3.09-5.31.21-.76.29-1.54.31-2.31ZM1316.83,173.53c.76-.02,1.57-.11,2.31-.29,2.02-.49,3.95-1.57,5.31-3.14,1.12-1.29,1.64-3.02,1.55-4.67.52-3.23-.69-6.44-4.95-6.22-4.74.23-6.5,6.26-3.76,9.42-.76.09-1.57.06-2.31-.24-3.05-1.17-3.28-4.9-2.88-7.67,1.14-4.78,4.38-8.61,9.02-10.27,5.26-1.52,10.38-.25,14.81,2.86,5.64,4.77,7.81,11.68,8.62,18.84.43,4.32.36,8.65.31,12.97-3.02,3.09-6.05,6.19-9.38,8.96-5.62,4.49-12.04,7.84-19.45,7.21-5.31-.92-9.83-3.64-12.45-8.44-2.12-4.45-1.74-9.47.83-13.62,1.67-2.25,4.5-4.73,7.48-3.42.76.32,1.33.88,1.86,1.5-4.19.3-7.28,5.8-4.05,9.32,2.86,3.15,6,1.73,7.9-.89,1.22-1.11,2.12-2.69,2.24-4.39.12-2.1-.45-4.21-1.57-5.99-.4-.67-.88-1.28-1.43-1.83ZM1316.83,241.18c.55-.56,1.02-1.18,1.43-1.83,1.12-1.8,1.69-3.9,1.57-5.99-.12-1.68-1.02-3.28-2.24-4.4-1.9-2.63-5.05-4.04-7.9-.88-3.24,3.53-.14,9.02,4.05,9.31-.52.63-1.09,1.19-1.86,1.5-2.98,1.32-5.81-1.17-7.48-3.41-2.57-4.15-2.95-9.16-.83-13.65,2.62-4.77,7.14-7.51,12.45-8.41,7.4-.63,13.83,2.72,19.45,7.21,3.33,2.77,6.36,5.87,9.38,8.93.05,4.34.12,8.65-.31,12.99-.81,7.15-2.98,14.07-8.62,18.84-4.43,3.12-9.55,4.37-14.81,2.87-4.64-1.68-7.88-5.49-9.02-10.28-.4-2.75-.17-6.49,2.88-7.68.74-.3,1.55-.32,2.31-.24-2.74,3.18-.98,9.2,3.76,9.44,4.26.21,5.48-3,4.95-6.21.1-1.64-.43-3.4-1.55-4.69-1.36-1.58-3.28-2.65-5.31-3.13-.74-.17-1.55-.28-2.31-.29ZM1364.68,289.02c-.02-.77-.1-1.55-.31-2.3-.45-2.04-1.55-3.96-3.09-5.33-1.33-1.12-3.07-1.64-4.69-1.54-3.26-.51-6.45.71-6.24,4.96.24,4.75,6.26,6.49,9.45,3.74.07.8.05,1.61-.26,2.36-1.17,3.03-4.9,3.27-7.69,2.83-4.74-1.1-8.57-4.34-10.24-9-1.52-5.25-.24-10.37,2.86-14.77,4.76-5.66,11.69-7.87,18.85-8.66,4.29-.39,8.66-.36,12.97-.32,3.09,3.02,6.16,6.06,8.95,9.4,4.5,5.65,7.83,12.06,7.21,19.44-.93,5.31-3.64,9.84-8.45,12.49-4.45,2.12-9.45,1.7-13.59-.88-2.29-1.66-4.78-4.48-3.47-7.46.33-.74.9-1.33,1.55-1.83.29,4.18,5.76,7.24,9.31,4.05,3.17-2.87,1.74-6.01-.88-7.92-1.12-1.22-2.71-2.09-4.4-2.21-2.1-.15-4.21.44-6,1.54-.64.4-1.26.89-1.83,1.43ZM1432.33,289.02c-.57-.54-1.17-1.02-1.83-1.43-1.79-1.1-3.93-1.7-5.97-1.54-1.71.13-3.26.99-4.4,2.21-2.64,1.91-4.05,5.04-.88,7.92,3.52,3.19,8.97.14,9.31-4.05.62.5,1.14,1.09,1.48,1.83,1.33,2.98-1.17,5.8-3.43,7.46-4.12,2.58-9.12,3-13.64.88-4.74-2.64-7.5-7.18-8.38-12.49-.64-7.38,2.69-13.79,7.19-19.44,2.76-3.33,5.86-6.37,8.95-9.4,4.33-.04,8.69-.07,12.97.32,7.14.8,14.07,3.01,18.85,8.66,3.09,4.39,4.36,9.51,2.88,14.77-1.69,4.66-5.52,7.9-10.28,9-2.76.44-6.5.2-7.69-2.83-.31-.75-.33-1.56-.24-2.36,3.14,2.75,9.19,1.02,9.45-3.74.19-4.25-3-5.47-6.24-4.96-1.67-.1-3.38.42-4.67,1.54-1.6,1.37-2.67,3.29-3.17,5.33-.14.75-.26,1.52-.26,2.3ZM1480.18,241.18c-.79.01-1.57.12-2.31.29-2.02.48-3.95,1.55-5.36,3.13-1.1,1.28-1.6,3.05-1.52,4.69-.5,3.21.69,6.43,4.95,6.21,4.76-.24,6.52-6.27,3.74-9.44.83-.08,1.64-.06,2.36.24,3.05,1.19,3.29,4.93,2.86,7.68-1.12,4.79-4.38,8.6-9.02,10.28-5.26,1.5-10.38.25-14.76-2.87-5.67-4.77-7.86-11.69-8.69-18.84-.36-4.34-.31-8.65-.29-12.99,3.02-3.07,6.05-6.17,9.4-8.93,5.64-4.49,12.05-7.84,19.42-7.21,5.31.9,9.83,3.64,12.5,8.41,2.12,4.49,1.69,9.5-.9,13.65-1.64,2.24-4.48,4.73-7.45,3.41-.71-.31-1.33-.87-1.83-1.5,4.21-.29,7.24-5.77,4.02-9.31-2.83-3.15-5.95-1.75-7.88.88-1.24,1.11-2.1,2.71-2.24,4.4-.14,2.08.45,4.19,1.55,5.99.43.65.9,1.27,1.45,1.83ZM1480.18,173.53c-.55.55-1.02,1.17-1.45,1.83-1.1,1.79-1.69,3.89-1.55,5.99.14,1.7,1,3.28,2.24,4.39,1.93,2.63,5.05,4.05,7.88.89,3.21-3.52.19-9.02-4.02-9.32.5-.62,1.12-1.18,1.83-1.5,2.98-1.3,5.81,1.17,7.45,3.42,2.6,4.15,3.02,9.17.9,13.62-2.67,4.8-7.19,7.52-12.5,8.44-7.38.63-13.78-2.72-19.42-7.21-3.36-2.77-6.38-5.87-9.4-8.96-.02-4.33-.07-8.65.29-12.97.83-7.15,3.02-14.06,8.69-18.84,4.38-3.11,9.5-4.39,14.76-2.86,4.64,1.67,7.9,5.49,9.02,10.27.43,2.76.19,6.5-2.86,7.67-.71.3-1.52.33-2.36.24,2.79-3.17,1.02-9.19-3.74-9.42-4.26-.22-5.45,2.99-4.95,6.22-.07,1.65.43,3.38,1.52,4.67,1.4,1.57,3.33,2.65,5.36,3.14.74.18,1.52.27,2.31.29ZM1432.33,125.68c0,.77.12,1.55.26,2.31.5,2.05,1.57,3.96,3.17,5.31,1.28,1.12,3,1.62,4.67,1.56,3.24.5,6.43-.72,6.24-4.98-.26-4.75-6.31-6.47-9.45-3.72-.1-.83-.07-1.61.24-2.36,1.19-3.03,4.93-3.29,7.69-2.84,4.76,1.09,8.59,4.36,10.28,9,1.48,5.25.21,10.37-2.88,14.79-4.79,5.66-11.71,7.83-18.85,8.65-4.28.39-8.64.34-12.97.32-3.09-3.05-6.19-6.08-8.95-9.41-4.5-5.64-7.83-12.07-7.19-19.42.88-5.33,3.64-9.86,8.38-12.5,4.52-2.11,9.52-1.71,13.64.87,2.26,1.66,4.76,4.48,3.43,7.47-.33.73-.86,1.32-1.48,1.82-.33-4.17-5.78-7.22-9.31-4.02-3.17,2.84-1.76,5.97.88,7.89,1.14,1.23,2.69,2.1,4.4,2.23,2.05.15,4.19-.45,5.97-1.56.67-.4,1.26-.88,1.83-1.42Z"/>
      <g>
        <path class="st3" d="M1398.51,147.26c-6.36,5.16-12.47,10.64-18,16.65-8.14-.34-16.33.13-24.52.96-.81,8.15-1.28,16.34-.9,24.48-6.02,5.54-11.5,11.66-16.66,18,5.17,6.37,10.64,12.48,16.66,17.99-.38,8.17.1,16.36.9,24.52,8.19.83,16.38,1.29,24.52.94,5.52,6,11.64,11.47,18,16.66,6.36-5.18,12.47-10.66,18-16.66,8.17.34,16.38-.11,24.47-.94.86-8.16,1.31-16.35.98-24.52,6.05-5.51,11.47-11.62,16.66-17.99-5.19-6.34-10.62-12.46-16.66-18,.33-8.14-.12-16.33-.98-24.48-8.09-.83-16.31-1.3-24.47-.96-5.52-6.01-11.64-11.49-18-16.65ZM1385.8,176.75c1.52-1.88,3.07-3.71,4.74-5.5,2.57-2.68,5.24-5.23,7.97-7.68,2.76,2.45,5.43,5,7.97,7.68,1.67,1.79,3.24,3.62,4.71,5.5,2.38-.29,4.76-.46,7.21-.57,3.67-.08,7.38,0,11.05.22.21,3.67.26,7.37.24,11.07-.12,2.43-.29,4.84-.57,7.19,1.88,1.49,3.71,3.06,5.48,4.7,2.67,2.57,5.24,5.23,7.67,7.98-2.43,2.76-5,5.42-7.67,7.99-1.76,1.65-3.6,3.21-5.48,4.71.29,2.36.45,4.76.57,7.19.02,3.72-.02,7.38-.24,11.07-3.67.21-7.38.3-11.05.21-2.45-.1-4.83-.28-7.21-.54-1.48,1.86-3.05,3.67-4.71,5.48-2.55,2.69-5.21,5.23-7.97,7.68-2.74-2.46-5.4-4.99-7.97-7.68-1.67-1.8-3.21-3.62-4.74-5.48-2.36.26-4.76.44-7.19.54-3.67.09-7.38,0-11.05-.21-.24-3.68-.29-7.35-.24-11.07.12-2.43.26-4.83.57-7.19-1.88-1.5-3.69-3.06-5.5-4.71-2.64-2.57-5.19-5.23-7.67-7.99,2.48-2.76,5.02-5.41,7.67-7.98,1.81-1.64,3.62-3.21,5.5-4.7-.31-2.36-.45-4.77-.57-7.19-.05-3.7,0-7.4.24-11.07,3.67-.22,7.38-.3,11.05-.22,2.43.11,4.83.29,7.19.57Z"/>
        <path class="st3" d="M1398.51,54.36c-7.33,11.76-10.97,25.18-7.12,40.22,2.38-.19,4.76-.37,7.12-.54,2.36.16,4.74.34,7.09.54,3.88-15.04.26-28.46-7.09-40.22Z"/>
        <path class="st3" d="M1506.68,99.18c-13.52,3.12-25.57,10.04-33.47,23.43,1.83,1.54,3.62,3.08,5.4,4.64,1.57,1.79,3.07,3.58,4.64,5.38,13.4-7.88,20.31-19.94,23.42-33.45Z"/>
        <path class="st3" d="M1551.48,207.35c-11.76-7.34-25.19-10.97-40.18-7.08.14,2.36.36,4.72.5,7.08-.14,2.37-.36,4.72-.5,7.11,15,3.89,28.42.23,40.18-7.11Z"/>
        <path class="st3" d="M1506.68,315.55c-3.12-13.53-10.02-25.61-23.42-33.48-1.57,1.81-3.07,3.59-4.64,5.39-1.79,1.56-3.57,3.1-5.4,4.65,7.9,13.38,19.95,20.3,33.47,23.44Z"/>
        <path class="st3" d="M1398.51,360.35c7.36-11.77,10.97-25.2,7.09-40.23-2.36.18-4.74.36-7.09.54-2.36-.17-4.74-.35-7.12-.54-3.86,15.03-.21,28.46,7.12,40.23Z"/>
        <path class="st3" d="M1290.31,315.55c13.52-3.14,25.59-10.06,33.47-23.44-1.79-1.55-3.62-3.09-5.38-4.65-1.57-1.8-3.1-3.58-4.67-5.39-13.4,7.87-20.28,19.95-23.42,33.48Z"/>
        <path class="st3" d="M1245.51,207.35c11.76,7.34,25.21,10.99,40.21,7.11-.14-2.39-.31-4.74-.52-7.11.21-2.36.38-4.72.52-7.08-15-3.89-28.45-.26-40.21,7.08Z"/>
        <path class="st3" d="M1290.31,99.18c3.14,13.52,10.02,25.57,23.42,33.45,1.57-1.8,3.09-3.59,4.67-5.38,1.76-1.57,3.59-3.11,5.38-4.64-7.88-13.39-19.95-20.31-33.47-23.43Z"/>
        <path class="st3" d="M1388.77,183.85c.36-1.69.9-3.36,1.57-5.03-.83,1-1.62,2.02-2.38,3.03-1.29-.18-2.57-.31-3.86-.45,1.67.7,3.21,1.52,4.67,2.45Z"/>
        <path class="st3" d="M1408.24,183.85c1.45-.93,3-1.75,4.64-2.45-1.31.14-2.52.27-3.78.45-.81-1.02-1.62-2.04-2.43-3.03.69,1.67,1.22,3.34,1.57,5.03Z"/>
        <path class="st3" d="M1422,197.62c1.67.36,3.36.88,5.02,1.57-1-.82-2.02-1.61-3.05-2.4.19-1.29.36-2.54.48-3.83-.69,1.66-1.5,3.22-2.45,4.65Z"/>
        <path class="st3" d="M1422,217.08c.95,1.45,1.76,3.01,2.45,4.66-.12-1.27-.29-2.55-.48-3.83,1.02-.78,2.05-1.56,3.05-2.4-1.67.7-3.36,1.22-5.02,1.57Z"/>
        <path class="st3" d="M1408.24,230.86c-.36,1.67-.88,3.36-1.57,5.02.81-1,1.62-2.02,2.43-3.03,1.26.17,2.48.33,3.78.44-1.64-.67-3.19-1.49-4.64-2.42Z"/>
        <path class="st3" d="M1388.77,230.86c-1.45.93-3,1.76-4.67,2.42,1.28-.1,2.57-.26,3.86-.44.76,1.02,1.55,2.04,2.38,3.03-.67-1.67-1.21-3.35-1.57-5.02Z"/>
        <path class="st3" d="M1374.99,217.08c-1.64-.35-3.36-.88-5.02-1.57,1.02.84,2.05,1.62,3.05,2.4-.17,1.28-.31,2.55-.45,3.83.71-1.65,1.5-3.21,2.43-4.66Z"/>
        <path class="st3" d="M1374.99,197.62c-.93-1.43-1.71-2.99-2.43-4.65.14,1.29.29,2.54.45,3.83-1,.79-2.02,1.58-3.05,2.4,1.67-.69,3.38-1.21,5.02-1.57Z"/>
      </g>
    </g>
    <g>
      <path class="st6" d="M303.42,861.15l-6.49,19.93h-8.55l21.62-63.35h9.78l21.62,63.35h-8.74l-6.77-19.93h-22.46ZM324.19,854.76l-6.2-18.23c-1.41-4.14-2.35-7.9-3.29-11.56h-.28c-.85,3.76-1.88,7.61-3.1,11.47l-6.2,18.33h19.08Z"/>
      <path class="st6" d="M397.14,814.34h8.18v66.74h-8.18v-66.74Z"/>
      <path class="st6" d="M466.23,814.34h8.18v66.74h-8.18v-66.74Z"/>
      <path class="st6" d="M612.87,861.15l-6.49,19.93h-8.55l21.62-63.35h9.78l21.62,63.35h-8.74l-6.77-19.93h-22.46ZM633.64,854.76l-6.2-18.23c-1.41-4.14-2.35-7.9-3.29-11.56h-.28c-.85,3.76-1.88,7.61-3.1,11.47l-6.2,18.33h19.08Z"/>
      <path class="st6" d="M706.59,814.34h8.18v28.57h.19c2.91-5.08,8.18-8.27,15.51-8.27,11.28,0,19.27,9.4,19.27,23.12,0,16.26-10.43,24.34-20.49,24.34-6.58,0-11.84-2.54-15.32-8.46h-.19l-.38,7.43h-7.14c.19-3.1.38-7.71.38-11.66v-55.08ZM714.76,862.84c0,1.03.09,2.07.38,3.01,1.6,5.83,6.49,9.68,12.41,9.68,8.74,0,13.82-7.05,13.82-17.48,0-9.12-4.7-16.92-13.63-16.92-5.55,0-10.81,3.85-12.5,10.15-.19,1.03-.47,2.07-.47,3.38v8.18Z"/>
      <path class="st6" d="M848.34,858.33c0,16.82-12.31,23.78-22.84,23.78-11.94,0-21.62-8.93-21.62-23.59s10.34-23.88,22.65-23.88,21.81,9.12,21.81,23.69ZM812.24,858.52c0,9.12,4.61,17.39,13.82,17.39s13.91-8.27,13.91-17.48c0-7.9-3.67-17.67-13.91-17.67s-13.82,9.68-13.82,17.76Z"/>
      <path class="st6" d="M936.89,881.08l-.47-7.43h-.19c-2.07,3.48-6.67,8.46-15.13,8.46s-15.6-5.36-15.6-19.93v-26.51h8.27v25.1c0,8.84,2.82,14.57,9.96,14.57,6.02,0,9.87-4.14,11.09-7.52.47-1.32.75-2.91.75-4.32v-27.82h8.18v32.99c0,4.79.19,8.74.38,12.41h-7.24Z"/>
      <path class="st6" d="M1014.44,822.52v13.16h11.84v6.2h-11.84v24.53c0,5.64,1.6,8.83,6.2,8.83,2.16,0,3.67-.28,4.79-.56l.38,6.2c-1.6.75-4.14,1.22-7.43,1.22-3.76,0-6.96-1.32-8.93-3.48-2.16-2.63-3.1-6.58-3.1-11.94v-24.81h-7.05v-6.2h7.05v-11l8.08-2.16Z"/>
      <path class="st6" d="M1158.07,817.72v63.35h-8.27v-63.35h8.27Z"/>
      <path class="st6" d="M1220.02,847.9c0-4.7-.19-8.55-.38-12.22h7.33l.38,7.43h.28c2.26-4.23,7.52-8.46,15.04-8.46,6.2,0,15.98,3.76,15.98,19.27v27.16h-8.18v-26.13c0-7.42-2.73-13.54-10.53-13.54-5.45,0-9.59,3.85-11.09,8.46-.38,1.03-.66,2.44-.66,3.85v27.35h-8.18v-33.18Z"/>
      <path class="st6" d="M1328.77,822.52v13.16h11.84v6.2h-11.84v24.53c0,5.64,1.6,8.83,6.2,8.83,2.16,0,3.67-.28,4.79-.56l.38,6.2c-1.6.75-4.14,1.22-7.43,1.22-3.76,0-6.96-1.32-8.93-3.48-2.16-2.63-3.1-6.58-3.1-11.94v-24.81h-7.05v-6.2h7.05v-11l8.08-2.16Z"/>
      <path class="st6" d="M1400.97,859.83c.19,11.18,7.24,15.79,15.6,15.79,5.92,0,9.59-1.03,12.59-2.35l1.41,5.92c-2.82,1.32-7.9,2.91-15.13,2.91-14,0-22.37-9.31-22.37-22.93s8.08-24.53,21.43-24.53c14.76,0,18.7,12.97,18.7,21.34,0,1.69-.19,3.01-.38,3.85h-31.86ZM1425.22,853.91c.09-5.17-2.16-13.35-11.47-13.35-8.37,0-12.03,7.61-12.69,13.35h24.16Z"/>
      <path class="st6" d="M1490.45,849.78c0-5.36-.19-9.87-.38-14.1h7.24l.28,8.93h.28c2.16-6.11,7.24-9.96,12.69-9.96.94,0,1.6,0,2.26.19v7.8c-.75-.19-1.6-.28-2.73-.28-5.92,0-9.96,4.42-11.09,10.62-.28,1.13-.38,2.54-.38,3.76v24.34h-8.18v-31.3Z"/>
      <path class="st6" d="M1577.87,822.8c0,2.82-2.07,5.08-5.26,5.08-3.01,0-5.08-2.26-4.98-5.08-.09-2.82,2.07-5.17,5.08-5.17s5.08,2.26,5.17,5.17ZM1568.57,881.08v-45.4h8.18v45.4h-8.18Z"/>
      <path class="st6" d="M1678.73,858.33c0,16.82-12.31,23.78-22.84,23.78-11.94,0-21.62-8.93-21.62-23.59s10.34-23.88,22.65-23.88,21.81,9.12,21.81,23.69ZM1642.64,858.52c0,9.12,4.61,17.39,13.82,17.39s13.91-8.27,13.91-17.48c0-7.9-3.67-17.67-13.91-17.67s-13.82,9.68-13.82,17.76Z"/>
      <path class="st6" d="M1736.17,849.78c0-5.36-.19-9.87-.38-14.1h7.24l.28,8.93h.28c2.16-6.11,7.24-9.96,12.69-9.96.94,0,1.6,0,2.26.19v7.8c-.75-.19-1.6-.28-2.73-.28-5.92,0-9.96,4.42-11.09,10.62-.28,1.13-.38,2.54-.38,3.76v24.34h-8.18v-31.3Z"/>
      <path class="st6" d="M1812.78,872.62c2.44,1.6,6.77,3.29,10.9,3.29,6.02,0,8.84-3.01,8.84-6.77,0-3.95-2.35-6.02-8.46-8.27-8.18-3.01-12.03-7.52-12.03-12.97,0-7.24,5.92-13.25,15.7-13.25,4.61,0,8.65,1.22,11.19,2.73l-2.07,6.02c-1.79-1.03-5.08-2.73-9.4-2.73-4.79,0-7.52,2.91-7.52,6.3,0,3.76,2.63,5.45,8.65,7.8,7.8,2.91,11.94,6.77,11.94,13.63,0,7.99-6.2,13.72-17.01,13.72-4.98,0-9.59-1.32-12.78-3.2l2.07-6.3Z"/>
    </g>
  </g>
  <g>
    <path d="M1846.71,343.31c-22.09,0-40,17.91-40,40s17.91,40,40,40,40-17.91,40-40c-.02-22.08-17.92-39.98-40-40ZM1846.71,419.17v-.04c-19.81,0-35.87-16.06-35.87-35.87s16.06-35.87,35.87-35.87,35.87,16.06,35.87,35.87v.04c-.02,19.8-16.07,35.84-35.87,35.87Z"/>
    <path d="M1858.54,398.65s0-.01-.01-.02l-7.98-13.31c4.61-.16,8.27-3.94,8.26-8.55v-3.39c0-4.72-3.83-8.55-8.55-8.56-.07,0-.14,0-.21,0h-13.22c-1.14,0-2.07.93-2.07,2.07v32.93c0,1.14.93,2.07,2.07,2.07s2.07-.93,2.07-2.07v-14.46h6.61l9.46,15.41c.38.62,1.05,1,1.78.99.38,0,.75-.1,1.07-.29.98-.59,1.3-1.85.71-2.83ZM1838.9,381.24v-12.4h11.16c2.44,0,4.42,1.98,4.42,4.42,0,.04,0,.08,0,.13v3.43c0,2.44-1.98,4.42-4.42,4.42h-11.16Z"/>
  </g>
</svg>