<?xml version="1.0" encoding="UTF-8"?>
<svg xmlns="http://www.w3.org/2000/svg" xmlns:xlink="http://www.w3.org/1999/xlink" version="1.1" id="Layer_1" x="0px" y="0px" viewBox="0 0 3240 950" style="enable-background:new 0 0 3240 950;" xml:space="preserve">
<style type="text/css">
	.st0{fill-rule:evenodd;clip-rule:evenodd;fill:url(#SVGID_1_);}
	.st1{fill-rule:evenodd;clip-rule:evenodd;fill:url(#SVGID_00000060733357627120316800000004130222175287007894_);}
	.st2{fill-rule:evenodd;clip-rule:evenodd;fill:url(#SVGID_00000173858249522047367350000005384975832469219729_);}
	.st3{fill-rule:evenodd;clip-rule:evenodd;fill:url(#SVGID_00000004534113723031888190000000062705894099804824_);}
	.st4{fill-rule:evenodd;clip-rule:evenodd;fill:url(#SVGID_00000124156430129635058930000015144897845770780293_);}
	.st5{fill-rule:evenodd;clip-rule:evenodd;fill:url(#SVGID_00000091708314356677375010000007529895281901406655_);}
	.st6{fill-rule:evenodd;clip-rule:evenodd;fill:url(#SVGID_00000034086906692598057950000015374903650850341031_);}
	.st7{fill-rule:evenodd;clip-rule:evenodd;fill:url(#SVGID_00000135656987991433040900000000608136649178600114_);}
	.st8{fill-rule:evenodd;clip-rule:evenodd;fill:url(#SVGID_00000135685153827664180010000008395191571488566442_);}
	.st9{fill-rule:evenodd;clip-rule:evenodd;fill:url(#SVGID_00000120545098340333276650000014847774433017364112_);}
	.st10{fill-rule:evenodd;clip-rule:evenodd;fill:#0071BC;}
	.st11{fill:#0071BC;}
	.st12{fill:#29ABE2;}
	.st13{fill:#ED1C24;}
</style>
<g>
	<g>
		<g>
			<g>
				<radialGradient id="SVGID_1_" cx="666.695" cy="-315.4375" r="1485.0337" gradientUnits="userSpaceOnUse">
					<stop offset="0" style="stop-color:#FFFFFF"></stop>
					<stop offset="0.5" style="stop-color:#FAAF3B"></stop>
					<stop offset="1" style="stop-color:#C3272E"></stop>
				</radialGradient>
				<path class="st0" d="M685.22,637.22c66.79-68.77,19.93-222.29,72.4-258.58c9.49,37.76-7.35,119.85-20.22,168.14      c44.78-85.08,26.8-204.5,80.98-243.45C821.71,416.84,769,574.86,685.22,637.22z M823.95,401.66      c-15.45,79.89-50.27,159.21-97.01,212.11c-84.59,95.76-181.3,69.21-77.67-67.76c34.87-43.49,78.34-96,55.31-163.67      C632.49,530.41,470.31,508.63,470.31,940C735.33,790.5,868.64,552.56,891.7,252.43C850.87,272.96,837.1,333.69,823.95,401.66z"></path>
				
					<radialGradient id="SVGID_00000131354108997027431970000017402043578836033420_" cx="40.3688" cy="755.5051" r="1091.2594" gradientUnits="userSpaceOnUse">
					<stop offset="0" style="stop-color:#FFFFFF"></stop>
					<stop offset="0.5" style="stop-color:#FAAF3B"></stop>
					<stop offset="1" style="stop-color:#C3272E"></stop>
				</radialGradient>
				<path style="fill-rule:evenodd;clip-rule:evenodd;fill:url(#SVGID_00000131354108997027431970000017402043578836033420_);" d="      M704.59,382.34C632.49,530.41,470.31,508.63,470.31,940C564.03,887.13,641.28,823.2,703,749.37      c-85.95,87.61-191.47-37.65-53.72-203.36C684.15,502.52,727.62,450.01,704.59,382.34z"></path>
				
					<linearGradient id="SVGID_00000005950985640444408470000006753307963971540621_" gradientUnits="userSpaceOnUse" x1="590.2252" y1="9.3304" x2="590.2252" y2="1022.3856">
					<stop offset="0" style="stop-color:#FFFFFF"></stop>
					<stop offset="1" style="stop-color:#FFFFFF;stop-opacity:0"></stop>
				</linearGradient>
				<path style="fill-rule:evenodd;clip-rule:evenodd;fill:url(#SVGID_00000005950985640444408470000006753307963971540621_);" d="      M701.47,406.18c-29.25,48.85-71.06,81.42-108.5,122.79c-98.27,108.53-112.82,255.19-113.98,396.1      c36.66-21.43,71.64-45.2,104.61-71.46c-65.53-32.17-45.88-168.77-24.53-225.84C598.14,523.32,693.95,482.76,701.47,406.18z"></path>
			</g>
			<g>
				
					<radialGradient id="SVGID_00000118376299415346977890000015862403436064634013_" cx="-1113.4366" cy="-315.4731" r="1485.0317" gradientTransform="matrix(-1 0 0 1 -864.907 0)" gradientUnits="userSpaceOnUse">
					<stop offset="0" style="stop-color:#FFFFFF"></stop>
					<stop offset="0.5" style="stop-color:#FAAF3B"></stop>
					<stop offset="1" style="stop-color:#C3272E"></stop>
				</radialGradient>
				<path style="fill-rule:evenodd;clip-rule:evenodd;fill:url(#SVGID_00000118376299415346977890000015862403436064634013_);" d="      M96.84,303.29c54.18,38.95,36.2,158.37,80.98,243.46c-12.87-48.3-29.71-130.38-20.22-168.14      c52.47,36.28,5.61,189.81,72.4,258.58C146.23,574.83,93.51,416.81,96.84,303.29z M23.52,252.39      C46.59,552.52,179.9,790.47,444.91,939.96c0-431.37-162.18-409.58-234.28-557.66c-23.03,67.68,20.44,120.18,55.31,163.67      c103.63,136.97,6.92,163.52-77.67,67.76c-46.74-52.89-81.56-132.22-97.01-212.11C78.13,333.66,64.35,272.92,23.52,252.39z"></path>
				
					<radialGradient id="SVGID_00000020377123943919982290000015203281333620499370_" cx="-1739.7622" cy="755.4681" r="1091.2578" gradientTransform="matrix(-1 0 0 1 -864.907 0)" gradientUnits="userSpaceOnUse">
					<stop offset="0" style="stop-color:#FFFFFF"></stop>
					<stop offset="0.5" style="stop-color:#FAAF3B"></stop>
					<stop offset="1" style="stop-color:#C3272E"></stop>
				</radialGradient>
				<path style="fill-rule:evenodd;clip-rule:evenodd;fill:url(#SVGID_00000020377123943919982290000015203281333620499370_);" d="      M210.63,382.3c72.1,148.08,234.28,126.29,234.28,557.66c-93.72-52.87-170.97-116.8-232.69-190.62      c85.95,87.6,191.47-37.66,53.72-203.37C231.08,502.49,187.61,449.98,210.63,382.3z"></path>
				
					<linearGradient id="SVGID_00000139282228054391882790000006828976689965404570_" gradientUnits="userSpaceOnUse" x1="-1189.9073" y1="9.2876" x2="-1189.9073" y2="1022.3592" gradientTransform="matrix(-1 0 0 1 -864.907 0)">
					<stop offset="0" style="stop-color:#FFFFFF"></stop>
					<stop offset="1" style="stop-color:#FFFFFF;stop-opacity:0"></stop>
				</linearGradient>
				<path style="fill-rule:evenodd;clip-rule:evenodd;fill:url(#SVGID_00000139282228054391882790000006828976689965404570_);" d="      M213.76,406.14c29.25,48.85,71.06,81.42,108.5,122.79c98.27,108.53,112.82,255.19,113.98,396.11      c-36.66-21.43-71.64-45.21-104.61-71.46c65.52-32.17,45.88-168.77,24.53-225.84C317.09,523.28,221.27,482.73,213.76,406.14z"></path>
			</g>
			<g>
				
					<radialGradient id="SVGID_00000025415710979746089910000015940044088690225316_" cx="543.8032" cy="464.8806" r="236.9406" gradientUnits="userSpaceOnUse">
					<stop offset="0" style="stop-color:#FFFFFF"></stop>
					<stop offset="0.5" style="stop-color:#24B2E7"></stop>
					<stop offset="1" style="stop-color:#3D4199"></stop>
				</radialGradient>
				<path style="fill-rule:evenodd;clip-rule:evenodd;fill:url(#SVGID_00000025415710979746089910000015940044088690225316_);" d="      M457.61,531.27v155.16c33.79-177.55,190.37-243.3,256.47-350.32C638.84,428.86,503.38,417.95,457.61,531.27z"></path>
				
					<radialGradient id="SVGID_00000083771350797326359090000016921524555999462274_" cx="575.7361" cy="445.1315" r="174.1443" gradientUnits="userSpaceOnUse">
					<stop offset="0" style="stop-color:#FFFFFF"></stop>
					<stop offset="0.33" style="stop-color:#FFFFFF"></stop>
					<stop offset="0.66" style="stop-color:#FFFFFF;stop-opacity:0"></stop>
					<stop offset="1" style="stop-color:#FFFFFF;stop-opacity:0"></stop>
				</radialGradient>
				<path style="fill-rule:evenodd;clip-rule:evenodd;fill:url(#SVGID_00000083771350797326359090000016921524555999462274_);" d="      M457.61,531.27c49.72-92.97,164.54-88.06,236.25-172.28C616.64,439.97,499.52,427.5,457.61,531.27z"></path>
				
					<radialGradient id="SVGID_00000011754321174866071360000015601830768060120489_" cx="393.1656" cy="454.7319" r="217.9651" gradientUnits="userSpaceOnUse">
					<stop offset="0" style="stop-color:#FFFFFF"></stop>
					<stop offset="0.5" style="stop-color:#24B2E7"></stop>
					<stop offset="1" style="stop-color:#3D4199"></stop>
				</radialGradient>
				<path style="fill-rule:evenodd;clip-rule:evenodd;fill:url(#SVGID_00000011754321174866071360000015601830768060120489_);" d="      M201.13,336.12c66.11,107.02,222.69,172.77,256.48,350.32V531.27C411.85,417.95,276.39,428.86,201.13,336.12z"></path>
				
					<radialGradient id="SVGID_00000124131051785054388100000001663396639404508039_" cx="339.4796" cy="445.1315" r="181.5186" gradientUnits="userSpaceOnUse">
					<stop offset="0" style="stop-color:#FFFFFF"></stop>
					<stop offset="0.33" style="stop-color:#FFFFFF"></stop>
					<stop offset="0.66" style="stop-color:#FFFFFF;stop-opacity:0"></stop>
					<stop offset="1" style="stop-color:#FFFFFF;stop-opacity:0"></stop>
				</radialGradient>
				<path style="fill-rule:evenodd;clip-rule:evenodd;fill:url(#SVGID_00000124131051785054388100000001663396639404508039_);" d="      M221.35,358.99c71.73,84.22,186.54,79.31,236.27,172.28C415.71,427.5,298.58,439.97,221.35,358.99z"></path>
			</g>
		</g>
		<g>
			<rect x="465.42" y="137.65" class="st10" width="22.25" height="22.27"></rect>
			<rect x="465.42" y="166.98" class="st10" width="22.25" height="22.27"></rect>
			<rect x="465.42" y="196.52" class="st10" width="22.25" height="23.14"></rect>
			<rect x="465.42" y="225.87" class="st10" width="22.25" height="23.14"></rect>
			<rect x="465.42" y="256.08" class="st10" width="22.25" height="22.27"></rect>
			<rect x="465.42" y="285.42" class="st10" width="22.25" height="22.27"></rect>
			<rect x="427.39" y="137.65" class="st10" width="22.25" height="22.27"></rect>
			<rect x="427.39" y="166.98" class="st10" width="22.25" height="22.27"></rect>
			<rect x="427.39" y="196.52" class="st10" width="22.25" height="23.14"></rect>
			<rect x="427.39" y="225.87" class="st10" width="22.25" height="23.14"></rect>
			<rect x="427.39" y="256.08" class="st10" width="22.25" height="22.27"></rect>
			<rect x="427.39" y="285.42" class="st10" width="22.25" height="22.27"></rect>
			<rect x="366.54" y="196.33" class="st10" width="22.27" height="22.25"></rect>
			<rect x="395.87" y="196.33" class="st10" width="22.27" height="22.25"></rect>
			<rect x="496.92" y="196.33" class="st10" width="22.27" height="22.25"></rect>
			<rect x="526.25" y="196.33" class="st10" width="22.27" height="22.25"></rect>
			<rect x="366.54" y="226.75" class="st10" width="22.27" height="22.25"></rect>
			<rect x="395.87" y="226.75" class="st10" width="22.27" height="22.25"></rect>
			<rect x="496.92" y="226.75" class="st10" width="22.27" height="22.25"></rect>
			<rect x="526.25" y="226.75" class="st10" width="22.27" height="22.25"></rect>
		</g>
		<path class="st11" d="M405.15,35.28L23.36,237.57c0,0,8.19,0.74,18.08,8.25c13.36,10.14,19.86,22.79,19.86,22.79L453.99,60.56    l396.47,205.21c0,0,4.85-10.43,17.21-18.92c14.77-10.15,24.03-10.3,24.03-10.3L502.83,35.28L453.99,10L405.15,35.28L405.15,35.28z    "></path>
		<path class="st12" d="M503.11,402.87c0,30.05-20.41,54.41-45.59,54.41c-25.17,0-45.58-24.36-45.58-54.41    c0-30.05,20.41-54.41,45.58-54.41C482.7,348.46,503.11,372.82,503.11,402.87z"></path>
	</g>
	<g>
		<g>
			<g>
				<path class="st11" d="M1115.54,367.17v-75.93h144.63v233.81h-75.93l-2.41-37.96h-1.21c-12.86,30.94-43.79,46.4-92.8,46.4      c-52.63,0-87.58-19.48-104.85-58.45c-12.86-29.32-19.28-84.36-19.28-165.11c0-77.93,10.24-133.18,30.73-165.72      c23.7-38.57,66.89-57.85,129.56-57.85c90.79,0,136.19,48.21,136.19,144.63H1151.7c0-45.8-10.65-68.7-31.94-68.7      c-17.68,0-28.92,10.05-33.75,30.13c-4.43,17.28-6.63,56.45-6.63,117.51c0,60.67,2.01,99.83,6.03,117.51      c4.82,20.09,15.46,30.13,31.94,30.13c12.85,0,22.09-5.62,27.72-16.87c6.42-13.65,9.84-38.16,10.24-73.52H1115.54z"></path>
				<path class="st11" d="M1293.31,309.93c0-81.14,11.45-138.69,34.35-172.65c22.9-33.94,62.67-50.92,119.32-50.92      c56.65,0,96.42,16.98,119.32,50.92c22.9,33.95,34.35,91.5,34.35,172.65c0,81.15-11.45,138.7-34.35,172.65      c-22.9,33.95-62.67,50.92-119.32,50.92c-56.64,0-96.42-16.97-119.32-50.92C1304.76,448.63,1293.31,391.08,1293.31,309.93z       M1409.01,309.93c0,60.67,2.01,99.83,6.03,117.51c4.82,20.09,15.46,30.13,31.94,30.13c16.47,0,27.12-10.04,31.94-30.13      c4.01-17.67,6.03-56.84,6.03-117.51c0-60.66-2.02-99.83-6.03-117.51c-4.82-20.08-15.47-30.13-31.94-30.13      c-16.48,0-27.12,10.05-31.94,30.13C1411.01,210.1,1409.01,249.27,1409.01,309.93z"></path>
				<path class="st11" d="M1636.79,525.06V94.8h112.08v165.11l83.66-165.11h120.02l-108.47,188.01l121.73,242.25h-127.75      l-65.68-150.05l-23.5,36.16v113.89H1636.79z"></path>
				<path class="st11" d="M1976.06,525.06V94.8h112.08v157.88h68.7V94.8h112.08v430.26h-112.08V347.89h-68.7v177.17H1976.06z"></path>
				<path class="st11" d="M2287.61,525.06L2392.46,94.8h141.01l104.85,430.26h-119.32l-11.45-75.33h-89.19l-11.45,75.33H2287.61z       M2494.3,365.37l-30.73-182.59h-1.21l-30.73,182.59H2494.3z"></path>
				<path class="st11" d="M2657,525.06V94.8h112.08v338.66h138v91.6H2657z"></path>
				<path class="st11" d="M2936.01,525.06V94.8h254.9v91.6h-142.82v73.52h133.78v87.98h-133.78v85.57h148.24v91.6H2936.01z"></path>
			</g>
		</g>
		<g>
			<path class="st11" d="M1009.51,599.35v162.25h-35.87V599.35H1009.51z"></path>
			<path class="st11" d="M1065.8,599.35c6.41,10.45,13.3,24.71,20.19,42.76v-42.76h35.63v162.25H1086v-31.83     c0-27.55-5.94-52.97-17.58-75.78v107.61h-35.87V599.35H1065.8z"></path>
			<path class="st11" d="M1197.4,642.82c0-9.98-3.33-14.73-10.93-14.73c-5.46,0-9.26,3.33-9.26,8.79c0,8.79,13.07,17.82,33.26,33.97     c15.68,12.35,20.9,25.89,20.9,45.85c0,31.36-14.97,47.03-45.13,47.03c-31.59,0-45.37-14.97-45.37-47.03v-19.72h36.34v18.05     c0,11.88,2.38,18.05,9.5,18.05c5.23,0,8.55-4.28,8.55-12.12c0-13.3-6.65-20.19-17.82-29.93c-20.19-17.34-36.34-28.51-36.34-53.21     c0-25.66,15.68-40.86,44.9-40.86c32.78,0,44.18,13.3,44.18,44.66v10.45h-32.78V642.82z"></path>
			<path class="st11" d="M1285.77,718.83c0,9.74,0.47,14.25,8.79,14.25c8.79,0,9.03-5.23,9.03-17.1V599.35h35.87v109.99     c0,37.06-10.21,54.4-44.9,54.4c-34.68,0-44.66-17.34-44.66-54.4V599.35h35.87v114.74V718.83z"></path>
			<path class="st11" d="M1408.58,599.35c31.83,0,41.81,14.02,41.81,48.94c0,18.05-4.51,28.98-11.64,32.78l13.3,80.53h-37.53     l-9.26-73.17h-8.79v73.17h-35.87V599.35H1408.58z M1401.22,660.87c11.17,0,13.78-3.8,13.78-17.1c0-11.17-3.33-15.92-12.59-15.92     h-7.13v33.02H1401.22z"></path>
			<path class="st11" d="M1465.35,729.76c0-55.59,7.13-98.11,28.51-130.41h32.07c21.38,32.54,28.51,75.07,28.51,130.41v31.83h-35.87     v-26.84h-17.58v26.84h-35.63V729.76z M1518.56,704.34c-0.48-31.36-3.56-55.35-8.79-71.5c-5.23,16.15-8.31,40.15-8.79,71.5     H1518.56z"></path>
			<path class="st11" d="M1606.22,599.35c6.41,10.45,13.3,24.71,20.19,42.76v-42.76h35.63v162.25h-35.63v-31.83     c0-27.55-5.94-52.97-17.58-75.78v107.61h-35.87V599.35H1606.22z"></path>
			<path class="st11" d="M1727.6,597.21c34.92,0,45.13,17.1,45.13,54.4v11.64h-36.34v-19.95c0-10.45-0.48-15.2-8.79-15.2     c-8.31,0-8.79,4.28-8.79,14.01v76.73c0,9.74,0.48,14.25,8.79,14.25c8.31,0,8.79-4.75,8.79-15.44v-28.03h36.34v19.72     c0,37.29-10.21,54.4-45.13,54.4c-34.92,0-45.13-17.1-45.13-54.4v-57.72C1682.47,614.31,1692.68,597.21,1727.6,597.21z"></path>
			<path class="st11" d="M1791.26,599.35h73.16v30.88h-37.29v27.56H1863v30.64h-35.87v42.28h38.96v30.88h-74.83V599.35z"></path>
			<path class="st11" d="M2010.99,670.61l18.29,17.82c-13.54,12.12-20.67,22.09-20.67,30.17c0,1.9,0.71,3.8,1.19,5.7l16.87,37.29     h-34.68l-4.75-9.98c-5.94,8.31-14.49,12.11-26.13,12.11c-23.52,0-35.4-14.73-35.4-44.42c0-23.76,6.65-40.15,23.99-53.45     c-6.65-13.3-10.45-24.71-10.45-34.92c0-20.67,14.73-33.73,37.77-33.73c19.72,0,34.21,13.3,34.21,32.31     c0,15.44-9.03,32.07-25.18,42.28l9.5,21.38C1999.11,681.78,2004.58,675.13,2010.99,670.61z M1955.88,713.37     c0,15.68,5.23,25.18,11.64,25.18c5.7,0,8.31-4.75,9.03-14.49l-13.54-29.93C1958.26,697.69,1955.88,704.11,1955.88,713.37z      M1987.71,629.04c0-5.94-3.33-9.5-9.26-9.5c-5.46,0-9.26,3.56-9.26,9.5c0,5.46,2.61,11.88,6.89,20.43     C1983.67,642.34,1987.71,636.17,1987.71,629.04z"></path>
			<path class="st11" d="M2128.1,599.35v162.25h-35.87V599.35H2128.1z"></path>
			<path class="st11" d="M2184.4,599.35c6.41,10.45,13.3,24.71,20.19,42.76v-42.76h35.63v162.25h-35.63v-31.83     c0-27.55-5.94-52.97-17.58-75.78v107.61h-35.87V599.35H2184.4z"></path>
			<path class="st11" d="M2293.19,645.91c0,34.68,0.71,62.48,8.79,84.57c8.08-22.33,8.79-49.88,8.79-84.57v-46.56h35.63v48.94     c0,46.08-4.51,82.43-25.42,113.31h-38.25c-20.9-30.88-25.42-67.23-25.42-113.31v-48.94h35.87V645.91z"></path>
			<path class="st11" d="M2363.5,599.35h73.16v30.88h-37.29v27.56h35.87v30.64h-35.87v42.28h38.96v30.88h-74.83V599.35z"></path>
			<path class="st11" d="M2509.12,642.82c0-9.98-3.33-14.73-10.93-14.73c-5.46,0-9.26,3.33-9.26,8.79     c0,8.79,13.06,17.82,33.26,33.97c15.68,12.35,20.9,25.89,20.9,45.85c0,31.36-14.97,47.03-45.13,47.03     c-31.59,0-45.37-14.97-45.37-47.03v-19.72h36.35v18.05c0,11.88,2.38,18.05,9.5,18.05c5.23,0,8.55-4.28,8.55-12.12     c0-13.3-6.65-20.19-17.82-29.93c-20.19-17.34-36.34-28.51-36.34-53.21c0-25.66,15.68-40.86,44.9-40.86     c32.78,0,44.18,13.3,44.18,44.66v10.45h-32.78V642.82z"></path>
			<path class="st11" d="M2555.2,599.35h77.68v29.69h-20.9v132.55h-35.87V629.04h-20.9V599.35z"></path>
			<path class="st11" d="M2754.27,638.31c-16.63,19.95-17.58,38.01-17.58,57.96v65.33h-35.63v-65.33c0-19.95-0.95-38.01-17.58-57.96     v123.29h-35.87V599.35h47.75c9.74,10.93,17.82,25.42,23.52,43c5.46-17.34,13.78-32.07,23.52-43h47.75v162.25h-35.87V638.31z"></path>
			<path class="st11" d="M2811.99,599.35h73.16v30.88h-37.29v27.56h35.87v30.64h-35.87v42.28h38.96v30.88h-74.83V599.35z"></path>
			<path class="st11" d="M2937.17,599.35c6.41,10.45,13.3,24.71,20.19,42.76v-42.76H2993v162.25h-35.63v-31.83     c0-27.55-5.94-52.97-17.58-75.78v107.61h-35.87V599.35H2937.17z"></path>
			<path class="st11" d="M3007.96,599.35h77.68v29.69h-20.9v132.55h-35.87V629.04h-20.9V599.35z"></path>
			<path class="st11" d="M3154.05,642.82c0-9.98-3.33-14.73-10.93-14.73c-5.46,0-9.26,3.33-9.26,8.79     c0,8.79,13.06,17.82,33.26,33.97c15.68,12.35,20.9,25.89,20.9,45.85c0,31.36-14.97,47.03-45.13,47.03     c-31.59,0-45.37-14.97-45.37-47.03v-19.72h36.35v18.05c0,11.88,2.38,18.05,9.5,18.05c5.23,0,8.55-4.28,8.55-12.12     c0-13.3-6.65-20.19-17.82-29.93c-20.19-17.34-36.34-28.51-36.34-53.21c0-25.66,15.68-40.86,44.9-40.86     c32.78,0,44.18,13.3,44.18,44.66v10.45h-32.78V642.82z"></path>
		</g>
	</g>
	<g>
		<path class="st13" d="M1244.9,818.03v15.87h-7.62v59.29h7.62v15.87h-35.74v-15.87h7.62V833.9h-7.62v-15.87H1244.9z"></path>
		<path class="st13" d="M1365.87,909.06h-20.69l-37.51-57.19c-2.2-3.34-3.72-5.86-4.57-7.55h-0.25c0.34,3.22,0.51,8.12,0.51,14.73    v50.02h-19.36v-91.03h22.09l36.12,55.42c1.65,2.5,3.17,4.97,4.57,7.43h0.25c-0.34-2.12-0.51-6.28-0.51-12.5v-50.34h19.36V909.06z"></path>
		<path class="st13" d="M1408.5,905.57v-20.31c3.68,3.09,7.68,5.41,12,6.95c4.32,1.55,8.67,2.32,13.08,2.32    c2.58,0,4.83-0.23,6.76-0.7c1.92-0.46,3.53-1.11,4.82-1.94c1.29-0.83,2.25-1.8,2.89-2.92s0.95-2.34,0.95-3.65    c0-1.78-0.51-3.36-1.52-4.76s-2.4-2.69-4.16-3.87c-1.76-1.18-3.84-2.33-6.25-3.43c-2.41-1.1-5.01-2.22-7.81-3.36    c-7.11-2.96-12.41-6.58-15.9-10.85c-3.49-4.27-5.24-9.44-5.24-15.49c0-4.74,0.95-8.81,2.86-12.22s4.5-6.21,7.78-8.41    c3.28-2.2,7.08-3.82,11.39-4.86c4.32-1.04,8.89-1.55,13.71-1.55c4.74,0,8.94,0.29,12.6,0.86c3.66,0.57,7.03,1.45,10.12,2.63v18.98    c-1.52-1.06-3.18-1.99-4.98-2.79c-1.8-0.8-3.65-1.47-5.55-2c-1.9-0.53-3.8-0.92-5.68-1.17c-1.88-0.25-3.67-0.38-5.36-0.38    c-2.33,0-4.44,0.22-6.35,0.67c-1.9,0.45-3.51,1.07-4.82,1.87c-1.31,0.8-2.33,1.77-3.05,2.89c-0.72,1.12-1.08,2.38-1.08,3.78    c0,1.52,0.4,2.89,1.21,4.09c0.8,1.21,1.95,2.35,3.43,3.43c1.48,1.08,3.28,2.14,5.4,3.17c2.12,1.04,4.51,2.11,7.17,3.21    c3.64,1.52,6.91,3.14,9.81,4.86c2.9,1.71,5.38,3.65,7.46,5.81c2.07,2.16,3.66,4.62,4.76,7.39c1.1,2.77,1.65,6,1.65,9.68    c0,5.08-0.96,9.34-2.89,12.79c-1.93,3.45-4.54,6.24-7.84,8.38c-3.3,2.14-7.14,3.67-11.52,4.6c-4.38,0.93-9,1.4-13.87,1.4    c-4.99,0-9.74-0.42-14.25-1.27C1415.7,908.53,1411.8,907.26,1408.5,905.57z"></path>
		<path class="st13" d="M1585.76,869.64c0,27.34-12.74,41.01-38.21,41.01c-24.71,0-37.07-13.35-37.07-40.05v-52.56h20.57v52.81    c0,14.73,5.75,22.09,17.27,22.09c11.3,0,16.95-7.11,16.95-21.33v-53.57h20.5V869.64z"></path>
		<path class="st13" d="M1707.93,909.06h-23.55l-14.16-23.42c-1.06-1.78-2.07-3.36-3.05-4.76c-0.97-1.4-1.96-2.59-2.95-3.59    s-2.03-1.76-3.11-2.29c-1.08-0.53-2.25-0.79-3.52-0.79h-5.52v34.85h-20.5v-91.03h32.5c22.09,0,33.13,8.25,33.13,24.76    c0,3.17-0.49,6.1-1.46,8.79c-0.97,2.69-2.35,5.11-4.13,7.27s-3.93,4.02-6.44,5.59c-2.52,1.57-5.32,2.79-8.41,3.68v0.25    c1.35,0.42,2.67,1.11,3.94,2.06c1.27,0.95,2.5,2.06,3.68,3.33c1.18,1.27,2.32,2.63,3.4,4.09c1.08,1.46,2.06,2.89,2.95,4.29    L1707.93,909.06z M1652.07,833.4v25.33h8.89c4.4,0,7.93-1.27,10.6-3.81c2.71-2.58,4.06-5.78,4.06-9.58    c0-7.96-4.76-11.93-14.28-11.93H1652.07z"></path>
		<path class="st13" d="M1797.02,909.06h-54.59v-91.03h52.5v16.69h-31.99v20.25h29.77v16.63h-29.77v20.82h34.09V909.06z"></path>
		<path class="st13" d="M1982.96,910.52c-2.24,0-4.37-0.3-6.38-0.89s-3.91-1.4-5.71-2.41s-3.5-2.21-5.11-3.59    c-1.61-1.37-3.13-2.84-4.57-4.41c-1.57,1.27-3.45,2.58-5.65,3.94c-2.2,1.35-4.69,2.57-7.46,3.65c-2.77,1.08-5.83,1.97-9.17,2.67    c-3.34,0.7-6.92,1.05-10.73,1.05c-4.95,0-9.53-0.59-13.74-1.78c-4.21-1.18-7.84-2.95-10.89-5.3c-3.05-2.35-5.43-5.26-7.14-8.73    c-1.71-3.47-2.57-7.49-2.57-12.06c0-3.6,0.64-6.8,1.94-9.62c1.29-2.81,2.97-5.28,5.05-7.39c2.07-2.12,4.42-3.94,7.05-5.46    c2.62-1.52,5.29-2.79,8-3.81c-1.31-1.02-2.63-2.19-3.97-3.52c-1.33-1.33-2.53-2.79-3.59-4.38c-1.06-1.59-1.92-3.31-2.57-5.17    c-0.66-1.86-0.98-3.83-0.98-5.9c0-3.34,0.68-6.3,2.03-8.89c1.35-2.58,3.25-4.76,5.68-6.54s5.34-3.13,8.73-4.06    c3.38-0.93,7.11-1.4,11.17-1.4c3.89,0,7.46,0.49,10.7,1.46c3.24,0.97,6.02,2.33,8.35,4.06c2.33,1.74,4.13,3.82,5.4,6.25    s1.9,5.11,1.9,8.03c0,4.7-1.41,8.77-4.22,12.22c-2.81,3.45-6.78,6.25-11.9,8.41c2.03,0.93,3.98,1.99,5.84,3.17    c1.86,1.19,3.68,2.54,5.46,4.06s3.51,3.25,5.21,5.17c1.69,1.93,3.36,4.14,5.01,6.63c3.47-4.36,5.96-9,7.46-13.93    c1.5-4.93,2.25-10.06,2.25-15.39c0-1.61-0.09-3.15-0.29-4.63c-0.19-1.48-0.5-2.86-0.92-4.13h17.08c0.46,1.35,0.8,2.67,1.02,3.94    c0.21,1.27,0.32,2.77,0.32,4.51c0,4.11-0.43,8.1-1.3,12c-0.87,3.89-2.08,7.62-3.65,11.17c-1.57,3.55-3.46,6.92-5.68,10.09    c-2.22,3.17-4.67,6.14-7.33,8.89c2.07,2.16,4.21,3.82,6.41,4.98c2.2,1.17,4.27,1.75,6.22,1.75c2.03,0,4.1-0.22,6.22-0.67    c2.12-0.45,3.96-1.07,5.52-1.87v15.11c-2.33,0.93-4.62,1.62-6.89,2.06C1988.28,910.3,1985.75,910.52,1982.96,910.52z     M1929.19,895.35c2.5,0,4.84-0.24,7.05-0.73c2.2-0.49,4.27-1.13,6.22-1.94c1.95-0.8,3.75-1.73,5.43-2.79    c1.67-1.06,3.21-2.16,4.6-3.3c-2.16-3.38-4.3-6.25-6.41-8.6c-2.12-2.35-4.21-4.36-6.28-6.03c-2.07-1.67-4.14-3.08-6.19-4.22    c-2.05-1.14-4.12-2.18-6.19-3.11c-1.74,0.85-3.4,1.79-4.98,2.82c-1.59,1.04-3,2.24-4.22,3.62c-1.23,1.38-2.21,2.94-2.95,4.7    s-1.11,3.78-1.11,6.06c0,2.03,0.36,3.87,1.08,5.52c0.72,1.65,1.75,3.07,3.08,4.25c1.33,1.19,2.92,2.11,4.76,2.76    C1924.91,895.02,1926.95,895.35,1929.19,895.35z M1940.94,837.71c0-1.23-0.23-2.33-0.7-3.3c-0.47-0.97-1.1-1.79-1.9-2.44    c-0.8-0.66-1.71-1.16-2.73-1.52s-2.09-0.54-3.24-0.54c-1.4,0-2.68,0.21-3.84,0.63c-1.17,0.42-2.18,1-3.05,1.71    c-0.87,0.72-1.54,1.58-2,2.57c-0.47,1-0.7,2.06-0.7,3.21c0,2.37,0.74,4.55,2.22,6.54c1.48,1.99,3.32,3.6,5.52,4.82    c1.4-0.51,2.72-1.1,3.97-1.78c1.25-0.68,2.35-1.48,3.3-2.41c0.95-0.93,1.71-2.01,2.29-3.24    C1940.65,840.74,1940.94,839.32,1940.94,837.71z"></path>
		<path class="st13" d="M2097.8,909.06v-91.03h33.13c10.16,0,17.96,1.86,23.42,5.59c5.46,3.72,8.19,8.97,8.19,15.74    c0,4.91-1.66,9.2-4.98,12.89c-3.32,3.68-7.57,6.24-12.73,7.68v0.25c6.47,0.8,11.65,3.2,15.52,7.17c3.87,3.98,5.81,8.82,5.81,14.54    c0,8.34-2.98,14.95-8.95,19.84c-5.97,4.89-14.11,7.33-24.44,7.33H2097.8z M2118.3,833.14v21.58h9.01c4.23,0,7.56-1.03,10-3.08    s3.65-4.88,3.65-8.47c0-6.69-4.99-10.03-14.98-10.03H2118.3z M2118.3,869.96v23.99h11.11c4.74,0,8.45-1.1,11.14-3.3    c2.69-2.2,4.03-5.21,4.03-9.01c0-3.64-1.32-6.5-3.97-8.57c-2.64-2.07-6.34-3.11-11.08-3.11H2118.3z"></path>
		<path class="st13" d="M2261.74,909.06h-54.59v-91.03h52.5v16.69h-31.99v20.25h29.77v16.63h-29.77v20.82h34.09V909.06z"></path>
		<path class="st13" d="M2360.01,905.57v-20.31c3.68,3.09,7.68,5.41,12,6.95c4.32,1.55,8.67,2.32,13.08,2.32    c2.58,0,4.83-0.23,6.76-0.7c1.92-0.46,3.53-1.11,4.82-1.94c1.29-0.83,2.25-1.8,2.89-2.92s0.95-2.34,0.95-3.65    c0-1.78-0.51-3.36-1.52-4.76s-2.4-2.69-4.16-3.87c-1.76-1.18-3.84-2.33-6.25-3.43c-2.41-1.1-5.01-2.22-7.81-3.36    c-7.11-2.96-12.41-6.58-15.9-10.85c-3.49-4.27-5.24-9.44-5.24-15.49c0-4.74,0.95-8.81,2.86-12.22s4.5-6.21,7.78-8.41    c3.28-2.2,7.08-3.82,11.39-4.86c4.32-1.04,8.89-1.55,13.71-1.55c4.74,0,8.94,0.29,12.6,0.86c3.66,0.57,7.03,1.45,10.12,2.63v18.98    c-1.52-1.06-3.18-1.99-4.98-2.79c-1.8-0.8-3.65-1.47-5.55-2c-1.9-0.53-3.8-0.92-5.68-1.17c-1.88-0.25-3.67-0.38-5.36-0.38    c-2.33,0-4.44,0.22-6.35,0.67c-1.9,0.45-3.51,1.07-4.82,1.87c-1.31,0.8-2.33,1.77-3.05,2.89c-0.72,1.12-1.08,2.38-1.08,3.78    c0,1.52,0.4,2.89,1.21,4.09c0.8,1.21,1.95,2.35,3.43,3.43c1.48,1.08,3.28,2.14,5.4,3.17c2.12,1.04,4.51,2.11,7.17,3.21    c3.64,1.52,6.91,3.14,9.81,4.86c2.9,1.71,5.38,3.65,7.46,5.81c2.07,2.16,3.66,4.62,4.76,7.39c1.1,2.77,1.65,6,1.65,9.68    c0,5.08-0.96,9.34-2.89,12.79c-1.93,3.45-4.54,6.24-7.84,8.38c-3.3,2.14-7.14,3.67-11.52,4.6c-4.38,0.93-9,1.4-13.87,1.4    c-4.99,0-9.74-0.42-14.25-1.27C2367.21,908.53,2363.31,907.26,2360.01,905.57z"></path>
		<path class="st13" d="M2517.66,909.06h-54.59v-91.03h52.5v16.69h-31.99v20.25h29.77v16.63h-29.77v20.82h34.09V909.06z"></path>
		<path class="st13" d="M2623.51,905.82c-6.64,3.22-15.32,4.82-26.03,4.82c-13.96,0-24.95-4.1-32.94-12.31    c-8-8.21-12-19.15-12-32.82c0-14.56,4.5-26.36,13.49-35.42c8.99-9.06,20.66-13.58,35.01-13.58c8.89,0,16.38,1.12,22.47,3.36v19.74    c-6.09-3.64-13.03-5.46-20.82-5.46c-8.55,0-15.45,2.69-20.69,8.06c-5.25,5.38-7.87,12.65-7.87,21.84c0,8.8,2.48,15.82,7.43,21.04    c4.95,5.23,11.62,7.84,20,7.84c8,0,15.32-1.95,21.96-5.84V905.82z"></path>
		<path class="st13" d="M2739.59,869.64c0,27.34-12.74,41.01-38.21,41.01c-24.71,0-37.07-13.35-37.07-40.05v-52.56h20.57v52.81    c0,14.73,5.75,22.09,17.27,22.09c11.3,0,16.95-7.11,16.95-21.33v-53.57h20.5V869.64z"></path>
		<path class="st13" d="M2861.75,909.06h-23.55l-14.16-23.42c-1.06-1.78-2.07-3.36-3.05-4.76c-0.97-1.4-1.96-2.59-2.95-3.59    s-2.03-1.76-3.11-2.29c-1.08-0.53-2.25-0.79-3.52-0.79h-5.52v34.85h-20.5v-91.03h32.5c22.09,0,33.13,8.25,33.13,24.76    c0,3.17-0.49,6.1-1.46,8.79c-0.97,2.69-2.35,5.11-4.13,7.27s-3.93,4.02-6.44,5.59c-2.52,1.57-5.32,2.79-8.41,3.68v0.25    c1.35,0.42,2.67,1.11,3.94,2.06c1.27,0.95,2.5,2.06,3.68,3.33c1.18,1.27,2.32,2.63,3.4,4.09c1.08,1.46,2.06,2.89,2.95,4.29    L2861.75,909.06z M2805.89,833.4v25.33h8.89c4.4,0,7.93-1.27,10.6-3.81c2.71-2.58,4.06-5.78,4.06-9.58    c0-7.96-4.76-11.93-14.28-11.93H2805.89z"></path>
		<path class="st13" d="M2950.85,909.06h-54.59v-91.03h52.5v16.69h-31.99v20.25h29.77v16.63h-29.77v20.82h34.09V909.06z"></path>
	</g>
</g>
</svg>
