<?xml version="1.0" encoding="UTF-8"?>
<svg xmlns="http://www.w3.org/2000/svg" xmlns:xlink="http://www.w3.org/1999/xlink" version="1.1" id="Layer_1" x="0px" y="0px" viewBox="0 0 512 512" style="enable-background:new 0 0 512 512;" xml:space="preserve">
<style type="text/css">
	.st0{fill:#FFFFFF;}
	.st1{clip-path:url(#SVGID_00000026851884616376097580000009086219161266053269_);fill:#4EB16C;}
	.st2{fill:#4EB16C;}
</style>
<g>
	<circle class="st0" cx="256" cy="256" r="250"></circle>
	<g>
		<defs>
			<circle id="SVGID_1_" cx="256" cy="256" r="250"></circle>
		</defs>
		<clipPath id="SVGID_00000075842508706549259240000004681045028528836762_">
			<use xlink:href="#SVGID_1_" style="overflow:visible;"></use>
		</clipPath>
		<path style="clip-path:url(#SVGID_00000075842508706549259240000004681045028528836762_);fill:#4EB16C;" d="M256,22.4    C385,22.4,489.6,127,489.6,256h32.8c0-147.1-119.3-266.4-266.4-266.4V22.4z M22.4,256C22.4,127,127,22.4,256,22.4v-32.8    C108.9-10.4-10.4,108.9-10.4,256H22.4z M256,489.6C127,489.6,22.4,385,22.4,256h-32.8c0,147.1,119.3,266.4,266.4,266.4V489.6z     M489.6,256c0,129-104.6,233.6-233.6,233.6v32.8c147.1,0,266.4-119.3,266.4-266.4H489.6z"></path>
	</g>
	<path class="st2" d="M175.2,235.9c21.5-21.5,56.4-21.5,78,0l16.6-16.6c-30.7-30.7-80.4-30.7-111.1,0L175.2,235.9z M253.2,235.9   l28.2,28.2l16.6-16.6l-28.2-28.2L253.2,235.9z M147,264.1l28.2-28.2l-16.6-16.6l-28.2,28.2L147,264.1z M281.4,264.1   c4.6,4.6,12,4.6,16.6,0c4.6-4.6,4.6-12,0-16.6L281.4,264.1z M130.4,247.5c-4.6,4.6-4.6,12,0,16.6c4.6,4.6,12,4.6,16.6,0   L130.4,247.5z"></path>
	<path class="st2" d="M336.5,278.4c-21.5,21.5-56.4,21.5-78,0L241.9,295c30.7,30.7,80.4,30.7,111.1,0L336.5,278.4z M258.5,278.4   l-30.9-30.9L211,264.1l30.9,30.9L258.5,278.4z M367.4,247.5l-30.9,30.9l16.6,16.6l30.9-30.9L367.4,247.5z M227.6,247.5   c-4.6-4.6-12-4.6-16.6,0c-4.6,4.6-4.6,12,0,16.6L227.6,247.5z M384,264.1c4.6-4.6,4.6-12,0-16.6c-4.6-4.6-12-4.6-16.6,0L384,264.1z   "></path>
	<path class="st2" d="M340.4,226.1c11.6-1.5,29,0.3,43.2,10c13.4,9.2,25.7,26.7,25.7,60.5l23.5,0c0-40.3-15.1-65.6-35.9-79.8   c-20.1-13.7-43.7-15.9-59.4-13.9L340.4,226.1z M409.2,296.6c0,6.5,5.3,11.7,11.7,11.7c6.5,0,11.7-5.3,11.7-11.7L409.2,296.6z    M337.4,202.8c-6.4,0.8-11,6.7-10.1,13.1c0.8,6.4,6.7,11,13.1,10.1L337.4,202.8z"></path>
	<path class="st2" d="M172.3,284.8c-11.6,1.5-29-0.3-43.2-10c-13.4-9.2-25.7-26.7-25.7-60.5l-23.5,0c0,40.3,15.1,65.6,35.9,79.8   c20.1,13.7,43.7,15.9,59.4,13.9L172.3,284.8z M103.5,214.3c0-6.5-5.3-11.7-11.7-11.7c-6.5,0-11.7,5.3-11.7,11.7L103.5,214.3z    M175.3,308.1c6.4-0.8,11-6.7,10.1-13.1c-0.8-6.4-6.7-11-13.1-10.1L175.3,308.1z"></path>
</g>
</svg>
