<svg xmlns="http://www.w3.org/2000/svg" xmlns:xlink="http://www.w3.org/1999/xlink" id="Layer_1" x="0px" y="0px" viewBox="0 0 1920 320" style="enable-background:new 0 0 1920 320;" xml:space="preserve"><style type="text/css">	.st0{fill:none;}	.st1{fill:#064082;}	.st2{fill:#91C020;}</style><g>	<polygon class="st0" points="992.25,174.55 1019.52,174.55 1005.9,140.59  "></polygon>	<path class="st0" d="M1446.01,275.76c-2.43,0-4.42,0.82-5.97,2.45c-1.56,1.61-2.34,3.73-2.34,6.35c0,2.65,0.78,4.78,2.34,6.38   c1.56,1.61,3.54,2.41,5.97,2.41c2.42,0,4.43-0.8,6.01-2.41c1.58-1.6,2.38-3.73,2.38-6.38c0-2.62-0.8-4.73-2.38-6.35   C1450.43,276.58,1448.43,275.76,1446.01,275.76z"></path>	<path class="st0" d="M905.71,138.96c-3.12-2.75-7.76-4.12-13.92-4.12h-16.66v31.1h16.66c6.16,0,10.8-1.34,13.92-4.01   c3.14-2.69,4.71-6.51,4.71-11.47C910.43,145.52,908.85,141.69,905.71,138.96z"></path>	<path class="st0" d="M1559.92,138.96c-3.12-2.75-7.76-4.12-13.92-4.12h-16.66v31.1H1546c6.16,0,10.8-1.34,13.92-4.01   c3.14-2.69,4.71-6.51,4.71-11.47C1564.63,145.52,1563.05,141.69,1559.92,138.96z"></path>	<path class="st0" d="M1638.6,290.31c0,1.19,0.46,2.14,1.41,2.86c0.97,0.7,2.28,1.04,3.97,1.04c1.63,0,3.09-0.37,4.38-1.11   c1.28-0.76,2.19-1.86,2.71-3.27v-3.27h-6.79C1640.5,286.56,1638.6,287.81,1638.6,290.31z"></path>	<polygon class="st0" points="1262.92,284.71 1276.8,284.71 1269.82,268.6  "></polygon>	<path class="st0" d="M1773.44,138.96c-3.12-2.75-7.76-4.12-13.92-4.12h-16.66v31.1h16.66c6.16,0,10.8-1.34,13.92-4.01   c3.14-2.69,4.71-6.51,4.71-11.47C1778.15,145.52,1776.58,141.69,1773.44,138.96z"></path>	<path class="st0" d="M1600.45,275.46c-2.13,0-3.92,0.62-5.38,1.86c-1.44,1.24-2.32,2.89-2.63,4.97h15.96   c-0.3-2.02-1.17-3.67-2.6-4.94C1604.35,276.1,1602.57,275.46,1600.45,275.46z"></path>	<path class="st0" d="M793.57,138.96c-3.12-2.75-7.76-4.12-13.92-4.12h-16.66v31.1h16.66c6.16,0,10.8-1.34,13.92-4.01   c3.14-2.69,4.71-6.51,4.71-11.47C798.29,145.52,796.71,141.69,793.57,138.96z"></path>	<path class="st0" d="M1558.82,269.45c-1.54-1.26-3.79-1.89-6.75-1.89h-8.02v14.7h8.02c2.97,0,5.21-0.64,6.75-1.93   c1.56-1.28,2.34-3.1,2.34-5.46C1561.15,272.52,1560.38,270.71,1558.82,269.45z"></path>	<path class="st0" d="M1398.88,275.76c-2.43,0-4.42,0.82-5.97,2.45c-1.56,1.61-2.34,3.73-2.34,6.35c0,2.65,0.78,4.78,2.34,6.38   c1.56,1.61,3.54,2.41,5.97,2.41c2.42,0,4.43-0.8,6.01-2.41c1.58-1.6,2.38-3.73,2.38-6.38c0-2.62-0.8-4.73-2.38-6.35   C1403.31,276.58,1401.31,275.76,1398.88,275.76z"></path>	<polygon class="st1" points="584.91,111.2 548.54,172.44 511.28,111.2 486.56,111.2 486.56,217.3 514.29,217.3 514.29,162.6    541.41,206.84 554.77,206.84 582.05,161.08 582.35,217.3 609.92,217.3 609.62,111.2  "></polygon>	<polygon class="st1" points="660.82,174.7 707.95,174.7 707.95,152.28 660.82,152.28 660.82,134.4 714.34,134.4 714.34,111.2    631.13,111.2 631.13,217.3 716.3,217.3 716.3,194.11 660.82,194.11  "></polygon>	<path class="st1" d="M807.83,183.99c6.67-3.24,11.81-7.72,15.38-13.46c3.6-5.71,5.38-12.39,5.38-20.05c0-7.99-1.92-14.94-5.8-20.87   c-3.82-5.91-9.28-10.44-16.34-13.62c-7.06-3.19-15.38-4.78-24.99-4.78h-48.51v106.1h30.02V189.1h16.37l19.23,28.21h32.14   L807.83,183.99z M793.58,161.93c-3.13,2.66-7.77,4.01-13.93,4.01h-16.67v-31.09h16.67c6.15,0,10.79,1.37,13.93,4.12   c3.13,2.72,4.7,6.54,4.7,11.51C798.28,155.42,796.71,159.24,793.58,161.93z"></path>	<path class="st1" d="M919.95,183.99c6.7-3.24,11.81-7.72,15.41-13.46c3.6-5.71,5.38-12.39,5.38-20.05c0-7.99-1.92-14.94-5.8-20.87   c-3.85-5.91-9.28-10.44-16.37-13.62c-7.03-3.19-15.38-4.78-24.97-4.78h-48.51v106.1h30.02V189.1h16.37l19.23,28.21h32.14   L919.95,183.99z M905.73,161.93c-3.13,2.66-7.77,4.01-13.93,4.01h-16.67v-31.09h16.67c6.15,0,10.79,1.37,13.93,4.12   c3.13,2.72,4.7,6.54,4.7,11.51C910.42,155.42,908.86,159.24,905.73,161.93z"></path>	<path class="st1" d="M1020.89,111.2h-29.53l-46.83,106.1h30.6l8.32-20.6h44.85l8.35,20.6h31.23L1020.89,111.2z M992.25,174.54   l13.65-33.95l13.62,33.95H992.25z"></path>	<polygon class="st1" points="1180.16,111.2 1147.13,111.2 1106.05,155.33 1106.05,111.2 1076.36,111.2 1076.36,217.3    1106.05,217.3 1106.05,190.77 1117.3,178.82 1147.58,217.3 1182.46,217.3 1136.82,158.18  "></polygon>	<rect x="1190.32" y="111.2" class="st1" width="30.02" height="106.1"></rect>	<polygon class="st1" points="1315.48,174.7 1362.61,174.7 1362.61,152.28 1315.48,152.28 1315.48,134.4 1369,134.4 1369,111.2    1285.79,111.2 1285.79,217.3 1370.96,217.3 1370.96,194.11 1315.48,194.11  "></polygon>	<polygon class="st1" points="1486.75,111.2 1454.32,111.2 1433.39,141.82 1412.16,111.2 1378.39,111.2 1415.35,163.64    1376.72,217.3 1410.97,217.3 1432.65,184.42 1454.61,217.3 1489.17,217.3 1449.75,162.45  "></polygon>	<path class="st1" d="M1589.15,129.6c-3.82-5.91-9.28-10.44-16.34-13.62c-7.06-3.19-15.41-4.78-24.99-4.78h-48.51v106.1h30.02   v-27.71h18.49c9.59,0,17.94-1.59,24.99-4.81c7.06-3.19,12.52-7.69,16.34-13.54c3.87-5.85,5.8-12.77,5.8-20.76   C1594.95,142.49,1593.02,135.54,1589.15,129.6z M1559.93,161.93c-3.13,2.66-7.77,4.01-13.93,4.01h-16.67v-31.09H1546   c6.15,0,10.79,1.37,13.93,4.12c3.13,2.72,4.7,6.54,4.7,11.51C1564.62,155.42,1563.06,159.24,1559.93,161.93z"></path>	<polygon class="st1" points="1640.69,174.7 1687.82,174.7 1687.82,152.28 1640.69,152.28 1640.69,134.4 1694.2,134.4 1694.2,111.2    1611,111.2 1611,217.3 1696.17,217.3 1696.17,194.11 1640.69,194.11  "></polygon>	<path class="st1" d="M1787.68,183.99c6.7-3.24,11.81-7.72,15.41-13.46c3.57-5.71,5.38-12.39,5.38-20.05   c0-7.99-1.92-14.94-5.8-20.87c-3.85-5.91-9.28-10.44-16.37-13.62c-7.03-3.19-15.38-4.78-24.97-4.78h-48.51v106.1h30.02V189.1h16.37   l19.23,28.21h32.14L1787.68,183.99z M1773.45,161.93c-3.13,2.66-7.77,4.01-13.93,4.01h-16.67v-31.09h16.67   c6.15,0,10.79,1.37,13.93,4.12c3.13,2.72,4.7,6.54,4.7,11.51C1778.15,155.42,1776.58,159.24,1773.45,161.93z"></path>	<polygon class="st1" points="1814.96,111.2 1814.96,134.99 1847.54,134.99 1847.54,217.3 1877.57,217.3 1877.57,134.99    1910,134.99 1910,111.2  "></polygon>	<path class="st1" d="M1273.28,261.77h-6.76l-16.59,36.86h7.06l3.63-8.54h18.43l3.68,8.54h7.17L1273.28,261.77z M1262.93,284.71   l6.89-16.1l6.98,16.1H1262.93z"></path>	<path class="st1" d="M1346.07,268.9c2-1.11,4.27-1.67,6.79-1.67c3.91,0,7.18,1.45,9.83,4.34l4.45-4.16c-1.73-2-3.85-3.53-6.35-4.56   c-2.48-1.06-5.22-1.6-8.24-1.6c-3.74,0-7.12,0.82-10.13,2.45c-3,1.61-5.36,3.86-7.09,6.75c-1.71,2.88-2.56,6.11-2.56,9.72   c0,3.64,0.85,6.89,2.56,9.76c1.71,2.88,4.05,5.12,7.05,6.75c3.02,1.63,6.38,2.45,10.09,2.45c3.02,0,5.77-0.52,8.28-1.56   c2.52-1.06,4.65-2.6,6.38-4.6l-4.45-4.19c-2.65,2.89-5.93,4.34-9.83,4.34c-2.52,0-4.79-0.54-6.79-1.63c-2-1.11-3.58-2.64-4.71-4.6   c-1.11-1.98-1.67-4.21-1.67-6.72c0-2.47,0.56-4.69,1.67-6.64C1342.49,271.56,1344.07,270.01,1346.07,268.9z"></path>	<path class="st1" d="M1411.94,277.13c-1.26-2.17-3.02-3.87-5.33-5.08c-2.28-1.24-4.86-1.84-7.72-1.84s-5.41,0.6-7.69,1.84   c-2.28,1.21-4.07,2.91-5.33,5.08c-1.29,2.2-1.95,4.67-1.95,7.42c0,2.77,0.66,5.27,1.95,7.47c1.26,2.2,3.05,3.93,5.33,5.16   c2.28,1.21,4.83,1.81,7.69,1.81s5.44-0.6,7.72-1.81c2.31-1.24,4.06-2.97,5.33-5.16c1.29-2.2,1.95-4.7,1.95-7.47   C1413.89,281.8,1413.23,279.33,1411.94,277.13z M1404.91,290.94c-1.59,1.62-3.6,2.42-6.02,2.42c-2.44,0-4.42-0.8-5.99-2.42   c-1.54-1.62-2.33-3.74-2.33-6.4c0-2.61,0.8-4.72,2.33-6.34c1.57-1.62,3.54-2.44,5.99-2.44c2.42,0,4.42,0.82,6.02,2.44   c1.57,1.62,2.36,3.74,2.36,6.34C1407.27,287.21,1406.47,289.32,1404.91,290.94z"></path>	<path class="st1" d="M1459.07,277.13c-1.26-2.17-3.05-3.87-5.36-5.08c-2.28-1.24-4.83-1.84-7.72-1.84c-2.83,0-5.38,0.6-7.66,1.84   c-2.28,1.21-4.07,2.91-5.36,5.08c-1.29,2.2-1.92,4.67-1.92,7.42c0,2.77,0.63,5.27,1.92,7.47c1.29,2.2,3.08,3.93,5.36,5.16   c2.28,1.21,4.83,1.81,7.66,1.81c2.88,0,5.44-0.6,7.72-1.81c2.31-1.24,4.09-2.97,5.36-5.16c1.29-2.2,1.92-4.7,1.92-7.47   C1460.99,281.8,1460.36,279.33,1459.07,277.13z M1452.01,290.94c-1.57,1.62-3.57,2.42-6.02,2.42c-2.42,0-4.4-0.8-5.96-2.42   c-1.57-1.62-2.33-3.74-2.33-6.4c0-2.61,0.77-4.72,2.33-6.34c1.57-1.62,3.54-2.44,5.96-2.44c2.44,0,4.45,0.82,6.02,2.44   c1.59,1.62,2.39,3.74,2.39,6.34C1454.4,287.21,1453.6,289.32,1452.01,290.94z"></path>	<rect x="1480.48" y="259.54" class="st1" width="6.61" height="39.08"></rect>	<path class="st1" d="M1560.2,286.52c2.53-0.99,4.48-2.47,5.82-4.48c1.35-2.01,2.03-4.39,2.03-7.17c0-2.69-0.63-5.03-1.9-6.98   c-1.26-1.98-3.08-3.49-5.47-4.53c-2.36-1.07-5.14-1.59-8.35-1.59h-15.16v36.86h6.87v-10.74h8.3c0.66,0,1.13-0.03,1.43-0.08   l7.53,10.82h7.39L1560.2,286.52z M1552.07,282.26h-8.02v-14.69h8.02c2.97,0,5.19,0.63,6.76,1.9c1.54,1.26,2.33,3.05,2.33,5.41   c0,2.36-0.8,4.17-2.33,5.44C1557.26,281.61,1555.04,282.26,1552.07,282.26z"></path>	<path class="st1" d="M1614.67,284.71c0-2.86-0.63-5.38-1.81-7.58c-1.24-2.2-2.94-3.9-5.11-5.11c-2.14-1.21-4.59-1.81-7.31-1.81   c-2.8,0-5.3,0.6-7.5,1.84c-2.2,1.21-3.93,2.94-5.19,5.14c-1.24,2.17-1.84,4.64-1.84,7.36c0,2.77,0.63,5.27,1.92,7.47   c1.26,2.2,3.1,3.93,5.44,5.16c2.36,1.21,5.08,1.81,8.18,1.81c2.39,0,4.56-0.38,6.48-1.15c1.95-0.8,3.57-1.92,4.83-3.43l-3.54-4.07   c-2.01,2.06-4.53,3.08-7.64,3.08c-2.42,0-4.45-0.6-6.07-1.81c-1.65-1.21-2.66-2.86-3.05-4.92h22.08   C1614.61,285.83,1614.67,285.18,1614.67,284.71z M1592.42,282.29c0.33-2.09,1.21-3.74,2.64-4.97c1.46-1.24,3.27-1.87,5.38-1.87   c2.14,0,3.9,0.63,5.36,1.9c1.43,1.26,2.31,2.91,2.58,4.94H1592.42z"></path>	<path class="st1" d="M1654.39,273.17c-2.22-1.98-5.38-2.97-9.5-2.97c-2.33,0-4.53,0.27-6.62,0.88c-2.06,0.6-3.82,1.46-5.3,2.55   l2.61,4.83c1.02-0.91,2.31-1.59,3.85-2.09c1.54-0.49,3.1-0.74,4.67-0.74c2.31,0,4.04,0.55,5.22,1.59c1.18,1.04,1.76,2.55,1.76,4.53   v0.41h-7.25c-4.04,0-7,0.77-8.87,2.31c-1.9,1.54-2.83,3.54-2.83,6.07c0,1.62,0.41,3.08,1.29,4.34c0.88,1.29,2.09,2.31,3.68,3.02   c1.57,0.71,3.43,1.07,5.52,1.07c2.11,0,3.9-0.33,5.38-0.96c1.51-0.66,2.66-1.59,3.46-2.83v3.43h6.23v-16.48   C1657.68,278.14,1656.58,275.15,1654.39,273.17z M1651.06,289.82c-0.52,1.43-1.43,2.53-2.69,3.27c-1.29,0.74-2.75,1.13-4.4,1.13   c-1.68,0-2.99-0.36-3.95-1.04c-0.96-0.71-1.43-1.68-1.43-2.86c0-2.5,1.9-3.76,5.69-3.76h6.78V289.82z"></path>	<rect x="1679.23" y="259.54" class="st1" width="6.61" height="39.08"></rect>	<path class="st1" d="M1710.92,257.99c-1.19,0-2.19,0.39-3.01,1.15c-0.8,0.74-1.19,1.67-1.19,2.78c0,1.11,0.39,2.06,1.19,2.82   c0.82,0.74,1.82,1.11,3.01,1.11c1.23,0,2.25-0.38,3.04-1.15c0.79-0.79,1.19-1.76,1.19-2.93c0-1.09-0.41-1.99-1.22-2.71   C1713.12,258.35,1712.12,257.99,1710.92,257.99z"></path>	<rect x="1707.61" y="270.49" class="st1" width="6.61" height="28.13"></rect>	<path class="st1" d="M1747.39,293.57c-1.26,0-2.23-0.35-2.89-1.08c-0.67-0.71-1-1.76-1-3.15v-13.36h7.53v-5.27h-7.53v-6.42h-6.61   v6.42h-4.6v5.27h4.6v13.55c0,3.07,0.83,5.42,2.52,7.05c1.71,1.61,4.1,2.41,7.2,2.41c1.21,0,2.37-0.17,3.49-0.48   c1.11-0.32,2.05-0.79,2.82-1.41l-1.86-4.68C1750.07,293.19,1748.84,293.57,1747.39,293.57z"></path>	<path class="st1" d="M1782.61,291.31l-8.87-20.82h-6.83l12.28,28.24l-0.48,1.11c-0.65,1.38-1.35,2.38-2.12,2.97   c-0.74,0.61-1.7,0.93-2.86,0.93c-0.87,0-1.73-0.19-2.6-0.56c-0.87-0.35-1.61-0.82-2.23-1.41l-2.64,4.86   c0.87,0.79,1.98,1.41,3.34,1.86c1.38,0.46,2.78,0.71,4.19,0.71c2.5,0,4.61-0.63,6.35-1.89c1.75-1.24,3.25-3.38,4.49-6.42   l13.17-30.39h-6.31L1782.61,291.31z"></path>	<path class="st1" d="M1817.19,290.23c-1.24,0-2.26,0.41-3.08,1.22c-0.82,0.82-1.22,1.87-1.22,3.15c0,1.26,0.42,2.32,1.26,3.15   c0.84,0.82,1.86,1.22,3.04,1.22c1.19,0,2.2-0.41,3.04-1.22c0.83-0.84,1.26-1.89,1.26-3.15c0-1.28-0.41-2.34-1.22-3.15   C1819.45,290.64,1818.42,290.23,1817.19,290.23z"></path>	<path class="st1" d="M1843.2,290.23c-1.24,0-2.26,0.41-3.08,1.22c-0.82,0.82-1.22,1.87-1.22,3.15c0,1.26,0.42,2.32,1.26,3.15   c0.84,0.82,1.86,1.22,3.04,1.22c1.19,0,2.2-0.41,3.04-1.22c0.83-0.84,1.26-1.89,1.26-3.15c0-1.28-0.41-2.34-1.22-3.15   C1845.46,290.64,1844.44,290.23,1843.2,290.23z"></path>	<path class="st1" d="M1869.21,290.23c-1.24,0-2.26,0.41-3.08,1.22c-0.82,0.82-1.22,1.87-1.22,3.15c0,1.26,0.42,2.32,1.26,3.15   c0.84,0.82,1.86,1.22,3.04,1.22c1.19,0,2.2-0.41,3.04-1.22c0.83-0.84,1.26-1.89,1.26-3.15c0-1.28-0.41-2.34-1.22-3.15   C1871.48,290.64,1870.45,290.23,1869.21,290.23z"></path>	<path class="st1" d="M274.7,107.68h-0.03l-68.34,39.33l-68.5-39.42l-81.8,47.05v156.42h0.03l68.09-39.17l49.19,28.29l-32.91,10.88   h131.62l-32.91-10.88l49.22-28.32l68.06,39.19h0.03V154.74L274.7,107.68z M199.25,285.01l-25.9-30.74v29.8l-42.19-24.28v-78.36   l68.09,39.2V285.01z M281.38,259.8l-42.19,24.28v-29.8l-25.9,30.74v-64.38l68.09-39.17V259.8z"></path>	<polygon class="st1" points="274.68,107.69 274.69,107.7 274.7,107.7  "></polygon>	<polygon class="st2" points="349.17,91.09 206.35,8.92 206.26,8.97 206.16,8.92 63.52,91.01 56.12,95.25 10,121.78 10,164.56    56.12,138.02 100.69,112.39 100.7,112.39 206.26,51.65 311.99,112.47 356.56,138.12 402.51,164.56 402.51,121.78 356.56,95.35  "></polygon></g></svg>