<?xml version="1.0" encoding="utf-8"?>
<!-- Generator: Adobe Illustrator 26.1.0, SVG Export Plug-In . SVG Version: 6.00 Build 0)  -->
<svg version="1.1" id="Layer_1" xmlns="http://www.w3.org/2000/svg" xmlns:xlink="http://www.w3.org/1999/xlink" x="0px" y="0px"
	 viewBox="0 0 805.2 538.4" style="enable-background:new 0 0 805.2 538.4;" xml:space="preserve">
<style type="text/css">
	.st0{fill-rule:evenodd;clip-rule:evenodd;}
	.st1{fill-rule:evenodd;clip-rule:evenodd;fill:#0CC0DF;}
	.st2{fill-rule:evenodd;clip-rule:evenodd;fill:#E8CE00;}
	.st3{fill-rule:evenodd;clip-rule:evenodd;fill:#FF66C4;}
	.st4{fill-rule:evenodd;clip-rule:evenodd;fill:#FFFFFF;}
	.st5{fill:#FFFFFF;}
</style>
<g>
	<path d="M551.2,208.4c-2.4,25.9-30.4,91.6-76.7,117.3c12,0.8,54.7-11.1,90.8-98.4l168.6-0.1c24.8-1,59.5-18.6,65.5-42.7l0.1-0.4v0
		L551.2,208.4z"/>
	<path d="M540.8,288.5l44,12.3c30.5,10,64.2,3.2,88-18.4c0.1-0.1,0.3-0.3,0.4-0.4l-116.6-17.8C551.9,272.7,546.6,280.8,540.8,288.5"
		/>
	<path d="M560.2,257.7l110.6,12.9c30.1,4,60-9.6,76.4-35.2c0.1-0.1,0.2-0.3,0.3-0.4l-176.6-1C567.7,242,564.2,250,560.2,257.7"/>
	<path d="M515,315.7l0.4,0.2c25.6,14.2,56.8,13.9,81.8-1.1l0.5-0.3l-61.5-20.2C529.9,302.1,522.8,309.3,515,315.7"/>
	<path d="M254,208.4c2.4,25.9,30.3,91.6,76.7,117.3c-12,0.8-54.7-11.1-90.8-98.4l-168.6-0.1c-24.8-1-59.5-18.6-65.5-42.7l-0.1-0.4v0
		L254,208.4z"/>
	<path d="M264.4,288.5l-44,12.3c-30.5,10-64.2,3.2-88-18.4c-0.1-0.1-0.3-0.3-0.4-0.4l116.6-17.8
		C253.2,272.7,258.5,280.8,264.4,288.5"/>
	<path d="M245,257.7l-110.6,12.9c-30.1,4-60-9.6-76.4-35.2c-0.1-0.1-0.2-0.3-0.3-0.4l176.6-1C237.5,242,241,250,245,257.7"/>
	<path d="M290.1,315.7l-0.4,0.2c-25.6,14.2-56.8,13.9-81.8-1.1l-0.5-0.3l61.5-20.2C275.3,302.1,282.4,309.3,290.1,315.7"/>
	<polygon class="st0" points="403.1,4.4 411.7,23.9 431.7,25.4 416,39.7 420.8,59.4 402.4,48.8 385.4,59.4 389.7,38.5 374.4,25.4 
		395.4,23.2 	"/>
	<polygon class="st0" points="555,57.4 545.5,65.3 534.8,60.9 539.2,72.4 531.7,81.3 544,80.6 550.1,90.6 553.2,78.6 564.5,75.8 
		554.1,69.1 	"/>
	<polygon class="st0" points="487.3,26.3 477.8,37.8 464,35 471.8,47.7 464.9,60.1 479.3,56.5 488.8,67 489.8,52 502.7,46.1 
		488.9,40.5 	"/>
	<polygon class="st0" points="251.1,57.4 260.6,65.3 271.4,60.9 266.9,72.4 274.4,81.3 262.2,80.6 256,90.6 253,78.6 241.7,75.8 
		252,69.1 	"/>
	<polygon class="st0" points="318.8,26.3 328.3,37.8 342.2,35 334.3,47.7 341.3,60.1 326.8,56.5 317.3,67 316.3,52 303.4,46.1 
		317.2,40.5 	"/>
	<polygon points="152.8,497.1 146.3,533.6 137.4,533.6 141.3,511.7 129.3,533.6 122.1,533.6 117.7,511.6 113.9,533.6 105,533.6 
		111.4,497.1 121.9,497.1 127.8,522.3 142.3,497.1 	"/>
	<polygon points="166.8,504.1 165.5,511.7 177.4,511.7 176.2,518.4 164.3,518.4 162.9,526.6 176.3,526.6 175.1,533.6 152.7,533.6 
		159.2,497.1 181.5,497.1 180.3,504.1 	"/>
	<path d="M207.8,515.3c0.2-1,0.3-1.9,0.3-2.6c0-2.6-0.8-4.5-2.3-6c-1.6-1.4-3.8-2.1-6.7-2.1h-4.3l-3.7,21.3h4.2
		c3.4,0,6.2-0.9,8.4-2.8C205.9,521.3,207.3,518.7,207.8,515.3 M217.2,511.5c0,1-0.1,2.3-0.4,3.8c-0.6,3.6-2,6.7-4,9.5
		c-2.1,2.8-4.7,4.9-7.9,6.4c-3.2,1.5-6.7,2.3-10.5,2.3h-13.7l6.4-36.5H201C209.8,498,216.8,501.5,217.2,511.5"/>
	<polygon points="234,497.1 227.5,533.6 218.6,533.6 225.1,497.1 	"/>
	<path d="M256.8,520.4l-2.1-13.5l-7,13.5H256.8z M257.9,527.1h-13.6l-3.3,6.4h-9.3l19.7-36.5h10.3l6.8,36.5h-9.4L257.9,527.1z"/>
	<polygon points="302.5,497.1 301.3,504.1 286.4,504.1 285,511.9 296.2,511.9 294.9,518.7 283.8,518.7 281.2,533.6 272.3,533.6 
		278.8,497.1 	"/>
	<polygon points="310.8,526.8 322.5,526.8 321.3,533.6 300.7,533.6 307.2,497.1 316.1,497.1 	"/>
	<path d="M355.8,512.7c0-2.5-0.7-4.5-2.1-5.9c-1.4-1.4-3.3-2.1-5.8-2.1c-2.3,0-4.3,0.6-6.1,1.8c-1.8,1.2-3.1,2.7-4.1,4.7
		c-1,2-1.4,4.1-1.4,6.5c0,2.5,0.7,4.5,2.1,5.9c1.4,1.4,3.3,2.2,5.9,2.2C350.6,524.9,355.2,522.3,355.8,512.7 M327.4,518.6
		c0-4.3,0.9-8.1,2.8-11.4c1.8-3.3,4.4-6,7.7-7.8c3.3-1.9,7-2.8,11.2-2.8c3.1,0,5.9,0.6,8.2,1.9c2.4,1.3,4.2,3.1,5.5,5.4
		c1.3,2.3,1.9,5,1.9,7.9c0,4.3-0.9,8.1-2.8,11.5c-1.8,3.4-4.4,6-7.7,7.9c-3.3,1.9-7,2.8-11.2,2.8
		C333.3,532.5,329.1,527.8,327.4,518.6"/>
	<polygon points="464,497.1 448,533.6 437.2,533.6 435.6,509.6 425.4,533.6 414.6,533.6 411.8,497.1 421.3,497.1 421.9,523.6 
		433.1,497.1 442.9,497.1 444.5,523.5 454.4,497.1 	"/>
	<polygon points="512.1,497.1 505.6,533.6 496.7,533.6 499.4,518.4 485.5,518.4 482.9,533.6 474,533.6 480.4,497.1 489.3,497.1 
		486.8,511.4 500.6,511.4 503.2,497.1 	"/>
	<path d="M534.8,520.4l-2.1-13.5l-7,13.5H534.8z M535.9,527.1h-13.6l-3.3,6.4h-9.3l19.7-36.5h10.3l6.8,36.5h-9.4L535.9,527.1z"/>
	<path d="M606.4,497.1l-3.8,21.8c-0.1,0.9-0.2,1.5-0.2,1.9c0,1.6,0.5,2.8,1.4,3.7c0.9,0.8,2.2,1.3,4,1.3c2.1,0,3.8-0.6,5.1-1.8
		c1.3-1.2,2.2-2.9,2.5-5l3.8-21.8h8.9l-3.8,21.8c-0.6,3.3-1.8,6.1-3.5,8.3c-1.8,2.3-3.9,4-6.4,5.1c-2.5,1.1-5.2,1.7-8.2,1.7
		c-3.8,0-6.9-1-9.2-3c-2.3-2-3.5-4.8-3.5-8.6c0-1.1,0.1-2.3,0.3-3.5l3.8-21.8H606.4z"/>
	<path d="M629,524.1c0-0.3,0-0.8,0.1-1.4h9.3c-0.1,1.3,0.2,2.4,0.9,3.1c0.7,0.8,1.8,1.1,3.3,1.1c1.4,0,2.4-0.3,3.2-0.9
		c0.8-0.6,1.2-1.4,1.2-2.5c0-1.1-0.5-2-1.5-2.7c-1-0.7-2.5-1.5-4.6-2.3c-2-0.8-3.7-1.6-4.9-2.4c-1.3-0.7-2.4-1.8-3.3-3
		c-0.9-1.3-1.4-2.9-1.4-4.8c0-2.4,0.6-4.5,1.8-6.2c1.2-1.8,2.9-3.1,5-4.1c2.1-0.9,4.6-1.4,7.4-1.4c2.5,0,4.7,0.4,6.7,1.2
		c1.9,0.8,3.5,1.9,4.5,3.4c1.1,1.5,1.6,3.2,1.6,5.2c0,0.5,0,0.9-0.1,1.1h-9.5c0-0.1,0.1-0.3,0.1-0.6c0-1-0.3-1.8-1-2.4
		c-0.7-0.6-1.6-0.9-2.8-0.9c-1.2,0-2.3,0.3-3,0.9c-0.8,0.6-1.2,1.4-1.2,2.5s0.5,1.9,1.5,2.6c1,0.7,2.5,1.5,4.5,2.5
		c2,0.9,3.7,1.8,5,2.6c1.3,0.8,2.4,1.9,3.4,3.2c0.9,1.3,1.4,3,1.4,4.9c0,2.2-0.6,4.1-1.7,5.8c-1.1,1.7-2.8,3-4.9,4
		c-2.1,1-4.7,1.4-7.5,1.4c-4,0-7.2-0.9-9.6-2.6C630.2,529.6,629,527.2,629,524.1"/>
	<polygon points="674.3,504.1 673,511.7 684.9,511.7 683.7,518.4 671.8,518.4 670.3,526.6 683.8,526.6 682.6,533.6 660.2,533.6 
		666.6,497.1 689,497.1 687.8,504.1 	"/>
	<path d="M396.6,512.7c0-2.5-0.7-4.5-2.1-5.9c-1.4-1.4-3.3-2.1-5.8-2.1c-2.3,0-4.3,0.6-6.1,1.8c-1.8,1.2-3.1,2.7-4.1,4.7
		c-1,2-1.4,4.1-1.4,6.5c0,2.5,0.7,4.5,2.1,5.9c1.4,1.4,3.3,2.2,5.9,2.2C391.5,524.9,396.1,522.3,396.6,512.7 M368.3,518.6
		c0-4.3,0.9-8.1,2.8-11.4c1.8-3.3,4.4-6,7.7-7.8c3.3-1.9,7-2.8,11.2-2.8c3.1,0,5.9,0.6,8.2,1.9c2.4,1.3,4.2,3.1,5.5,5.4
		c1.3,2.3,1.9,5,1.9,7.9c0,4.3-0.9,8.1-2.8,11.5c-1.8,3.4-4.4,6-7.7,7.9c-3.3,1.9-7,2.8-11.2,2.8C374.1,532.5,370,527.8,368.3,518.6
		"/>
	<path d="M580.5,512.7c0-2.5-0.7-4.5-2.1-5.9c-1.4-1.4-3.3-2.1-5.8-2.1c-2.3,0-4.3,0.6-6.1,1.8c-1.8,1.2-3.1,2.7-4.1,4.7
		c-1,2-1.4,4.1-1.4,6.5c0,2.5,0.7,4.5,2.1,5.9c1.4,1.4,3.3,2.2,5.9,2.2C575.4,524.9,580,522.3,580.5,512.7 M552.2,518.6
		c0-4.3,0.9-8.1,2.8-11.4c1.8-3.3,4.4-6,7.7-7.8c3.3-1.9,7-2.8,11.2-2.8c3.1,0,5.9,0.6,8.2,1.9c2.4,1.3,4.2,3.1,5.5,5.4
		c1.3,2.3,1.9,5,1.9,7.9c0,4.3-0.9,8.1-2.8,11.5c-1.8,3.4-4.4,6-7.7,7.9c-3.3,1.9-7,2.8-11.2,2.8
		C558.1,532.5,553.9,527.8,552.2,518.6"/>
	<polygon class="st1" points="280.2,122 402.6,48.2 402.6,326.9 280.2,402.7 	"/>
	<polygon class="st2" points="280.2,402.7 402.6,326.8 525,402.7 402.9,478.2 	"/>
	<polygon class="st3" points="525,122 402.6,48.2 402.6,326.9 525,402.7 	"/>
	<polygon class="st4" points="326,149.7 300.9,164.2 300.9,324.4 326.5,308.8 326.5,197.6 342,214.4 362.6,180.7 362.6,180.8 
		362.6,292.2 388.3,276.6 388.3,116.9 362.6,132 341.9,177.8 341.8,177.7 	"/>
	<path class="st5" d="M506.5,174.1c0.1,0.1,0.1,1.4,1,17.1c0.3,6,0.7,11.3,0.7,11.8c0,0.3,0,0.6,0,0.8l0,0.1
		c-1-0.6-42.3-26.6-69.4-43.7v27.1l8.5,5.4l0.9,0.6l0.9,0.6l0.9,0.6l1,0.6l1,0.6l1,0.6l13.2,8.4l13.8,8.8l0,0.5
		c0,0.7,0.8,13.5,1.1,19.2c0.5,9.3,0.7,12.3,0.7,12.3c0,0-9-5.7-21-13.4l-0.7-0.4l-0.7-0.4l-0.7-0.4l-0.7-0.4l-0.7-0.4l-0.7-0.4
		l-0.7-0.4l-0.7-0.4l-0.7-0.4L438.8,218v74.1l-24.7-13c0-59.5-0.4-102.8-0.2-162.2C414.4,116.2,505.9,172.7,506.5,174.1"/>
	<polyline points="373.6,371.7 404.3,352 417.1,372 394.8,386.2 427.8,408.8 459.2,388.7 472,408.7 400.9,454.1 388.1,434.2 
		409.2,420.7 376.2,398.1 345.9,417.4 333.2,397.5 372.1,372.6 	"/>
	<polygon points="373.6,371.7 404.3,352 417.1,372 394.8,386.2 427.8,408.8 459.2,388.7 472,408.7 400.9,454.1 388.1,434.2 
		409.2,420.7 376.2,398.1 345.9,417.4 333.2,397.5 372.1,372.6 	"/>
</g>
</svg>
