<?xml version="1.0" encoding="utf-8"?>
<!-- Generator: Adobe Illustrator 26.1.0, SVG Export Plug-In . SVG Version: 6.00 Build 0)  -->
<svg version="1.1" id="Layer_1" xmlns="http://www.w3.org/2000/svg" xmlns:xlink="http://www.w3.org/1999/xlink" x="0px" y="0px"
	 viewBox="0 0 2062 586" style="enable-background:new 0 0 2062 586;" xml:space="preserve">
<style type="text/css">
	.st0{fill:none;stroke:#FFCA33;stroke-width:2;stroke-miterlimit:10;}
	.st1{clip-path:url(#SVGID_00000014606699568546196850000006480234346131960713_);}
	.st2{clip-path:url(#SVGID_00000155117542214662479710000010828837888197701785_);fill:#00ADD3;}
	
		.st3{clip-path:url(#SVGID_00000155117542214662479710000010828837888197701785_);fill:url(#SVGID_00000004512084273314153920000005042242446974162855_);}
	
		.st4{clip-path:url(#SVGID_00000155117542214662479710000010828837888197701785_);fill:url(#SVGID_00000062895837119042598940000000717256094561833645_);}
	
		.st5{clip-path:url(#SVGID_00000155117542214662479710000010828837888197701785_);fill:url(#SVGID_00000070836235477857030330000010543274876228284582_);}
	.st6{clip-path:url(#SVGID_00000014606699568546196850000006480234346131960713_);fill:#FFCA33;}
	.st7{fill:#FFFFFF;}
	.st8{clip-path:url(#SVGID_00000014606699568546196850000006480234346131960713_);fill:#FFFFFF;}
	.st9{fill:#00ADD3;}
	.st10{fill:#FFCA33;}
</style>
<g>
	<rect x="16.44" y="10.66" class="st0" width="564.69" height="564.69"/>
	<g>
		<defs>
			<circle id="SVGID_1_" cx="298.79" cy="293" r="269.57"/>
		</defs>
		<clipPath id="SVGID_00000056395140534558199430000000017283578016956310_">
			<use xlink:href="#SVGID_1_"  style="overflow:visible;"/>
		</clipPath>
		<g style="clip-path:url(#SVGID_00000056395140534558199430000000017283578016956310_);">
			<defs>
				<circle id="SVGID_00000139987703623251404220000000568324253880760243_" cx="298.79" cy="293" r="269.57"/>
			</defs>
			<clipPath id="SVGID_00000102534960813267466710000000411799681408494259_">
				<use xlink:href="#SVGID_00000139987703623251404220000000568324253880760243_"  style="overflow:visible;"/>
			</clipPath>
			
				<rect x="29.22" y="-23" style="clip-path:url(#SVGID_00000102534960813267466710000000411799681408494259_);fill:#00ADD3;" width="56.24" height="604.09"/>
			
				<rect x="125.37" y="-23" style="clip-path:url(#SVGID_00000102534960813267466710000000411799681408494259_);fill:#00ADD3;" width="56.24" height="604.09"/>
			
				<rect x="221.52" y="-23" style="clip-path:url(#SVGID_00000102534960813267466710000000411799681408494259_);fill:#00ADD3;" width="56.24" height="604.09"/>
			
				<rect x="317.67" y="-23" style="clip-path:url(#SVGID_00000102534960813267466710000000411799681408494259_);fill:#00ADD3;" width="56.24" height="604.09"/>
			
				<rect x="413.82" y="-23" style="clip-path:url(#SVGID_00000102534960813267466710000000411799681408494259_);fill:#00ADD3;" width="56.24" height="604.09"/>
			
				<rect x="509.97" y="-23" style="clip-path:url(#SVGID_00000102534960813267466710000000411799681408494259_);fill:#00ADD3;" width="65.27" height="604.09"/>
			
				<linearGradient id="SVGID_00000096776695802905239810000008605824326646889615_" gradientUnits="userSpaceOnUse" x1="422.0657" y1="-161.1312" x2="708.4376" y2="432.9844">
				<stop  offset="0" style="stop-color:#B477B1"/>
				<stop  offset="0.1414" style="stop-color:#AD75B0"/>
				<stop  offset="0.3502" style="stop-color:#996EAD"/>
				<stop  offset="0.6006" style="stop-color:#7863A9"/>
				<stop  offset="0.8811" style="stop-color:#4B54A3"/>
				<stop  offset="1" style="stop-color:#364DA0"/>
			</linearGradient>
			
				<rect x="606.12" y="-23" style="clip-path:url(#SVGID_00000102534960813267466710000000411799681408494259_);fill:url(#SVGID_00000096776695802905239810000008605824326646889615_);" width="56.24" height="604.09"/>
			
				<linearGradient id="SVGID_00000157992741372472446480000014062013918740278406_" gradientUnits="userSpaceOnUse" x1="500.089" y1="-198.7391" x2="786.4608" y2="395.3764">
				<stop  offset="0" style="stop-color:#B477B1"/>
				<stop  offset="0.1414" style="stop-color:#AD75B0"/>
				<stop  offset="0.3502" style="stop-color:#996EAD"/>
				<stop  offset="0.6006" style="stop-color:#7863A9"/>
				<stop  offset="0.8811" style="stop-color:#4B54A3"/>
				<stop  offset="1" style="stop-color:#364DA0"/>
			</linearGradient>
			
				<rect x="702.27" y="-23" style="clip-path:url(#SVGID_00000102534960813267466710000000411799681408494259_);fill:url(#SVGID_00000157992741372472446480000014062013918740278406_);" width="56.24" height="604.09"/>
			
				<linearGradient id="SVGID_00000147926504598066098200000002626806738745912990_" gradientUnits="userSpaceOnUse" x1="578.1113" y1="-236.3471" x2="864.4832" y2="357.7685">
				<stop  offset="0" style="stop-color:#B477B1"/>
				<stop  offset="0.1414" style="stop-color:#AD75B0"/>
				<stop  offset="0.3502" style="stop-color:#996EAD"/>
				<stop  offset="0.6006" style="stop-color:#7863A9"/>
				<stop  offset="0.8811" style="stop-color:#4B54A3"/>
				<stop  offset="1" style="stop-color:#364DA0"/>
			</linearGradient>
			
				<rect x="798.42" y="-23" style="clip-path:url(#SVGID_00000102534960813267466710000000411799681408494259_);fill:url(#SVGID_00000147926504598066098200000002626806738745912990_);" width="56.24" height="604.09"/>
		</g>
		<path style="clip-path:url(#SVGID_00000056395140534558199430000000017283578016956310_);fill:#FFCA33;" d="M546.69,187.21
			L278.61,348l-36.59-51.03L58.23,414.6c-3.93-7.61-7.44-15.47-10.6-23.59c-11.88-30.35-18.38-63.34-18.38-97.96
			c0-148.91,120.62-269.62,269.53-269.62c102.15,0,191.06,56.85,236.71,140.62C539.59,171.57,543.36,179.26,546.69,187.21z"/>
		<g style="clip-path:url(#SVGID_00000056395140534558199430000000017283578016956310_);">
			<path class="st7" d="M673.63,113.98L278.61,350.85l-36.59-51.03L58.23,417.45l-95.32,61.04l-24.53-35.99l98.48-63l189.33-121.56
				c13.91-8.93,32.38-5.43,42.05,7.98l19.73,27.35l236.71-141.02l124.98-74.97L673.63,113.98z"/>
		</g>
		<polygon style="clip-path:url(#SVGID_00000056395140534558199430000000017283578016956310_);fill:#FFFFFF;" points="530.27,149.8 
			406.69,149.8 436.69,204.76 		"/>
	</g>
	<g>
		<g>
			<g>
				<path class="st9" d="M713.73,451.05c-2.65,6.27-7.5,10.73-14.55,13.38c4.21,0.79,7.94,2.11,11.17,3.97
					c6.96,4.31,10.44,10.39,10.44,18.23c0,5-1.52,9.61-4.56,13.82c-5.88,8.04-15.14,12.05-27.78,12.05H646.7v-3.82h11.76v-80.56
					H646.7v-3.82H688c6.47,0,12,1.13,16.61,3.38c7.06,3.63,10.58,9.16,10.58,16.61C715.2,446.45,714.71,448.7,713.73,451.05z
					 M671.1,428.12v34.55h13.08c3.92,0,7.35-0.93,10.29-2.79c5-3.23,7.5-8.04,7.5-14.41c0-1.37-0.1-2.69-0.29-3.97
					c-1.37-8.92-7.11-13.38-17.2-13.38H671.1z M671.1,466.63v42.04h16.61c4.51,0,8.38-1.37,11.61-4.12
					c4.9-4.21,7.35-10.09,7.35-17.64c0-3.23-0.59-6.22-1.76-8.97c-3.04-7.55-9.02-11.32-17.93-11.32H671.1z"/>
				<path class="st9" d="M807.59,508.97c1.47,0.2,2.21,1.37,2.21,3.53h-20.73l-1.03-14.99c-1.08,2.75-2.5,5.24-4.26,7.5
					c-4.7,5.98-10.73,8.97-18.08,8.97c-13.92-0.1-20.92-8.53-21.02-25.28V453.7h-11.32v-3.67h22.34v40.87c0,1.57,0.1,3.04,0.29,4.41
					c1.27,8.23,5.93,12.35,13.96,12.35c2.94,0,5.78-0.93,8.53-2.79c6.17-4.12,9.26-10.58,9.26-19.4V453.7h-12.05v-3.67h23.08v58.8
					h7.35C806.7,508.82,807.19,508.88,807.59,508.97z"/>
				<path class="st9" d="M844.7,510c6.76,0,11.32-2.06,13.67-6.17c0.88-1.47,1.32-3.09,1.32-4.85c0-4.12-2.99-7.64-8.97-10.58
					c-1.27-0.68-3.38-1.67-6.32-2.94c-8.04-3.33-13.38-6.47-16.02-9.41c-2.84-3.23-4.26-7.01-4.26-11.32
					c0-6.76,3.72-11.51,11.17-14.26c3.43-1.27,7.15-1.91,11.17-1.91c6.47,0,12.05,1.37,16.76,4.12c0-2.84,0.68-4.46,2.06-4.85
					c0.59-0.1,1.22-0.15,1.91-0.15v18.38h-3.82c-0.2-9.02-5.2-13.57-14.99-13.67c-7.35,0-11.91,2.16-13.67,6.47
					c-0.49,1.18-0.74,2.4-0.74,3.67c0,4.21,3.04,7.79,9.11,10.73c1.37,0.69,3.53,1.62,6.47,2.79c7.94,3.23,13.23,6.32,15.88,9.26
					c2.84,3.14,4.26,6.86,4.26,11.17c0,7.94-4.21,13.23-12.64,15.88c-3.23,1.08-6.76,1.62-10.58,1.62
					c-7.06-0.1-13.18-1.86-18.38-5.29c0,2.55-0.64,4.02-1.91,4.41c-0.59,0.1-1.28,0.15-2.06,0.15v-22.34h4.12
					C828.43,503.53,833.92,509.9,844.7,510z"/>
				<path class="st9" d="M914.6,508.97c1.47,0.2,2.2,1.37,2.2,3.53h-33.81v-3.67c3.33,0,5.73-0.2,7.2-0.59
					c3.04-0.98,4.56-3.72,4.56-8.23V453.7h-11.76v-3.67h22.79v58.8h7.35C913.62,508.82,914.11,508.88,914.6,508.97z M906.81,431.94
					c-1.37,3.14-3.77,4.7-7.2,4.7c-1.08,0-2.16-0.2-3.23-0.59c-3.23-1.37-4.85-3.87-4.85-7.5c0-1.18,0.24-2.3,0.73-3.38
					c1.47-3.14,3.92-4.7,7.35-4.7c1.08,0,2.21,0.25,3.38,0.74c3.04,1.47,4.56,3.92,4.56,7.35
					C907.54,429.74,907.3,430.87,906.81,431.94z"/>
				<path class="st9" d="M958.77,508.97c1.47,0.2,2.21,1.37,2.21,3.53h-32.34v-3.67c3.33,0,5.73-0.24,7.2-0.74
					c2.55-0.88,3.82-3.58,3.82-8.08V453.7h-11.03v-3.67h21.32l0.59,14.7c1.08-2.74,2.5-5.24,4.26-7.5
					c4.7-5.78,10.68-8.67,17.93-8.67c3.62,0,7.01,0.93,10.14,2.79c6.76,4.21,10.14,11.22,10.14,21.02v36.46h7.35
					c0.59,0,1.08,0.05,1.47,0.15c1.47,0.2,2.21,1.37,2.21,3.53h-33.08v-3.67c3.33,0,5.73-0.24,7.2-0.74
					c2.55-0.88,3.82-3.58,3.82-8.08V470.9c0-2.84-0.44-5.39-1.32-7.64c-2.16-5.59-6.22-8.38-12.2-8.38c-2.74,0-5.44,0.83-8.08,2.5
					c-6.17,4.02-9.41,10.58-9.7,19.7v31.75h6.62C957.89,508.82,958.38,508.88,958.77,508.97z"/>
				<path class="st9" d="M1070.85,502.5c-5,7.64-12.79,11.47-23.37,11.47c-6.67,0-12.59-1.71-17.79-5.14
					c-8.72-5.88-13.08-14.9-13.08-27.05c0-6.66,1.37-12.64,4.12-17.93c5.29-10.19,14.06-15.29,26.31-15.29
					c6.27,0,11.81,1.42,16.61,4.26c6.76,3.92,10.14,9.21,10.14,15.88c0,3.63-1.32,6.42-3.97,8.38c-3.43,2.45-11.12,3.58-23.08,3.38
					l-17.64-0.29c0.1,4.12,0.54,7.89,1.32,11.32c2.65,12.25,9.11,18.38,19.4,18.38c0.88,0,1.81-0.05,2.79-0.15
					c7.64-0.98,13.18-5.19,16.61-12.64l3.68,1.32C1072.32,499.76,1071.64,501.13,1070.85,502.5z M1040.13,453.99
					c-6.86,3.43-10.54,10.78-11.03,22.05l15.58,0.44c4.51,0.1,7.99-0.1,10.44-0.59c4.7-1.08,7.06-4.07,7.06-8.97
					c0-2.15-0.39-4.16-1.18-6.03c-2.26-5.78-6.81-8.67-13.67-8.67C1044.78,452.23,1042.38,452.82,1040.13,453.99z"/>
				<path class="st9" d="M1109.88,510c6.76,0,11.32-2.06,13.67-6.17c0.88-1.47,1.32-3.09,1.32-4.85c0-4.12-2.99-7.64-8.97-10.58
					c-1.27-0.68-3.38-1.67-6.32-2.94c-8.04-3.33-13.38-6.47-16.02-9.41c-2.84-3.23-4.26-7.01-4.26-11.32
					c0-6.76,3.72-11.51,11.17-14.26c3.43-1.27,7.15-1.91,11.17-1.91c6.47,0,12.05,1.37,16.76,4.12c0-2.84,0.68-4.46,2.06-4.85
					c0.59-0.1,1.22-0.15,1.91-0.15v18.38h-3.82c-0.2-9.02-5.2-13.57-14.99-13.67c-7.35,0-11.91,2.16-13.67,6.47
					c-0.49,1.18-0.74,2.4-0.74,3.67c0,4.21,3.04,7.79,9.11,10.73c1.37,0.69,3.53,1.62,6.47,2.79c7.94,3.23,13.23,6.32,15.88,9.26
					c2.84,3.14,4.26,6.86,4.26,11.17c0,7.94-4.21,13.23-12.64,15.88c-3.23,1.08-6.76,1.62-10.58,1.62
					c-7.06-0.1-13.18-1.86-18.38-5.29c0,2.55-0.64,4.02-1.91,4.41c-0.59,0.1-1.28,0.15-2.06,0.15v-22.34h4.12
					C1093.61,503.53,1099.1,509.9,1109.88,510z"/>
				<path class="st9" d="M1171.69,510c6.76,0,11.32-2.06,13.67-6.17c0.88-1.47,1.32-3.09,1.32-4.85c0-4.12-2.99-7.64-8.97-10.58
					c-1.27-0.68-3.38-1.67-6.32-2.94c-8.04-3.33-13.38-6.47-16.02-9.41c-2.84-3.23-4.26-7.01-4.26-11.32
					c0-6.76,3.72-11.51,11.17-14.26c3.43-1.27,7.15-1.91,11.17-1.91c6.47,0,12.05,1.37,16.76,4.12c0-2.84,0.68-4.46,2.06-4.85
					c0.59-0.1,1.22-0.15,1.91-0.15v18.38h-3.82c-0.2-9.02-5.2-13.57-14.99-13.67c-7.35,0-11.91,2.16-13.67,6.47
					c-0.49,1.18-0.74,2.4-0.74,3.67c0,4.21,3.04,7.79,9.11,10.73c1.37,0.69,3.53,1.62,6.47,2.79c7.94,3.23,13.23,6.32,15.88,9.26
					c2.84,3.14,4.26,6.86,4.26,11.17c0,7.94-4.21,13.23-12.64,15.88c-3.23,1.08-6.76,1.62-10.58,1.62
					c-7.06-0.1-13.18-1.86-18.38-5.29c0,2.55-0.64,4.02-1.91,4.41c-0.59,0.1-1.28,0.15-2.06,0.15v-22.34h4.12
					C1155.42,503.53,1160.91,509.9,1171.69,510z"/>
				<path class="st9" d="M1315.37,445.81h-0.75v0.75h-32.51v21.98l3.61-2.11c1.5-0.9,2.96-1.55,4.37-1.96l4.06-0.75
					c2.61,0,4.82,0.55,6.62,1.66c4.11,1.81,7.12,5.57,9.03,11.29c0.7,2.41,1.05,4.92,1.05,7.53c0,4.42-0.6,8.18-1.81,11.29
					c-0.5,1.11-1.15,2.56-1.96,4.37c-2.81,6.12-5.97,9.93-9.48,11.44l-7.38-7.83c1.6,0,2.88-0.48,3.84-1.43
					c0.95-0.95,2.38-2.83,4.29-5.64c1.71-2.51,3.16-5.37,4.37-8.58c1.1-2.91,1.66-5.62,1.66-8.13l-0.45-2.86
					c-0.8-2.11-1.88-3.39-3.24-3.84c-1.36-0.45-2.63-0.68-3.84-0.68c-1.11,0-2.51,0.28-4.21,0.83c-1.71,0.55-3.56,1.63-5.57,3.24
					l-2.26,1.81l-2.71,2.11v38.99l-9.33-6.92v-24.54l-1.97,1.2l-2.27,1.05l-5.75,2.41l-4.24,0.6c-2.22,0-4.69-0.6-7.41-1.8
					c-4.03-1.8-7.36-5.35-9.98-10.64c-0.81-2.4-1.21-4.85-1.21-7.35c0-3.6,1.05-6.7,3.16-9.29c0.8-1,1.66-1.9,2.56-2.7
					c3.41-2.3,6.47-3.7,9.18-4.2c1.4-0.3,2.66-0.4,3.76-0.3h2.41l3.01,0.45l4.37,9.48h-3.01l-2.26-0.45h-1.66
					c-2.51,0-4.42,0.25-5.72,0.75c-1.81,0.2-3.96,1.16-6.47,2.86c-0.6,0.4-1.2,1.05-1.81,1.96c-0.6,1.61-0.9,3.06-0.9,4.37
					c0,3.51,1.16,5.87,3.48,7.08l2.72,0.9l3.63,0.3c0.71,0.1,2.17-0.2,4.39-0.9c1.21-0.4,3.68-1.51,7.42-3.31l1.36-0.9l3.18-2.11
					v-30.71h-36.28v-8.58h78.88V445.81z"/>
				<path class="st9" d="M1345.17,445.81h-0.75v0.75h-11.74v72.71l-9.33-6.92v-65.78h-9.18v-8.58h31.01V445.81z"/>
				<path class="st9" d="M1458.07,481.04h-0.75v0.75H1437v8.43c0,0.7-0.1,1.26-0.3,1.66l-0.6,1.2l-1.51,0.9l-1.35,0.3
					c-1.31,0-2.71-0.56-4.21-1.67l-3.01-2.27c-4.92-3.64-8.18-7.58-9.78-11.82c-0.4-0.81-0.65-1.82-0.75-3.03l0.3-1.06l0.9-1.06
					l1.2-0.61l1.21-0.15h9.03v-7.54l-7.08-0.44c-3.21-0.2-6.47-1.6-9.78-4.21c-3.11-2.31-4.67-5.77-4.67-10.39
					c0-2.11,0.25-3.86,0.75-5.27c1.9-4.11,5.27-6.37,10.08-6.77c0.7,0,1.3,0,1.81,0c3.51,0,7.53,1.34,12.04,4.03
					c2.01,1.19,3.46,2.64,4.37,4.33c0.9,1.69,1.35,3.68,1.35,5.97v20.3h21.07V481.04z M1428.11,459.81v-11.44l-0.45-1.36l-1.05-1.2
					c-0.7-0.5-1.31-0.8-1.81-0.9l-1.96-0.3c-3.11,0-5.47,0.65-7.08,1.96c-1.2,1-1.81,2.66-1.81,4.97c0,1.11,0.4,2.13,1.2,3.09
					c0.8,0.95,1.91,1.88,3.31,2.78l4.06,1.66l4.06,0.6l1.05-0.15L1428.11,459.81z M1450.24,445.81h-0.75v0.75h-9.18l-4.97-8.58h14.9
					V445.81z"/>
				<path class="st9" d="M1480.35,445.81h-0.75v0.75h-11.74v72.71l-9.33-6.92v-65.78h-9.18v-8.58h31.01V445.81z"/>
				<path class="st9" d="M1537.55,445.81h-0.75v0.75h-20.77l1.05,5.41l0.6,5.71c0,10.12-3.97,19.54-11.89,28.26
					c1.03,2.51,2.41,4.96,4.15,7.37l5.48,7.89l6.62,7.38c1.4,1.61,4.01,3.67,7.83,6.17l-7.53,4.37l-5.12-6.17l-4.21-5.72l-4.82-6.92
					l-3.61-5.42l-6.92-10.54l-3.31-5.87l-2.11-4.37l-0.75-4.06c0-2.31,1.2-3.46,3.61-3.46l12.04-0.15v-19.87h-27.4v-8.58h57.8
					V445.81z"/>
				<path class="st9" d="M1564.34,445.81h-0.75v0.75h-11.74v72.71l-9.33-6.92v-65.78h-9.18v-8.58h31.01V445.81z"/>
				<path class="st9" d="M1553.8,437.23c0.2,0.4,0.2,0.65,0,0.75c-0.1,0.2-0.65,0.3-1.66,0.3l1.21,1.2l-4.89,0.05l-2.12-3.16
					l-14.57-18.26c-0.7-0.8-1.4-1.36-2.1-1.66l-3.15-0.6h-14.42l-5.26-11.14H1524c1.41,0,2.46,0.1,3.16,0.3l3.01,0.3l0.9,0.15
					c0.7,0.1,1.15,0.25,1.35,0.45l5.12,7.09l5.84,8.59l2.09,2.87l1.8,2.86l2.1,3.02l1.95,3.17L1553.8,437.23z"/>
				<path class="st9" d="M1642.16,445.81h-0.75v0.75h-10.09v72.71l-9.33-6.92v-34.17l-4.53,2.37c-2.01,0.63-4.02,0.95-6.04,0.95
					h-2.26c-1.71-0.2-4.18-1.02-7.4-2.45l-3.92-3.06l-2.11-2.91c-0.41,1.2-0.81,2.05-1.21,2.55l-2.26,3.9
					c-0.5,0.7-1.61,1.85-3.32,3.45l-3.17,2.25l4.5,7.23l5.08,7.85l5.79,8.48c0.81,0.89,1.82,1.97,3.04,3.25
					c1.82,1.87,2.98,3.05,3.49,3.55l-7.23,3.69c-0.3-0.8-1.86-3.29-4.67-7.48c-1.31-2-2.76-4.24-4.37-6.73
					c-1.11-1.5-3.21-4.49-6.32-8.97c-1.11-1.6-2.21-3.31-3.31-5.12c-4.52-7.43-7.23-14.1-8.13-20.02l0.15-1.35l0.6-1.36
					c0.2-0.7,0.95-1.25,2.26-1.66l10.84-0.15v-19.87h-20.02v-8.58h74.66V445.81z M1621.99,446.57h-25.59v22.86l2.27,1.67l3.03,1.06
					l2.73,0.76h3.63c2.42,0.1,4.89-0.4,7.42-1.51c1.92-0.6,4.09-1.96,6.51-4.06V446.57z"/>
				<path class="st9" d="M1633.13,437.23c0.2,0.4,0.2,0.65,0,0.75c-0.1,0.2-0.65,0.3-1.66,0.3l1.21,1.2l-4.89,0.05l-2.12-3.16
					l-14.57-18.26c-0.7-0.8-1.4-1.36-2.1-1.66l-3.15-0.6h-14.42l-5.26-11.14h17.16c1.41,0,2.46,0.1,3.16,0.3l3.01,0.3l0.9,0.15
					c0.7,0.1,1.15,0.25,1.35,0.45l5.12,7.09l5.84,8.59l2.09,2.87l1.8,2.86l2.1,3.02l1.95,3.17L1633.13,437.23z"/>
				<path class="st9" d="M1713.06,445.81h-0.75v0.75h-10.24v72.71l-9.03-7.07v-30.71h-23.33v6.02c0,2.41-0.95,3.71-2.84,3.91
					c-2.89,0-6.17-1.97-9.85-5.92c-1.19-1.21-2.49-3.03-3.88-5.46c-0.9-1.42-1.34-2.73-1.34-3.94c0-2.02,1-3.18,3.01-3.49h5.57
					v-26.04h-13.55v-8.58h66.23V445.81z M1693.79,473.36h-0.75v-26.79h-23.33v26.04h24.08V473.36z"/>
				<path class="st9" d="M1712,420.07l-8.4,8.55l-9.08-8.8l8.87-8.81l8.46,8.01l-0.45,0.6L1712,420.07z"/>
				<path class="st9" d="M1778.08,445.81h-0.75v0.75h-18.36v19.42h-20.47c-1,0-2.21,0.3-3.61,0.9c-1,0.3-1.96,1.05-2.86,2.26
					c-0.8,0.7-1.46,1.81-1.96,3.31l-0.6,4.06c0,4.32,1.4,7.88,4.21,10.69c2.81,2.81,6.32,4.21,10.54,4.21l3.61-0.45l2.56-0.91
					l-1.08-1.97l-0.66-3.45l0.45-2.86c0.3-0.8,0.85-1.7,1.65-2.71c0.4-0.5,1.3-1.1,2.7-1.8l3.45-0.6c1.3,0,2.3,0.3,3,0.9
					c1.1,0.6,1.9,1.35,2.4,2.26l1.65,3.01l0.6,3.16c0,3.41-1,6.37-3.01,8.88l-1.2,1.51l-1.35,1.05l11.74,16.71l-8.88,2.56
					l-7.08-17.91l-3.31,0.9l-3.61,0.3c-2.61,0.2-5.67-0.5-9.18-2.11c-4.72-2.01-8.63-5.54-11.74-10.57
					c-2.81-4.53-4.21-9.57-4.21-15.11c0-4.53,0.9-8.11,2.7-10.72c0.6-1.31,1.74-2.37,3.44-3.17c1.2-0.8,2.74-1.21,4.64-1.21h16.17
					v-10.54h-31.91v-8.58h60.36V445.81z"/>
				<path class="st9" d="M1909.19,445.81h-0.75v0.75h-10.09v72.71l-9.33-6.92v-34.17l-4.53,2.37c-2.01,0.63-4.02,0.95-6.04,0.95
					h-2.26c-1.71-0.2-4.18-1.02-7.4-2.45l-3.92-3.06l-2.11-2.91c-0.41,1.2-0.81,2.05-1.21,2.55l-2.26,3.9
					c-0.5,0.7-1.61,1.85-3.32,3.45l-3.17,2.25l4.5,7.23l5.08,7.85l5.79,8.48c0.81,0.89,1.82,1.97,3.04,3.25
					c1.82,1.87,2.98,3.05,3.49,3.55l-7.23,3.69c-0.3-0.8-1.86-3.29-4.67-7.48c-1.31-2-2.76-4.24-4.37-6.73
					c-1.11-1.5-3.21-4.49-6.32-8.97c-1.11-1.6-2.21-3.31-3.31-5.12c-4.52-7.43-7.23-14.1-8.13-20.02l0.15-1.35l0.6-1.36
					c0.2-0.7,0.95-1.25,2.26-1.66l10.84-0.15v-19.87h-20.02v-8.58h74.66V445.81z M1889.02,446.57h-25.59v22.86l2.27,1.67l3.03,1.06
					l2.73,0.76h3.63c2.42,0.1,4.89-0.4,7.42-1.51c1.92-0.6,4.09-1.96,6.51-4.06V446.57z"/>
				<path class="st9" d="M1939.6,445.81h-0.75v0.75h-11.74v72.71l-9.33-6.92v-65.78h-9.18v-8.58h31.01V445.81z"/>
				<path class="st9" d="M1990.48,490.67h-0.75l0.6,0.45c-1.8,2.01-3.89,3.66-6.28,4.97c-1.7,1-4.29,1.86-7.78,2.56l-5.53,0.3
					c-3.29,0.2-6.63-0.8-10.02-3.01c-3.09-1.9-6.08-4.87-8.97-8.88c-2.1-3.01-4.04-6.27-5.83-9.78c-1.3-2.61-1.95-5.92-1.95-9.93
					l5.61,0.45c1.38,0.1,3.35-0.1,5.91-0.6l3.99-1.36l-3.31-1.36c-2.01-0.81-4.21-2.27-6.62-4.39c-3.71-2.62-5.57-6.1-5.57-10.44
					c0-3.73,1.05-6.66,3.16-8.78c0.7-0.71,1.5-1.26,2.41-1.66l3.31-0.91l4.97-0.3c2.81-0.2,5.37,0.4,7.68,1.81
					c4.82,2.32,8.08,6.14,9.78,11.47c0.7,2.42,1.05,4.93,1.05,7.55c0,5.23-3.16,9.81-9.48,13.74c-2.21,1.41-4.82,2.62-7.83,3.62
					l-6.47,1.06c0.8,2.32,1.6,3.88,2.41,4.68c2.21,3.62,5.12,5.99,8.73,7.1c1.6,0.6,3.41,0.91,5.42,0.91c4.11,0,8.38-1.4,12.79-4.21
					l4.97-3.16c0.9-0.6,1.55-1.2,1.96-1.81c0.1-0.2,0.65-1.1,1.66-2.71V490.67z M1967.75,454.55c0-1.81-0.25-3.26-0.76-4.37
					c-0.41-1.5-1.02-2.61-1.83-3.31c-1.52-1.91-3.6-2.86-6.24-2.86c-0.81,0-1.6,0.13-2.36,0.38c-0.76,0.25-1.34,0.68-1.75,1.28
					l-1.22,1.81v2.41c-0.1,2.21,0.6,4.52,2.11,6.92c0.7,1.2,1.86,2.71,3.46,4.52c1.1,1.2,2.66,1.91,4.67,2.11l1.66-1.66l1.35-1.96
					l0.6-2.26L1967.75,454.55z M1982.5,445.81h-0.75v0.75h-4.06l-3.91-8.58h8.73V445.81z"/>
				<path class="st9" d="M2012.9,445.81h-0.75v0.75h-11.74v72.71l-9.33-6.92v-65.78h-9.18v-8.58h31.01V445.81z"/>
				<path class="st9" d="M2040.45,445.81h-0.75v0.75h-10.08v72.71l-9.33-6.92v-65.78h-7.83v-8.58h10.24
					c-0.2-1.1-0.65-2.56-1.35-4.37c-0.7-1.81-2.21-4.46-4.52-7.98c-4.82-7.32-9.79-10.99-14.9-10.99c-1.21,0-2.46,0.25-3.76,0.75
					c-1.91,1.2-3.31,3.01-4.21,5.42c-0.4,1.2-0.7,2.91-0.9,5.12l0.45,3.91l1.2,3.61c0.3,0.7,1,1.66,2.11,2.86
					c0.8,0.9,2.21,2.01,4.21,3.31h-6.32c-0.8-0.3-1.6-0.96-2.41-1.97l-3.01-4.08c-1.51-2.01-2.66-4.1-3.46-6.27
					c-0.8-2.17-1.2-4.16-1.2-5.97c0-2.02,0.35-3.98,1.05-5.9c0.5-1.31,1.46-2.92,2.86-4.84c1.31-1.41,2.91-2.52,4.82-3.33
					c1.91-0.81,3.87-1.21,5.87-1.21c7.33,0,14.25,5.09,20.77,15.28c1.6,2.5,3.66,6.04,6.17,10.64c1.2,2.2,1.91,4.2,2.11,5.99h12.19
					V445.81z"/>
			</g>
		</g>
		<g>
			<g>
				<path class="st10" d="M1521.43,81.96h37.59v87.92h0.61c4.55-6.97,10.91-13.04,18.49-16.98c7.28-4.24,16.07-6.67,25.47-6.67
					c25.16,0,51.54,16.67,51.54,63.97v87.01h-37.29v-82.77c0-21.53-7.88-37.59-28.5-37.59c-14.55,0-24.86,9.7-28.8,20.92
					c-1.21,3.03-1.52,6.97-1.52,11.22v88.22h-37.59V81.96z"/>
				<path class="st10" d="M1827.03,252.95c0,17.58,0.61,32.14,1.21,44.26h-32.74l-1.82-22.44h-0.61
					c-6.37,10.61-20.92,25.77-47.3,25.77c-26.98,0-51.54-16.07-51.54-64.27v-86.71h37.29v80.34c0,24.56,7.88,40.32,27.59,40.32
					c14.86,0,24.56-10.61,28.5-20.01c1.21-3.33,2.12-7.28,2.12-11.52v-89.13h37.29V252.95z"/>
				<path class="st10" d="M1867.34,81.96h37.29v87.92h0.61c9.09-14.25,25.16-23.65,47.29-23.65c36.08,0,61.85,30.01,61.54,74.88
					c0,53.06-33.65,79.43-67,79.43c-19.1,0-36.08-7.28-46.69-25.47h-0.61l-1.82,22.13h-31.83c0.61-10,1.21-26.38,1.21-41.54V81.96z
					 M1904.64,236.28c0,3.03,0.3,6.06,0.91,8.79c3.94,14.86,16.98,26.07,33.05,26.07c23.34,0,37.59-18.8,37.59-48.51
					c0-26.07-12.43-47.3-37.29-47.3c-15.16,0-28.8,10.91-33.05,27.29c-0.61,2.73-1.21,6.06-1.21,9.7V236.28z"/>
			</g>
			<g>
				<path class="st9" d="M1004.05,181.42l-22.81-13.5c-10.24-6-17.66-11.72-22.28-17.18c-4.62-5.45-6.93-11.3-6.93-17.55
					c0-7.04,3.13-12.81,9.41-17.32c6.27-4.51,14.28-6.77,24.04-6.77c17.32,0,33.49,7.23,48.52,21.68V96.9
					c-14.53-9.78-30.51-14.67-47.93-14.67c-18.21,0-33.02,5.13-44.42,15.38c-11.4,10.25-17.1,23.59-17.1,40.01
					c0,10.95,3.01,20.63,9.03,29.04c6.02,8.41,16.15,16.96,30.38,25.65l22.69,13.79c18.31,11.39,27.47,23.43,27.47,36.13
					c0,7.84-3.11,14.36-9.33,19.56c-6.22,5.21-14.01,7.81-23.37,7.81c-21.2,0-39.86-10.21-55.99-30.65v37.92
					c16.92,12.67,35.68,19,56.29,19c17.92,0,32.47-5.23,43.67-15.68c11.2-10.45,16.8-24.04,16.8-40.76
					C1042.21,215.96,1029.49,196.62,1004.05,181.42z"/>
				<polygon class="st9" points="793.26,170.58 723.95,84.92 695.68,84.92 695.68,293.49 725.54,293.49 725.54,131.2 790.41,211.82 
					795.94,211.82 860.06,131.2 860.06,293.49 890.07,293.49 890.07,84.92 862.15,84.92 				"/>
				<path class="st9" d="M1235.88,84.04c0,0,0.77,33.5,0,46.17c0.14,0.56,2.96,163.28,2.96,163.28h30.01l0.01-209.45H1235.88z"/>
				<polygon class="st9" points="1343.65,266.62 1343.65,201.82 1429.05,201.82 1429.05,175.1 1343.65,175.1 1343.65,111.49 
					1432.04,111.49 1432.04,84.92 1313.79,84.92 1313.79,293.2 1434.88,293.2 1434.88,266.62 				"/>
				<path class="st9" d="M1151.68,145.42l-48.95-60.5h-28.27v208.58h29.86V131.2l26.67,33.15
					C1137.06,157.13,1144.65,151.73,1151.68,145.42z"/>
				<path class="st9" d="M1004.05,181.42l-22.81-13.5c-10.24-6-17.66-11.72-22.28-17.18c-4.62-5.45-6.93-11.3-6.93-17.55
					c0-7.04,3.13-12.81,9.41-17.32c6.27-4.51,14.28-6.77,24.04-6.77c17.32,0,33.49,7.23,48.52,21.68V96.9
					c-14.53-9.78-30.51-14.67-47.93-14.67c-18.21,0-33.02,5.13-44.42,15.38c-11.4,10.25-17.1,23.59-17.1,40.01
					c0,10.95,3.01,20.63,9.03,29.04c6.02,8.41,16.15,16.96,30.38,25.65l22.69,13.79c18.31,11.39,27.47,23.43,27.47,36.13
					c0,7.84-3.11,14.36-9.33,19.56c-6.22,5.21-14.01,7.81-23.37,7.81c-21.2,0-39.86-10.21-55.99-30.65v37.92
					c16.92,12.67,35.68,19,56.29,19c17.92,0,32.47-5.23,43.67-15.68c11.2-10.45,16.8-24.04,16.8-40.76
					C1042.21,215.96,1029.49,196.62,1004.05,181.42z"/>
				<polygon class="st9" points="793.26,170.58 723.95,84.92 695.68,84.92 695.68,293.49 725.54,293.49 725.54,131.2 790.41,211.82 
					795.94,211.82 860.06,131.2 860.06,293.49 890.07,293.49 890.07,84.92 862.15,84.92 				"/>
				<polygon class="st9" points="1343.65,266.62 1343.65,201.82 1429.05,201.82 1429.05,175.1 1343.65,175.1 1343.65,111.49 
					1432.04,111.49 1432.04,84.92 1313.79,84.92 1313.79,293.2 1434.88,293.2 1434.88,266.62 				"/>
				<path class="st9" d="M793.25,168.83l-68.78-85.01h-29.89v210.77h32.06V134.32l63.25,78.61h6.58l62.5-78.58l0,160.24h32.21V83.82
					h-29.55L793.25,168.83z M888.97,86.01v206.38h-27.81V128.05l-65.76,82.67h-4.47l-66.5-82.64v164.31h-27.66V86.01h26.64
					l69.84,86.32l0.86-1.06l68.57-85.26H888.97z"/>
				<path class="st9" d="M1344.75,265.52v-62.6l85.4,0V174h-85.4v-61.41h88.39V83.82h-120.44v210.47h123.28v-28.77H1344.75z
					 M1433.78,292.09l-118.89,0V86.02h116.05v24.38h-88.39v65.8h85.4v24.53h-85.4v66.99h91.22V292.09z"/>
				<path class="st9" d="M1004.61,180.47l-22.81-13.5c-10.18-5.96-17.52-11.64-22-16.94c-4.48-5.3-6.66-10.87-6.67-16.84
					c0.02-6.7,2.91-12.05,8.95-16.43c6.05-4.35,13.8-6.56,23.4-6.56c17,0.01,32.87,7.07,47.76,21.38l1.86,1.79V96.31l-0.49-0.32
					c-14.7-9.9-30.92-14.86-48.54-14.85c-18.42-0.01-33.54,5.2-45.15,15.66c-11.63,10.44-17.47,24.16-17.46,40.83
					c-0.01,11.15,3.08,21.09,9.24,29.68c6.16,8.6,16.4,17.21,30.7,25.95l22.7,13.79c18.18,11.31,26.96,23.08,26.94,35.19
					c-0.02,7.54-2.94,13.67-8.94,18.72c-6.01,5.02-13.5,7.55-22.66,7.56c-20.83-0.01-39.13-9.98-55.13-30.23l-1.96-2.48v41.63
					l0.44,0.33c17.09,12.8,36.12,19.23,56.95,19.22c18.12,0.01,33.01-5.31,44.42-15.97c11.43-10.65,17.16-24.6,17.15-41.56
					C1043.33,215.52,1030.26,195.76,1004.61,180.47z M1024.66,279.4c-10.98,10.24-25.21,15.37-42.92,15.38
					c-20.2-0.01-38.55-6.15-55.19-18.46v-34.29c15.81,19.02,34.17,28.69,54.89,28.68c9.55,0.01,17.64-2.68,24.07-8.07
					c6.44-5.37,9.74-12.27,9.72-20.4c-0.02-13.28-9.55-25.6-27.99-37.06l-22.7-13.79c-14.16-8.64-24.18-17.13-30.06-25.35
					c-5.89-8.23-8.82-17.65-8.83-28.4c0.02-16.17,5.56-29.13,16.73-39.2c11.18-10.04,25.67-15.09,43.68-15.09
					c17.02,0,32.59,4.73,46.83,14.18v30.76c-14.66-13.45-30.51-20.27-47.42-20.26c-9.92,0-18.19,2.3-24.68,6.97
					c-6.5,4.65-9.88,10.84-9.86,18.22c-0.01,6.52,2.43,12.66,7.19,18.26c4.75,5.61,12.27,11.38,22.57,17.41l22.8,13.49
					c25.22,15.1,37.6,34.02,37.62,57.08C1041.1,255.93,1035.63,269.14,1024.66,279.4z"/>
				<path class="st9" d="M1240.4,83.82l-1.67,2.08c0.55,0.51,1.03,1.07,1.48,1.66l1.24-1.54h26.29v206.38h-27.81l0-164.34
					l-1.53,1.93c0.49,2.17,0.35,4.45-0.67,6.64l0,157.97h32.21V83.82H1240.4z"/>
				<path class="st9" d="M1133.04,165.14l-29.81-37.05v164.31h-27.66V86.01h26.64l52.58,64.99c0.35-0.7,0.76-1.36,1.22-1.99
					l-52.75-65.19h-29.89v210.77h32.06V134.32l25.81,32.08C1131.8,165.93,1132.4,165.51,1133.04,165.14z"/>
			</g>
			<rect x="649.4" y="342.7" class="st9" width="1396.16" height="19"/>
			<path class="st10" d="M1216.1,230.27l-8,5.91c-4.29,3.17-10.29,2.61-13.91-1.3l-62.08-66.99c-4.17-4.5-3.92-11.52,0.57-15.71
				l149.89-127.43l4,3l-91.64,125.43c-3.83,4.56-4.47,11.01-1.61,16.24l25.81,47.19C1221.66,221.28,1220.37,227.11,1216.1,230.27z"
				/>
		</g>
	</g>
</g>
</svg>
