<?xml version="1.0" encoding="UTF-8"?>
<svg xmlns="http://www.w3.org/2000/svg" xmlns:xlink="http://www.w3.org/1999/xlink" version="1.1" id="Layer_1" x="0px" y="0px" viewBox="0 0 543.9 340.7" style="enable-background:new 0 0 543.9 340.7;" xml:space="preserve">
<style type="text/css">
	.st0{fill:#EA4D41;}
	.st1{fill:#004386;}
	.st2{fill:#3A3A39;}
	.st3{fill-rule:evenodd;clip-rule:evenodd;fill:#004386;}
	.st4{fill-rule:evenodd;clip-rule:evenodd;fill:#EA4D41;}
</style>
<polygon class="st0" points="182.9,171.5 175,171.5 157.1,144.5 157.1,171.5 149.2,171.5 149.2,132.1 157.1,132.1 175,159.1   175,132.1 182.9,132.1 "></polygon>
<polygon class="st0" points="198.6,138.5 198.6,148.4 211.9,148.4 211.9,154.6 198.6,154.6 198.6,165.1 213.5,165.1 213.5,171.5   190.7,171.5 190.7,132.1 213.5,132.1 213.5,138.5 "></polygon>
<polygon class="st0" points="273.4,132.1 262.3,171.5 253,171.5 245.6,143.4 237.9,171.5 228.7,171.5 218.1,132.1 226.5,132.1   233.5,162.7 241.5,132.1 250.3,132.1 257.8,162.5 264.8,132.1 "></polygon>
<polygon class="st1" points="15.3,253.5 15.3,180.5 52.7,180.5 52.7,192.7 28.8,192.7 28.8,209.5 51.1,209.5 51.1,221.1 28.8,221.1   28.8,241.2 53.3,241.2 53.3,253.5 "></polygon>
<path class="st1" d="M58,253.5l16.4-72.9h18.2l16.6,72.9H94.6L91,235.1H75.4l-3.5,18.3H58z M77.5,224.2H89l-5.8-30.6L77.5,224.2z"></path>
<path class="st1" d="M116.4,253.5v-72.9h24.3c7.4,0,12.7,1.5,15.9,4.5c3.2,3,4.9,7.9,4.9,14.6c0,4.7-0.9,8.5-2.6,11.2  c-1.7,2.7-4.3,4.3-7.7,4.8c6.5,1.7,9.8,7.1,10.1,16.3c0,0.4,0,0.7,0,1l0.4,9.7c0.1,2.7,0.5,4.9,1,6.6c0.6,1.6,1.5,3.1,2.7,4.3h-16.1  c-0.4-1.2-0.7-2.7-0.9-4.3c-0.2-1.7-0.3-4-0.4-7l-0.2-7.6v-1.9c0-4.2-0.9-7.1-2.7-8.7c-1.8-1.6-5.5-2.4-11-2.4h-4.6v32H116.4z   M129.4,211.4h7.8c4,0,6.7-0.8,8.2-2.4c1.5-1.6,2.3-4.4,2.3-8.5c0-3.6-0.8-6.2-2.5-7.6c-1.7-1.5-4.7-2.2-9.2-2.2h-6.7V211.4z"></path>
<polygon class="st1" points="182.7,253.5 182.7,192.6 167.1,192.6 167.1,180.5 211.9,180.5 211.9,192.6 196.3,192.6 196.3,253.5 "></polygon>
<polygon class="st1" points="219.1,253.5 219.1,180.5 232.6,180.5 232.6,209.1 251.2,209.1 251.2,180.5 264.7,180.5 264.7,253.5   251.2,253.5 251.2,220.4 232.6,220.4 232.6,253.5 "></polygon>
<rect x="295.5" y="180.5" class="st0" width="13.6" height="72.9"></rect>
<polygon class="st0" points="321.5,253.5 321.5,180.5 335.5,180.5 354.5,231.5 354.1,180.5 366.9,180.5 366.9,253.5 353.1,253.5   333.9,202.4 334.3,253.5 "></polygon>
<polygon class="st0" points="379.3,253.5 379.3,180.5 417.4,180.5 417.4,192.5 392.9,192.5 392.9,209.7 416.1,209.7 416.1,221.4   392.9,221.4 392.9,253.5 "></polygon>
<path class="st0" d="M426.7,253.5v-72.9h24.3c7.4,0,12.7,1.5,15.9,4.5c3.2,3,4.9,7.9,4.9,14.6c0,4.7-0.9,8.5-2.6,11.2  c-1.7,2.7-4.3,4.3-7.7,4.8c6.5,1.7,9.8,7.1,10.1,16.3c0,0.4,0,0.7,0,1l0.4,9.7c0.1,2.7,0.5,4.9,1,6.6c0.6,1.6,1.5,3.1,2.7,4.3h-16.1  c-0.4-1.2-0.7-2.7-0.9-4.3c-0.2-1.7-0.3-4-0.4-7l-0.2-7.6v-1.9c0-4.2-0.9-7.1-2.7-8.7c-1.8-1.6-5.5-2.4-11-2.4h-4.6v32H426.7z   M439.8,211.4h7.8c4,0,6.7-0.8,8.2-2.4c1.5-1.6,2.3-4.4,2.3-8.5c0-3.6-0.8-6.2-2.5-7.6c-1.7-1.5-4.7-2.2-9.2-2.2h-6.7V211.4z"></path>
<path class="st0" d="M477.4,253.5l16.4-72.9H512l16.6,72.9H514l-3.6-18.3h-15.6l-3.5,18.3H477.4z M496.9,224.2h11.6l-5.8-30.6  L496.9,224.2z"></path>
<path class="st2" d="M23.2,285.4c1,0,1.7-0.2,2.2-0.7c0.5-0.4,0.8-1.1,0.8-1.9c0-0.8-0.3-1.5-0.8-2c-0.6-0.5-1.3-0.7-2.3-0.7h-3.9  v5.3H23.2z M19.2,277h3.6c0.9,0,1.7-0.2,2.2-0.6c0.5-0.4,0.8-1,0.8-1.8c0-0.8-0.3-1.4-0.8-1.8c-0.5-0.4-1.2-0.6-2.2-0.6h-3.6V277z   M26.4,278.5c1.1,0.2,2,0.8,2.7,1.7c0.7,0.9,1.1,1.9,1.1,3.1c0,1-0.3,2-0.8,2.8c-0.5,0.8-1.3,1.4-2.2,1.9c-1,0.4-2.1,0.7-3.5,0.7  h-8.5v-19.6h8.1c1.3,0,2.5,0.2,3.4,0.6c1,0.4,1.7,1,2.2,1.8s0.7,1.6,0.7,2.6c0,1.1-0.3,2.1-0.9,2.9  C28.2,277.6,27.4,278.2,26.4,278.5z"></path>
<path class="st2" d="M37.2,268.9v12.2c0,1.3,0.3,2.3,1,3.1c0.7,0.7,1.7,1.1,2.9,1.1c1.3,0,2.3-0.4,3-1.1c0.7-0.7,1-1.7,1-3.1v-12.2  h4v12.1c0,1.7-0.4,3.1-1.1,4.2c-0.7,1.2-1.7,2-2.9,2.6c-1.2,0.6-2.6,0.9-4,0.9c-1.5,0-2.8-0.3-4-0.9c-1.2-0.6-2.1-1.4-2.8-2.6  c-0.7-1.2-1-2.6-1-4.2v-12.1H37.2z"></path>
<rect x="53" y="268.9" class="st2" width="3.9" height="19.6"></rect>
<polygon class="st2" points="64.7,285.5 71.2,285.5 71.2,288.6 60.8,288.6 60.8,268.9 64.7,268.9 "></polygon>
<path class="st2" d="M80.4,285.2c2.1,0,3.7-0.6,4.8-1.7c1.1-1.1,1.7-2.7,1.7-4.8s-0.6-3.6-1.7-4.8c-1.1-1.2-2.7-1.7-4.8-1.7h-2.8v13  H80.4z M80.6,268.9c2.1,0,3.9,0.4,5.4,1.2c1.6,0.8,2.8,2,3.6,3.4c0.9,1.5,1.3,3.2,1.3,5.2c0,2-0.4,3.7-1.3,5.2  c-0.9,1.5-2.1,2.6-3.6,3.4c-1.6,0.8-3.4,1.2-5.4,1.2h-6.9v-19.6H80.6z"></path>
<rect x="93.9" y="268.9" class="st2" width="3.9" height="19.6"></rect>
<polygon class="st2" points="118.5,288.6 114.5,288.6 105.6,275.1 105.6,288.6 101.7,288.6 101.7,268.9 105.6,268.9 114.5,282.4   114.5,268.9 118.5,268.9 "></polygon>
<path class="st2" d="M136,274.9c-0.4-0.8-1.1-1.5-1.9-1.9c-0.8-0.4-1.7-0.6-2.8-0.6c-1.2,0-2.2,0.3-3.1,0.8  c-0.9,0.5-1.6,1.3-2.1,2.3c-0.5,1-0.8,2.1-0.8,3.4c0,1.3,0.3,2.5,0.8,3.4c0.5,1,1.2,1.7,2.2,2.3c0.9,0.5,2,0.8,3.2,0.8  c1.5,0,2.7-0.4,3.7-1.2c1-0.8,1.6-1.9,1.9-3.3h-6.8v-3H141v3.4c-0.3,1.4-0.8,2.6-1.7,3.8c-0.9,1.2-2,2.1-3.3,2.8  c-1.4,0.7-2.9,1.1-4.6,1.1c-1.9,0-3.6-0.4-5.1-1.3c-1.5-0.9-2.7-2-3.6-3.6c-0.9-1.5-1.3-3.2-1.3-5.2c0-1.9,0.4-3.7,1.3-5.2  c0.9-1.5,2.1-2.7,3.6-3.6c1.5-0.9,3.2-1.3,5.1-1.3c2.2,0,4.1,0.5,5.8,1.6c1.6,1.1,2.8,2.6,3.4,4.5H136z"></path>
<path class="st2" d="M157.4,285.2c2.1,0,3.7-0.6,4.8-1.7c1.1-1.1,1.7-2.7,1.7-4.8s-0.6-3.6-1.7-4.8c-1.1-1.2-2.7-1.7-4.8-1.7h-2.8  v13H157.4z M157.5,268.9c2.1,0,3.9,0.4,5.4,1.2c1.6,0.8,2.8,2,3.6,3.4c0.9,1.5,1.3,3.2,1.3,5.2c0,2-0.4,3.7-1.3,5.2  c-0.9,1.5-2.1,2.6-3.6,3.4c-1.6,0.8-3.4,1.2-5.4,1.2h-6.9v-19.6H157.5z"></path>
<path class="st2" d="M174.7,278h3.3c1.1,0,1.9-0.3,2.4-0.8c0.5-0.5,0.8-1.2,0.8-2.2c0-0.9-0.3-1.6-0.8-2.1c-0.5-0.5-1.3-0.7-2.4-0.7  h-3.3V278z M180.9,288.6l-4.3-7.7h-1.9v7.7h-3.9v-19.6h7.4c1.5,0,2.8,0.3,3.9,0.8c1.1,0.5,1.9,1.3,2.4,2.2c0.5,0.9,0.8,1.9,0.8,3.1  c0,1.3-0.4,2.5-1.1,3.5c-0.8,1-1.9,1.8-3.3,2.2l4.7,8H180.9z"></path>
<polygon class="st2" points="192.8,272.1 192.8,277 199.4,277 199.4,280.2 192.8,280.2 192.8,285.4 200.2,285.4 200.2,288.6   188.8,288.6 188.8,268.9 200.2,268.9 200.2,272.1 "></polygon>
<path class="st2" d="M214.8,281.7l-2.8-8.2l-2.8,8.2H214.8z M215.8,284.8H208l-1.3,3.7h-4.1l7.1-19.7h4.6l7.1,19.7h-4.2L215.8,284.8  z"></path>
<polygon class="st2" points="245.3,268.9 245.3,288.6 241.4,288.6 241.4,275.8 236.1,288.6 233.2,288.6 227.9,275.8 227.9,288.6   223.9,288.6 223.9,268.9 228.4,268.9 234.7,283.5 240.9,268.9 "></polygon>
<path class="st2" d="M256,288.8c-1.4,0-2.6-0.2-3.7-0.7c-1.1-0.5-2-1.1-2.6-2c-0.6-0.9-1-1.9-1-3.1h4.2c0.1,0.8,0.3,1.4,0.9,1.9  c0.5,0.5,1.2,0.7,2.1,0.7c0.9,0,1.6-0.2,2.2-0.7c0.5-0.4,0.8-1,0.8-1.7c0-0.6-0.2-1.1-0.5-1.4c-0.4-0.4-0.8-0.7-1.3-0.9  c-0.5-0.2-1.3-0.5-2.2-0.7c-1.3-0.4-2.3-0.7-3.1-1.1c-0.8-0.4-1.5-0.9-2.1-1.7c-0.6-0.7-0.9-1.7-0.9-3c0-1.2,0.3-2.2,0.9-3  c0.6-0.9,1.4-1.5,2.4-2c1-0.5,2.3-0.7,3.6-0.7c2,0,3.7,0.5,4.9,1.5c1.3,1,2,2.4,2.1,4.1h-4.3c0-0.7-0.3-1.2-0.9-1.7  c-0.5-0.4-1.2-0.7-2.1-0.7c-0.8,0-1.4,0.2-1.8,0.6c-0.5,0.4-0.7,1-0.7,1.7c0,0.5,0.2,1,0.5,1.3c0.3,0.3,0.8,0.6,1.3,0.8  c0.5,0.2,1.2,0.5,2.2,0.7c1.3,0.4,2.3,0.8,3.1,1.1c0.8,0.4,1.5,0.9,2.1,1.7c0.6,0.8,0.9,1.7,0.9,3c0,1-0.3,2-0.8,2.9  c-0.5,0.9-1.3,1.6-2.4,2.2C258.7,288.5,257.5,288.8,256,288.8"></path>
<polygon class="st2" points="270.7,284.4 267.4,292.3 264.8,292.3 266.7,284.4 "></polygon>
<path class="st2" d="M287,288.8c-1.4,0-2.6-0.2-3.7-0.7c-1.1-0.5-2-1.1-2.6-2c-0.6-0.9-1-1.9-1-3.1h4.2c0.1,0.8,0.3,1.4,0.9,1.9  c0.5,0.5,1.2,0.7,2.1,0.7c0.9,0,1.6-0.2,2.2-0.7c0.5-0.4,0.8-1,0.8-1.7c0-0.6-0.2-1.1-0.5-1.4c-0.4-0.4-0.8-0.7-1.3-0.9  c-0.5-0.2-1.3-0.5-2.2-0.7c-1.3-0.4-2.3-0.7-3.1-1.1c-0.8-0.4-1.5-0.9-2.1-1.7c-0.6-0.7-0.9-1.7-0.9-3c0-1.2,0.3-2.2,0.9-3  c0.6-0.9,1.4-1.5,2.4-2c1-0.5,2.3-0.7,3.6-0.7c2,0,3.7,0.5,4.9,1.5c1.3,1,2,2.4,2.1,4.1h-4.3c0-0.7-0.3-1.2-0.9-1.7  c-0.5-0.4-1.2-0.7-2.1-0.7c-0.8,0-1.4,0.2-1.8,0.6c-0.5,0.4-0.7,1-0.7,1.7c0,0.5,0.2,1,0.5,1.3c0.3,0.3,0.8,0.6,1.3,0.8  c0.5,0.2,1.2,0.5,2.2,0.7c1.3,0.4,2.3,0.8,3.1,1.1c0.8,0.4,1.5,0.9,2.1,1.7c0.6,0.8,0.9,1.7,0.9,3c0,1-0.3,2-0.8,2.9  c-0.5,0.9-1.3,1.6-2.4,2.2C289.7,288.5,288.4,288.8,287,288.8"></path>
<polygon class="st2" points="313.6,268.9 313.6,288.6 309.7,288.6 309.7,280.2 301.3,280.2 301.3,288.6 297.3,288.6 297.3,268.9   301.3,268.9 301.3,277 309.7,277 309.7,268.9 "></polygon>
<path class="st2" d="M328.5,281.7l-2.8-8.2l-2.8,8.2H328.5z M329.5,284.8h-7.8l-1.3,3.7h-4.1l7.1-19.7h4.6l7.1,19.7h-4.2  L329.5,284.8z"></path>
<path class="st2" d="M344.7,277.9c1.1,0,1.9-0.2,2.4-0.7c0.5-0.5,0.8-1.2,0.8-2.1c0-1.9-1.1-2.9-3.2-2.9h-3.1v5.7H344.7z M351.9,275  c0,1.1-0.2,2-0.7,3c-0.5,0.9-1.3,1.7-2.3,2.2c-1.1,0.6-2.4,0.8-4,0.8h-3.3v7.5h-3.9v-19.6h7.2c1.5,0,2.8,0.3,3.9,0.8  c1.1,0.5,1.9,1.2,2.4,2.2C351.7,272.8,351.9,273.9,351.9,275z"></path>
<rect x="354.7" y="268.9" class="st2" width="3.9" height="19.6"></rect>
<polygon class="st2" points="379.3,288.6 375.4,288.6 366.5,275.1 366.5,288.6 362.5,288.6 362.5,268.9 366.5,268.9 375.4,282.4   375.4,268.9 379.3,268.9 "></polygon>
<path class="st2" d="M396.9,274.9c-0.4-0.8-1.1-1.5-1.9-1.9c-0.8-0.4-1.7-0.6-2.8-0.6c-1.2,0-2.2,0.3-3.1,0.8  c-0.9,0.5-1.6,1.3-2.1,2.3c-0.5,1-0.8,2.1-0.8,3.4c0,1.3,0.3,2.5,0.8,3.4c0.5,1,1.2,1.7,2.2,2.3c0.9,0.5,2,0.8,3.2,0.8  c1.5,0,2.7-0.4,3.7-1.2c1-0.8,1.6-1.9,1.9-3.3h-6.8v-3h10.6v3.4c-0.3,1.4-0.8,2.6-1.7,3.8c-0.9,1.2-2,2.1-3.3,2.8  c-1.4,0.7-2.9,1.1-4.6,1.1c-1.9,0-3.6-0.4-5.1-1.3c-1.5-0.9-2.7-2-3.6-3.6c-0.9-1.5-1.3-3.2-1.3-5.2c0-1.9,0.4-3.7,1.3-5.2  c0.9-1.5,2.1-2.7,3.6-3.6c1.5-0.9,3.2-1.3,5.1-1.3c2.2,0,4.1,0.5,5.8,1.6c1.6,1.1,2.8,2.6,3.4,4.5H396.9z"></path>
<polygon class="st2" points="423.6,268.9 423.6,272.1 415.5,272.1 415.5,277.2 421.7,277.2 421.7,280.3 415.5,280.3 415.5,288.6   411.5,288.6 411.5,268.9 "></polygon>
<path class="st2" d="M430.3,268.9v12.2c0,1.3,0.3,2.3,1,3.1c0.7,0.7,1.7,1.1,2.9,1.1c1.3,0,2.3-0.4,3-1.1c0.7-0.7,1-1.7,1-3.1v-12.2  h4v12.1c0,1.7-0.4,3.1-1.1,4.2c-0.7,1.2-1.7,2-2.9,2.6c-1.2,0.6-2.6,0.9-4,0.9c-1.5,0-2.8-0.3-4-0.9c-1.2-0.6-2.1-1.4-2.8-2.6  c-0.7-1.2-1-2.6-1-4.2v-12.1H430.3z"></path>
<polygon class="st2" points="459.4,268.9 459.4,272.1 454.2,272.1 454.2,288.6 450.2,288.6 450.2,272.1 445,272.1 445,268.9 "></polygon>
<path class="st2" d="M466.1,268.9v12.2c0,1.3,0.3,2.3,1,3.1c0.7,0.7,1.7,1.1,2.9,1.1c1.3,0,2.3-0.4,3-1.1c0.7-0.7,1-1.7,1-3.1v-12.2  h4v12.1c0,1.7-0.4,3.1-1.1,4.2c-0.7,1.2-1.7,2-2.9,2.6c-1.2,0.6-2.6,0.9-4,0.9c-1.5,0-2.8-0.3-4-0.9c-1.2-0.6-2.1-1.4-2.8-2.6  c-0.7-1.2-1-2.6-1-4.2v-12.1H466.1z"></path>
<path class="st2" d="M485.8,278h3.3c1.1,0,1.9-0.3,2.4-0.8c0.5-0.5,0.8-1.2,0.8-2.2c0-0.9-0.3-1.6-0.8-2.1c-0.5-0.5-1.3-0.7-2.4-0.7  h-3.3V278z M492,288.6l-4.3-7.7h-1.9v7.7h-3.9v-19.6h7.4c1.5,0,2.8,0.3,3.9,0.8c1.1,0.5,1.9,1.3,2.4,2.2c0.5,0.9,0.8,1.9,0.8,3.1  c0,1.3-0.4,2.5-1.1,3.5c-0.8,1-1.9,1.8-3.3,2.2l4.7,8H492z"></path>
<polygon class="st2" points="503.8,272.1 503.8,277 510.4,277 510.4,280.2 503.8,280.2 503.8,285.4 511.3,285.4 511.3,288.6   499.9,288.6 499.9,268.9 511.3,268.9 511.3,272.1 "></polygon>
<path class="st2" d="M521.6,288.8c-1.4,0-2.6-0.2-3.7-0.7c-1.1-0.5-2-1.1-2.6-2c-0.6-0.9-1-1.9-1-3.1h4.2c0.1,0.8,0.3,1.4,0.9,1.9  c0.5,0.5,1.2,0.7,2.1,0.7c0.9,0,1.6-0.2,2.2-0.7c0.5-0.4,0.8-1,0.8-1.7c0-0.6-0.2-1.1-0.5-1.4c-0.4-0.4-0.8-0.7-1.3-0.9  c-0.5-0.2-1.3-0.5-2.2-0.7c-1.3-0.4-2.3-0.7-3.1-1.1c-0.8-0.4-1.5-0.9-2.1-1.7c-0.6-0.7-0.9-1.7-0.9-3c0-1.2,0.3-2.2,0.9-3  c0.6-0.9,1.4-1.5,2.4-2c1.1-0.5,2.3-0.7,3.6-0.7c2,0,3.7,0.5,4.9,1.5c1.3,1,2,2.4,2.1,4.1H524c0-0.7-0.3-1.2-0.9-1.7  c-0.5-0.4-1.2-0.7-2.1-0.7c-0.8,0-1.4,0.2-1.8,0.6c-0.5,0.4-0.7,1-0.7,1.7c0,0.5,0.2,1,0.5,1.3c0.3,0.3,0.8,0.6,1.3,0.8  c0.5,0.2,1.2,0.5,2.2,0.7c1.3,0.4,2.3,0.8,3.1,1.1c0.8,0.4,1.5,0.9,2.1,1.7c0.6,0.8,0.9,1.7,0.9,3c0,1-0.3,2-0.8,2.9  c-0.5,0.9-1.3,1.6-2.4,2.2C524.3,288.5,523.1,288.8,521.6,288.8"></path>
<path class="st3" d="M332.3,158h11.8v11.8h-11.8V158z M346.9,143.8h11.8v11.8h-11.8V143.8z M332.3,143.8h11.8v11.8h-11.8V143.8z   M346.9,158h11.8v11.8h-11.8V158z"></path>
<path class="st4" d="M297,315.3c0.8,2.4,6.8,6.3,9.6,8c11.8,7.1,29,9.7,43.2,8.8c5.3-0.3,10.6-0.7,15.6-1.6c15-3,27.6-7,42-10.3  c20.3-4.7,39.1-8.4,61.4-8c15.2,0.3,31.1,2.3,45.5,6.7l12.9,4.6c-0.4-1-3.5-2.6-5-3.6c-1.5-1-3.9-2.3-5.6-3.2  c-3.7-2-7.9-3.9-11.9-5.3c-4.2-1.6-8.6-3-13.1-4.1c-4.9-1.2-9.5-2-14.5-3c-18.8-3.7-46-3.2-64.8-0.7c-23.8,3.2-34.3,6.9-56.3,13.2  c-16.6,4.8-35.4,7.5-52.3,0.9C301.9,317.1,298.7,315.5,297,315.3"></path>
<path class="st4" d="M447.8,51.9c-1-0.4-3.1-2.2-4-3l-7.6-5.8c-0.7-0.5-1.5-0.8-1.7-1.7c-0.1-0.6,0-2.7,0-3.4c0.9,0.2,0.2,0,1,0.6  c2.7,2.1,10.6,8.3,12.2,9.3L447.8,51.9z M440,59.2c-6.2-4.6-5.6-3.6-5.4-8.3c0.8,0.3,2.6,1.8,3.4,2.4c1.1,0.9,2.2,1.6,3.3,2.4  l6.5,4.8v4.6L440,59.2z M439.8,72c-1.4-1.1-2.5-2-3.9-3c-0.8-0.6-1.3-0.6-1.4-2c-0.1-0.9,0-2.4,0.1-3.3c0.9,0.3,6.6,5,7.8,5.9  c6.2,4.9,5.4,3.1,5.4,8.5L439.8,72z M447.8,90.8c-0.8,0-0.4,0-1.1-0.6L440,85c-5.9-4.5-5.8-3.8-5.3-8.2c0.7,0.2,6.8,4.9,8,5.8  C449,87.5,447.9,85.9,447.8,90.8z M434.6,89.7c0.8,0.3,3,2.2,3.9,2.9c1.3,1,2.5,2,3.9,3.1c6,4.6,5.7,2.8,5.4,8.2  c-0.7,0-10.7-8-11.8-8.8c-0.8-0.6-1.4-0.6-1.5-1.9C434.4,92.5,434.6,90.6,434.6,89.7z M434.6,102.8c0.9,0.2,2.7,1.7,3.5,2.4l6.5,5  c4.1,3.1,3.3,1.4,3.3,7c-0.8-0.2-10-7.5-11.8-8.8C433.7,106.5,434.7,106.2,434.6,102.8z M434.6,115.7c0.8,0.2,1.4,0.8,2,1.3l5.9,4.6  c1.4,1,2.5,2,3.9,3c2,1.6,1.4,1.1,1.4,5.5c-0.7-0.1-10.1-7.4-11.8-8.8C434,119.8,434.5,119.7,434.6,115.7z M434.6,129.3  c0.9,0.3,8.3,6.1,9.9,7.4c0.9,0.7,2.4,2,3.2,2.5l0.1,4.2c-0.8-0.4-9.9-7.6-11.5-8.8C433.9,132.8,434.4,132.9,434.6,129.3z   M434.6,142.1l13.2,10.2l0,3.7c-1.1-0.1-11.2-8.5-13.2-9.7L434.6,142.1z M454.1,186c-0.2-16.5,0-33.2,0-49.7l0-100.6  c-0.2-0.9-3.7-3.4-4.9-4.4l-18.9-15.8c-1-0.8-2.8-2.5-3.7-2.9c0.3,4.7,0.1,19.5,0.1,25.1l-0.2,148.4L454.1,186z"></path>
<path class="st3" d="M392.5,27.5c-0.3,6.1,0,13.2,0,19.4l0,77.7c0,7.3-1.3,4.2,7.3,12.1c0.9,0.8,19.6,18.4,20.3,18.4l0.2-146.6  C419,9,395.8,25.3,392.5,27.5"></path>
<path class="st4" d="M397.4,155.8c-0.1,4.6,0,9.2,0,13.8c0,3.3,0,6.7,0,10c0,1.4,0.2,4-0.2,5.3c0,0.1-0.1,0.2-0.1,0.4L397,186  l-14.2,0.9l0-26.4c0-2,0.4-10.7-0.5-11.9c-0.8-1.2-4-3.4-5.3-4.6c-0.8-0.8-1.8-1.6-2.6-2.4l-28.3-25.4l-4.4,3.9  c-4.6,4.5-9.8,8.4-14.4,12.9c-0.8,0.8-1.6,1.4-2.5,2.2l-10.9,9.7c-1.2,1.1-2.3,2.2-3.5,3.3c-1.1,0.9-1.2,0.6-1.2,2.2l0,53.1  l-14.1-0.1l0-0.9c-0.2-15.5,0.3-31-0.1-46.5l-14.5,0l0.2-1c0.2-1.1,1.4-2,2.2-2.6c0.7-0.6,1.3-1.2,1.9-1.8c0.6-0.6,1.4-1.1,2-1.8  c0.7-0.7,1.3-1.3,2-1.8l12.2-11.1c0.7-0.6,1.3-1.3,2-1.8l32.3-29.3c0.7-0.6,1.3-1.3,1.9-1.9l8.7-7.8l6.9,6.1c3,3.3,6.8,5.9,10,9  l12,11.1c0.7,0.6,1.3,1.2,2,1.8c4.1,3.6,8,7.5,12.2,11c0.7,0.6,1.3,1.3,2,1.8c0.7,0.6,1.4,1.2,2.1,1.9l10.2,9.2  c1.5,1.6,7.5,6.2,7.9,7.7l0.3,1.1L397.4,155.8z"></path>
<path class="st3" d="M363.9,75.1l0.1,22c0,5.4-0.5,3.9,2.8,6.8c0.7,0.6,1.1,1.1,1.7,1.6c2.5,2.1,7.3,6.9,10.1,9.3  c1.2,1,6.1,5.9,6.9,6.2l0-61.8c-1,0.3-9.1,6.7-10.8,7.9C371.2,69.8,367.6,72.5,363.9,75.1"></path>
</svg>
