<?xml version="1.0" encoding="UTF-8"?>
<svg xmlns="http://www.w3.org/2000/svg" xmlns:xlink="http://www.w3.org/1999/xlink" version="1.1" id="Layer_1" x="0px" y="0px" viewBox="0 0 400 170" style="enable-background:new 0 0 400 170;" xml:space="preserve">
<style type="text/css">
	.st0{fill:#333333;}
	.st1{fill:#FFFFFF;}
	.st2{fill:#FFCC00;}
	.st3{fill:#F08242;}
	
		.st4{clip-path:url(#SVGID_00000026165098783549948760000016805218904508786067_);fill-rule:evenodd;clip-rule:evenodd;fill:#FFCC00;}
</style>
<rect class="st0" width="400" height="170"></rect>
<g>
	<path class="st1" d="M124.13,79.11h16.66l11.32-17.15l11.32,17.15h16.98l-20.02-28.92l17.82-25.26h-16.45l-9.43,14.09l-9.54-14.09   H125.8l17.82,25.57L124.13,79.11z M81.89,46.2c0.04-1.08,0.28-2.27,0.7-3.56c0.42-1.31,1.1-2.57,2.03-3.77   c0.93-1.21,2.18-2.2,3.76-2.99c1.57-0.77,3.55-1.19,5.89-1.21c2.39,0,4.38,0.44,5.97,1.31c1.59,0.87,2.86,2.17,3.81,3.88   c0.93,1.71,1.62,3.82,2.06,6.34H81.89z M120.98,55.63c0.21-3.35,0.02-6.6-0.56-9.75c-0.59-3.14-1.57-6.08-2.93-8.79   c-1.38-2.71-3.13-5.08-5.27-7.11c-2.17-2.04-4.7-3.63-7.62-4.79c-2.93-1.15-6.24-1.73-9.92-1.75c-4.12,0.02-7.88,0.75-11.27,2.18   c-3.37,1.43-6.29,3.44-8.73,6.03c-2.45,2.59-4.33,5.61-5.66,9.08c-1.33,3.46-1.99,7.23-2.01,11.32c0.02,4.21,0.65,8.05,1.92,11.53   c1.27,3.48,3.11,6.48,5.5,9.01c2.41,2.53,5.31,4.49,8.72,5.87c3.41,1.38,7.25,2.08,11.53,2.1c4.09,0.02,7.79-0.61,11.09-1.89   c3.3-1.28,6.15-3.25,8.56-5.94c2.39-2.69,4.3-6.17,5.71-10.41h-13.1c-0.33,1.14-1.05,2.25-2.13,3.32c-1.1,1.07-2.46,1.94-4.12,2.62   c-1.64,0.7-3.48,1.07-5.48,1.08c-4.16,0.02-7.35-1.08-9.61-3.32c-2.25-2.25-3.48-5.71-3.7-10.41H120.98z M7.49,79.11h14.88v-28.4   c0-3.65,0.38-6.62,1.19-8.91c0.8-2.29,2.06-3.96,3.77-5.03c1.69-1.07,3.88-1.59,6.57-1.57c2.29,0,4.14,0.49,5.55,1.47   c1.4,0.98,2.41,2.46,3.06,4.44c0.63,1.97,0.94,4.44,0.93,7.41v30.6h14.88V45.78c0.02-3.37-0.26-6.41-0.87-9.15   c-0.59-2.72-1.62-5.08-3.09-7.04c-1.47-1.96-3.49-3.48-6.08-4.52c-2.57-1.07-5.83-1.59-9.76-1.61c-2.11,0-4.19,0.33-6.25,0.98   c-2.04,0.66-3.96,1.66-5.73,2.99c-1.78,1.34-3.3,3.02-4.58,5.05h-0.31v-7.55H7.49V79.11z"></path>
	<path class="st2" d="M251.14,4.28h-16.45v46.53c0.03,3.7-0.44,6.74-1.41,9.15c-0.96,2.39-2.59,4.17-4.86,5.34   c-2.27,1.17-5.34,1.75-9.24,1.75c-3.3-0.02-5.97-0.49-8.02-1.38c-2.04-0.91-3.6-2.13-4.68-3.67c-1.07-1.55-1.8-3.28-2.17-5.2   c-0.38-1.94-0.56-3.93-0.54-5.99V4.28h-16.45v46.53c0.02,6.78,1.29,12.38,3.79,16.84c2.5,4.45,6.13,7.77,10.86,9.96   c4.75,2.2,10.48,3.28,17.2,3.28c6.69,0,12.42-1.1,17.19-3.3c4.75-2.2,8.4-5.54,10.93-9.99c2.53-4.45,3.82-10.04,3.84-16.79V4.28z"></path>
	<path class="st3" d="M260.57,54.27c-0.02,3.69,0.52,6.97,1.64,9.85c1.12,2.88,2.69,5.38,4.72,7.49c2.03,2.1,4.38,3.84,7.07,5.22   c2.69,1.36,5.61,2.39,8.73,3.06c3.13,0.66,6.36,1,9.69,1c5.08-0.02,9.57-0.63,13.45-1.82c3.86-1.21,7.11-2.88,9.75-5.03   c2.62-2.17,4.59-4.7,5.92-7.62c1.34-2.9,2.01-6.08,2.01-9.54c-0.02-2.83-0.44-5.29-1.26-7.42c-0.84-2.11-1.92-3.95-3.28-5.47   c-1.36-1.54-2.88-2.83-4.52-3.86c-1.64-1.05-3.3-1.9-4.96-2.57c-1.68-0.66-3.23-1.19-4.65-1.57c-1.43-0.38-2.62-0.7-3.55-0.91   c-3.74-0.96-6.92-1.78-9.52-2.48c-2.62-0.7-4.77-1.35-6.44-1.92c-1.68-0.59-2.97-1.21-3.89-1.83c-0.94-0.63-1.57-1.34-1.94-2.17   c-0.37-0.8-0.54-1.78-0.52-2.92c0.02-1.57,0.37-2.9,1.03-3.98c0.66-1.08,1.55-1.96,2.65-2.62c1.12-0.66,2.32-1.15,3.65-1.45   c1.33-0.3,2.66-0.44,3.98-0.44c2.65-0.04,5.05,0.28,7.21,0.93c2.15,0.65,3.91,1.8,5.24,3.46c1.34,1.64,2.13,3.95,2.32,6.93h15.93   c-0.02-3.46-0.56-6.5-1.62-9.15c-1.05-2.64-2.53-4.91-4.42-6.81c-1.9-1.89-4.1-3.44-6.64-4.63c-2.52-1.2-5.24-2.1-8.17-2.67   c-2.93-0.56-5.97-0.84-9.12-0.84c-2.72,0-5.43,0.3-8.1,0.89c-2.67,0.58-5.2,1.48-7.58,2.67c-2.39,1.19-4.51,2.69-6.34,4.49   c-1.83,1.82-3.28,3.93-4.35,6.36c-1.05,2.43-1.59,5.17-1.61,8.23c0.02,2.79,0.44,5.24,1.26,7.32c0.82,2.1,1.96,3.88,3.41,5.4   c1.45,1.5,3.11,2.78,5,3.84c1.9,1.07,3.93,1.97,6.08,2.73c2.15,0.75,4.35,1.41,6.58,1.99c2.22,0.58,4.4,1.12,6.53,1.64   c2.15,0.51,4.16,1.07,6.04,1.66c1.89,0.58,3.55,1.27,5,2.08c1.43,0.79,2.57,1.75,3.39,2.88c0.82,1.14,1.24,2.5,1.26,4.1   c-0.02,1.52-0.33,2.83-0.96,3.91c-0.63,1.08-1.47,1.97-2.5,2.67c-1.05,0.72-2.22,1.26-3.49,1.66c-1.27,0.4-2.57,0.68-3.88,0.86   c-1.33,0.16-2.57,0.23-3.74,0.23c-2.22,0-4.31-0.24-6.31-0.77c-1.97-0.51-3.74-1.31-5.27-2.41c-1.54-1.1-2.74-2.53-3.63-4.3   c-0.87-1.75-1.33-3.88-1.34-6.36H260.57z"></path>
	<polygon class="st1" points="340.64,165.72 355.52,165.72 355.52,147.06 361.28,141.51 376.16,165.72 394.19,165.72 371.45,131.45    391.88,111.54 374.28,111.54 355.52,131.03 355.52,90.89 340.64,90.89  "></polygon>
	<path class="st1" d="M298.51,165.72h14.88V141.3c-0.02-2.39,0.24-4.65,0.75-6.74c0.52-2.1,1.34-3.95,2.5-5.54   c1.14-1.59,2.65-2.85,4.52-3.74c1.89-0.91,4.17-1.36,6.9-1.38c0.91,0,1.85,0.05,2.83,0.14c0.96,0.09,1.8,0.23,2.52,0.38V110.6   c-0.49-0.16-1.01-0.28-1.59-0.38c-0.58-0.09-1.12-0.14-1.66-0.14c-2.45,0.02-4.8,0.51-7.09,1.47c-2.29,0.98-4.33,2.32-6.11,4.03   c-1.78,1.73-3.14,3.74-4.09,6.03h-0.21v-10.06h-14.15V165.72z"></path>
	<path class="st1" d="M232.8,138.68c0.02,4.31,0.68,8.21,1.99,11.7c1.31,3.49,3.18,6.5,5.64,8.99c2.45,2.5,5.38,4.42,8.82,5.76   c3.42,1.35,7.27,2.03,11.53,2.04c4.28-0.02,8.16-0.7,11.6-2.04c3.44-1.34,6.39-3.27,8.86-5.76c2.45-2.5,4.33-5.5,5.64-8.99   c1.31-3.49,1.97-7.39,1.99-11.7c-0.02-4.33-0.68-8.26-1.99-11.77c-1.31-3.49-3.2-6.51-5.64-9.01c-2.46-2.52-5.41-4.44-8.86-5.78   c-3.44-1.34-7.32-2.03-11.6-2.04c-4.26,0.02-8.1,0.7-11.53,2.04c-3.44,1.34-6.38,3.27-8.82,5.78c-2.46,2.5-4.33,5.52-5.64,9.01   C233.48,130.42,232.82,134.35,232.8,138.68 M247.68,138.68c-0.02-2.2,0.19-4.33,0.63-6.39c0.44-2.06,1.15-3.91,2.15-5.57   c1-1.66,2.34-2.97,4.04-3.95c1.69-0.96,3.79-1.47,6.29-1.48c2.53,0.02,4.65,0.52,6.36,1.48c1.69,0.98,3.06,2.29,4.05,3.95   c1.01,1.66,1.73,3.51,2.17,5.57c0.44,2.06,0.65,4.19,0.63,6.39c0.02,2.17-0.19,4.28-0.63,6.32c-0.44,2.04-1.15,3.89-2.17,5.55   c-1,1.64-2.36,2.95-4.05,3.93c-1.71,0.96-3.82,1.47-6.36,1.48c-2.5-0.02-4.59-0.52-6.29-1.48c-1.69-0.98-3.04-2.29-4.04-3.93   c-1-1.66-1.71-3.51-2.15-5.55C247.87,142.96,247.66,140.85,247.68,138.68z"></path>
	<polygon class="st1" points="228.19,111.54 212.89,111.54 202.93,148.22 202.72,148.22 193.5,111.54 179.04,111.54 170.03,148.32    169.82,148.32 159.86,111.54 144.14,111.54 161.33,165.72 176.74,165.72 185.96,129.35 186.17,129.35 195.81,165.72 211.11,165.72     "></polygon>
	<path class="st3" d="M83.47,138.68c0.02,4.31,0.68,8.21,1.99,11.7c1.31,3.49,3.18,6.5,5.64,8.99c2.45,2.5,5.38,4.42,8.82,5.76   c3.42,1.35,7.27,2.03,11.53,2.04c4.28-0.02,8.16-0.7,11.6-2.04c3.44-1.34,6.39-3.27,8.86-5.76c2.45-2.5,4.33-5.5,5.64-8.99   c1.31-3.49,1.97-7.39,1.99-11.7c-0.02-4.33-0.68-8.26-1.99-11.77c-1.31-3.49-3.2-6.51-5.64-9.01c-2.46-2.52-5.41-4.44-8.86-5.78   c-3.44-1.34-7.32-2.03-11.6-2.04c-4.26,0.02-8.1,0.7-11.53,2.04c-3.44,1.34-6.38,3.27-8.82,5.78c-2.46,2.5-4.33,5.52-5.64,9.01   C84.15,130.42,83.48,134.35,83.47,138.68 M98.35,138.68c-0.02-2.2,0.19-4.33,0.63-6.39c0.44-2.06,1.15-3.91,2.15-5.57   c1-1.66,2.34-2.97,4.03-3.95c1.69-0.96,3.79-1.47,6.29-1.48c2.53,0.02,4.65,0.52,6.36,1.48c1.69,0.98,3.06,2.29,4.05,3.95   c1.01,1.66,1.73,3.51,2.17,5.57c0.44,2.06,0.65,4.19,0.63,6.39c0.02,2.17-0.19,4.28-0.63,6.32c-0.44,2.04-1.15,3.89-2.17,5.55   c-1,1.64-2.36,2.95-4.05,3.93c-1.71,0.96-3.82,1.47-6.36,1.48c-2.5-0.02-4.59-0.52-6.29-1.48c-1.69-0.98-3.04-2.29-4.03-3.93   c-1-1.66-1.71-3.51-2.15-5.55C98.54,142.96,98.33,140.85,98.35,138.68z"></path>
	<g>
		<defs>
			<path id="SVGID_1_" d="M83.47,138.68c0.02,4.31,0.68,8.21,1.99,11.7c1.31,3.49,3.18,6.5,5.64,8.99c2.45,2.5,5.38,4.42,8.82,5.76     c3.42,1.35,7.27,2.03,11.53,2.04c4.28-0.02,8.16-0.7,11.6-2.04c3.44-1.34,6.39-3.27,8.86-5.76c2.45-2.5,4.33-5.5,5.64-8.99     c1.31-3.49,1.97-7.39,1.99-11.7c-0.02-4.33-0.68-8.26-1.99-11.77c-1.31-3.49-3.2-6.51-5.64-9.01c-2.46-2.52-5.41-4.44-8.86-5.78     c-3.44-1.34-7.32-2.03-11.6-2.04c-4.26,0.02-8.1,0.7-11.53,2.04c-3.44,1.34-6.38,3.27-8.82,5.78c-2.46,2.5-4.33,5.52-5.64,9.01     C84.15,130.42,83.48,134.35,83.47,138.68 M98.35,138.68c-0.02-2.2,0.19-4.33,0.63-6.39c0.44-2.06,1.15-3.91,2.15-5.57     c1-1.66,2.34-2.97,4.03-3.95c1.69-0.96,3.79-1.47,6.29-1.48c2.53,0.02,4.65,0.52,6.36,1.48c1.69,0.98,3.06,2.29,4.05,3.95     c1.01,1.66,1.73,3.51,2.17,5.57c0.44,2.06,0.65,4.19,0.63,6.39c0.02,2.17-0.19,4.28-0.63,6.32c-0.44,2.04-1.15,3.89-2.17,5.55     c-1,1.64-2.36,2.95-4.05,3.93c-1.71,0.96-3.82,1.47-6.36,1.48c-2.5-0.02-4.59-0.52-6.29-1.48c-1.69-0.98-3.04-2.29-4.03-3.93     c-1-1.66-1.71-3.51-2.15-5.55C98.54,142.96,98.33,140.85,98.35,138.68z"></path>
		</defs>
		<clipPath id="SVGID_00000130646592442764158320000012947650396496627371_">
			<use xlink:href="#SVGID_1_" style="overflow:visible;"></use>
		</clipPath>
		
			<path style="clip-path:url(#SVGID_00000130646592442764158320000012947650396496627371_);fill-rule:evenodd;clip-rule:evenodd;fill:#FFCC00;" d="    M94.77,91.97c13.81,0,25,11.19,25,25c0,13.81-11.19,25-25,25c-13.81,0-25-11.19-25-25C69.77,103.17,80.96,91.97,94.77,91.97"></path>
	</g>
	<path class="st1" d="M74.87,116.04c-0.52-4.33-1.71-8.16-3.56-11.51c-1.87-3.34-4.24-6.15-7.16-8.44c-2.9-2.31-6.18-4.03-9.85-5.21   c-3.67-1.19-7.56-1.78-11.7-1.78c-4.65,0.02-8.87,0.68-12.72,1.97c-3.84,1.31-7.25,3.14-10.24,5.54c-2.99,2.38-5.5,5.22-7.56,8.49   c-2.04,3.28-3.6,6.9-4.66,10.86c-1.07,3.96-1.61,8.19-1.61,12.65c0,4.33,0.54,8.45,1.61,12.33c1.07,3.9,2.62,7.44,4.66,10.67   c2.06,3.25,4.58,6.04,7.56,8.4c2.99,2.38,6.39,4.21,10.24,5.5c3.84,1.29,8.07,1.96,12.72,1.97c4.59-0.02,8.82-0.73,12.65-2.17   c3.83-1.41,7.18-3.48,10.06-6.15c2.86-2.67,5.19-5.89,6.93-9.64c1.75-3.76,2.83-7.96,3.27-12.65H59.57   c-0.42,3.3-1.33,6.22-2.72,8.73c-1.4,2.5-3.28,4.47-5.66,5.87c-2.38,1.41-5.24,2.15-8.59,2.17c-2.95-0.02-5.55-0.49-7.79-1.41   c-2.24-0.91-4.16-2.18-5.75-3.81c-1.59-1.62-2.9-3.49-3.89-5.62c-1-2.11-1.73-4.38-2.2-6.81c-0.47-2.41-0.7-4.87-0.7-7.39   c0-2.64,0.23-5.21,0.7-7.7c0.47-2.5,1.21-4.84,2.2-7c1-2.17,2.31-4.07,3.89-5.71c1.59-1.64,3.51-2.92,5.75-3.84   c2.24-0.93,4.84-1.4,7.79-1.41c2.06,0,4,0.35,5.85,1c1.85,0.66,3.51,1.57,5,2.76c1.48,1.19,2.69,2.57,3.65,4.16   c0.96,1.59,1.57,3.32,1.85,5.19H74.87z"></path>
</g>
</svg>
