<?xml version="1.0" encoding="UTF-8"?>
<svg xmlns="http://www.w3.org/2000/svg" xmlns:xlink="http://www.w3.org/1999/xlink" id="Layer_1" version="1.1" viewBox="0 0 740 740">
  <defs>
    <style>
      .st0 {
        fill: url(#linear-gradient2);
      }

      .st1 {
        fill: url(#linear-gradient1);
      }

      .st2 {
        fill: #d23d80;
      }

      .st3 {
        fill: url(#linear-gradient);
      }

      .st4 {
        fill: #5b4694;
      }
    </style>
    <linearGradient id="linear-gradient" x1="369.1" y1="339.2" x2="371.9" y2="430.9" gradientUnits="userSpaceOnUse">
      <stop offset="0" stop-color="#db6747"></stop>
      <stop offset="1" stop-color="#d23d80"></stop>
    </linearGradient>
    <linearGradient id="linear-gradient1" x1="372.8" y1="339.3" x2="372.8" y2="339.3" gradientUnits="userSpaceOnUse">
      <stop offset="0" stop-color="#5b4694"></stop>
      <stop offset=".5" stop-color="#d23d80"></stop>
      <stop offset="1" stop-color="#db6747"></stop>
    </linearGradient>
    <linearGradient id="linear-gradient2" x1="362.4" y1="-20.1" x2="372.5" y2="301.8" gradientUnits="userSpaceOnUse">
      <stop offset="0" stop-color="#d23d80"></stop>
      <stop offset="1" stop-color="#5b4694"></stop>
    </linearGradient>
  </defs>
  <g>
    <g>
      <g>
        <path class="st4" d="M48.9,478.9h54.5c31.4,0,59.8,11,59.8,46.9s-30.5,48.1-64.8,48.1h-20.6v67.1h-28.9v-162.1ZM95.2,549.2c16.5,0,37.8-.9,37.8-22.9s-19-22.7-34.6-22.7h-20.6v45.6h17.4Z"></path>
        <path class="st4" d="M81.4,644.8h-36.2v-169.5h58.2c40.9,0,63.5,18,63.5,50.6s-36.6,51.8-68.5,51.8h-16.9v67.1ZM52.6,637.4h21.5v-67.1h24.3c43.4,0,61.1-12.9,61.1-44.4s-30.5-43.3-56.1-43.3h-50.8v154.8ZM95.2,552.9h-21.1v-52.9h24.3c9.5,0,38.3,0,38.3,26.4s-27,26.6-41.5,26.6ZM81.4,545.6h13.7c21.6,0,34.1-3.1,34.1-19.2s-9.5-19-30.9-19h-16.9v38.2Z"></path>
      </g>
      <g>
        <path class="st4" d="M224.3,478.9h25l69.8,162.1h-33l-15.1-37.1h-70.3l-14.7,37.1h-32.3l70.5-162.1ZM261,579.2l-25-66-25.4,66h50.4Z"></path>
        <path class="st4" d="M324.7,644.8h-41.1l-15.1-37.1h-65.3l-14.7,37.1h-40.4l73.7-169.5h29.8l73,169.5ZM288.6,637.4h24.9l-66.7-154.8h-20.1l-67.3,154.8h24.2l14.7-37.1h75.3l15.1,37.1ZM266.3,582.9h-61.1l30.8-80,30.3,80ZM216,575.6h39.7l-19.7-51.9-20,51.9Z"></path>
      </g>
      <g>
        <path class="st4" d="M349.4,505h-49.7v-26.1h128.2v26.1h-49.7v136h-28.9v-136Z"></path>
        <path class="st4" d="M381.9,644.8h-36.2v-136h-49.7v-33.5h135.6v33.5h-49.7v136ZM353,637.4h21.5v-136h49.7v-18.7h-120.9v18.7h49.7v136Z"></path>
      </g>
      <g>
        <path class="st4" d="M447.6,478.9h107.4v26.1h-78.5v39.8h74.4v26.1h-74.4v44h82.7v26.1h-111.5v-162.1Z"></path>
        <path class="st4" d="M562.8,644.8h-118.9v-169.5h114.8v33.5h-78.5v32.5h74.4v33.5h-74.4v36.6h82.7v33.5ZM451.3,637.4h104.2v-18.7h-82.7v-51.3h74.4v-18.7h-74.4v-47.2h78.5v-18.7h-100v154.8Z"></path>
      </g>
      <g>
        <path class="st4" d="M587.5,478.9h28.9v136h68.9v26.1h-97.8v-162.1Z"></path>
        <path class="st4" d="M689,644.8h-105.2v-169.5h36.2v136h68.9v33.5ZM591.2,637.4h90.4v-18.7h-68.9v-136h-21.5v154.8Z"></path>
      </g>
    </g>
    <g>
      <path class="st2" d="M46,678.5h17.7c9.8,0,19,3.2,19,14.6s-4.3,12.8-11.8,13.8l13.6,22.6h-11l-11.8-21.6h-6.6v21.6h-9.1v-51.1ZM62.2,700.1c5.1,0,11.1-.4,11.1-7.1s-5.6-6.8-10.3-6.8h-7.9v13.8h7.1Z"></path>
      <path class="st2" d="M133.7,690.4c-3.8-4-7.2-5-10.7-5-10.5,0-17.5,8.1-17.5,18.2s7,19,17.5,19,8.1-1.9,11.5-6.2l7.5,5.3c-4.6,6.3-11.5,9.1-19,9.1-15.7,0-27-10.7-27-26.6s11.3-27,27-27,12.8,2.2,17.9,8.1l-7.1,5.2Z"></path>
      <path class="st2" d="M155.5,678.5h13.8l13.6,35.8,13.8-35.8h13.7v51.1h-8.7v-42.4h-.1l-15.5,42.4h-6.3l-15.5-42.4h-.1v42.4h-8.7v-51.1Z"></path>
      <path class="st2" d="M274.4,678.5h7.9l22,51.1h-10.4l-4.8-11.7h-22.1l-4.6,11.7h-10.2l22.2-51.1ZM285.9,710.1l-7.9-20.8-8,20.8h15.9Z"></path>
      <path class="st2" d="M317.2,678.5h12l24.7,37.9h.1v-37.9h9.1v51.1h-11.5l-25.2-39.2h-.1v39.2h-9.1v-51.1Z"></path>
      <path class="st2" d="M398.3,678.5h7.9l22,51.1h-10.4l-4.8-11.7h-22.1l-4.6,11.7h-10.2l22.2-51.1ZM409.8,710.1l-7.9-20.8-8,20.8h15.9Z"></path>
      <path class="st2" d="M441.1,678.5h9.1v42.8h21.7v8.2h-30.8v-51.1Z"></path>
      <path class="st2" d="M490.2,707.7l-19.2-29.2h11.4l12.5,20.3,12.7-20.3h10.8l-19.2,29.2v21.9h-9.1v-21.9Z"></path>
      <path class="st2" d="M540.8,686.7h-15.7v-8.2h40.4v8.2h-15.7v42.8h-9.1v-42.8Z"></path>
      <path class="st2" d="M578.7,678.5h9.1v51.1h-9.1v-51.1Z"></path>
      <path class="st2" d="M641.3,690.4c-3.8-4-7.2-5-10.7-5-10.5,0-17.5,8.1-17.5,18.2s7,19,17.5,19,8.1-1.9,11.5-6.2l7.5,5.3c-4.6,6.3-11.5,9.1-19,9.1-15.7,0-27-10.7-27-26.6s11.3-27,27-27,12.8,2.2,17.9,8.1l-7.1,5.2Z"></path>
      <path class="st2" d="M687.9,689.4c-1.9-2.7-5.4-4-8.9-4s-8.4,1.9-8.4,6.6c0,10.2,24.2,4.4,24.2,22.6s-8.7,16.3-18.7,16.3-12.5-1.9-16.7-6.9l6.9-6.6c2.2,3.4,6.1,5.3,10.1,5.3s8.9-2.3,8.9-7c0-11.2-24.2-4.8-24.2-23s9.4-15.4,18.8-15.4,10.7,1.5,14.6,5.3l-6.6,7Z"></path>
    </g>
  </g>
  <g>
    <path class="st3" d="M492.1,371.4s-4.1,2.9-6.3,4.2c-25.5,14.7-50.9,29.6-76.5,44.1-26.6,15-53.2,15-79.8-.3-26.7-15.5-53.6-30.8-80.3-46.2-.4-.2-.8-.5-1.1-1.1,7.7,0,15.1,0,22.6-.5,37.1-2,70.8-13.4,101.3-32.4,0,0,43.2,33.7,113.6,32.5h0c2.1,0,4.3,0,6.5-.2Z"></path>
    <path class="st1" d="M372.8,339.3s0,0,0,0c0,0,0,0,0,0"></path>
    <path class="st0" d="M354.6,128.7c4.4-5.7,8.8-11.3,14-16.2,19.4-18.4,42.5-25.8,68.8-20.7,35.9,7,63.1,40.2,63.7,76.8.3,22-6.4,42-19.1,59.8-24.3,34.1-51.7,65.5-84.2,92,1.8,1.2,3.7,2.3,5.5,3.4,12.7,7.1,28.2,10.3,42,15,0,0,0,0,0,0,23.1,4.9,46.3,5.1,69.6.4,20.8-4.2,38.1-19.1,44.7-39.2,1.3-3.9,2.1-7.9,2.1-11.6.5-47.6.5-95.3,0-142.9-.2-22-10.1-39.8-27.9-52.8-8.8-6.4-18.8-11-28.2-16.5-32.9-19.1-65.7-38.5-98.9-57.2s-51-13-73.9,0c-41,23.1-81.6,46.7-122.1,70.5-21.3,12.5-32.6,31.6-32.8,56.2-.4,47.8-.2,95.6-.2,143.3,0,.2,0,.3,0,.5.1,22.8,16,42.5,38.2,48,36.7,9,73.3,6.7,109.6-8.3,29.7-12.2,54.8-31.2,77.2-54.2,12.6-13,25.1-26,36.5-40,9.3-11.4,18.5-22.9,25.1-36.2,6.2-12.6,8.8-25.5,6-39.2-5.4-26.6-31.4-44.1-57.9-38.9-12.9,2.5-21.1,11.3-30,20.6-12.1,12.7-28-12.4-28-12.4ZM354.8,195.9c0-6.4,0-12.8,0-19.1,0-5.1,2.5-7.5,7.6-7.5,4.8,0,9.7-.1,14.5.1,5.7.3,7.7,2.5,7.7,8.2,0,6.2,0,12.5,0,18.7,0,4.5,1.9,6.5,6.4,6.6,6.4,0,12.8,0,19.1,0,5.5,0,7.6,2.2,7.6,7.6,0,4.8.1,9.7,0,14.5,0,4.8-2.4,7.1-7.2,7.1-6.4,0-12.8,0-19.1,0-5.1,0-6.9,2-6.9,7.2,0,3.1,0,6.2,0,9.3,0,0,0,0,0,0,0,3.3,0,6.5,0,9.8,0,4.3-2.3,6.8-6.5,6.9-5.6.1-11.2,0-16.8,0-4.1,0-6.5-2.6-6.6-6.8,0-6.7-.1-13.4,0-20.1,0-4.3-1.9-6.3-6.2-6.3-6.5,0-13.1,0-19.6,0-5.7,0-7.2-1.5-7.2-7.2,0-5.1,0-10.3,0-15.4,0-4.9,1.6-6.5,6.8-6.6,6.4-.1,12.8,0,19.1,0,5.3,0,6.9-1.7,6.9-7ZM343.4,123.7c-1.3,1.7-2.7,1.3-4.5.5-6.3-2.8-12.8-4.6-19.8-4.8-23.6-.5-43.6,16.5-49.5,37.6-.6,2.1-1.2,4.1-1.9,6.2-1.4,23.9,9.8,42.8,23.7,60.7,20.5,26.3,43,50.7,68.9,72.4-3,3.5-7.1,5.5-10.7,7.9-3.9,2.6-8,4.9-11.8,7.5-2.2,1.5-3.8,1.2-5.8-.5-18.9-16.1-35.9-34-51.8-53-9.3-11.1-18.1-22.6-26.1-34.6-3.6-5.4-6.5-11.3-8.5-17.5-12.9-34.9-8.7-66.6,18.1-93.7,27.3-27.6,70.9-28.4,97.3-8.3-5.9,6.5-11.5,12-17.5,19.6Z"></path>
  </g>
</svg>
