<svg xmlns="http://www.w3.org/2000/svg" id="Layer_24" viewBox="0 0 992.13 992.13"><defs><style>      .st0, .st1 {        fill: none;      }      .st2 {        fill: #fc0;      }      .st3 {        fill: #df9d00;      }      .st4 {        fill: #f3ac00;      }      .st1 {        stroke: #033c59;        stroke-miterlimit: 10;        stroke-width: 4px;      }      .st5 {        fill: #033c59;      }    </style></defs><g><polygon class="st5" points="500.26 37.45 25.48 847.19 966.64 848.63 500.26 37.45"></polygon><g><g id="Shape_1"><polygon class="st2" points="483.25 597.67 175.57 597.67 288.14 798.41 55.5 796.53 25.48 847.19 625.27 846.26 483.25 597.67"></polygon></g><g id="Shape_11" data-name="Shape_1"><polygon class="st2" points="663.9 328.1 517.26 580.14 671.28 846.9 788.26 648.03 901.19 847.32 960.96 847.03 663.9 328.1"></polygon></g><g id="Shape_12" data-name="Shape_1"><polygon class="st2" points="407.6 295.82 527.28 89.94 499.91 42.54 197 562.98 488.77 562.98 645.3 295.05 407.6 295.82"></polygon></g><g><g id="Shape_2"><polygon class="st4" points="378.96 346.21 286.26 507.38 566.88 346.37 378.96 346.21"></polygon></g><g id="Shape_2_copy"><polygon class="st3" points="286.26 507.38 474.18 507.38 566.88 346.37 286.26 507.38"></polygon></g></g><line class="st0" x1="645.3" y1="295.06" x2="584.29" y2="295.06"></line><g><g id="Shape_21" data-name="Shape_2"><polygon class="st3" points="442.93 636.77 255.01 636.93 535.63 797.94 442.93 636.77"></polygon></g><g id="Shape_2_copy1" data-name="Shape_2_copy"><polygon class="st4" points="255.01 636.93 347.71 797.94 535.63 797.94 255.01 636.93"></polygon></g></g><g id="Polygon_2"><polygon class="st2" points="170.96 686.19 134.86 748.51 206.88 748.41 170.96 686.19"></polygon></g><g id="Polygon_2_copy"><polygon class="st2" points="783.45 728.27 747.35 790.59 819.37 790.49 783.45 728.27"></polygon></g><g id="Polygon_2_copy_2"><polygon class="st2" points="528.3 188.65 492.2 250.97 564.22 250.87 528.3 188.65"></polygon></g><g><g id="Shape_22" data-name="Shape_2"><polygon class="st4" points="666.07 435.9 666.41 759.43 759.91 598.72 666.07 435.9"></polygon></g><g id="Shape_2_copy2" data-name="Shape_2_copy"><polygon class="st3" points="666.07 435.9 572.72 596.53 666.41 759.43 666.07 435.9"></polygon></g></g></g><polygon class="st1" points="500.26 37.45 25.48 847.19 966.64 848.63 500.26 37.45"></polygon></g><g><path class="st5" d="M34.25,889.52h24.34c17.43,0,18.15,7.51,15.22,16.08-3.4,9.92-14.12,14.87-24.86,14.87h-5.71l-4,11.64h4.58l-3.4,9.92h-24.19l3.4-9.92h4.21l11.24-32.75h-4.21l3.38-9.84ZM50.5,899.28l-4.49,13.07h3.38c4.36,0,8.13-2.25,9.5-6.24,1.52-4.43-.28-6.84-4.64-6.84h-3.76Z"></path><path class="st5" d="M82.32,889.52h24.94l-3.4,9.92h-4.66l-11.19,32.6h4.66l-3.43,9.99h-24.94l3.43-9.99h4.73l11.19-32.6h-4.73l3.4-9.92Z"></path><path class="st5" d="M165.23,899.21h-4.96l-14.69,42.82h-16.15l-9.33-28.62-6.5,18.93h5.78l-3.33,9.69h-23.06l3.33-9.69h4.43l11.37-33.13h-4.36l3.33-9.69h21.56l9.02,27.57,6.06-17.88h-5.11l3.33-9.69h22.61l-3.33,9.69Z"></path><path class="st5" d="M213.11,942.03h-30.12l3.38-9.84h7.14l.17-5.11h-15.4l-3.33,5.11h5.86l-3.38,9.84h-23.89l3.38-9.84h5.11l21.46-32.98h-3.08l3.33-9.69h28.85l-1.35,42.67h5.26l-3.38,9.84ZM184.15,918.06h9.84l.61-16.23-10.45,16.23Z"></path><path class="st5" d="M254.47,899.21h-4.06l-4.2,12.24,18.17-12.24h-5.41l3.33-9.69h25.01l-3.33,9.69h-4.36l-14.11,9.39,7.05,23.66h4.36l-3.35,9.77h-29.3l3.35-9.77h5.11l-3.73-12.77-7.18,4.73-2.76,8.04h4.06l-3.35,9.77h-23.66l3.35-9.77h4.06l11.34-33.05h-4.06l3.33-9.69h23.66l-3.33,9.69Z"></path><path class="st5" d="M315.68,899.21h-4.06l-4.2,12.24,18.17-12.24h-5.41l3.33-9.69h25.01l-3.33,9.69h-4.36l-14.11,9.39,7.05,23.66h4.36l-3.35,9.77h-29.3l3.35-9.77h5.11l-3.73-12.77-7.18,4.73-2.76,8.04h4.06l-3.35,9.77h-23.66l3.35-9.77h4.06l11.34-33.05h-4.06l3.33-9.69h23.66l-3.33,9.69Z"></path><path class="st5" d="M357.33,942.03l3.43-9.99h4.66l11.19-32.6h-4.66l3.4-9.92h22.91c18.18,0,24.71,11.19,19.78,25.54-5.88,17.13-19.62,26.97-38.1,26.97h-22.61ZM394.85,899.43h-2.85l-11.19,32.6h2.85c8.01-.15,13.87-7.59,17.09-16.98,2.76-8.04,2.06-15.62-5.91-15.62Z"></path><path class="st5" d="M429.43,889.52h24.94l-3.4,9.92h-4.66l-11.19,32.6h4.66l-3.43,9.99h-24.94l3.43-9.99h4.73l11.19-32.6h-4.73l3.4-9.92Z"></path><path class="st5" d="M476.66,937.29c-2.61,2.78-8.17,5.41-13.95,5.41-13.15,0-20.08-10.22-14.51-26.44,5.62-16.38,20.83-27.64,32.55-27.64,10.89,0,11.69,5.11,12.48,6.31l3.43-5.41h11.19l-7.6,22.16h-13.45c1.86-6.08-.86-9.54-5.29-9.54-6.08,0-12.56,6.61-15.14,14.12-2.63,7.66-.99,13.82,5.55,13.82,4.28,0,6.68-1.73,8.48-3.68l1.08-3.16h-4.58l2.76-8.04h24.94l-2.76,8.04h-3l-6.44,18.78h-15.02l-.7-4.73Z"></path><path class="st5" d="M516.41,889.52h24.94l-3.4,9.92h-4.66l-11.19,32.6h4.66l-3.43,9.99h-24.94l3.43-9.99h4.73l11.19-32.6h-4.73l3.4-9.92Z"></path><path class="st5" d="M594.76,889.52l-6.7,19.53h-11.04l3.3-9.62h-6.31l-11.19,32.6h6.24l-3.43,9.99h-27.94l3.43-9.99h6.16l11.19-32.6h-6.46l-3.3,9.62h-11.04l6.7-19.53h50.4Z"></path><path class="st5" d="M638.56,942.03h-30.12l3.38-9.84h7.14l.17-5.11h-15.4l-3.33,5.11h5.86l-3.38,9.84h-23.89l3.38-9.84h5.11l21.46-32.98h-3.08l3.33-9.69h28.85l-1.35,42.67h5.26l-3.38,9.84ZM609.6,918.06h9.84l.61-16.23-10.45,16.23Z"></path><path class="st5" d="M659.58,889.52h23.74l-3.4,9.92h-3.98l-11.19,32.6h9.69l3.27-9.54h12.62l-6.7,19.53h-42.07l3.43-9.99h4.13l11.19-32.6h-4.13l3.4-9.92Z"></path><path class="st5" d="M771.78,902.74c-1.76,3.38-4.51,8.34-5.63,10.07l-17.92,29.22h-15.7l1.87-29.97c.06-1.28.56-5.56,1.62-9.32h-.3l-10.16,29.6h4.28l-3.33,9.69h-20.36l3.33-9.69h4.06l11.37-33.13h-3.98l3.33-9.69h28.47l-2.05,28.09,16.85-28.09h28.62l-3.33,9.69h-4.13l-11.34,33.05h4.13l-3.35,9.77h-23.74l3.35-9.77h4.28l8.54-25.09,1.52-4.43h-.3Z"></path><path class="st5" d="M799.9,889.52h45.3l-5.7,16.6h-13l2.29-6.69h-12.02l-3.56,10.37h14.27l-3.43,9.99h-14.27l-4.2,12.24h12.02l2.4-6.99h13l-5.83,16.98h-45.3l3.43-9.99h4.73l11.19-32.6h-4.73l3.4-9.92Z"></path><path class="st5" d="M830.93,942.03l3.43-9.99h4.66l11.19-32.6h-4.66l3.4-9.92h22.91c18.18,0,24.71,11.19,19.78,25.54-5.88,17.13-19.62,26.97-38.1,26.97h-22.61ZM868.46,899.43h-2.85l-11.19,32.6h2.85c8.01-.15,13.87-7.59,17.09-16.98,2.76-8.04,2.06-15.62-5.91-15.62Z"></path><path class="st5" d="M903.03,889.52h24.94l-3.4,9.92h-4.66l-11.19,32.6h4.66l-3.43,9.99h-24.94l3.43-9.99h4.73l11.19-32.6h-4.73l3.4-9.92Z"></path><path class="st5" d="M972.52,942.03h-30.12l3.38-9.84h7.14l.17-5.11h-15.4l-3.33,5.11h5.86l-3.38,9.84h-23.89l3.38-9.84h5.11l21.46-32.98h-3.08l3.33-9.69h28.85l-1.35,42.67h5.26l-3.38,9.84ZM943.56,918.06h9.84l.61-16.23-10.45,16.23Z"></path></g><rect class="st5" x="19.39" y="954.68" width="953.35" height="0"></rect></svg>