<?xml version="1.0" encoding="UTF-8"?>
<svg id="Layer_1" xmlns="http://www.w3.org/2000/svg" version="1.1" viewBox="0 0 700 240">
  <!-- Generator: Adobe Illustrator 29.1.0, SVG Export Plug-In . SVG Version: 2.1.0 Build 142)  -->
  <defs>
    <style>
      .st0 {
        fill: #577371;
      }

      .st1 {
        fill: #5c8e54;
      }

      .st2 {
        fill: none;
        stroke: #577371;
        stroke-miterlimit: 22.9;
        stroke-width: 2.6px;
      }
    </style>
  </defs>
  <path class="st1" d="M183.1,157.4C143.5,52.5,42.8,27.5,42.8,27.5c4.6.2,114.5,5,140.2,129.9"/>
  <path class="st1" d="M190.4,147.4l.2-.3c83.4-31.6,74.5-108.1,74.1-111.2,0,0,0,0,0,0h0s0,0,0,0l-.4-.3c-67.4,13.2-79.9,60.7-80.2,61.9,0,0,0-.1,0-.2.1-.9.2-1.7.4-2.6,0-.6.2-1.1.3-1.7.1-.7.3-1.4.4-2.1l.3-1.2c0-.4.2-.8.3-1.2,0-.4.2-.8.3-1.2.1-.4.2-.8.3-1.2,0-.4.2-.7.3-1.1,0-.2.1-.4.2-.7.1-.4.2-.8.3-1.1.3-1,.6-1.9.9-2.8.1-.4.3-.7.4-1.1.1-.4.3-.7.4-1.1.3-.7.6-1.5.9-2.2.2-.4.3-.7.5-1.1,0-.2.2-.4.2-.5,0-.2.2-.4.2-.5.4-.8.7-1.6,1.1-2.3.2-.3.3-.7.5-1,.2-.4.4-.8.6-1.2.4-.8.9-1.6,1.3-2.3.2-.4.4-.8.7-1.1.1-.2.2-.4.4-.6,0,0,0,0,0-.1.8-1.3,1.7-2.6,2.5-3.8.4-.6.8-1.1,1.2-1.7.3-.4.6-.9,1-1.3.1-.1.2-.3.3-.4.4-.5.8-1,1.2-1.5h0c.4-.5.8-1,1.2-1.5,0,0,0,0,0-.1.4-.5.9-1,1.3-1.5.4-.4.7-.8,1.1-1.2.1-.2.3-.4.5-.5.3-.4.7-.7,1-1.1,0,0,.2-.2.3-.3.4-.4.9-.9,1.3-1.3,0,0,0,0,0,0,.4-.4.8-.7,1.1-1.1.2-.2.5-.4.7-.7.4-.4.8-.7,1.2-1.1.4-.4.9-.8,1.3-1.1.4-.4.9-.8,1.3-1.1.2-.1.4-.3.6-.4.3-.3.7-.5,1-.8,1.8-1.4,3.6-2.7,5.4-4,.3-.2.7-.5,1-.7,2.9-2,5.9-3.8,8.8-5.4.4-.2.7-.4,1.1-.6,1.2-.7,2.4-1.3,3.6-1.9.5-.2,1-.5,1.4-.7,1.4-.7,2.9-1.4,4.3-2,.5-.2.9-.4,1.3-.6.3-.2.7-.3,1-.4.4-.2.8-.4,1.3-.5.7-.3,1.3-.6,2-.8.5-.2,1.1-.4,1.6-.6.5-.2,1.1-.4,1.6-.6.5-.2,1-.4,1.5-.6.5-.2,1-.4,1.5-.6.5-.2,1-.4,1.5-.5,0,0,.2,0,.2,0,1.4-.5,2.8-.9,4.1-1.3h0c.5-.1.9-.3,1.4-.4,1-.3,1.9-.6,2.8-.8.4-.1.7-.2,1.1-.3,1.6-.5,3.2-.9,4.6-1.2.2,0,.4,0,.6-.1.5-.1.9-.2,1.4-.3.3,0,.6-.1.9-.2.9-.2,1.7-.4,2.4-.5.2,0,.5,0,.7-.1,1.3-.3,2.2-.4,2.7-.5h0c.1.6.4,1.7.7,3.4,0,.2.1.5.1.8.4,2.1.9,4.8,1.3,8.1.1.8.2,1.7.3,2.5,0,.4.1.9.2,1.3,0,.9.2,1.8.3,2.8.4,3.9.6,8.2.7,12.8,0,.6,0,1.2,0,1.7,0,1.2,0,2.4,0,3.6,0,.6,0,1.2,0,1.8h0c-.1,2.8-.3,5.8-.6,8.7,0,.4,0,.9-.1,1.3-.2,1.5-.3,3-.6,4.5,0,.4-.1.8-.2,1.3-.4,2.4-.8,4.8-1.4,7.3h0c-.3,1.3-.6,2.7-1,4-.3,1.2-.7,2.5-1,3.7-.4,1.2-.8,2.5-1.2,3.7-.1.3-.2.7-.4,1-2.6,7.4-6.3,14.6-11.2,21.4-.5.7-1,1.3-1.5,2-.5.7-1,1.3-1.5,1.9-.3.3-.5.6-.8.9-.5.6-1.1,1.3-1.7,1.9-.3.3-.6.6-.9.9-.3.3-.5.5-.8.8l-2.4,2.4c-.3.3-.6.5-.8.8-.3.3-.6.5-.9.8-.3.3-.6.5-.9.8-.9.8-1.8,1.5-2.7,2.2-.9.7-1.9,1.5-2.9,2.2-.4.3-.7.5-1.1.8-.3.2-.6.4-.9.6-.3.2-.7.5-1,.7-.3.2-.7.4-1,.7-.7.4-1.4.9-2.1,1.3-.4.2-.7.4-1.1.6t0,0c-12.3,7-28.1,12-48.2,13.7"/>
  <path class="st1" d="M42.7,27.5l-.5.6c3,91.3,58.9,122.3,67.9,126.8,0,0,.2,0,.3,0,0,0,.1,0,.2,0h-.3c.6.3.9.4,1,.5,0,0-.2,0-.2,0-.5-.1-.9-.3-1.4-.4-6.9,0-51.6,2-81.9,58.5l.2.5h0s0,0,0,0c0,0,0,0,0,0,2.7,1.2,63.5,28,116-24.3C88.4,269.8,6.4,221.2,5,220.4h0c.2-.4.6-1.3,1.3-2.4,0-.2.2-.4.3-.6.4-.7.8-1.4,1.2-2.2.2-.3.3-.5.5-.8.2-.4.5-.8.7-1.2.1-.2.2-.4.3-.5.8-1.2,1.6-2.6,2.5-4,.2-.3.4-.6.6-.9.5-.8,1-1.6,1.6-2.4.3-.4.5-.8.8-1.2h0c.8-1.1,1.6-2.3,2.5-3.5,0,0,0-.1.1-.2.3-.4.6-.8.9-1.3.3-.4.7-.9,1-1.3.3-.4.7-.9,1-1.3.3-.4.7-.9,1.1-1.3.4-.4.7-.9,1.1-1.3.4-.5.9-1.1,1.4-1.7.3-.4.6-.7.9-1,.2-.3.4-.6.7-.8.3-.4.6-.7,1-1.1,1-1.2,2.1-2.4,3.2-3.5.4-.4.7-.8,1.1-1.1.9-1,1.9-2,2.9-2.9.3-.3.6-.6.9-.9,2.4-2.3,5-4.6,7.8-6.8.3-.2.6-.5,1-.8,1.8-1.4,3.6-2.7,5.4-4,.4-.2.7-.5,1.1-.7.2-.1.4-.3.6-.4.5-.3,1-.6,1.5-.9.5-.3,1-.6,1.5-.9.5-.3.9-.6,1.4-.9.3-.2.6-.3.9-.5.4-.3.9-.5,1.4-.8,0,0,0,0,0,0,.5-.3,1.1-.6,1.6-.9,0,0,.2-.1.3-.2.4-.2.9-.5,1.3-.7.2-.1.4-.2.6-.3.5-.2,1-.5,1.5-.7.6-.3,1.2-.6,1.8-.8,0,0,0,0,.1,0,.6-.2,1.2-.5,1.8-.7h0c.6-.2,1.2-.5,1.8-.7.2,0,.4-.1.5-.2.5-.2,1-.4,1.5-.6.7-.2,1.3-.5,2-.7,1.4-.5,2.9-.9,4.4-1.3,0,0,0,0,.1,0,.2,0,.4-.1.7-.2.4-.1.9-.2,1.3-.3.9-.2,1.7-.4,2.6-.6.4,0,.9-.2,1.3-.3.4,0,.7-.1,1.1-.2.8-.1,1.7-.3,2.5-.4.2,0,.4,0,.6,0,.2,0,.4,0,.6,0,.4,0,.8,0,1.1-.1.8,0,1.6-.1,2.3-.2.4,0,.8,0,1.2,0,.4,0,.8,0,1.2,0,1,0,2,0,3,0s.8,0,1.2,0c.2,0,.4,0,.7,0,.4,0,.8,0,1.2,0,.4,0,.8,0,1.2,0,.4,0,.9,0,1.3,0,.4,0,.8,0,1.2,0h1.2c.7.2,1.4.3,2.1.3.6,0,1.1.2,1.7.2.3,0,.6,0,.9.1-.4-.1-.8-.2-1.2-.4-.8-.2-1.6-.5-2.3-.8-.9-.3-1.9-.7-2.8-1l-1.7-.7c-.5-.2-1.1-.4-1.6-.7-.6-.2-1.1-.5-1.7-.7-.5-.2-1.1-.5-1.6-.7-.5-.2-1-.5-1.5-.7-.3-.1-.6-.3-.9-.4-.5-.2-1-.5-1.5-.7-1.3-.6-2.5-1.3-3.8-2-.5-.3-1-.5-1.5-.8-.5-.3-1-.6-1.5-.8-1-.6-1.9-1.1-2.9-1.7-.4-.3-.9-.6-1.4-.9-.2-.2-.4-.3-.7-.4-.2-.2-.5-.3-.7-.4-1-.7-2-1.4-3-2.1-.4-.3-.9-.6-1.3-.9-.5-.4-1.1-.8-1.6-1.2-1-.8-2-1.6-3-2.4-.5-.4-1-.8-1.5-1.2-.3-.2-.5-.4-.8-.7,0,0-.1,0-.2-.1-1.6-1.4-3.3-2.9-4.8-4.4-.7-.7-1.4-1.4-2.1-2.1-.5-.6-1.1-1.1-1.6-1.7-.2-.2-.4-.4-.5-.6-.6-.7-1.3-1.4-1.9-2.1h0c-.6-.7-1.2-1.4-1.8-2.1,0,0,0-.1-.1-.2-.6-.7-1.2-1.5-1.8-2.2-.5-.6-.9-1.2-1.4-1.8-.2-.3-.4-.5-.6-.8-.4-.6-.9-1.1-1.3-1.7-.1-.2-.2-.3-.3-.4-.5-.7-1-1.4-1.5-2.2,0,0,0,0,0,0-.4-.6-.9-1.2-1.3-1.9-.3-.4-.5-.8-.8-1.2-.4-.7-.9-1.3-1.3-2-.4-.7-.9-1.4-1.3-2.1-.4-.7-.9-1.4-1.3-2.1-.2-.3-.3-.6-.5-.9-.3-.5-.6-1.1-.9-1.6-1.6-2.8-3.1-5.7-4.4-8.6-.3-.5-.5-1.1-.7-1.6-2.1-4.6-4-9.1-5.7-13.7-.2-.6-.4-1.1-.6-1.7-.7-1.9-1.3-3.7-1.9-5.6-.2-.7-.5-1.5-.7-2.2-.7-2.2-1.3-4.4-1.9-6.5-.2-.7-.4-1.4-.5-2-.1-.5-.3-1-.4-1.5-.2-.6-.3-1.3-.5-1.9-.2-1-.5-2-.7-3-.2-.8-.4-1.6-.5-2.4-.2-.8-.3-1.6-.5-2.4-.2-.8-.3-1.5-.5-2.3-.2-.8-.3-1.5-.4-2.3-.1-.8-.3-1.5-.4-2.2,0,0,0-.2,0-.3-.4-2.1-.7-4.1-1-6.1h0c0-.7-.2-1.4-.3-2-.2-1.4-.4-2.8-.5-4.1,0-.5-.1-1.1-.2-1.6-.3-2.4-.5-4.7-.7-6.8,0-.3,0-.6,0-.9,0-.7-.1-1.4-.2-2,0-.5,0-.9,0-1.3,0-1.3-.1-2.5-.2-3.5,0-.4,0-.7,0-1,0-1.9,0-3.2,0-3.9h0c.8,0,2.5-.2,4.9-.3.4,0,.7,0,1.1,0,3-.1,7-.1,11.7,0,1.2,0,2.4,0,3.7.1.6,0,1.3,0,1.9,0,1.3,0,2.7.1,4,.2,5.5.4,11.7,1,18.2,2,.8.1,1.6.2,2.5.4,1.7.3,3.3.6,5,.9.9.2,1.7.3,2.6.5h0c4,.8,8.1,1.7,12.2,2.8.6.2,1.2.3,1.8.5,2.1.6,4.2,1.2,6.3,1.8.6.2,1.1.4,1.7.6,3.3,1.1,6.6,2.3,10,3.6h0c1.8.7,3.6,1.5,5.4,2.3,1.7.7,3.4,1.5,5,2.3,1.7.8,3.3,1.7,4.9,2.5.4.2.9.5,1.3.7,9.8,5.4,19.2,12.2,27.6,20.6.8.8,1.6,1.7,2.4,2.5.8.9,1.6,1.7,2.4,2.6.4.4.8.9,1.2,1.3.8.9,1.5,1.8,2.3,2.8.4.5.7.9,1.1,1.4.3.4.6.8,1,1.3,1,1.3,1.9,2.6,2.8,4,.3.5.6.9.9,1.4.3.5.6.9.9,1.4.3.4.6.9.9,1.4.9,1.4,1.7,2.9,2.5,4.4.8,1.5,1.6,3,2.4,4.6.3.6.6,1.2.9,1.8.2.5.4.9.6,1.4.2.5.5,1.1.7,1.6.2.5.5,1.1.7,1.6.5,1.1.9,2.2,1.4,3.3.2.6.4,1.1.6,1.7-.8-1.6-34.1-63.3-132.1-59,0,0,0,0-.1,0h0s0,0,0,0"/>
  <path class="st1" d="M690.9,176.2h-1.5c0-5.4-2.2-9.4-6.5-12-4.1-2.5-9.2-3.8-15.1-3.8s-8.6,1-11.6,3c-3.1,2-4.6,4.4-4.6,7.2s1.2,5.3,3.6,7c2.5,1.9,7.5,4.1,14.9,6.6,6.9,2.4,11.7,4.3,14.5,5.8,3,1.6,5.4,4,7.4,7,2,3.1,3,6.6,3,10.4,0,5.8-2.1,10.4-6.5,13.7,1.6-2.2,2.4-5.3,2.4-9.2s-.9-7-2.6-9.9c-1.8-2.9-4-5.3-6.7-7-2.7-1.8-7.1-3.6-13.2-5.6-9.2-3-15.1-5.6-18-7.7-2.8-2.2-4.2-5.6-4.2-10.2s2.1-9.5,6.4-12.5c4.3-2.9,10.4-4.4,18.2-4.4s11.9.9,19.7,2.8v3.1c.1,1.4.2,3.1.3,5,.1,2.4.2,4.5.2,6.3s0,2.7-.1,4.5M641.6,205.4h1.6c.3,6,2.7,10.9,7.2,14.7,4.4,3.8,9.4,5.7,15.1,5.7s8-1.2,10.7-3.7c2.7-2.5,4.1-5.4,4.1-8.9s-1.3-6.5-4-8.5c-2.6-2-7.6-4.2-15.2-6.6-6-2-10.4-3.7-12.9-5-3-1.5-5.3-3.6-7-6.2-1.8-2.7-2.7-5.6-2.7-9s1.2-7.3,3.7-10.8c-.6,1.8-.8,3.4-.8,4.8,0,3.6.9,6.8,2.6,9.6,1.8,2.8,3.9,5,6.5,6.4,2.6,1.5,7,3.2,13.1,5.1,8,2.4,13.7,5.1,17.3,8,3.4,2.8,5.1,6.6,5.1,11.4s-1.8,9-5.3,12.8c-3.6,3.9-9,5.8-16.1,5.8s-6.9-.5-12-1.6c-4.5-.9-7.8-1.4-10-1.5l-.5-.5c0-.8,0-1.8,0-3.1s-.1-3.8-.4-6.9c-.2-3.1-.3-5.4-.3-7s0-3.7.3-5.1ZM599.1,212.7l-6.2-13h-26.3l-6.6,13s-.1.3-.3.9c0,0-.4.7-1,2-1,2-1.5,4-1.5,6,0,3.5,2,6,5.9,7.5v1.3c-.8,0-2.2-.1-4.1-.4-2.7-.3-5.2-.5-7.4-.5s-4.5.1-7.4.4c-2,.3-3.3.4-4,.4v-1.3c5.1-2.6,9.8-8,14-16.1l23.2-45.1c-1.8-3.6-4.2-6.3-7.3-8.3-3.1-2-6.7-3-10.9-3.2v-1.3h2.5c2.2,0,5.2.1,9,.4,4,.4,6.6.6,7.8.6l35.2,73.4c-4.5,0-10,.4-16.3.9v-1.3c3.5-.6,5.3-2.5,5.3-5.7s-1.1-6-3.5-10.7ZM569.3,194.4h21.1l-10.1-21.2-11,21.2ZM619.2,229.5l-35.2-73.4h6.8c.9,2.4,2.2,5.4,3.9,9,1.9,4,2.9,6.3,3.1,7,.2.4.5.9.6,1.5l16.4,34c5.7,11.8,11.8,19,18.3,21.5v1.3c-6.3-.6-11-.9-14-.9ZM477.7,156.1h23v73.4h-2.1c-3,0-7.5.3-13.6.9v-1.3c3.9-1,6.5-3,8-5.9,1.4-2.9,2.1-7.8,2.1-14.6v-47.6h-17.8c-4.5,0-7.7.9-9.5,2.8-1.9,1.9-3.4,5.4-4.7,10.6h-1.6c0-.6,0-1.3,0-2s0-2.1.3-3.5c.5-5,.8-9.5.8-13.5,2.5.3,5.5.5,9.2.6l5.9.2ZM507.7,229.5h-1.8v-73.4h25.1c4.6,0,9.1-.3,13.6-.8,0,.9,0,2.5-.2,4.8-.1,2.1-.2,4.8-.2,8s-.1,4.1-.3,6.2h-1.7c0-3.8-1-7-2.9-9.5-1.9-2.5-5.8-3.8-11.8-3.8h-15.8v49.9c0,5.7.8,10,2.5,12.9,1.6,2.9,4.1,4.7,7.5,5.4v1.3c-8.2-.6-12.9-.9-14-.9ZM431.9,156.1v73.4c-3.4,0-8.5.3-15.3.9v-1.3c3.6-.9,6.1-3,7.5-6.1,1.4-3.1,2.1-8.6,2.1-16.7v-31.2c0-6-.7-10.5-2.2-13.3-1.4-2.8-3.9-4.6-7.4-5.5v-1.3c5.7.5,10.8.9,15.3,1ZM437.1,229.5v-73.4c5.8,0,10.9-.3,15.4-1v1.3c-2.7.5-5,2-6.8,4.5-1.9,2.5-2.8,7.8-2.8,15.8v33.3c0,7.2,1,12,2.9,14.5,2,2.5,4.2,4,6.7,4.7v1.3c-4.4-.6-9.5-.9-15.4-.9ZM339,229.5h-2v-73.4c2.8,0,5.8-.1,8.9-.4,3.6-.4,6.5-.6,8.8-.6,6.4,0,11.1,2,14.2,5.8,3.1,3.9,4.7,8.7,4.7,14.4,0,9.6-4.1,15.8-12.2,18.6,4,.5,7.5,1.8,10.2,3.6,2.9,2,7.4,6,13.3,12,9.1,9.2,16.5,13.8,22.2,13.8s2.4-.4,3.6-1.2l.3,1.3c-1.9,2.4-4.5,3.6-7.8,3.6s-7.2-1.3-11.1-4c-3.6-2.5-9-7.4-16.2-14.8-8.6-8.9-17.1-13.4-25.2-13.4,5,1.6,11.9,6.9,20.5,16,6.1,6.3,11,10.9,14.7,13.8,3.7,2.9,7.3,4.3,10.7,4.3v.6c-1.6.6-3.1.9-4.7.9-4.5,0-8.4-1.1-11.7-3.5-1.8-1.2-4-3.2-6.7-5.7-2.7-2.6-6-5.9-9.8-10-5.6-6-9.7-10-12.4-12.1-2.9-2.2-5.7-3.7-8.4-4.6v16.5c0,11.1,3.4,17.1,10.1,18.1v1.3c-5.6-.6-10.2-.9-13.8-.9ZM342.8,175.2v15.2c2.7.7,5.7,1,8.9,1,10.5,0,15.7-5.5,15.7-16.4s-5.2-15.3-15.5-15.3-5.9.7-7.8,2c-.8,1.9-1.3,6.4-1.3,13.5ZM331.9,156.1v73.4h-3c-1.2,0-3,.1-5.5.4-2.1.3-4.7.4-7.5.4v-1.3c3-.3,5.5-1.8,7.4-4.4,2-2.6,2.9-7.6,2.9-15.1v-35.9c0-10.1-3.5-15.9-10.3-17.4v-1.3c3,.4,8.3.7,16.1,1ZM374.3,190.3c3-4.8,4.5-10.1,4.5-15.9s-1.8-10.6-5.2-15.9c8,3.4,12,8.8,12,16.1s-3.8,12.6-11.3,15.7ZM296,229.5h-4v-73.4c3.5-.1,6.1-.3,8-.4l7.9-.6v1.3c-2.4.4-4.4,1.5-6.1,3.3-1.6,1.7-2.7,3.9-3.2,6.4-.5,2.4-.7,6.9-.7,13.6v30.7c0,11.5,3.4,17.8,10,18.7v1.3c-6.1-.6-10.1-.9-11.9-.9ZM213.8,155.1l15.6,1v48.4c0,7.2.5,12.3,1.5,15.1,1,3,3.1,5.8,6.3,8.6-2.9-.5-5.5-1.5-7.9-3.3-2.3-1.7-3.9-3.7-4.7-6.1-.7-2.3-1.1-6.1-1.1-11.4v-33.4c0-5.7-.8-9.9-2.3-12.6-1.5-2.7-4-4.4-7.4-5.1v-1.3ZM287,156.1v73.4h-6.5c.5-1.5.7-3.8.8-6.7-7.7,5-15.9,7.6-24.3,7.6s-9.4-1.1-13.1-3.3c-3.7-2.2-6.2-5-7.5-8.4-1.3-3.5-2-8.4-2-14.7v-47.9c4.9,0,10.3-.3,16.2-1v1.3c-2.6.4-4.6,1.4-6.2,3-1.7,1.7-2.7,3.5-3.2,5.6-.5,2.1-.8,5.5-.8,10v1.5c0,0,0,26.7,0,26.7,0,5.9.5,10.2,1.3,12.9.8,2.7,2.7,5,5.7,6.9,3,1.8,6.8,2.7,11.3,2.7,7.2,0,14.8-2.6,22.8-7.9v-40.8c0-5.3-.3-9.1-.8-11.5-.5-2.3-1.5-4.2-3-5.8-1.4-1.5-3.4-2.5-5.9-3.1v-1.3c.3,0,.9,0,2,0,1,0,2.1.2,3.3.3,3.8.3,7.2.5,10.3.6ZM160.2,229.5h-5.1v-73.4c1.2,0,2.1,0,2.7-.1,2.6-.1,5.2-.3,7.7-.6,1.6-.2,3.4-.3,5.4-.3,8.3,0,14.4,2.2,18.3,6.5,3.9,4.4,5.8,9.8,5.8,16.4s-2.1,12-6.4,15.9c-4.2,4-9.8,6-16.6,6s-7.5-.6-11.3-2v12.4c0,6.1.9,10.6,2.6,13.5,1.7,3,4.5,4.7,8.3,5.2v1.3c-2-.3-4.4-.5-7.2-.7h-4.2ZM160.7,177.6v15.2c3.2,1.4,6.7,2,10.3,2,5.9,0,10.3-1.6,13.3-4.9,2.9-3.3,4.4-7.4,4.4-12.3s-1.5-9.3-4.4-12.6c-2.9-3.4-7.5-5-13.7-5s-6,.5-7.5,1.6c-1.5,1.1-2.3,6.5-2.3,16ZM150,156.1v73.4h-2.3c-3,0-7.4.3-13.3.9v-1.3c2.4-.3,4.6-1.6,6.7-4.1,2-2.5,3.1-7.6,3.1-15.4v-34c0-6.5-.7-11-2.2-13.7-1.4-2.7-4-4.5-7.6-5.5v-1.3c6.2.5,11.4.9,15.6,1ZM192.4,197c5.1-5.2,7.6-11.5,7.6-18.7s-2.5-14.3-7.6-19.9c9.4,3.8,14,10.2,14,19.3s-4.7,15.3-14,19.3Z"/>
  <path class="st2" d="M670.7,76.6c-3.9,0-7.8,1-11.5,3-3.7,2-6.6,4.9-8.7,8.6-2.1,3.7-3.1,7.6-3.1,11.7s1,7.9,3.1,11.6c2.1,3.7,4.9,6.6,8.6,8.6,3.7,2.1,7.6,3.1,11.6,3.1s7.9-1,11.6-3.1c3.7-2.1,6.6-4.9,8.6-8.6,2-3.7,3.1-7.5,3.1-11.6s-1-7.9-3.1-11.7c-2.1-3.7-5-6.6-8.7-8.6-3.7-2-7.5-3-11.4-3Z"/>
  <path class="st0" d="M670.4,109.3v-18.7h3.7l4.4,13.3c.4,1.2.7,2.2.9,2.8.2-.7.5-1.7,1-3l4.5-13h3.3v18.7h-2.4v-15.7l-5.5,15.7h-2.2l-5.4-16v16h-2.4ZM659.2,109.3v-16.5h-6.2v-2.2h14.8v2.2h-6.2v16.5h-2.5Z"/>
</svg>