<?xml version="1.0" encoding="UTF-8"?>
<svg xmlns="http://www.w3.org/2000/svg" id="Layer_1" version="1.1" viewBox="0 0 1920 440">
  <defs>
    <style>
      .st0 {
        fill: #5b4b44;
      }

      .st1 {
        fill: #5e6360;
      }

      .st2 {
        fill: #485868;
      }

      .st3 {
        fill: #928b85;
      }
    </style>
  </defs>
  <g>
    <path class="st3" d="M161.8,376v54h124.7v-105.2c-17.4,14.5-38.8,28.2-64.8,38-23,8.6-44.1,12-59.8,13.2Z"></path>
    <path class="st2" d="M26.4,151.1c20.4-17.2,42.5-25.2,65.5-23.6,6.9.5,27.8,1.9,45.5,18,6.8,6.2,22.5,23.4,21.8,48.7-.5,16.7-6.1,29.9-16.9,39.3-11.7,10.2-25.1,12-32.1,12.2l-.9-35.6c2.2,0,6.3-.6,9.5-3.4,4-3.5,4.6-8.8,4.8-13.5.3-10.9-7.8-19.2-10.2-21.5-8.5-7.8-18.8-8.4-23.8-8.8-13.5-.9-27,4.3-40.1,15.3-4.2,3.5-18.1,16.6-22.1,37.4-1.9,9.6-.9,17.1.2,25,2.9,21.9,10.9,41.2,23.9,57.4,6.8,8.5,21.8,24.1,46.1,34,18.1,7.4,33.1,8.2,43.1,8.7,10.1.5,36.9.4,68.6-11.4,62.6-23.5,94.5-74.3,102.8-89.3,15-27.2,23.4-58.4,24.5-90.3-2.2-24-11.6-66.4-47.9-100.9-24.6-23.3-52.3-34.1-75.8-38.8H69.1c-32.6,0-59.1,26.4-59.1,59.1v99.8c6.3-8.6,12.6-14.6,16.4-17.8Z"></path>
    <path class="st0" d="M133.7,376.1c-11.5-.7-29.2-2.6-49.7-11-31.7-12.9-51.4-33.6-60.4-44.7-5.2-6.4-9.6-13.2-13.6-20.3v74.2c0,30.7,24.9,55.6,55.6,55.6h68v-53.8Z"></path>
    <path class="st1" d="M297.1,10.1c5.3,4,10.5,8.4,15.6,13.2,45,42.7,56.3,95.3,58.9,124.5l-.5,16.7c-2.9,32.8-12.5,64.6-28.1,92.9-4.2,7.6-13.5,22.9-28.5,40.1v132.6h58.3c31.5,0,57-25.5,57-57V69.1c0-32.6-26.4-59.1-59.1-59.1h-73.7Z"></path>
  </g>
  <g>
    <path class="st2" d="M676.8,55.2v120.1h-24.1v-78.1l-32.2,78.1h-18.2l-32.3-78.1v78.1h-24.1V55.2h27.4l38.2,89.3,38.2-89.3h27.2Z"></path>
    <path class="st2" d="M700.1,101.6c3.8-7.5,9.1-13.2,15.6-17.2,6.6-4,14-6,22.1-6s13.3,1.4,18.7,4.3c5.3,2.9,9.6,6.5,12.8,10.8v-13.6h24.3v95.3h-24.3v-13.9c-3.1,4.5-7.4,8.2-12.8,11.1-5.5,2.9-11.7,4.4-18.8,4.4s-15.4-2.1-21.9-6.2c-6.6-4.1-11.8-10-15.6-17.5-3.8-7.5-5.8-16.1-5.8-25.9s1.9-18.2,5.8-25.6ZM765.9,112.5c-2.3-4.2-5.4-7.4-9.3-9.6-3.9-2.2-8.1-3.4-12.6-3.4s-8.6,1.1-12.4,3.3c-3.8,2.2-6.8,5.4-9.2,9.6-2.4,4.2-3.5,9.1-3.5,14.9s1.2,10.8,3.5,15c2.4,4.3,5.4,7.6,9.3,9.9,3.8,2.3,7.9,3.4,12.3,3.4s8.7-1.1,12.6-3.3c3.9-2.2,7-5.4,9.3-9.6,2.3-4.2,3.4-9.2,3.4-15s-1.2-10.9-3.4-15.1Z"></path>
    <path class="st2" d="M845.2,99.7v46.1c0,3.2.8,5.5,2.3,7s4.2,2.2,7.8,2.2h11.2v20.3h-15.1c-20.3,0-30.4-9.9-30.4-29.6v-45.9h-11.3v-19.8h11.3v-23.6h24.3v23.6h21.3v19.8h-21.3Z"></path>
    <path class="st2" d="M971.8,134.8h-69.7c.6,6.9,3,12.3,7.2,16.2,4.2,3.9,9.4,5.8,15.6,5.8,8.9,0,15.3-3.8,19.1-11.5h26c-2.8,9.2-8,16.7-15.8,22.6-7.8,5.9-17.4,8.9-28.7,8.9s-17.4-2-24.7-6.1c-7.3-4.1-13-9.8-17-17.3-4.1-7.5-6.1-16.1-6.1-25.8s2-18.5,6-26c4-7.5,9.6-13.2,16.9-17.2,7.2-4,15.5-6,24.9-6s17.2,2,24.3,5.8,12.7,9.4,16.7,16.6c3.9,7.2,5.9,15.4,5.9,24.7s-.2,6.5-.7,9.3ZM947.6,118.6c-.1-6.2-2.4-11.2-6.7-14.9-4.4-3.7-9.7-5.6-16-5.6s-11,1.8-15.1,5.4c-4.1,3.6-6.6,8.6-7.5,15.1h45.2Z"></path>
    <path class="st2" d="M1026.3,82.9c5-2.9,10.7-4.3,17.1-4.3v25.3h-6.4c-7.6,0-13.3,1.8-17.1,5.3-3.8,3.5-5.8,9.7-5.8,18.6v47.5h-24.1v-95.3h24.1v14.8c3.1-5,7.1-9,12.1-11.9Z"></path>
    <path class="st2" d="M1061.2,64.5c-2.8-2.7-4.2-6-4.2-10.1s1.4-7.4,4.2-10.1c2.8-2.7,6.3-4,10.6-4s7.8,1.3,10.6,4c2.8,2.7,4.2,6,4.2,10.1s-1.4,7.4-4.2,10.1c-2.8,2.7-6.3,4-10.6,4s-7.8-1.3-10.6-4ZM1083.6,79.9v95.3h-24.1v-95.3h24.1Z"></path>
    <path class="st2" d="M1106.9,101.6c3.8-7.5,9.1-13.2,15.6-17.2,6.6-4,14-6,22.1-6s13.3,1.4,18.7,4.3c5.3,2.9,9.6,6.5,12.8,10.8v-13.6h24.3v95.3h-24.3v-13.9c-3.1,4.5-7.4,8.2-12.8,11.1-5.5,2.9-11.7,4.4-18.8,4.4s-15.4-2.1-21.9-6.2c-6.6-4.1-11.8-10-15.6-17.5-3.8-7.5-5.8-16.1-5.8-25.9s1.9-18.2,5.8-25.6ZM1172.7,112.5c-2.3-4.2-5.4-7.4-9.3-9.6-3.9-2.2-8.1-3.4-12.6-3.4s-8.6,1.1-12.4,3.3c-3.8,2.2-6.8,5.4-9.2,9.6-2.4,4.2-3.5,9.1-3.5,14.9s1.2,10.8,3.5,15c2.4,4.3,5.4,7.6,9.3,9.9,3.8,2.3,7.9,3.4,12.3,3.4s8.7-1.1,12.6-3.3c3.9-2.2,7-5.4,9.3-9.6,2.3-4.2,3.4-9.2,3.4-15s-1.2-10.9-3.4-15.1Z"></path>
    <path class="st2" d="M1248.1,47.9v127.3h-24.1V47.9h24.1Z"></path>
    <path class="st2" d="M1395.8,110.4c-3,5.6-7.8,10.2-14.3,13.6-6.5,3.4-14.7,5.2-24.5,5.2h-20.1v46.1h-24.1V55.2h44.2c9.3,0,17.2,1.6,23.7,4.8,6.5,3.2,11.4,7.6,14.7,13.2,3.3,5.6,4.9,12,4.9,19.1s-1.5,12.4-4.6,18.1ZM1370.7,105.1c3.2-3,4.8-7.3,4.8-12.8,0-11.7-6.5-17.5-19.6-17.5h-19.1v34.9h19.1c6.7,0,11.6-1.5,14.8-4.6Z"></path>
    <path class="st2" d="M1416.9,101.6c3.8-7.5,9.1-13.2,15.6-17.2,6.6-4,14-6,22.1-6s13.3,1.4,18.7,4.3c5.3,2.9,9.6,6.5,12.8,10.8v-13.6h24.3v95.3h-24.3v-13.9c-3.1,4.5-7.4,8.2-12.8,11.1-5.5,2.9-11.7,4.4-18.8,4.4s-15.4-2.1-21.9-6.2c-6.6-4.1-11.8-10-15.6-17.5-3.8-7.5-5.8-16.1-5.8-25.9s1.9-18.2,5.8-25.6ZM1482.7,112.5c-2.3-4.2-5.4-7.4-9.3-9.6-3.9-2.2-8.1-3.4-12.6-3.4s-8.6,1.1-12.4,3.3c-3.8,2.2-6.8,5.4-9.2,9.6-2.4,4.2-3.5,9.1-3.5,14.9s1.2,10.8,3.5,15c2.4,4.3,5.4,7.6,9.3,9.9,3.8,2.3,7.9,3.4,12.3,3.4s8.7-1.1,12.6-3.3c3.9-2.2,7-5.4,9.3-9.6,2.3-4.2,3.4-9.2,3.4-15s-1.2-10.9-3.4-15.1Z"></path>
    <path class="st2" d="M1558.1,47.9v127.3h-24.1V47.9h24.1Z"></path>
    <path class="st2" d="M1669.7,134.8h-69.7c.6,6.9,3,12.3,7.2,16.2,4.2,3.9,9.4,5.8,15.6,5.8,8.9,0,15.3-3.8,19.1-11.5h26c-2.8,9.2-8,16.7-15.8,22.6-7.8,5.9-17.4,8.9-28.7,8.9s-17.4-2-24.7-6.1c-7.3-4.1-13-9.8-17-17.3s-6.1-16.1-6.1-25.8,2-18.5,6-26c4-7.5,9.6-13.2,16.9-17.2,7.2-4,15.5-6,24.9-6s17.2,2,24.3,5.8c7.2,3.9,12.7,9.4,16.7,16.6,3.9,7.2,5.9,15.4,5.9,24.7s-.2,6.5-.7,9.3ZM1645.4,118.6c-.1-6.2-2.4-11.2-6.7-14.9-4.4-3.7-9.7-5.6-16-5.6s-11,1.8-15.1,5.4c-4.1,3.6-6.6,8.6-7.5,15.1h45.2Z"></path>
    <path class="st2" d="M1716,99.7v46.1c0,3.2.8,5.5,2.3,7s4.2,2.2,7.8,2.2h11.2v20.3h-15.1c-20.3,0-30.4-9.9-30.4-29.6v-45.9h-11.3v-19.8h11.3v-23.6h24.3v23.6h21.3v19.8h-21.3Z"></path>
    <path class="st2" d="M1782.7,99.7v46.1c0,3.2.8,5.5,2.3,7,1.6,1.4,4.2,2.2,7.8,2.2h11.2v20.3h-15.1c-20.3,0-30.4-9.9-30.4-29.6v-45.9h-11.3v-19.8h11.3v-23.6h24.3v23.6h21.3v19.8h-21.3Z"></path>
    <path class="st2" d="M1909.3,134.8h-69.7c.6,6.9,3,12.3,7.2,16.2,4.2,3.9,9.4,5.8,15.6,5.8,8.9,0,15.3-3.8,19.1-11.5h26c-2.8,9.2-8,16.7-15.8,22.6-7.8,5.9-17.4,8.9-28.7,8.9s-17.4-2-24.7-6.1c-7.3-4.1-13-9.8-17-17.3s-6.1-16.1-6.1-25.8,2-18.5,6-26c4-7.5,9.6-13.2,16.9-17.2,7.2-4,15.5-6,24.9-6s17.2,2,24.3,5.8c7.2,3.9,12.7,9.4,16.7,16.6,3.9,7.2,5.9,15.4,5.9,24.7s-.2,6.5-.7,9.3ZM1885.1,118.6c-.1-6.2-2.4-11.2-6.7-14.9-4.4-3.7-9.7-5.6-16-5.6s-11,1.8-15.1,5.4c-4.1,3.6-6.6,8.6-7.5,15.1h45.2Z"></path>
    <path class="st2" d="M564.6,365.7c-6.4-2.8-11.5-6.8-15.1-11.9-3.7-5.2-5.5-11.2-5.5-18.1h21c.4,5.2,2.5,9.4,6.1,12.7,3.6,3.3,8.7,5,15.2,5s12.1-1.6,15.8-4.9c3.8-3.3,5.7-7.5,5.7-12.6s-1.2-7.3-3.5-9.8c-2.4-2.5-5.3-4.5-8.8-5.8-3.5-1.4-8.4-2.9-14.6-4.5-7.8-2.1-14.1-4.2-19-6.3s-9-5.4-12.5-9.9c-3.4-4.5-5.1-10.4-5.1-17.9s1.7-12.9,5.1-18.1c3.4-5.2,8.3-9.1,14.4-11.9,6.2-2.8,13.4-4.1,21.5-4.1,11.6,0,21.1,2.9,28.5,8.7,7.4,5.8,11.5,13.7,12.3,23.8h-21.7c-.4-4.4-2.4-8.1-6.2-11.2-3.8-3.1-8.8-4.6-15-4.6s-10.2,1.4-13.8,4.3c-3.6,2.9-5.3,7-5.3,12.4s1.1,6.7,3.4,9c2.2,2.4,5.1,4.2,8.5,5.6,3.4,1.4,8.1,2.9,14.1,4.5,7.9,2.2,14.4,4.4,19.3,6.5,5,2.2,9.2,5.5,12.7,10.1,3.5,4.5,5.2,10.6,5.2,18.1s-1.6,11.8-4.9,17.2c-3.3,5.4-8,9.7-14.3,13-6.3,3.3-13.6,4.9-22.1,4.9s-15.2-1.4-21.7-4.2Z"></path>
    <path class="st2" d="M673.7,290v52.5c0,3.6.8,6.1,2.5,7.7,1.7,1.6,4.5,2.3,8.5,2.3h12.1v16.3h-15.5c-8.8,0-15.6-2.1-20.3-6.2-4.7-4.1-7.1-10.8-7.1-20.1v-52.5h-11.2v-16h11.2v-23.6h19.8v23.6h23.1v16h-23.1Z"></path>
    <path class="st2" d="M800.6,274v94.8h-19.6v-11.2c-3.1,3.9-7.1,7-12.1,9.2-5,2.2-10.3,3.3-15.9,3.3s-14.1-1.5-20-4.6c-5.9-3.1-10.6-7.7-13.9-13.8s-5.1-13.4-5.1-22v-55.7h19.4v52.8c0,8.5,2.1,15,6.4,19.5,4.2,4.5,10,6.8,17.4,6.8s13.1-2.3,17.5-6.8c4.3-4.5,6.4-11,6.4-19.5v-52.8h19.6Z"></path>
    <path class="st2" d="M825.8,295.6c3.9-7.3,9.3-13.1,16.2-17.1,6.8-4.1,14.4-6.1,22.8-6.1s12.3,1.3,18.3,4c6,2.7,10.8,6.3,14.4,10.8v-45.8h19.8v127.3h-19.8v-14.3c-3.2,4.6-7.7,8.4-13.3,11.4-5.7,3-12.2,4.5-19.5,4.5s-15.8-2.1-22.6-6.3c-6.8-4.2-12.2-10-16.2-17.5-4-7.5-5.9-16-5.9-25.5s2-17.9,5.9-25.3ZM893.4,304.2c-2.7-4.8-6.2-8.5-10.6-11-4.3-2.5-9.1-3.8-14.1-3.8s-9.8,1.2-14.1,3.7c-4.4,2.5-7.9,6.1-10.6,10.8-2.7,4.8-4,10.4-4,16.9s1.3,12.3,4,17.2c2.7,4.9,6.3,8.7,10.7,11.3s9.1,3.9,14,3.9,9.7-1.3,14.1-3.8c4.4-2.5,7.9-6.2,10.6-11.1,2.7-4.9,4.1-10.6,4.1-17.1s-1.4-12.2-4.1-17Z"></path>
    <path class="st2" d="M944.1,257.8c-2.4-2.4-3.6-5.4-3.6-8.9s1.2-6.5,3.6-8.9c2.4-2.4,5.4-3.6,8.9-3.6s6.4,1.2,8.8,3.6c2.4,2.4,3.6,5.4,3.6,8.9s-1.2,6.5-3.6,8.9c-2.4,2.4-5.3,3.6-8.8,3.6s-6.6-1.2-8.9-3.6ZM962.7,274v94.8h-19.6v-94.8h19.6Z"></path>
    <path class="st2" d="M1005.3,364.2c-7.2-4.1-12.9-9.8-17-17.2-4.1-7.4-6.2-16-6.2-25.7s2.1-18.2,6.4-25.6c4.2-7.5,10-13.2,17.4-17.2,7.3-4,15.5-6,24.6-6s17.3,2,24.6,6c7.3,4,13.1,9.8,17.4,17.2,4.2,7.5,6.4,16,6.4,25.6s-2.2,18.2-6.5,25.6c-4.4,7.5-10.3,13.2-17.8,17.3-7.5,4.1-15.8,6.1-24.9,6.1s-17-2-24.3-6.1ZM1043.8,349.7c4.4-2.4,8-6,10.8-10.8,2.8-4.8,4.1-10.7,4.1-17.5s-1.3-12.7-4-17.5c-2.6-4.8-6.1-8.3-10.5-10.8-4.4-2.4-9.1-3.6-14.1-3.6s-9.7,1.2-14,3.6c-4.3,2.4-7.7,6-10.2,10.8-2.5,4.8-3.8,10.6-3.8,17.5,0,10.2,2.6,18.1,7.8,23.7,5.2,5.6,11.8,8.3,19.7,8.3s9.8-1.2,14.2-3.6Z"></path>
    <path class="st2" d="M1222.3,302c-2.9,5.4-7.5,9.8-13.8,13.2-6.3,3.4-14.4,5.1-24.3,5.1h-21.7v48.5h-19.6v-119.6h41.3c9.2,0,16.9,1.6,23.3,4.7,6.4,3.1,11.1,7.4,14.3,12.8,3.2,5.4,4.7,11.4,4.7,18.1s-1.4,11.8-4.3,17.2ZM1200.9,299.2c3.7-3.4,5.5-8.2,5.5-14.4,0-13.1-7.4-19.6-22.2-19.6h-21.7v39h21.7c7.5,0,13-1.7,16.7-5.1Z"></path>
    <path class="st2" d="M1282,351.2l26.8-77.2h20.8l-36.1,94.8h-23.4l-36-94.8h21l26.8,77.2Z"></path>
    <path class="st2" d="M1367.3,290v52.5c0,3.6.8,6.1,2.5,7.7,1.7,1.6,4.5,2.3,8.5,2.3h12.1v16.3h-15.5c-8.8,0-15.6-2.1-20.3-6.2-4.7-4.1-7.1-10.8-7.1-20.1v-52.5h-11.2v-16h11.2v-23.6h19.8v23.6h23.1v16h-23.1Z"></path>
    <path class="st2" d="M1407.4,366.4c-2.4-2.4-3.6-5.4-3.6-8.9s1.2-6.5,3.6-8.9c2.4-2.4,5.4-3.6,8.9-3.6s6.4,1.2,8.8,3.6c2.4,2.4,3.6,5.4,3.6,8.9s-1.2,6.5-3.6,8.9c-2.4,2.4-5.3,3.6-8.8,3.6s-6.5-1.2-8.9-3.6Z"></path>
    <path class="st2" d="M1514.2,352.9h40.4v15.8h-60v-119.6h19.6v103.7Z"></path>
    <path class="st2" d="M1593.8,290v52.5c0,3.6.8,6.1,2.5,7.7,1.7,1.6,4.5,2.3,8.5,2.3h12.1v16.3h-15.5c-8.8,0-15.6-2.1-20.3-6.2-4.7-4.1-7.1-10.8-7.1-20.1v-52.5h-11.2v-16h11.2v-23.6h19.8v23.6h23.1v16h-23.1Z"></path>
    <path class="st2" d="M1634.3,295.6c3.9-7.3,9.3-13.1,16.2-17.1,6.8-4.1,14.4-6.1,22.8-6.1s12.3,1.3,18.3,4c6,2.7,10.8,6.3,14.4,10.8v-45.8h19.8v127.3h-19.8v-14.3c-3.2,4.6-7.7,8.4-13.3,11.4-5.7,3-12.2,4.5-19.5,4.5s-15.8-2.1-22.6-6.3c-6.8-4.2-12.2-10-16.2-17.5-4-7.5-5.9-16-5.9-25.5s2-17.9,5.9-25.3ZM1701.9,304.2c-2.7-4.8-6.2-8.5-10.6-11-4.3-2.5-9.1-3.8-14.1-3.8s-9.8,1.2-14.1,3.7c-4.4,2.5-7.9,6.1-10.6,10.8-2.7,4.8-4,10.4-4,16.9s1.3,12.3,4,17.2c2.7,4.9,6.3,8.7,10.7,11.3,4.4,2.6,9.1,3.9,14,3.9s9.7-1.3,14.1-3.8c4.4-2.5,7.9-6.2,10.6-11.1,2.7-4.9,4.1-10.6,4.1-17.1s-1.4-12.2-4.1-17Z"></path>
    <path class="st2" d="M1750.5,366.4c-2.4-2.4-3.6-5.4-3.6-8.9s1.2-6.5,3.6-8.9c2.4-2.4,5.4-3.6,8.9-3.6s6.4,1.2,8.8,3.6c2.4,2.4,3.6,5.4,3.6,8.9s-1.2,6.5-3.6,8.9c-2.4,2.4-5.3,3.6-8.8,3.6s-6.5-1.2-8.9-3.6Z"></path>
  </g>
</svg>
