<?xml version="1.0" encoding="utf-8"?>
<!-- Generator: Adobe Illustrator 26.1.0, SVG Export Plug-In . SVG Version: 6.00 Build 0)  -->
<svg version="1.1" id="Layer_1" xmlns="http://www.w3.org/2000/svg" xmlns:xlink="http://www.w3.org/1999/xlink" x="0px" y="0px"
	 viewBox="0 0 512 512" style="enable-background:new 0 0 512 512;" xml:space="preserve">
<style type="text/css">
	.st0{fill:#F16622;}
	.st1{fill:#1D3B6C;}
</style>
<g>
	<path class="st0" d="M120.05,308.16h90.8V204.28H11.14c-3.55,16.79-5.45,34.18-5.45,52.03c0,17.78,1.89,35.12,5.41,51.85l0.06,0.33
		C34.97,421.53,135.8,506.1,255.69,506.31V402.14C193.71,401.96,140.87,362.97,120.05,308.16z"/>
	<path class="st1" d="M256.12,6.31C136.1,6.31,35.91,91.19,12,204.28h61.54h46.58c20.92-54.84,73.91-93.81,136.01-93.81
		c62.19,0,115.24,39.08,136.1,94.04H264.74c-0.11,0.3-0.22,0.6-0.33,0.89v101.82c0.11,0.29,0.21,0.59,0.32,0.88h127.49h94.26h13.81
		c3.52-16.71,5.4-34.03,5.4-51.79C505.69,118.24,393.96,6.31,256.12,6.31z"/>
	<g>
		<rect x="289.01" y="402.14" class="st1" width="103.99" height="104.17"/>
		<rect x="393.09" y="350.05" class="st0" width="51.91" height="52"/>
	</g>
</g>
</svg>
